<svg id="Coal_Mining" data-name="Coal Mining" xmlns="http://www.w3.org/2000/svg" width="552.949" height="400" viewBox="0 0 552.949 400">
  <path id="Path_2502" data-name="Path 2502" d="M1435.906,540.238l-166.544,207.9-73.1,5.716c1.637,4.583,3.1,9.229,4.428,13.909q1.48,5.22,2.75,10.5l71.457-5.965L1451,558.4Z" transform="translate(-935.015 -522.902)" fill="#ee464b"/>
  <g id="Group_101" data-name="Group 101" transform="translate(-935.015 -522.902)">
    <g id="Group_6" data-name="Group 6">
      <g id="Group_1" data-name="Group 1">
        <path id="Path_1" data-name="Path 1" d="M1373.554,833.192a3.312,3.312,0,0,1-1.706,2.922l-7.145,4.141L1226.749,760.6l-137.793,79.654-7.145-4.141a3.312,3.312,0,0,1-1.706-2.922l-.242-165.645a3.312,3.312,0,0,1,1.7-2.923l143.557-82.578a3.625,3.625,0,0,1,3.41,0l5.116,2.923-.081,160.69,139.984,80.79Z" fill="#6d81d5"/>
      </g>
      <g id="Group_2" data-name="Group 2">
        <path id="Path_2" data-name="Path 2" d="M1373.067,834.978a3.494,3.494,0,0,1-1.218,1.219l-143.557,82.577a3.625,3.625,0,0,1-3.41,0L1081.812,836.2a2.929,2.929,0,0,1-1.219-1.219l146.156-84.526Z" fill="#2944ae"/>
      </g>
      <g id="Group_3" data-name="Group 3">
        <path id="Path_3" data-name="Path 3" d="M1373.067,834.978a3.494,3.494,0,0,1-1.218,1.219l-143.557,82.577a3.625,3.625,0,0,1-3.41,0L1081.812,836.2a2.929,2.929,0,0,1-1.219-1.219l146.156-84.526Z" fill="#2944ae"/>
      </g>
      <path id="Path_4" data-name="Path 4" d="M1307.135,796.816v.162l-75.27,43.6a10.04,10.04,0,0,1-10.231,0l-75.27-43.6V796.9l80.466-46.527Z" fill="#213993"/>
      <g id="Group_4" data-name="Group 4">
        <path id="Path_5" data-name="Path 5" d="M1373.067,834.978a3.494,3.494,0,0,1-1.219,1.218l-143.556,82.578a3.625,3.625,0,0,1-3.41,0l-15.022-8.689L1334.9,838.144a3.43,3.43,0,0,0,0-5.928l-124.963-72.187h0l16.727-9.659Z" fill="#213993"/>
      </g>
      <g id="Group_5" data-name="Group 5">
        <path id="Path_6" data-name="Path 6" d="M1373.554,833.191a3,3,0,0,1-.487,1.705l-146.4-84.446.081-168.809a3.192,3.192,0,0,1,1.7.487l143.07,82.578a3.315,3.315,0,0,1,1.706,2.923Z" fill="#5169cd"/>
      </g>
      <path id="Path_7" data-name="Path 7" d="M1373.554,833.191a3,3,0,0,1-.487,1.705l-20.543-11.855v-145.1l-125.775-72.837V581.641a3.407,3.407,0,0,1,1.7.487l143.07,82.578a3.315,3.315,0,0,1,1.706,2.923Z" fill="#3351c5"/>
    </g>
    <g id="Group_11" data-name="Group 11">
      <g id="Group_7" data-name="Group 7">
        <path id="Path_8" data-name="Path 8" d="M1202.39,844.559a8.579,8.579,0,0,0,2.518-.406,8.536,8.536,0,0,1,5.684.082,7.585,7.585,0,0,0,2.355.406,7.24,7.24,0,0,0,4.223-1.3,8.712,8.712,0,0,1,5.115-1.624h1.868V840.5l4.547.081a1.375,1.375,0,0,0,1.448,1.3h.988l.081-6.578h-.974a1.376,1.376,0,0,0-1.461,1.286v.014l-4.547-.081V835.14h-1.868a8.787,8.787,0,0,1-5.115-1.706,7.3,7.3,0,0,0-4.222-1.38,8.572,8.572,0,0,0-2.518.406,8.307,8.307,0,0,1-5.6-.081,7.517,7.517,0,0,0-2.355-.406,8.571,8.571,0,0,0-2.517.406,8.515,8.515,0,0,1-5.846-.082,8.692,8.692,0,0,0-2.518-.487,7.24,7.24,0,0,0-4.222,1.3h0a3.791,3.791,0,0,0-1.706,3.085v3.653a3.923,3.923,0,0,0,1.625,3.085h0a7.284,7.284,0,0,0,4.222,1.381,8.574,8.574,0,0,0,2.517-.406,8.517,8.517,0,0,1,5.847.081A4.891,4.891,0,0,0,1202.39,844.559Z" fill="#26d192"/>
      </g>
      <path id="Path_9" data-name="Path 9" d="M1264.588,723.9c-33.614-21.842-38.813-45.877-38.813-45.877s-3.085,23.953-36.782,45.877c-33.616,21.842-48.8,37.026-47.094,65.607s28.581,37.026,28.581,37.026h112.539s26.876-8.445,28.582-37.026C1313.387,760.926,1298.288,745.742,1264.588,723.9Z" fill="#213993"/>
      <g id="Group_8" data-name="Group 8">
        <path id="Path_10" data-name="Path 10" d="M1252.408,792.186c-3.249-4.546-8.282-20.623-10.558-28.256-.73-2.518-1.218-4.141-1.218-4.141-.081,0-.162-.081-.243-.081-.406-1.543-.731-3-.975-4.141a9.792,9.792,0,0,0,4.873-8.444h-5.764a8.508,8.508,0,0,0,.406-2.437,11.2,11.2,0,0,0-.894-4.141l14.534-10.8-5.2-6.333-11.936,13.073a18.088,18.088,0,0,0-2.193-2.112,10.852,10.852,0,0,1-4.141-8.525,11.077,11.077,0,0,1,3.735-8.444,8.417,8.417,0,0,0,0-13.155,11.077,11.077,0,0,1-3.735-8.444v-2.759a11.077,11.077,0,0,1,3.735-8.444,8.417,8.417,0,0,0,0-13.155A11.077,11.077,0,0,1,1229.1,663V652.527h3V650.5a3.05,3.05,0,0,1,3-3,9.045,9.045,0,0,0,9.012-9.013h-13.315a11.039,11.039,0,0,0,5.44-8.039l1.137-7.957h-24.521l1.381,8.282a11.122,11.122,0,0,0,5.359,7.714h-13.56a9.045,9.045,0,0,0,9.012,9.013h0a3.05,3.05,0,0,1,3,3v2.03h3.166V663a11.076,11.076,0,0,1-3.734,8.444,8.411,8.411,0,0,0,0,13.154,11.08,11.08,0,0,1,3.735,8.45v2.761a11.077,11.077,0,0,1-3.734,8.444,8.413,8.413,0,0,0,0,13.155,11.077,11.077,0,0,1,3.734,8.444,10.855,10.855,0,0,1-4.14,8.525,4.568,4.568,0,0,0-.65.569l-3.249,3.978a11.367,11.367,0,0,0-1.786,5.765,8.506,8.506,0,0,0,.406,2.436h-5.765a9.694,9.694,0,0,0,3.735,7.633l-.244,1.218h-.081l-1.137,4.953h.243c-.568,3-1.38,6.578-2.355,10.312-1.949,7.471-4.547,15.509-7.876,20.868-7.877,12.748-13.722,11.936-13.722,19.812h0c0,9.094,8.363,16.4,17.457,16.4h44.5c9.094,0,18.919-7.389,18.919-16.4h0C1265.643,804.125,1260.2,802.986,1252.408,792.186Z" fill="#1ec186"/>
      </g>
      <g id="Group_9" data-name="Group 9">
        <path id="Path_11" data-name="Path 11" d="M1176.406,841.067c-10.8-.568-23.629-9.418-25.577-21.761-1.3-8.281,1.706-24.278,36.864-38a87.167,87.167,0,0,1,8.525-2.841c-2.68-2.761-5.115-5.522-7.389-8.363-12.505-15.59-17.3-29.881-13.561-40.356,2.274-6.415,6.415-10.718,12.261-12.911a24.453,24.453,0,0,1,7.39-1.543c-5.928-9.012-9.988-17.945-11.531-25.987-1.786-9.094-.324-16.564,4.3-22.248,5.685-6.9,14.618-9.338,25.658-7.065,20.543,4.141,43.278,23.3,48.556,41.005,5.2,17.377-13.154,30.206-13.966,30.693l-2.761-3.979c.163-.081,16.242-11.369,12.018-25.333-4.791-15.915-26.146-33.778-44.9-37.594-6.415-1.3-15.265-1.381-20.949,5.44-3.653,4.466-4.79,10.557-3.328,18.188,1.624,8.2,6.171,17.539,12.748,26.958,19.163,1.381,44.171,15.021,61.873,24.6l1.055.569c19.082,10.393,31.424,26.064,27.039,34.265-2.192,4.061-9.662,8.688-35.321-4.953-22.573-12.017-43.684-30.854-57.245-49.774a25.783,25.783,0,0,0-8.933,1.381c-4.466,1.705-7.552,5.034-9.419,10.068-3.166,8.85,1.3,21.517,12.749,35.727a113.658,113.658,0,0,0,9.094,9.99c33.373-7.226,63.09,5.847,75.351,17.377,5.766,5.44,8.122,10.8,6.74,15.184-.893,2.761-3.654,6.252-11.774,7.309-20.461,2.679-50.586-14.21-71.778-34.591a90.728,90.728,0,0,0-10.718,3.41c-23.71,9.256-35.728,20.868-33.86,32.723,1.543,9.581,12.423,17.214,21.115,17.62Zm29.638-59.761c19.974,18.27,47.175,33.372,65.282,30.936,4.385-.568,7.227-2.03,7.8-3.978.812-2.437-1.218-6.253-5.44-10.231C1261.908,786.99,1234.954,776.353,1206.044,781.306Zm-1.219-60.655a173.343,173.343,0,0,0,52.941,44.822c19.974,10.636,27.521,9.175,28.744,6.983,1.949-3.654-5.034-16.808-25.09-27.689l-1.055-.568C1245.262,735.916,1222.527,723.574,1204.825,720.651Z" fill="#9ff7d3"/>
      </g>
      <g id="Group_10" data-name="Group 10">
        <rect id="Rectangle_1" data-name="Rectangle 1" width="14.534" height="7.227" transform="translate(1174.052 834.734)" fill="#26d192"/>
      </g>
    </g>
  </g>
  <rect id="Rectangle_45" data-name="Rectangle 45" width="552.949" height="35.132" rx="17.566" transform="translate(0 364.868)" fill="#c5c39c"/>
  <path id="Path_2503" data-name="Path 2503" d="M1326.658,902.778l-20.174-14.82,14.432-20.934Z" transform="translate(-935.015 -522.902)" fill="#484f5f"/>
  <path id="Path_2504" data-name="Path 2504" d="M1036.557,709.449a23.343,23.343,0,0,1-2.176,3.264c-1.015,1.16-.362,3.844-1.015,4.062a2.906,2.906,0,0,1-1.575-.119s-.891,2.295-1.254,2.367-.435.218-.653.726-.507,0-1.305.8-4.062-1.015-3.989-1.668-.935,1.447-.935,1.447-5.354,3.262-7.624.421-3.413-9.112-3.413-9.112,3.05-2.4,3.413-2.765,5.875-8.487,5.875-8.487Z" transform="translate(-935.015 -522.902)" fill="#fab27d"/>
  <path id="Path_2505" data-name="Path 2505" d="M982.332,760.457s-3.786,4.577-4.139,7.755-3.88,42.448-4.468,51.383-7.054,30.922-7.525,35.154-1.763,19.4-1.763,19.4l14.109-1.646s6.819-31.039,7.524-35.154,6.82-38.917,11.052-39.74,7.29,35.977,7.76,39.622,0,37.388,0,37.388l12.7.823s2.939-48.205,2.7-50.321-4.41-57.055-4.41-57.055Z" transform="translate(-935.015 -522.902)" fill="#e28225"/>
  <path id="Path_2506" data-name="Path 2506" d="M1326.658,902.778l-7.731-48.141,14.758-20.381,10.542-16.84,32.328-3.218,17.57,4.782h11.245l10.051,2.977,5.762,9.839,1.757,12.3,25.3,4.217,14.164,16.164,1.649,15.461-10.542,22.84-20.732,9.136-85.037,2.811Z" transform="translate(-935.015 -522.902)" fill="#505768"/>
  <path id="Path_2507" data-name="Path 2507" d="M1318.927,854.638h9.488l50.249,28.814-26.706,21.435-4.217,9.839-21.083-11.947Z" transform="translate(-935.015 -522.902)" fill="#6e717d"/>
  <path id="Path_2508" data-name="Path 2508" d="M1453.51,902.778,1425.4,894.7l-4.568-10.015-42.167-1.23-25.508,20.473-5.415,10.8,85.037-2.811Z" transform="translate(-935.015 -522.902)" fill="#323742"/>
  <path id="Path_2509" data-name="Path 2509" d="M1420.831,884.682l23.192,2.987,20.029-7.731-10.542,22.84L1425.4,894.7Z" transform="translate(-935.015 -522.902)" fill="#6e717d"/>
  <path id="Path_2510" data-name="Path 2510" d="M1344.228,817.417l9.839,17.542,26.354-5.622,13.7-10.356h11.245l10.051,2.977,5.762,9.839,1.757,12.3L1387.1,834.96l-33.382,6.325.7,11.6-26,1.757h-9.488Z" transform="translate(-935.015 -522.902)" fill="#484f5f"/>
  <path id="Path_2511" data-name="Path 2511" d="M1328.415,854.638l26-1.757,24.246,18.272,69.576-22.84,14.164,16.164,1.649,15.461-20.029,7.731-23.192-2.987-42.167-1.23Z" transform="translate(-935.015 -522.902)" fill="#4c5260"/>
  <g id="Group_102" data-name="Group 102" transform="translate(-935.015 -522.902)">
    <path id="Path_2512" data-name="Path 2512" d="M1425.71,844.558c-.042.1-.083.191-.121.288a6.882,6.882,0,0,0-.291.948c-.043.2-.078.389-.1.585a6.563,6.563,0,0,0,4.117,6.967h0a6.565,6.565,0,0,0,8.924-6.7Z" fill="#424956"/>
  </g>
  <path id="Path_2513" data-name="Path 2513" d="M1141.077,899.19l9.939-48.141-18.974-20.381-13.553-16.84-41.562-3.218-22.588,4.782h-14.457l-12.921,2.977-7.408,9.839-2.259,12.3-32.527,4.217-18.21,16.164-2.12,15.461,13.553,22.84,26.654,9.136,109.327,2.811Z" transform="translate(-935.015 -522.902)" fill="#505768"/>
  <path id="Path_2514" data-name="Path 2514" d="M1151.015,851.05h-12.2l-64.6,28.814L1108.55,901.3l5.421,9.839,27.106-11.947Z" transform="translate(-935.015 -522.902)" fill="#6e717d"/>
  <path id="Path_2515" data-name="Path 2515" d="M977.99,899.19l36.141-8.082L1020,881.094l54.212-1.23,32.794,20.473,6.961,10.8-109.327-2.811Z" transform="translate(-935.015 -522.902)" fill="#323742"/>
  <path id="Path_2516" data-name="Path 2516" d="M1020,881.094l-29.816,2.987-25.751-7.731,13.553,22.84,36.141-8.082Z" transform="translate(-935.015 -522.902)" fill="#6e717d"/>
  <path id="Path_2517" data-name="Path 2517" d="M1118.488,813.829l-12.649,17.542-33.882-5.622-17.619-10.356h-14.457l-12.921,2.977-7.408,9.839-2.259,12.3,46.08-9.136,42.917,6.325-.9,11.6,33.431,1.757h12.2Z" transform="translate(-935.015 -522.902)" fill="#484f5f"/>
  <path id="Path_2518" data-name="Path 2518" d="M1138.818,851.05l-33.431-1.757-31.172,18.272-89.449-22.84-18.21,16.164-2.12,15.461,25.751,7.731L1020,881.094l54.212-1.23Z" transform="translate(-935.015 -522.902)" fill="#4c5260"/>
  <path id="Path_2519" data-name="Path 2519" d="M1068.255,813.25l2.9,4.994-1.451.77.867,2.373-.58.9,1.806,4.617-3.078-4.746.641-.9-1.105-2.565.592-.9-3.019-4.459Z" transform="translate(-935.015 -522.902)" fill="#323742"/>
  <g id="Group_103" data-name="Group 103" transform="translate(-935.015 -522.902)">
    <path id="Path_2520" data-name="Path 2520" d="M1044.232,840.97c.043.1.084.191.122.288a6.72,6.72,0,0,1,.29.949c.043.194.079.388.1.584a6.563,6.563,0,0,1-4.117,6.967h0a6.564,6.564,0,0,1-8.923-6.7Z" fill="#424956"/>
  </g>
  <path id="Path_2521" data-name="Path 2521" d="M1151.015,851.05l19.929,28.814-8.437,13.086,36.032,15.719-57.464-9.478Z" transform="translate(-935.015 -522.902)" fill="#4c5260"/>
  <path id="Path_2522" data-name="Path 2522" d="M1113.971,911.138l84.57-2.469-57.464-9.478Z" transform="translate(-935.015 -522.902)" fill="#323742"/>
  <path id="Path_2523" data-name="Path 2523" d="M1170.945,879.864l27.6,20.692v8.113l-36.032-15.719Z" transform="translate(-935.015 -522.902)" fill="#505768"/>
  <g id="Group_107" data-name="Group 107" transform="translate(-935.015 -522.902)">
    <g id="Group_104" data-name="Group 104">
      <path id="Path_2524" data-name="Path 2524" d="M1160.156,888.567a5.3,5.3,0,0,1,4.932,9.386h0l-4.931-9.385Z" fill="#e0a626"/>
      <path id="Path_2525" data-name="Path 2525" d="M1157.512,894.67a4.986,4.986,0,0,1-.113-.5,5.309,5.309,0,0,1,2.757-5.6l4.931,9.385a5.3,5.3,0,0,1-6.431-1.176c-.106-.119-.206-.243-.3-.372a5.322,5.322,0,0,1-.842-1.735Z" fill="#ebb621"/>
    </g>
    <g id="Group_105" data-name="Group 105">
      <path id="Path_2526" data-name="Path 2526" d="M1160.958,890.094a3.576,3.576,0,1,1-1.5,4.829,3.58,3.58,0,0,1,1.5-4.829m-.234-.446a4.08,4.08,0,1,0,5.511,1.713,4.079,4.079,0,0,0-5.511-1.713Z" fill="#fff"/>
    </g>
    <g id="Group_106" data-name="Group 106">
      <path id="Path_2527" data-name="Path 2527" d="M1163.85,892.379a.946.946,0,0,0,.058-.983c-.38-.723-1.262-.518-1.823-.292l-.457-.869-.549.289.448.853-.355.186-.448-.853-.55.289.448.853-1.056.555.276.527.335-.177a.527.527,0,0,1,.288-.077c.169.045.3.332.3.332l.955,1.818s.218.366.154.546-.494.341-.494.341l.287.546,1-.525.432.82.549-.289-.431-.82.355-.186.431.82.549-.289-.431-.82c.149-.078,1.563-.855,1.038-1.853C1164.6,892.068,1163.85,892.379,1163.85,892.379Zm-2.393-.246s1.163-.725,1.5-.089-.946,1.138-.946,1.138Zm1.415,2.694-.577-1.1s1.379-.9,1.757-.176C1164.386,894.188,1162.872,894.827,1162.872,894.827Z" fill="#fff"/>
    </g>
  </g>
  <path id="Path_2528" data-name="Path 2528" d="M1425.339,571.889l-28.283-22.675,33.778-13.156,33.778-13.156-5.5,35.831-5.5,35.831Z" transform="translate(-935.015 -522.902)" fill="#ee464b"/>
  <path id="Path_2529" data-name="Path 2529" d="M1063.537,813.229l-7.2-7.538v-4.919Z" transform="translate(-935.015 -522.902)" fill="#f6bd2e"/>
  <path id="Path_2530" data-name="Path 2530" d="M1073.687,814.855l12.9-8.583,2.129,3.418-13.416,5.164Z" transform="translate(-935.015 -522.902)" fill="#f6bd2e"/>
  <path id="Path_2531" data-name="Path 2531" d="M1055.82,811.675l-8.836-7.984-1.741,4.579,9.352,3.4Z" transform="translate(-935.015 -522.902)" fill="#f6bd2e"/>
  <path id="Path_2532" data-name="Path 2532" d="M1083.62,815.887l10.786-1.424-.854,2.515-8.642-.323Z" transform="translate(-935.015 -522.902)" fill="#f6bd2e"/>
  <path id="Path_2533" data-name="Path 2533" d="M1057.861,816.979l-7.731.907,1.406,2.46Z" transform="translate(-935.015 -522.902)" fill="#f6bd2e"/>
  <path id="Path_2534" data-name="Path 2534" d="M1083.62,821.875l-2.419,2.057-5.419-5.27Z" transform="translate(-935.015 -522.902)" fill="#f6bd2e"/>
  <path id="Path_2535" data-name="Path 2535" d="M1012.618,711.634l-20.55,16.208S981.6,750.827,981.4,762.32c0,0,19.6,13.389,35.2,12.158l10.673-32.235h12.974s-6.514-14.4-10-17.48a36.9,36.9,0,0,0-6.157-4.515S1015.491,724.153,1012.618,711.634Z" transform="translate(-935.015 -522.902)" fill="#2e7cbf"/>
  <path id="Path_2536" data-name="Path 2536" d="M1030.392,705.17s-2.539,1.813-2.684,2.828-3.12.653-3.12.653,2.032-3.119.582-4.279-3.99.208-4.57,2.171,0,2.688,0,2.688l-4.569-.362s.943-8.414,2.176-9.067S1030.392,705.17,1030.392,705.17Z" transform="translate(-935.015 -522.902)" fill="#8c3a1e"/>
  <path id="Path_2537" data-name="Path 2537" d="M1038.443,710.564l-21.252-11.705s-1.668-2.611.58-2.829c1.771-.171,15.543,7.839,20.828,11.786,1.428,1.067,2.236,1.837,2.02,2.068A2.123,2.123,0,0,1,1038.443,710.564Z" transform="translate(-935.015 -522.902)" fill="#ebb822"/>
  <path id="Path_2538" data-name="Path 2538" d="M1019.15,697.626a1,1,0,0,1-.308-.028c-.5-.126-1.234-.752.888-3.744,2.829-3.989,8.849-7.833,15.449-3.626s7.906,11.678,2.394,17.7Z" transform="translate(-935.015 -522.902)" fill="#ebb822"/>
  <rect id="Rectangle_46" data-name="Rectangle 46" width="1.523" height="4.494" transform="translate(104.233 185.392) rotate(-149.974)" fill="#9c6d68"/>
  <g id="Group_110" data-name="Group 110" transform="translate(-935.015 -522.902)">
    <g id="Group_108" data-name="Group 108">
      <path id="Path_2539" data-name="Path 2539" d="M1020.019,782.847c2.9,1.605,46.863,7.917,51.507,8.452a25.113,25.113,0,0,1-.986,3.011s-8.625-1.242-12.5-2.184-45.542-7.558-48.951-7.795-16.1-2.295-16.1-2.295-3.187-.278-3.106-1.355c.056-.755.378-2.423.565-3.351,1.956.431,4.09.923,5.4,1.294C998.777,779.453,1016.529,780.916,1020.019,782.847Z" fill="#b85527"/>
      <path id="Path_2540" data-name="Path 2540" d="M1016.529,780.916c2.686.363,53.872,8.016,54.89,8.36.422.143.343,1.031.107,2.023-4.644-.535-48.6-6.847-51.507-8.452-3.49-1.931-21.242-3.394-24.171-4.223-1.311-.371-3.445-.863-5.4-1.294.079-.4.135-.657.135-.657s.113-.957,1.822-.553S1013.843,780.552,1016.529,780.916Z" fill="#a34724"/>
    </g>
    <g id="Group_109" data-name="Group 109">
      <path id="Path_2541" data-name="Path 2541" d="M1076.7,792.374c-.756,2.546-1.494,4.861-2.206,6.961l-3.4-.594c.489-2.372.771-3.988.771-3.988l.271-5.873a8.564,8.564,0,0,0,.7-1.569l4.453.778C1077.029,790.778,1076.7,792.374,1076.7,792.374Z" fill="#2a353b"/>
      <path id="Path_2542" data-name="Path 2542" d="M1076.439,769.494a66.8,66.8,0,0,1,.845,18.595l-4.453-.778c1.513-4.382,2.016-12.795,2.034-13.441a26.106,26.106,0,0,1,.838-3.87C1075.987,768.992,1076.439,769.494,1076.439,769.494Z" fill="#364850"/>
      <path id="Path_2543" data-name="Path 2543" d="M1066.025,817.994c-.7-.016-.034-2.279-.034-2.279,2.139-3.673,4.076-11.991,5.1-16.974l3.4.594C1069.659,813.608,1066.025,817.994,1066.025,817.994Z" fill="#364850"/>
    </g>
    <path id="Path_2544" data-name="Path 2544" d="M1071.592,788.282a.791.791,0,0,0-.919.632l-.98,5.611a.792.792,0,0,0,.65.907l6.077,1.061a.79.79,0,0,0,.919-.632l.98-5.611a.791.791,0,0,0-.65-.907Z" fill="#364850"/>
  </g>
  <path id="Path_2545" data-name="Path 2545" d="M1039.252,740.046s4.584,9.917,5,12.837,5.168,5.931,5.676,11.692,2.449,15.2,3.288,16.338,2.719,1.5,3.859,2.457,3.281,4.883,2.387,6.123-2.226-2.495-3.843-2.881-7.132-1.271-7.132-1.271a8.415,8.415,0,0,1-.555-2.7c-.015-1.371-10.684-16.58-10.728-18.109s-1.378-9.683-2.48-10.76-3.641-8.476-3.641-8.476Z" transform="translate(-935.015 -522.902)" fill="#fab27d"/>
  <path id="Path_2546" data-name="Path 2546" d="M1057.074,793.639s1.456-3.242,0-5.384-2.812-.755-2.812-.755-.416-1.124-1.44-.77-1.471.077-2.195.246-1.656,1.572-2.188,2.727-.579,2.649,1.343,3.081S1055.8,795.388,1057.074,793.639Z" transform="translate(-935.015 -522.902)" fill="#fab27d"/>
  <path id="Path_2547" data-name="Path 2547" d="M1024.588,733.678l-2.351,6.368,8.466,8.73,10.793-6.533-6.3-10.129Z" transform="translate(-935.015 -522.902)" fill="#2e7cbf"/>
  <path id="Path_2548" data-name="Path 2548" d="M996.894,783.66s-4.166-2.56-3.431-7.309-1.1-4.749-1.1-4.749l-11.829-17.434a6.972,6.972,0,0,1-.719-5.392c.9-2.876,3.6-17.435,3.6-17.435l12.042,1.8s-.965,13.48-3.089,16.176,7.18,22.326,8.632,22.755,4.9,6.823,4.9,6.823l-2.532-.64s3.447,4.793,2.532,5.721S996.894,783.66,996.894,783.66Z" transform="translate(-935.015 -522.902)" fill="#fab27d"/>
  <path id="Path_2549" data-name="Path 2549" d="M981.4,736.015l14.42,1.977,16.8-26.358s-19.858-1.681-25.07,4.07S981.4,736.015,981.4,736.015Z" transform="translate(-935.015 -522.902)" fill="#2e7cbf"/>
  <path id="Path_2550" data-name="Path 2550" d="M966.556,860.889,947.4,879.864,943,901.457l34.987-2.267-13.553-22.84Z" transform="translate(-935.015 -522.902)" fill="#505768"/>
  <path id="Path_2551" data-name="Path 2551" d="M1004.644,908.327H964.437L943,901.457l34.987-2.267Z" transform="translate(-935.015 -522.902)" fill="#484f5f"/>
  <g id="Group_111" data-name="Group 111" transform="translate(-935.015 -522.902)">
    <g id="Group_6-2" data-name="Group 6">
      <g id="Group_1-2" data-name="Group 1">
        <path id="Path_1-2" data-name="Path 1" d="M1117.645,824.178a.144.144,0,0,1-.074.126l-.308.179-5.959-3.441-5.952,3.441-.309-.179a.143.143,0,0,1-.074-.126l-.01-7.155a.142.142,0,0,1,.073-.126l6.2-3.567a.155.155,0,0,1,.148,0l.221.126,0,6.941,6.047,3.49Z" fill="#6d81d5"/>
      </g>
      <g id="Group_2-2" data-name="Group 2">
        <path id="Path_2-2" data-name="Path 2" d="M1117.624,824.255a.15.15,0,0,1-.053.053l-6.2,3.567a.159.159,0,0,1-.147,0l-6.18-3.567a.135.135,0,0,1-.053-.053l6.314-3.651Z" fill="#2944ae"/>
      </g>
      <g id="Group_3-2" data-name="Group 3">
        <path id="Path_3-2" data-name="Path 3" d="M1117.624,824.255a.15.15,0,0,1-.053.053l-6.2,3.567a.159.159,0,0,1-.147,0l-6.18-3.567a.135.135,0,0,1-.053-.053l6.314-3.651Z" fill="#2944ae"/>
      </g>
      <path id="Path_4-2" data-name="Path 4" d="M1114.776,822.607v.007l-3.251,1.883a.432.432,0,0,1-.442,0l-3.252-1.883v0l3.476-2.01Z" fill="#213993"/>
      <g id="Group_4-2" data-name="Group 4">
        <path id="Path_5-2" data-name="Path 5" d="M1117.624,824.255a.15.15,0,0,1-.053.053l-6.2,3.567a.159.159,0,0,1-.147,0l-.649-.376,5.4-3.107a.149.149,0,0,0,.054-.2.145.145,0,0,0-.054-.053l-5.4-3.118h0l.722-.418Z" fill="#213993"/>
      </g>
      <g id="Group_5-2" data-name="Group 5">
        <path id="Path_6-2" data-name="Path 6" d="M1117.645,824.178a.139.139,0,0,1-.021.074L1111.3,820.6l0-7.292a.134.134,0,0,1,.073.021l6.18,3.567a.145.145,0,0,1,.074.126Z" fill="#5169cd"/>
      </g>
      <path id="Path_7-2" data-name="Path 7" d="M1117.645,824.178a.139.139,0,0,1-.021.074l-.888-.513v-6.267l-5.432-3.146v-1.014a.144.144,0,0,1,.073.021l6.18,3.567a.145.145,0,0,1,.074.126Z" fill="#3351c5"/>
    </g>
    <g id="Group_11-2" data-name="Group 11">
      <g id="Group_7-2" data-name="Group 7">
        <path id="Path_8-2" data-name="Path 8" d="M1110.251,824.669a.336.336,0,0,0,.109-.018.377.377,0,0,1,.246,0,.315.315,0,0,0,.1.017.307.307,0,0,0,.183-.056.379.379,0,0,1,.221-.07h.08v-.052l.2,0a.059.059,0,0,0,.062.056h.043l0-.284h-.043a.06.06,0,0,0-.063.056h0l-.2,0v-.06h-.081a.377.377,0,0,1-.221-.074.314.314,0,0,0-.182-.059.365.365,0,0,0-.109.017.36.36,0,0,1-.242,0,.352.352,0,0,0-.1-.018.4.4,0,0,0-.108.018.373.373,0,0,1-.253,0,.4.4,0,0,0-.109-.021.314.314,0,0,0-.182.056h0a.168.168,0,0,0-.074.134v.157a.174.174,0,0,0,.071.134h0a.311.311,0,0,0,.182.059.371.371,0,0,0,.109-.017.364.364,0,0,1,.252,0A.216.216,0,0,0,1110.251,824.669Z" fill="#26d192"/>
      </g>
      <path id="Path_9-2" data-name="Path 9" d="M1112.938,819.457a3.61,3.61,0,0,1-1.676-1.982,3.185,3.185,0,0,1-1.589,1.982c-1.452.943-2.108,1.6-2.035,2.834a1.844,1.844,0,0,0,1.235,1.6h4.861a1.843,1.843,0,0,0,1.235-1.6C1115.046,821.056,1114.394,820.4,1112.938,819.457Z" fill="#213993"/>
      <g id="Group_8-2" data-name="Group 8">
        <path id="Path_10-2" data-name="Path 10" d="M1112.412,822.407a6.574,6.574,0,0,1-.456-1.221l-.053-.179-.01,0c-.018-.067-.032-.13-.042-.179a.423.423,0,0,0,.21-.365h-.249a.373.373,0,0,0,.018-.105.5.5,0,0,0-.039-.179l.628-.466-.225-.274-.515.565a.82.82,0,0,0-.095-.092.466.466,0,0,1-.179-.368.478.478,0,0,1,.162-.365.363.363,0,0,0,.057-.51.347.347,0,0,0-.057-.058.475.475,0,0,1-.162-.365v-.119a.474.474,0,0,1,.162-.364.364.364,0,0,0,.057-.511.391.391,0,0,0-.057-.058.474.474,0,0,1-.162-.364v-.453h.13v-.088a.132.132,0,0,1,.13-.129.391.391,0,0,0,.389-.39h-.575a.476.476,0,0,0,.235-.347l.049-.344H1110.7l.059.358a.481.481,0,0,0,.232.333h-.586a.392.392,0,0,0,.39.39h0a.131.131,0,0,1,.129.129v.088h.137v.452a.477.477,0,0,1-.161.365.364.364,0,0,0-.058.511.347.347,0,0,0,.058.057.48.48,0,0,1,.161.365v.12a.477.477,0,0,1-.161.364.364.364,0,0,0-.058.511.4.4,0,0,0,.058.058.477.477,0,0,1,.161.364.469.469,0,0,1-.179.369.2.2,0,0,0-.028.024l-.14.172a.48.48,0,0,0-.077.249.34.34,0,0,0,.017.105h-.249a.42.42,0,0,0,.161.33l-.01.053h0l-.049.213h.011c-.025.13-.06.285-.1.446a3.5,3.5,0,0,1-.34.9c-.34.551-.593.516-.593.856h0a.747.747,0,0,0,.754.709h1.922a.811.811,0,0,0,.818-.709h0C1112.984,822.922,1112.749,822.873,1112.412,822.407Z" fill="#1ec186"/>
      </g>
      <g id="Group_9-2" data-name="Group 9">
        <path id="Path_11-2" data-name="Path 11" d="M1109.129,824.518a1.223,1.223,0,0,1-1.1-.94c-.056-.358.074-1.049,1.593-1.641a3.6,3.6,0,0,1,.368-.123c-.116-.119-.221-.239-.319-.361a1.954,1.954,0,0,1-.586-1.743.874.874,0,0,1,.529-.558,1.062,1.062,0,0,1,.32-.067,3.22,3.22,0,0,1-.5-1.122,1.116,1.116,0,0,1,.185-.961,1.074,1.074,0,0,1,1.109-.306,3.039,3.039,0,0,1,2.1,1.772c.225.75-.568,1.3-.6,1.325l-.119-.171c.007,0,.7-.491.519-1.1a2.854,2.854,0,0,0-1.94-1.624.9.9,0,0,0-.9.235.915.915,0,0,0-.143.786,3.249,3.249,0,0,0,.55,1.165,7.872,7.872,0,0,1,2.673,1.062l.045.025c.825.449,1.358,1.126,1.168,1.48-.094.175-.417.375-1.525-.214a7.543,7.543,0,0,1-2.473-2.15,1.1,1.1,0,0,0-.386.06.687.687,0,0,0-.407.435c-.137.382.056.929.551,1.543a4.836,4.836,0,0,0,.393.431,3.843,3.843,0,0,1,3.255.751c.249.235.35.466.291.656-.039.119-.158.27-.509.316a4.592,4.592,0,0,1-3.1-1.495,3.892,3.892,0,0,0-.463.148c-1.025.4-1.544.9-1.463,1.413a1.031,1.031,0,0,0,.912.761Zm1.28-2.581a4.3,4.3,0,0,0,2.82,1.336c.19-.025.312-.088.337-.172.035-.105-.053-.27-.235-.442A3.657,3.657,0,0,0,1110.409,821.937Zm-.052-2.62a7.485,7.485,0,0,0,2.286,1.936c.863.459,1.189.4,1.242.3.084-.157-.217-.726-1.084-1.2l-.045-.024A8.857,8.857,0,0,0,1110.357,819.317Z" fill="#9ff7d3"/>
      </g>
      <g id="Group_10-2" data-name="Group 10">
        <rect id="Rectangle_1-2" data-name="Rectangle 1" width="0.628" height="0.312" transform="translate(1109.027 824.245)" fill="#26d192"/>
      </g>
    </g>
  </g>
  <g id="Group_112" data-name="Group 112" transform="translate(-935.015 -522.902)">
    <g id="Group_6-3" data-name="Group 6">
      <g id="Group_1-3" data-name="Group 1">
        <path id="Path_1-3" data-name="Path 1" d="M1116.407,861.353a.339.339,0,0,1-.176.3l-.736.427-14.206-8.2-14.189,8.2-.736-.427a.341.341,0,0,1-.176-.3l-.025-17.058a.342.342,0,0,1,.176-.3l14.783-8.5a.37.37,0,0,1,.351,0l.527.3-.008,16.547,14.415,8.32Z" fill="#6d81d5"/>
      </g>
      <g id="Group_2-3" data-name="Group 2">
        <path id="Path_2-3" data-name="Path 2" d="M1116.357,861.537a.362.362,0,0,1-.126.126l-14.783,8.5a.37.37,0,0,1-.351,0l-14.733-8.5a.3.3,0,0,1-.125-.125l15.05-8.7Z" fill="#2944ae"/>
      </g>
      <g id="Group_3-3" data-name="Group 3">
        <path id="Path_3-3" data-name="Path 3" d="M1116.357,861.537a.362.362,0,0,1-.126.126l-14.783,8.5a.37.37,0,0,1-.351,0l-14.733-8.5a.3.3,0,0,1-.125-.125l15.05-8.7Z" fill="#2944ae"/>
      </g>
      <path id="Path_4-3" data-name="Path 4" d="M1109.567,857.607v.017l-7.751,4.49a1.035,1.035,0,0,1-1.053,0l-7.752-4.49v-.008l8.287-4.792Z" fill="#213993"/>
      <g id="Group_4-3" data-name="Group 4">
        <path id="Path_5-3" data-name="Path 5" d="M1116.357,861.537a.362.362,0,0,1-.126.126l-14.783,8.5a.37.37,0,0,1-.351,0l-1.547-.9,12.877-7.408a.353.353,0,0,0,.127-.483.336.336,0,0,0-.127-.127l-12.869-7.434h0l1.723-.995Z" fill="#213993"/>
      </g>
      <g id="Group_5-3" data-name="Group 5">
        <path id="Path_6-3" data-name="Path 6" d="M1116.407,861.353a.314.314,0,0,1-.05.176l-15.076-8.7.008-17.384a.333.333,0,0,1,.176.05L1116.2,844a.341.341,0,0,1,.176.3Z" fill="#5169cd"/>
      </g>
      <path id="Path_7-3" data-name="Path 7" d="M1116.407,861.353a.314.314,0,0,1-.05.176l-2.116-1.221V845.366l-12.952-7.5v-2.416a.352.352,0,0,1,.176.05L1116.2,844a.341.341,0,0,1,.176.3Z" fill="#3351c5"/>
    </g>
    <g id="Group_11-3" data-name="Group 11">
      <g id="Group_7-3" data-name="Group 7">
        <path id="Path_8-3" data-name="Path 8" d="M1098.781,862.524a.877.877,0,0,0,.259-.042.886.886,0,0,1,.586.008.763.763,0,0,0,.242.042.745.745,0,0,0,.435-.134.9.9,0,0,1,.527-.167h.192v-.125l.468.008a.142.142,0,0,0,.149.134h.1l.008-.677h-.1a.141.141,0,0,0-.15.132h0l-.469-.008v-.142h-.192a.908.908,0,0,1-.527-.176.751.751,0,0,0-.435-.142.876.876,0,0,0-.259.042.853.853,0,0,1-.577-.009.8.8,0,0,0-.242-.041.916.916,0,0,0-.26.041.871.871,0,0,1-.6-.008.909.909,0,0,0-.259-.05.746.746,0,0,0-.435.134h0a.387.387,0,0,0-.175.317v.377a.4.4,0,0,0,.167.317h0a.75.75,0,0,0,.435.143.913.913,0,0,0,.259-.042.872.872,0,0,1,.6.008A.51.51,0,0,0,1098.781,862.524Z" fill="#26d192"/>
      </g>
      <path id="Path_9-3" data-name="Path 9" d="M1105.186,850.1c-3.462-2.25-4-4.725-4-4.725s-.318,2.467-3.788,4.725-5.025,3.812-4.849,6.756a4.394,4.394,0,0,0,2.943,3.812h11.589a4.394,4.394,0,0,0,2.943-3.812C1110.211,853.911,1108.656,852.348,1105.186,850.1Z" fill="#213993"/>
      <g id="Group_8-3" data-name="Group 8">
        <path id="Path_10-3" data-name="Path 10" d="M1103.932,857.131a15.7,15.7,0,0,1-1.088-2.91c-.075-.26-.125-.427-.125-.427s-.017-.008-.025-.008c-.042-.159-.075-.309-.1-.427a1.009,1.009,0,0,0,.5-.869h-.593a.89.89,0,0,0,.042-.251,1.173,1.173,0,0,0-.092-.426l1.5-1.112-.535-.653-1.229,1.347a1.859,1.859,0,0,0-.226-.218,1.117,1.117,0,0,1-.426-.878,1.139,1.139,0,0,1,.384-.869.866.866,0,0,0,.137-1.218.808.808,0,0,0-.137-.137,1.14,1.14,0,0,1-.384-.87v-.284a1.139,1.139,0,0,1,.384-.869.866.866,0,0,0,.137-1.218.886.886,0,0,0-.137-.137,1.139,1.139,0,0,1-.384-.869v-1.079h.309v-.209a.315.315,0,0,1,.309-.31.931.931,0,0,0,.928-.928h-1.371a1.131,1.131,0,0,0,.56-.828l.118-.819h-2.526l.143.853a1.141,1.141,0,0,0,.552.794h-1.4a.931.931,0,0,0,.928.928h0a.316.316,0,0,1,.31.31v.209h.326v1.078a1.143,1.143,0,0,1-.385.87.866.866,0,0,0-.137,1.217.809.809,0,0,0,.137.137,1.142,1.142,0,0,1,.385.87v.285a1.14,1.14,0,0,1-.385.869.867.867,0,0,0-.137,1.218.89.89,0,0,0,.137.137,1.14,1.14,0,0,1,.385.869,1.118,1.118,0,0,1-.427.878.536.536,0,0,0-.067.059l-.334.41a1.166,1.166,0,0,0-.184.593.9.9,0,0,0,.042.251h-.594a1,1,0,0,0,.385.786l-.025.126h-.009l-.117.51h.025c-.058.309-.142.677-.242,1.062a8.43,8.43,0,0,1-.811,2.148c-.812,1.313-1.414,1.23-1.414,2.041h0a1.781,1.781,0,0,0,1.8,1.689h4.582a1.932,1.932,0,0,0,1.949-1.689h0C1105.294,858.36,1104.734,858.243,1103.932,857.131Z" fill="#1ec186"/>
      </g>
      <g id="Group_9-3" data-name="Group 9">
        <path id="Path_11-3" data-name="Path 11" d="M1096.1,862.164a2.916,2.916,0,0,1-2.634-2.241c-.134-.853.176-2.5,3.8-3.913q.432-.168.878-.293c-.276-.284-.527-.568-.761-.861-1.287-1.605-1.781-3.077-1.4-4.155a2.082,2.082,0,0,1,1.263-1.33,2.5,2.5,0,0,1,.76-.159,7.719,7.719,0,0,1-1.187-2.676,2.663,2.663,0,0,1,.443-2.291,2.555,2.555,0,0,1,2.642-.728,7.246,7.246,0,0,1,5,4.223c.535,1.789-1.355,3.111-1.438,3.161l-.285-.41c.017-.008,1.673-1.171,1.238-2.609a6.8,6.8,0,0,0-4.624-3.871,2.153,2.153,0,0,0-2.158.56,2.188,2.188,0,0,0-.342,1.873,7.722,7.722,0,0,0,1.313,2.776c1.973.142,4.548,1.547,6.371,2.534l.109.058c1.965,1.071,3.236,2.684,2.784,3.529-.226.418-.995.9-3.637-.51a17.967,17.967,0,0,1-5.9-5.126,2.661,2.661,0,0,0-.92.142,1.644,1.644,0,0,0-.97,1.037c-.326.912.134,2.216,1.313,3.679a11.7,11.7,0,0,0,.936,1.029,9.161,9.161,0,0,1,7.76,1.789c.594.561.836,1.112.694,1.564-.092.284-.376.644-1.213.753-2.107.276-5.209-1.464-7.391-3.562a9.25,9.25,0,0,0-1.1.351c-2.441.953-3.679,2.149-3.487,3.369a2.459,2.459,0,0,0,2.175,1.815Zm3.052-6.154c2.057,1.881,4.858,3.437,6.723,3.186.451-.059.744-.209.8-.41.083-.251-.126-.644-.561-1.053A8.712,8.712,0,0,0,1099.157,856.01Zm-.125-6.246a17.858,17.858,0,0,0,5.451,4.616c2.057,1.095,2.834.944,2.96.719.2-.377-.518-1.731-2.583-2.852l-.109-.058A21.116,21.116,0,0,0,1099.032,849.764Z" fill="#9ff7d3"/>
      </g>
      <g id="Group_10-3" data-name="Group 10">
        <rect id="Rectangle_1-3" data-name="Rectangle 1" width="1.497" height="0.744" transform="translate(1095.863 861.512)" fill="#26d192"/>
      </g>
    </g>
  </g>
  <g id="Group_113" data-name="Group 113" transform="translate(-935.015 -522.902)">
    <g id="Group_6-4" data-name="Group 6">
      <g id="Group_1-4" data-name="Group 1">
        <path id="Path_1-4" data-name="Path 1" d="M1169.808,898.165a.164.164,0,0,1-.084.145l-.356.206-6.858-3.96-6.85,3.96-.355-.206a.163.163,0,0,1-.085-.145l-.012-8.235a.163.163,0,0,1,.085-.145l7.136-4.106a.183.183,0,0,1,.17,0l.254.146,0,7.988,6.959,4.017Z" fill="#6d81d5"/>
      </g>
      <g id="Group_2-4" data-name="Group 2">
        <path id="Path_2-4" data-name="Path 2" d="M1169.784,898.254a.173.173,0,0,1-.06.06l-7.137,4.106a.183.183,0,0,1-.17,0l-7.112-4.106a.142.142,0,0,1-.061-.06l7.266-4.2Z" fill="#2944ae"/>
      </g>
      <g id="Group_3-4" data-name="Group 3">
        <path id="Path_3-4" data-name="Path 3" d="M1169.784,898.254a.173.173,0,0,1-.06.06l-7.137,4.106a.183.183,0,0,1-.17,0l-7.112-4.106a.142.142,0,0,1-.061-.06l7.266-4.2Z" fill="#2944ae"/>
      </g>
      <path id="Path_4-4" data-name="Path 4" d="M1166.507,896.357v.008l-3.742,2.167a.5.5,0,0,1-.509,0l-3.742-2.167v0l4-2.313Z" fill="#213993"/>
      <g id="Group_4-4" data-name="Group 4">
        <path id="Path_5-4" data-name="Path 5" d="M1169.784,898.254a.173.173,0,0,1-.06.06l-7.137,4.106a.183.183,0,0,1-.17,0l-.746-.432,6.216-3.577a.171.171,0,0,0,.062-.233.175.175,0,0,0-.062-.062l-6.212-3.588h0l.831-.48Z" fill="#213993"/>
      </g>
      <g id="Group_5-4" data-name="Group 5">
        <path id="Path_6-4" data-name="Path 6" d="M1169.808,898.165a.145.145,0,0,1-.024.085l-7.278-4.2,0-8.393a.159.159,0,0,1,.085.025l7.113,4.1a.164.164,0,0,1,.084.145Z" fill="#5169cd"/>
      </g>
      <path id="Path_7-4" data-name="Path 7" d="M1169.808,898.165a.145.145,0,0,1-.024.085l-1.021-.59v-7.213l-6.253-3.621v-1.167a.171.171,0,0,1,.085.025l7.113,4.1a.164.164,0,0,1,.084.145Z" fill="#3351c5"/>
    </g>
    <g id="Group_11-4" data-name="Group 11">
      <g id="Group_7-4" data-name="Group 7">
        <path id="Path_8-4" data-name="Path 8" d="M1161.3,898.73a.4.4,0,0,0,.125-.02.423.423,0,0,1,.283,0,.359.359,0,0,0,.117.02.366.366,0,0,0,.21-.064.429.429,0,0,1,.254-.081h.093v-.061l.226,0a.068.068,0,0,0,.072.065h.049l0-.327h-.048a.068.068,0,0,0-.073.064h0l-.226,0v-.068h-.093a.441.441,0,0,1-.254-.085.369.369,0,0,0-.21-.069.444.444,0,0,0-.125.021.418.418,0,0,1-.279,0,.383.383,0,0,0-.117-.021.448.448,0,0,0-.125.021.419.419,0,0,1-.29-.005.455.455,0,0,0-.126-.024.359.359,0,0,0-.21.065h0a.188.188,0,0,0-.084.153v.182a.192.192,0,0,0,.08.153h0a.371.371,0,0,0,.21.069.436.436,0,0,0,.125-.02.422.422,0,0,1,.291,0A.253.253,0,0,0,1161.3,898.73Z" fill="#26d192"/>
      </g>
      <path id="Path_9-4" data-name="Path 9" d="M1164.391,892.732a4.158,4.158,0,0,1-1.929-2.281,3.666,3.666,0,0,1-1.829,2.281c-1.671,1.085-2.426,1.84-2.341,3.261a2.123,2.123,0,0,0,1.421,1.841h5.595a2.123,2.123,0,0,0,1.421-1.841C1166.817,894.572,1166.067,893.817,1164.391,892.732Z" fill="#213993"/>
      <g id="Group_8-4" data-name="Group 8">
        <path id="Path_10-4" data-name="Path 10" d="M1163.786,896.126a7.518,7.518,0,0,1-.525-1.4c-.036-.126-.061-.206-.061-.206l-.012,0c-.02-.077-.036-.15-.048-.206a.488.488,0,0,0,.242-.42h-.286a.446.446,0,0,0,.02-.121.56.56,0,0,0-.045-.206l.723-.537-.259-.315-.593.65a.9.9,0,0,0-.109-.1.538.538,0,0,1-.206-.424.55.55,0,0,1,.186-.419.419.419,0,0,0,.066-.588.375.375,0,0,0-.066-.066.554.554,0,0,1-.186-.42V891.2a.551.551,0,0,1,.186-.42.419.419,0,0,0,.066-.588.412.412,0,0,0-.066-.066.552.552,0,0,1-.186-.42v-.521h.15v-.1a.151.151,0,0,1,.149-.149.45.45,0,0,0,.448-.448h-.662a.547.547,0,0,0,.27-.4l.057-.4h-1.219l.069.412a.55.55,0,0,0,.266.383h-.674a.45.45,0,0,0,.448.448h0a.151.151,0,0,1,.149.149v.1h.158v.521a.553.553,0,0,1-.186.42.418.418,0,0,0-.066.588.456.456,0,0,0,.066.066.55.55,0,0,1,.186.42v.137a.552.552,0,0,1-.186.42.418.418,0,0,0-.066.588.459.459,0,0,0,.066.066.55.55,0,0,1,.186.42.538.538,0,0,1-.206.423.172.172,0,0,0-.032.029l-.162.2a.563.563,0,0,0-.089.287.456.456,0,0,0,.02.121h-.286a.487.487,0,0,0,.185.38l-.012.06h0l-.056.246h.012c-.028.15-.069.327-.117.513a4.044,4.044,0,0,1-.392,1.037c-.391.634-.682.594-.682.985h0a.859.859,0,0,0,.868.816h2.212a.933.933,0,0,0,.941-.816h0C1164.444,896.72,1164.173,896.663,1163.786,896.126Z" fill="#1ec186"/>
      </g>
      <g id="Group_9-4" data-name="Group 9">
        <path id="Path_11-4" data-name="Path 11" d="M1160.007,898.556a1.408,1.408,0,0,1-1.271-1.081c-.065-.412.085-1.207,1.833-1.89.138-.054.28-.1.423-.141-.133-.137-.254-.274-.367-.416a2.247,2.247,0,0,1-.674-2.006,1.007,1.007,0,0,1,.609-.642,1.218,1.218,0,0,1,.368-.076,3.7,3.7,0,0,1-.573-1.292,1.284,1.284,0,0,1,.213-1.106,1.234,1.234,0,0,1,1.276-.352,3.5,3.5,0,0,1,2.414,2.039c.258.864-.654,1.5-.694,1.526l-.138-.2c.009,0,.808-.565.6-1.259a3.278,3.278,0,0,0-2.232-1.869,1.039,1.039,0,0,0-1.042.27,1.054,1.054,0,0,0-.165.9,3.728,3.728,0,0,0,.633,1.341,9.046,9.046,0,0,1,3.076,1.223l.053.028c.948.517,1.562,1.3,1.344,1.7-.109.2-.48.432-1.756-.246a8.673,8.673,0,0,1-2.846-2.474,1.265,1.265,0,0,0-.444.068.8.8,0,0,0-.468.5c-.158.44.064,1.07.634,1.776a5.6,5.6,0,0,0,.452.5,4.417,4.417,0,0,1,3.746.864c.286.27.4.536.335.754-.045.138-.182.311-.585.364-1.018.133-2.515-.707-3.569-1.72a4.538,4.538,0,0,0-.533.17c-1.178.46-1.776,1.037-1.683,1.626a1.186,1.186,0,0,0,1.05.876Zm1.474-2.971c.993.909,2.345,1.66,3.245,1.538.218-.028.36-.1.388-.2.04-.121-.061-.311-.271-.509A4.207,4.207,0,0,0,1161.481,895.585Zm-.061-3.015a8.615,8.615,0,0,0,2.632,2.228c.993.529,1.368.456,1.429.347.1-.181-.25-.835-1.247-1.376l-.053-.028A10.164,10.164,0,0,0,1161.42,892.57Z" fill="#9ff7d3"/>
      </g>
      <g id="Group_10-4" data-name="Group 10">
        <rect id="Rectangle_1-4" data-name="Rectangle 1" width="0.723" height="0.359" transform="translate(1159.89 898.242)" fill="#26d192"/>
      </g>
    </g>
  </g>
  <g id="Group_114" data-name="Group 114" transform="translate(-935.015 -522.902)">
    <g id="Group_6-5" data-name="Group 6">
      <g id="Group_1-5" data-name="Group 1">
        <path id="Path_1-5" data-name="Path 1" d="M1348.007,876.81a.234.234,0,0,1-.121.207l-.506.293-9.764-5.638-9.754,5.638-.505-.293a.235.235,0,0,1-.121-.207l-.017-11.725a.234.234,0,0,1,.12-.207l10.162-5.845a.257.257,0,0,1,.241,0l.362.207-.006,11.374,9.909,5.719Z" fill="#6d81d5"/>
      </g>
      <g id="Group_2-5" data-name="Group 2">
        <path id="Path_2-5" data-name="Path 2" d="M1347.972,876.936a.236.236,0,0,1-.086.086l-10.161,5.845a.251.251,0,0,1-.241,0l-10.127-5.845a.205.205,0,0,1-.087-.086l10.346-5.983Z" fill="#2944ae"/>
      </g>
      <g id="Group_3-5" data-name="Group 3">
        <path id="Path_3-5" data-name="Path 3" d="M1347.972,876.936a.236.236,0,0,1-.086.086l-10.161,5.845a.251.251,0,0,1-.241,0l-10.127-5.845a.205.205,0,0,1-.087-.086l10.346-5.983Z" fill="#2944ae"/>
      </g>
      <path id="Path_4-5" data-name="Path 4" d="M1343.306,874.235v.012l-5.328,3.086a.711.711,0,0,1-.724,0l-5.328-3.086v-.006l5.695-3.293Z" fill="#213993"/>
      <g id="Group_4-5" data-name="Group 4">
        <path id="Path_5-5" data-name="Path 5" d="M1347.972,876.936a.236.236,0,0,1-.086.086l-10.161,5.845a.251.251,0,0,1-.241,0l-1.064-.615,8.851-5.092a.241.241,0,0,0,0-.419l-8.845-5.11h0l1.184-.683Z" fill="#213993"/>
      </g>
      <g id="Group_5-5" data-name="Group 5">
        <path id="Path_6-5" data-name="Path 6" d="M1348.007,876.81a.2.2,0,0,1-.035.12l-10.362-5.977.006-11.949a.224.224,0,0,1,.12.035l10.127,5.845a.235.235,0,0,1,.121.207Z" fill="#5169cd"/>
      </g>
      <path id="Path_7-5" data-name="Path 7" d="M1348.007,876.81a.2.2,0,0,1-.035.12l-1.454-.839v-10.27l-8.9-5.156V859a.243.243,0,0,1,.12.035l10.127,5.845a.235.235,0,0,1,.121.207Z" fill="#3351c5"/>
    </g>
    <g id="Group_11-5" data-name="Group 11">
      <g id="Group_7-5" data-name="Group 7">
        <path id="Path_8-5" data-name="Path 8" d="M1335.892,877.614a.6.6,0,0,0,.178-.028.609.609,0,0,1,.4.005.5.5,0,0,0,.167.029.516.516,0,0,0,.3-.092.623.623,0,0,1,.362-.115h.132v-.086l.322.006a.1.1,0,0,0,.1.092h.07l.006-.466h-.069a.1.1,0,0,0-.1.091h0l-.322-.006v-.1h-.133a.63.63,0,0,1-.362-.121.515.515,0,0,0-.3-.1.638.638,0,0,0-.179.029.586.586,0,0,1-.4-.006.527.527,0,0,0-.167-.028.6.6,0,0,0-.178.028.607.607,0,0,1-.414-.005.6.6,0,0,0-.178-.035.515.515,0,0,0-.3.092h0a.267.267,0,0,0-.121.218v.259a.278.278,0,0,0,.115.218h0a.519.519,0,0,0,.3.1.593.593,0,0,0,.178-.029.6.6,0,0,1,.414.006A.347.347,0,0,0,1335.892,877.614Z" fill="#26d192"/>
      </g>
      <path id="Path_9-5" data-name="Path 9" d="M1340.294,869.074a5.923,5.923,0,0,1-2.747-3.247s-.219,1.695-2.6,3.247-3.454,2.621-3.333,4.644a3.023,3.023,0,0,0,2.023,2.621h7.966a3.023,3.023,0,0,0,2.023-2.621C1343.748,871.7,1342.679,870.62,1340.294,869.074Z" fill="#213993"/>
      <g id="Group_8-5" data-name="Group 8">
        <path id="Path_10-5" data-name="Path 10" d="M1339.432,873.907a10.7,10.7,0,0,1-.747-2c-.052-.178-.087-.293-.087-.293s-.011-.006-.017-.006c-.029-.109-.052-.212-.069-.293a.693.693,0,0,0,.345-.6h-.408a.6.6,0,0,0,.029-.173.8.8,0,0,0-.063-.293l1.028-.764-.368-.449-.844.926a1.378,1.378,0,0,0-.156-.15.767.767,0,0,1-.293-.6.785.785,0,0,1,.265-.6.6.6,0,0,0,.094-.837.639.639,0,0,0-.094-.094.784.784,0,0,1-.265-.6v-.2a.787.787,0,0,1,.265-.6.6.6,0,0,0,.094-.837.687.687,0,0,0-.094-.094.783.783,0,0,1-.265-.6v-.742h.213v-.144a.216.216,0,0,1,.213-.212.64.64,0,0,0,.637-.638h-.942a.783.783,0,0,0,.385-.569l.081-.564h-1.736l.1.587a.785.785,0,0,0,.379.546h-.96a.64.64,0,0,0,.638.638h0a.216.216,0,0,1,.213.212v.144h.224v.741a.785.785,0,0,1-.265.6.6.6,0,0,0-.094.837.652.652,0,0,0,.094.094.785.785,0,0,1,.265.6v.2a.783.783,0,0,1-.265.6.6.6,0,0,0-.094.837.606.606,0,0,0,.094.094.786.786,0,0,1,.265.6.767.767,0,0,1-.293.6.3.3,0,0,0-.046.041l-.23.281a.809.809,0,0,0-.127.408.634.634,0,0,0,.029.173h-.408a.687.687,0,0,0,.264.54l-.017.086h-.006l-.08.351h.017c-.04.212-.1.465-.167.73a5.733,5.733,0,0,1-.557,1.477c-.558.9-.971.845-.971,1.4h0a1.223,1.223,0,0,0,1.235,1.161h3.15a1.327,1.327,0,0,0,1.339-1.161h0C1340.369,874.752,1339.984,874.672,1339.432,873.907Z" fill="#1ec186"/>
      </g>
      <g id="Group_9-5" data-name="Group 9">
        <path id="Path_11-5" data-name="Path 11" d="M1334.052,877.367a2,2,0,0,1-1.81-1.54c-.092-.586.121-1.719,2.609-2.69q.3-.116.6-.2c-.19-.195-.362-.391-.523-.592-.885-1.1-1.225-2.115-.96-2.856a1.433,1.433,0,0,1,.868-.914,1.73,1.73,0,0,1,.523-.109,5.291,5.291,0,0,1-.816-1.84,1.831,1.831,0,0,1,.3-1.575,1.757,1.757,0,0,1,1.816-.5,4.979,4.979,0,0,1,3.437,2.9c.368,1.23-.931,2.138-.988,2.172l-.2-.281c.012-.006,1.15-.8.851-1.793a4.671,4.671,0,0,0-3.178-2.661,1.477,1.477,0,0,0-1.483.385,1.5,1.5,0,0,0-.236,1.287,5.327,5.327,0,0,0,.9,1.908,12.912,12.912,0,0,1,4.38,1.742l.075.04c1.35.735,2.224,1.845,1.914,2.425-.156.288-.684.615-2.5-.35a12.35,12.35,0,0,1-4.051-3.523,1.841,1.841,0,0,0-.633.1,1.13,1.13,0,0,0-.666.713c-.225.626.092,1.523.9,2.529a7.96,7.96,0,0,0,.644.707,6.293,6.293,0,0,1,5.333,1.23c.408.385.575.764.477,1.075-.063.195-.258.442-.833.517-1.448.19-3.581-1.006-5.081-2.448a6.3,6.3,0,0,0-.758.241c-1.679.655-2.529,1.477-2.4,2.316a1.689,1.689,0,0,0,1.494,1.247Zm2.1-4.23c1.414,1.293,3.339,2.362,4.621,2.19.31-.04.512-.144.552-.282.057-.172-.086-.442-.385-.724A6,6,0,0,0,1336.15,873.137Zm-.086-4.293a12.261,12.261,0,0,0,3.747,3.172c1.414.753,1.948.65,2.035.495.138-.259-.357-1.19-1.776-1.96l-.075-.04A14.492,14.492,0,0,0,1336.064,868.844Z" fill="#9ff7d3"/>
      </g>
      <g id="Group_10-5" data-name="Group 10">
        <rect id="Rectangle_1-5" data-name="Rectangle 1" width="1.029" height="0.512" transform="translate(1333.886 876.919)" fill="#26d192"/>
      </g>
    </g>
  </g>
  <g id="Group_115" data-name="Group 115" transform="translate(-935.015 -522.902)">
    <g id="Group_6-6" data-name="Group 6">
      <g id="Group_1-6" data-name="Group 1">
        <path id="Path_1-6" data-name="Path 1" d="M1384.435,852.848a.226.226,0,0,1-.116.2l-.484.281-9.353-5.4-9.343,5.4-.484-.281a.226.226,0,0,1-.116-.2l-.016-11.231a.225.225,0,0,1,.115-.2l9.733-5.6a.25.25,0,0,1,.232,0l.346.2-.005,10.894,9.491,5.478Z" fill="#6d81d5"/>
      </g>
      <g id="Group_2-6" data-name="Group 2">
        <path id="Path_2-6" data-name="Path 2" d="M1384.4,852.969a.233.233,0,0,1-.083.082l-9.733,5.6a.243.243,0,0,1-.231,0l-9.7-5.6a.2.2,0,0,1-.083-.082l9.91-5.731Z" fill="#2944ae"/>
      </g>
      <g id="Group_3-6" data-name="Group 3">
        <path id="Path_3-6" data-name="Path 3" d="M1384.4,852.969a.233.233,0,0,1-.083.082l-9.733,5.6a.243.243,0,0,1-.231,0l-9.7-5.6a.2.2,0,0,1-.083-.082l9.91-5.731Z" fill="#2944ae"/>
      </g>
      <path id="Path_4-6" data-name="Path 4" d="M1379.932,850.381v.012l-5.1,2.956a.683.683,0,0,1-.693,0l-5.1-2.956v-.006l5.455-3.154Z" fill="#213993"/>
      <g id="Group_4-6" data-name="Group 4">
        <path id="Path_5-6" data-name="Path 5" d="M1384.4,852.969a.241.241,0,0,1-.083.082l-9.733,5.6a.243.243,0,0,1-.231,0l-1.019-.589,8.478-4.878a.231.231,0,0,0,.084-.317.225.225,0,0,0-.084-.084l-8.472-4.895h0l1.134-.654Z" fill="#213993"/>
      </g>
      <g id="Group_5-6" data-name="Group 5">
        <path id="Path_6-6" data-name="Path 6" d="M1384.435,852.848a.2.2,0,0,1-.033.115l-9.926-5.725.006-11.445a.214.214,0,0,1,.115.033l9.7,5.6a.226.226,0,0,1,.116.2Z" fill="#5169cd"/>
      </g>
      <path id="Path_7-6" data-name="Path 7" d="M1384.435,852.848a.2.2,0,0,1-.033.115l-1.393-.8v-9.838l-8.527-4.938v-1.591a.236.236,0,0,1,.115.033l9.7,5.6a.226.226,0,0,1,.116.2Z" fill="#3351c5"/>
    </g>
    <g id="Group_11-6" data-name="Group 11">
      <g id="Group_7-6" data-name="Group 7">
        <path id="Path_8-6" data-name="Path 8" d="M1372.83,853.618a.551.551,0,0,0,.171-.027.584.584,0,0,1,.385.005.514.514,0,0,0,.16.028.5.5,0,0,0,.286-.088.591.591,0,0,1,.347-.11h.127v-.083l.308.006a.094.094,0,0,0,.1.088h.067l.006-.446h-.067a.094.094,0,0,0-.1.087h0l-.308-.006v-.093h-.127a.592.592,0,0,1-.346-.116.494.494,0,0,0-.287-.093.577.577,0,0,0-.17.027.569.569,0,0,1-.38,0,.517.517,0,0,0-.16-.028.586.586,0,0,0-.171.028.574.574,0,0,1-.4-.006.618.618,0,0,0-.171-.033.5.5,0,0,0-.286.088h0a.257.257,0,0,0-.115.209v.248a.263.263,0,0,0,.11.209h0a.5.5,0,0,0,.286.094.588.588,0,0,0,.171-.028.574.574,0,0,1,.4.006A.328.328,0,0,0,1372.83,853.618Z" fill="#26d192"/>
      </g>
      <path id="Path_9-6" data-name="Path 9" d="M1377.047,845.438a5.671,5.671,0,0,1-2.631-3.11s-.21,1.624-2.494,3.11-3.309,2.51-3.193,4.448a2.893,2.893,0,0,0,1.938,2.51h7.63a2.892,2.892,0,0,0,1.937-2.51C1380.356,847.948,1379.332,846.919,1377.047,845.438Z" fill="#213993"/>
      <g id="Group_8-6" data-name="Group 8">
        <path id="Path_10-6" data-name="Path 10" d="M1376.221,850.068a10.419,10.419,0,0,1-.716-1.916c-.049-.171-.082-.281-.082-.281s-.011,0-.017,0c-.027-.105-.049-.2-.066-.281a.667.667,0,0,0,.331-.573h-.391a.576.576,0,0,0,.027-.165.755.755,0,0,0-.06-.281l.985-.732-.352-.429-.809.886a1.345,1.345,0,0,0-.149-.143.735.735,0,0,1-.281-.578.75.75,0,0,1,.253-.572.571.571,0,0,0,.091-.8.556.556,0,0,0-.091-.09.753.753,0,0,1-.253-.573v-.187a.753.753,0,0,1,.253-.572.571.571,0,0,0,.091-.8.556.556,0,0,0-.091-.09.753.753,0,0,1-.253-.573v-.71h.2v-.138a.206.206,0,0,1,.2-.2.615.615,0,0,0,.612-.611h-.9a.754.754,0,0,0,.369-.545l.077-.54h-1.663l.094.562a.758.758,0,0,0,.363.523h-.919a.614.614,0,0,0,.611.611h0a.205.205,0,0,1,.2.2v.138h.215v.71a.749.749,0,0,1-.253.572.571.571,0,0,0-.09.8.548.548,0,0,0,.09.09.751.751,0,0,1,.253.573v.187a.751.751,0,0,1-.253.573.569.569,0,0,0-.09.8.554.554,0,0,0,.09.091.75.75,0,0,1,.253.572.732.732,0,0,1-.281.578.525.525,0,0,0-.044.039l-.22.269a.765.765,0,0,0-.121.391.557.557,0,0,0,.028.166h-.391a.654.654,0,0,0,.253.517l-.017.083h-.005l-.077.335h.016c-.038.2-.093.446-.159.7a5.55,5.55,0,0,1-.534,1.414c-.534.865-.931.81-.931,1.344h0a1.173,1.173,0,0,0,1.184,1.112h3.017a1.271,1.271,0,0,0,1.282-1.112h0C1377.118,850.877,1376.75,850.8,1376.221,850.068Z" fill="#1ec186"/>
      </g>
      <g id="Group_9-6" data-name="Group 9">
        <path id="Path_11-6" data-name="Path 11" d="M1371.068,853.382a1.921,1.921,0,0,1-1.734-1.476c-.088-.561.116-1.646,2.5-2.576q.283-.111.578-.193c-.182-.187-.347-.374-.5-.567-.848-1.057-1.173-2.026-.92-2.736a1.372,1.372,0,0,1,.832-.875,1.647,1.647,0,0,1,.5-.1,5.058,5.058,0,0,1-.782-1.762,1.751,1.751,0,0,1,.292-1.508,1.681,1.681,0,0,1,1.739-.479,4.77,4.77,0,0,1,3.292,2.78c.352,1.178-.892,2.048-.947,2.081l-.187-.27c.011-.005,1.1-.771.815-1.717a4.478,4.478,0,0,0-3.044-2.549,1.416,1.416,0,0,0-1.421.369,1.44,1.44,0,0,0-.225,1.233,5.1,5.1,0,0,0,.864,1.828,12.359,12.359,0,0,1,4.2,1.668l.071.038c1.294.705,2.131,1.767,1.834,2.323-.149.276-.656.589-2.395-.335a11.82,11.82,0,0,1-3.881-3.375,1.735,1.735,0,0,0-.606.094,1.081,1.081,0,0,0-.639.682c-.214.6.089,1.459.865,2.422a7.915,7.915,0,0,0,.616.678,6.029,6.029,0,0,1,5.109,1.178c.391.369.551.732.457,1.029-.061.187-.248.424-.8.5-1.387.181-3.43-.964-4.867-2.345a6.185,6.185,0,0,0-.726.231c-1.608.627-2.423,1.415-2.3,2.218a1.618,1.618,0,0,0,1.432,1.2Zm2.01-4.052c1.354,1.239,3.2,2.263,4.426,2.1.3-.038.49-.137.528-.269.055-.166-.082-.424-.368-.694A5.738,5.738,0,0,0,1373.078,849.33Zm-.083-4.112a11.762,11.762,0,0,0,3.589,3.038c1.355.722,1.866.623,1.949.474.132-.248-.341-1.14-1.7-1.877l-.071-.039A13.915,13.915,0,0,0,1372.995,845.218Z" fill="#9ff7d3"/>
      </g>
      <g id="Group_10-6" data-name="Group 10">
        <rect id="Rectangle_1-6" data-name="Rectangle 1" width="0.985" height="0.49" transform="translate(1370.909 852.952)" fill="#26d192"/>
      </g>
    </g>
  </g>
  <g id="Group_116" data-name="Group 116" transform="translate(-935.015 -522.902)">
    <g id="Group_6-7" data-name="Group 6">
      <g id="Group_1-7" data-name="Group 1">
        <path id="Path_1-7" data-name="Path 1" d="M1416.51,874.8a.2.2,0,0,1-.1.174l-.425.247-8.214-4.743-8.2,4.743-.425-.247a.2.2,0,0,1-.1-.174l-.014-9.862a.2.2,0,0,1,.1-.174l8.547-4.917a.22.22,0,0,1,.2,0l.305.174-.005,9.568,8.335,4.81Z" fill="#6d81d5"/>
      </g>
      <g id="Group_2-7" data-name="Group 2">
        <path id="Path_2-7" data-name="Path 2" d="M1416.481,874.911a.2.2,0,0,1-.073.072l-8.547,4.917a.215.215,0,0,1-.2,0l-8.518-4.917a.174.174,0,0,1-.073-.072l8.7-5.033Z" fill="#2944ae"/>
      </g>
      <g id="Group_3-7" data-name="Group 3">
        <path id="Path_3-7" data-name="Path 3" d="M1416.481,874.911a.2.2,0,0,1-.073.072l-8.547,4.917a.215.215,0,0,1-.2,0l-8.518-4.917a.174.174,0,0,1-.073-.072l8.7-5.033Z" fill="#2944ae"/>
      </g>
      <path id="Path_4-7" data-name="Path 4" d="M1412.555,872.639v.009l-4.481,2.6a.594.594,0,0,1-.609,0l-4.482-2.6v-.005l4.791-2.77Z" fill="#213993"/>
      <g id="Group_4-7" data-name="Group 4">
        <path id="Path_5-7" data-name="Path 5" d="M1416.481,874.911a.2.2,0,0,1-.073.072l-8.547,4.917a.215.215,0,0,1-.2,0l-.894-.517,7.445-4.284a.2.2,0,0,0,.073-.279.206.206,0,0,0-.073-.074l-7.441-4.3h0l1-.575Z" fill="#213993"/>
      </g>
      <g id="Group_5-7" data-name="Group 5">
        <path id="Path_6-7" data-name="Path 6" d="M1416.51,874.8a.192.192,0,0,1-.029.1l-8.717-5.028.005-10.051a.194.194,0,0,1,.1.029l8.518,4.917a.2.2,0,0,1,.1.174Z" fill="#5169cd"/>
      </g>
      <path id="Path_7-7" data-name="Path 7" d="M1416.51,874.8a.192.192,0,0,1-.029.1l-1.223-.706v-8.639l-7.489-4.337v-1.4a.214.214,0,0,1,.1.029l8.518,4.917a.2.2,0,0,1,.1.174Z" fill="#3351c5"/>
    </g>
    <g id="Group_11-7" data-name="Group 11">
      <g id="Group_7-7" data-name="Group 7">
        <path id="Path_8-7" data-name="Path 8" d="M1406.319,875.481a.479.479,0,0,0,.15-.024.509.509,0,0,1,.338.005.448.448,0,0,0,.14.024.435.435,0,0,0,.252-.077.512.512,0,0,1,.3-.1h.112v-.073l.27.005a.083.083,0,0,0,.086.078h.059l.005-.392h-.058a.082.082,0,0,0-.087.077h0l-.271,0v-.083h-.111a.521.521,0,0,1-.3-.1.431.431,0,0,0-.252-.082.48.48,0,0,0-.15.024.494.494,0,0,1-.333-.005.449.449,0,0,0-.14-.024.508.508,0,0,0-.15.024.5.5,0,0,1-.348-.005.52.52,0,0,0-.15-.029.43.43,0,0,0-.252.078h0a.222.222,0,0,0-.1.183v.218a.231.231,0,0,0,.1.183h0a.442.442,0,0,0,.252.083.512.512,0,0,0,.15-.025.513.513,0,0,1,.348.005A.281.281,0,0,0,1406.319,875.481Z" fill="#26d192"/>
      </g>
      <path id="Path_9-7" data-name="Path 9" d="M1410.022,868.3a4.983,4.983,0,0,1-2.311-2.731,4.387,4.387,0,0,1-2.19,2.731c-2,1.3-2.905,2.205-2.8,3.906a2.543,2.543,0,0,0,1.7,2.205h6.7a2.542,2.542,0,0,0,1.7-2.205C1412.927,870.5,1412.028,869.6,1410.022,868.3Z" fill="#213993"/>
      <g id="Group_8-7" data-name="Group 8">
        <path id="Path_10-7" data-name="Path 10" d="M1409.3,872.363a9.064,9.064,0,0,1-.629-1.682c-.043-.15-.072-.247-.072-.247s-.01-.005-.015-.005c-.024-.092-.043-.179-.058-.246a.583.583,0,0,0,.29-.5h-.343a.511.511,0,0,0,.024-.145.678.678,0,0,0-.053-.247l.865-.643-.309-.377-.711.779a1.03,1.03,0,0,0-.13-.126.647.647,0,0,1-.247-.508.659.659,0,0,1,.223-.5.5.5,0,0,0,.079-.7.545.545,0,0,0-.079-.08.659.659,0,0,1-.223-.5v-.165a.659.659,0,0,1,.223-.5.5.5,0,0,0,.079-.7.542.542,0,0,0-.079-.08.659.659,0,0,1-.223-.5v-.624h.179v-.121a.183.183,0,0,1,.179-.179.539.539,0,0,0,.537-.536h-.793a.66.66,0,0,0,.324-.479l.067-.474h-1.46l.083.493a.663.663,0,0,0,.319.46h-.808a.539.539,0,0,0,.537.536h0a.183.183,0,0,1,.179.179v.121h.188v.623a.657.657,0,0,1-.222.5.5.5,0,0,0-.079.7.486.486,0,0,0,.079.079.658.658,0,0,1,.222.5v.165a.655.655,0,0,1-.222.5.5.5,0,0,0-.079.7.492.492,0,0,0,.079.08.655.655,0,0,1,.222.5.647.647,0,0,1-.246.508.252.252,0,0,0-.039.034l-.193.237a.673.673,0,0,0-.107.343.48.48,0,0,0,.025.145h-.344a.582.582,0,0,0,.223.455l-.015.072h-.005l-.067.3h.014c-.034.179-.082.392-.14.614a4.856,4.856,0,0,1-.469,1.242c-.469.759-.817.711-.817,1.18h0a1.029,1.029,0,0,0,1.039.976h2.65a1.116,1.116,0,0,0,1.126-.976h0C1410.085,873.074,1409.761,873.006,1409.3,872.363Z" fill="#1ec186"/>
      </g>
      <g id="Group_9-7" data-name="Group 9">
        <path id="Path_11-7" data-name="Path 11" d="M1404.772,875.273a1.685,1.685,0,0,1-1.523-1.295c-.077-.493.1-1.446,2.195-2.263a5.28,5.28,0,0,1,.507-.169c-.159-.164-.3-.329-.44-.5a2.7,2.7,0,0,1-.807-2.4,1.2,1.2,0,0,1,.73-.768,1.411,1.411,0,0,1,.44-.092,4.469,4.469,0,0,1-.687-1.547,1.538,1.538,0,0,1,.257-1.325,1.476,1.476,0,0,1,1.527-.421,4.19,4.19,0,0,1,2.891,2.442c.31,1.034-.783,1.8-.831,1.827l-.165-.237c.01-.005.967-.677.716-1.508a3.928,3.928,0,0,0-2.674-2.238,1.242,1.242,0,0,0-1.247.323,1.267,1.267,0,0,0-.2,1.083,4.462,4.462,0,0,0,.759,1.6,10.9,10.9,0,0,1,3.684,1.465l.063.034c1.136.619,1.871,1.552,1.61,2.04-.131.242-.576.518-2.1-.295a10.394,10.394,0,0,1-3.409-2.963,1.557,1.557,0,0,0-.532.082.952.952,0,0,0-.56.6c-.189.526.077,1.281.759,2.127a6.612,6.612,0,0,0,.541.594,5.3,5.3,0,0,1,4.487,1.035c.343.324.483.643.4.9-.053.164-.218.372-.7.435-1.218.16-3.012-.846-4.274-2.059a5.236,5.236,0,0,0-.638.2c-1.412.551-2.127,1.242-2.016,1.948a1.42,1.42,0,0,0,1.257,1.049Zm1.764-3.558c1.19,1.088,2.809,1.987,3.887,1.842.261-.034.43-.121.464-.237.049-.145-.072-.372-.324-.609A5.04,5.04,0,0,0,1406.536,871.715Zm-.072-3.611a10.31,10.31,0,0,0,3.152,2.668c1.189.634,1.638.547,1.711.416.116-.217-.3-1-1.494-1.648l-.062-.034A12.223,12.223,0,0,0,1406.464,868.1Z" fill="#9ff7d3"/>
      </g>
      <g id="Group_10-7" data-name="Group 10">
        <rect id="Rectangle_1-7" data-name="Rectangle 1" width="0.865" height="0.43" transform="translate(1404.632 874.896)" fill="#26d192"/>
      </g>
    </g>
  </g>
  <g id="Group_117" data-name="Group 117" transform="translate(-935.015 -522.902)">
    <g id="Group_6-8" data-name="Group 6">
      <g id="Group_1-8" data-name="Group 1">
        <path id="Path_1-8" data-name="Path 1" d="M1402.709,904.634a.2.2,0,0,1-.1.175l-.428.249-8.273-4.777-8.263,4.777-.429-.249a.2.2,0,0,1-.1-.175l-.014-9.933a.2.2,0,0,1,.1-.176l8.609-4.952a.217.217,0,0,1,.2,0l.307.176-.005,9.636,8.394,4.845Z" fill="#6d81d5"/>
      </g>
      <g id="Group_2-8" data-name="Group 2">
        <path id="Path_2-8" data-name="Path 2" d="M1402.68,904.741a.214.214,0,0,1-.073.073L1394,909.766a.219.219,0,0,1-.205,0l-8.579-4.952a.174.174,0,0,1-.074-.073l8.765-5.069Z" fill="#2944ae"/>
      </g>
      <g id="Group_3-8" data-name="Group 3">
        <path id="Path_3-8" data-name="Path 3" d="M1402.68,904.741a.214.214,0,0,1-.073.073L1394,909.766a.219.219,0,0,1-.205,0l-8.579-4.952a.174.174,0,0,1-.074-.073l8.765-5.069Z" fill="#2944ae"/>
      </g>
      <path id="Path_4-8" data-name="Path 4" d="M1398.727,902.453v.009l-4.514,2.615a.6.6,0,0,1-.614,0l-4.513-2.615v-.005l4.825-2.79Z" fill="#213993"/>
      <g id="Group_4-8" data-name="Group 4">
        <path id="Path_5-8" data-name="Path 5" d="M1402.68,904.741a.214.214,0,0,1-.073.073L1394,909.766a.219.219,0,0,1-.205,0l-.9-.521,7.5-4.314a.207.207,0,0,0,0-.356l-7.494-4.328h0l1-.58Z" fill="#213993"/>
      </g>
      <g id="Group_5-8" data-name="Group 5">
        <path id="Path_6-8" data-name="Path 6" d="M1402.709,904.634a.177.177,0,0,1-.029.1l-8.779-5.064.005-10.123a.192.192,0,0,1,.1.029l8.58,4.952a.2.2,0,0,1,.1.176Z" fill="#5169cd"/>
      </g>
      <path id="Path_7-8" data-name="Path 7" d="M1402.709,904.634a.177.177,0,0,1-.029.1l-1.232-.711v-8.7l-7.542-4.368v-1.407a.215.215,0,0,1,.1.029l8.58,4.952a.2.2,0,0,1,.1.176Z" fill="#3351c5"/>
    </g>
    <g id="Group_11-8" data-name="Group 11">
      <g id="Group_7-8" data-name="Group 7">
        <path id="Path_8-8" data-name="Path 8" d="M1392.445,905.316a.513.513,0,0,0,.151-.025.518.518,0,0,1,.341.005.455.455,0,0,0,.141.025.443.443,0,0,0,.254-.078.523.523,0,0,1,.306-.1h.112v-.073l.273.005a.082.082,0,0,0,.087.078h.059l.005-.394h-.058a.082.082,0,0,0-.088.077h0l-.273,0v-.083h-.112a.53.53,0,0,1-.307-.1.426.426,0,0,0-.253-.083.517.517,0,0,0-.151.024.5.5,0,0,1-.336-.005.448.448,0,0,0-.141-.024.518.518,0,0,0-.151.024.508.508,0,0,1-.35-.005.521.521,0,0,0-.151-.029.436.436,0,0,0-.254.078h0a.229.229,0,0,0-.1.185v.219a.234.234,0,0,0,.1.185h0a.44.44,0,0,0,.253.083.554.554,0,0,0,.151-.024.513.513,0,0,1,.35,0A.3.3,0,0,0,1392.445,905.316Z" fill="#26d192"/>
      </g>
      <path id="Path_9-8" data-name="Path 9" d="M1396.175,898.08a5.015,5.015,0,0,1-2.327-2.751,4.419,4.419,0,0,1-2.206,2.751c-2.016,1.31-2.926,2.22-2.824,3.934a2.561,2.561,0,0,0,1.714,2.221h6.748a2.561,2.561,0,0,0,1.714-2.221C1399.1,900.3,1398.2,899.39,1396.175,898.08Z" fill="#213993"/>
      <g id="Group_8-8" data-name="Group 8">
        <path id="Path_10-8" data-name="Path 10" d="M1395.445,902.175a9.1,9.1,0,0,1-.633-1.694l-.073-.249c-.005,0-.01-.005-.015-.005-.024-.092-.044-.18-.058-.248a.59.59,0,0,0,.292-.506h-.346a.528.528,0,0,0,.024-.146.666.666,0,0,0-.053-.249l.871-.647-.311-.38-.716.784a1.125,1.125,0,0,0-.131-.127.65.65,0,0,1-.249-.511.665.665,0,0,1,.224-.506.5.5,0,0,0,.08-.709.464.464,0,0,0-.08-.08.666.666,0,0,1-.224-.507v-.165a.665.665,0,0,1,.224-.506.505.505,0,0,0,.08-.71.494.494,0,0,0-.08-.079.666.666,0,0,1-.224-.507V893.8h.18v-.122a.184.184,0,0,1,.18-.18.542.542,0,0,0,.541-.54h-.8a.664.664,0,0,0,.327-.482l.068-.478h-1.471l.083.5a.667.667,0,0,0,.322.463h-.814a.543.543,0,0,0,.541.54h0a.183.183,0,0,1,.18.18v.122h.19v.628a.665.665,0,0,1-.224.506.5.5,0,0,0-.08.709.472.472,0,0,0,.08.08.662.662,0,0,1,.224.507v.165a.662.662,0,0,1-.224.507.5.5,0,0,0-.08.709.556.556,0,0,0,.08.08.662.662,0,0,1,.224.506.651.651,0,0,1-.248.511.32.32,0,0,0-.039.034l-.195.239a.683.683,0,0,0-.107.346.522.522,0,0,0,.024.146h-.346a.583.583,0,0,0,.224.457l-.014.074h-.005l-.068.3h.014c-.034.18-.083.394-.141.618a4.912,4.912,0,0,1-.472,1.251c-.473.765-.823.716-.823,1.188h0a1.036,1.036,0,0,0,1.047.984h2.668a1.125,1.125,0,0,0,1.135-.984h0C1396.238,902.891,1395.912,902.823,1395.445,902.175Z" fill="#1ec186"/>
      </g>
      <g id="Group_9-8" data-name="Group 9">
        <path id="Path_11-8" data-name="Path 11" d="M1390.887,905.106a1.7,1.7,0,0,1-1.534-1.3c-.078-.5.1-1.456,2.211-2.278a5.1,5.1,0,0,1,.511-.171c-.161-.165-.307-.331-.443-.5a2.714,2.714,0,0,1-.813-2.42,1.216,1.216,0,0,1,.735-.775,1.5,1.5,0,0,1,.443-.092,4.486,4.486,0,0,1-.691-1.559,1.548,1.548,0,0,1,.258-1.334,1.486,1.486,0,0,1,1.539-.423,4.216,4.216,0,0,1,2.911,2.459c.312,1.042-.789,1.811-.837,1.84l-.166-.238c.01-.005.974-.682.721-1.52a3.959,3.959,0,0,0-2.693-2.254,1.252,1.252,0,0,0-1.256.326,1.277,1.277,0,0,0-.2,1.091,4.511,4.511,0,0,0,.765,1.617,10.919,10.919,0,0,1,3.71,1.475l.063.034c1.145.623,1.885,1.563,1.622,2.055-.132.243-.58.521-2.118-.3a10.456,10.456,0,0,1-3.433-2.985,1.552,1.552,0,0,0-.536.083.959.959,0,0,0-.565.6c-.189.53.078,1.29.765,2.142a7.025,7.025,0,0,0,.545.6,5.336,5.336,0,0,1,4.519,1.042c.346.326.487.648.4.911-.053.165-.219.375-.706.438-1.227.161-3.033-.852-4.3-2.074a5.337,5.337,0,0,0-.643.2c-1.422.555-2.143,1.252-2.03,1.962a1.43,1.43,0,0,0,1.266,1.057Zm1.777-3.583c1.2,1.095,2.829,2,3.915,1.855.263-.034.434-.122.468-.239.048-.146-.073-.375-.327-.613A5.072,5.072,0,0,0,1392.664,901.523Zm-.073-3.638a10.408,10.408,0,0,0,3.175,2.688c1.2.638,1.65.55,1.724.419.117-.219-.3-1.008-1.505-1.661l-.063-.034A12.339,12.339,0,0,0,1392.591,897.885Z" fill="#9ff7d3"/>
      </g>
      <g id="Group_10-8" data-name="Group 10">
        <rect id="Rectangle_1-8" data-name="Rectangle 1" width="0.872" height="0.433" transform="translate(1390.746 904.726)" fill="#26d192"/>
      </g>
    </g>
  </g>
  <g id="Group_118" data-name="Group 118" transform="translate(-935.015 -522.902)">
    <g id="Group_6-9" data-name="Group 6">
      <g id="Group_1-9" data-name="Group 1">
        <path id="Path_1-9" data-name="Path 1" d="M1459.174,877.065a.235.235,0,0,1-.122.208l-.508.295-9.825-5.673-9.813,5.673-.509-.295a.234.234,0,0,1-.121-.208l-.018-11.8a.237.237,0,0,1,.122-.208l10.223-5.881a.261.261,0,0,1,.243,0l.364.208-.005,11.444,9.969,5.754Z" fill="#6d81d5"/>
      </g>
      <g id="Group_2-9" data-name="Group 2">
        <path id="Path_2-9" data-name="Path 2" d="M1459.139,877.192a.242.242,0,0,1-.087.087l-10.223,5.881a.261.261,0,0,1-.243,0l-10.189-5.881a.214.214,0,0,1-.087-.087l10.409-6.02Z" fill="#2944ae"/>
      </g>
      <g id="Group_3-9" data-name="Group 3">
        <path id="Path_3-9" data-name="Path 3" d="M1459.139,877.192a.242.242,0,0,1-.087.087l-10.223,5.881a.261.261,0,0,1-.243,0l-10.189-5.881a.214.214,0,0,1-.087-.087l10.409-6.02Z" fill="#2944ae"/>
      </g>
      <path id="Path_4-9" data-name="Path 4" d="M1454.444,874.474v.012l-5.361,3.1a.714.714,0,0,1-.728,0l-5.361-3.1v-.006l5.731-3.313Z" fill="#213993"/>
      <g id="Group_4-9" data-name="Group 4">
        <path id="Path_5-9" data-name="Path 5" d="M1459.139,877.192a.242.242,0,0,1-.087.087l-10.223,5.881a.261.261,0,0,1-.243,0l-1.07-.619,8.905-5.123a.245.245,0,0,0,.089-.334.253.253,0,0,0-.089-.089l-8.9-5.141h0l1.191-.687Z" fill="#213993"/>
      </g>
      <g id="Group_5-9" data-name="Group 5">
        <path id="Path_6-9" data-name="Path 6" d="M1459.174,877.065a.208.208,0,0,1-.035.121l-10.426-6.014.006-12.022a.224.224,0,0,1,.121.035l10.189,5.881a.237.237,0,0,1,.122.208Z" fill="#5169cd"/>
      </g>
      <path id="Path_7-9" data-name="Path 7" d="M1459.174,877.065a.208.208,0,0,1-.035.121l-1.463-.844V866.009l-8.957-5.187V859.15a.243.243,0,0,1,.121.035l10.189,5.881a.237.237,0,0,1,.122.208Z" fill="#3351c5"/>
    </g>
    <g id="Group_11-9" data-name="Group 11">
      <g id="Group_7-9" data-name="Group 7">
        <path id="Path_8-9" data-name="Path 8" d="M1446.984,877.874a.609.609,0,0,0,.18-.028.6.6,0,0,1,.4.005.507.507,0,0,0,.168.029.522.522,0,0,0,.3-.092.616.616,0,0,1,.364-.116h.133v-.087l.324.006a.1.1,0,0,0,.1.093h.07l.006-.469h-.069a.1.1,0,0,0-.1.092h0l-.324-.006v-.1h-.133a.626.626,0,0,1-.364-.122.525.525,0,0,0-.3-.1.6.6,0,0,0-.179.029.594.594,0,0,1-.4-.006.532.532,0,0,0-.168-.029.6.6,0,0,0-.179.029.61.61,0,0,1-.417-.006.64.64,0,0,0-.179-.035.52.52,0,0,0-.3.093h0a.271.271,0,0,0-.121.22v.26a.283.283,0,0,0,.115.22h0a.525.525,0,0,0,.3.1.6.6,0,0,0,.179-.029.61.61,0,0,1,.417.006A.347.347,0,0,0,1446.984,877.874Z" fill="#26d192"/>
      </g>
      <path id="Path_9-9" data-name="Path 9" d="M1451.414,869.282a5.96,5.96,0,0,1-2.764-3.268s-.22,1.706-2.62,3.268-3.475,2.636-3.354,4.672a3.042,3.042,0,0,0,2.036,2.637h8.014a3.042,3.042,0,0,0,2.036-2.637C1454.889,871.918,1453.814,870.837,1451.414,869.282Z" fill="#213993"/>
      <g id="Group_8-9" data-name="Group 8">
        <path id="Path_10-9" data-name="Path 10" d="M1450.546,874.145a10.924,10.924,0,0,1-.752-2.013l-.086-.3c-.006,0-.012-.005-.018-.005-.029-.11-.052-.214-.069-.295a.7.7,0,0,0,.347-.6h-.411a.6.6,0,0,0,.029-.173.785.785,0,0,0-.063-.3l1.035-.769-.37-.451-.85.931a1.306,1.306,0,0,0-.156-.151.769.769,0,0,1-.3-.607.789.789,0,0,1,.266-.6.6.6,0,0,0,0-.937.789.789,0,0,1-.266-.6v-.2a.789.789,0,0,1,.266-.6.6.6,0,0,0,0-.937.789.789,0,0,1-.266-.6V864.2h.214v-.145a.217.217,0,0,1,.213-.214.644.644,0,0,0,.642-.642h-.948a.783.783,0,0,0,.387-.572l.081-.567h-1.746l.1.59a.794.794,0,0,0,.382.549h-.966a.645.645,0,0,0,.642.642h0a.217.217,0,0,1,.214.214v.145h.226v.745a.79.79,0,0,1-.266.6.6.6,0,0,0-.1.842.611.611,0,0,0,.1.095.789.789,0,0,1,.266.6v.2a.788.788,0,0,1-.266.6.6.6,0,0,0-.1.842.611.611,0,0,0,.1.095.789.789,0,0,1,.266.6.776.776,0,0,1-.3.608.294.294,0,0,0-.046.04l-.232.283a.82.82,0,0,0-.127.411.594.594,0,0,0,.029.173h-.411a.7.7,0,0,0,.266.544l-.017.087h-.006l-.081.353h.018c-.041.213-.1.468-.168.734a5.825,5.825,0,0,1-.561,1.486c-.561.908-.977.85-.977,1.411h0a1.23,1.23,0,0,0,1.243,1.168h3.169a1.336,1.336,0,0,0,1.347-1.168h0C1451.489,874.995,1451.1,874.914,1450.546,874.145Z" fill="#1ec186"/>
      </g>
      <g id="Group_9-9" data-name="Group 9">
        <path id="Path_11-9" data-name="Path 11" d="M1445.134,877.626a2.018,2.018,0,0,1-1.822-1.55c-.092-.59.122-1.729,2.626-2.706a6.083,6.083,0,0,1,.607-.2c-.191-.2-.365-.393-.527-.595-.89-1.11-1.231-2.128-.965-2.874a1.445,1.445,0,0,1,.873-.92,1.755,1.755,0,0,1,.526-.109,5.336,5.336,0,0,1-.821-1.851,1.844,1.844,0,0,1,.306-1.585,1.769,1.769,0,0,1,1.828-.5,5.011,5.011,0,0,1,3.458,2.92c.37,1.238-.937,2.152-.995,2.186l-.2-.283c.011-.006,1.156-.81.855-1.8a4.7,4.7,0,0,0-3.2-2.678,1.488,1.488,0,0,0-1.492.388,1.507,1.507,0,0,0-.237,1.3,5.348,5.348,0,0,0,.907,1.92,13,13,0,0,1,4.407,1.752l.075.041c1.359.74,2.238,1.856,1.926,2.44-.157.289-.688.619-2.516-.353a12.43,12.43,0,0,1-4.077-3.545,1.862,1.862,0,0,0-.636.1,1.135,1.135,0,0,0-.671.717c-.225.63.093,1.532.908,2.544a8.08,8.08,0,0,0,.648.712,6.332,6.332,0,0,1,5.366,1.237c.411.388.579.769.48,1.081-.063.2-.26.446-.838.521-1.457.191-3.6-1.012-5.112-2.463a6.574,6.574,0,0,0-.763.242c-1.689.66-2.545,1.487-2.412,2.331a1.7,1.7,0,0,0,1.5,1.255Zm2.11-4.256c1.423,1.3,3.36,2.376,4.65,2.2.312-.041.514-.145.555-.283.058-.174-.087-.446-.388-.729A6.028,6.028,0,0,0,1447.244,873.37Zm-.086-4.32a12.336,12.336,0,0,0,3.77,3.192c1.422.758,1.96.654,2.047.5.139-.26-.359-1.2-1.787-1.971l-.075-.041A14.606,14.606,0,0,0,1447.158,869.05Z" fill="#9ff7d3"/>
      </g>
      <g id="Group_10-9" data-name="Group 10">
        <rect id="Rectangle_1-9" data-name="Rectangle 1" width="1.035" height="0.515" transform="translate(1444.966 877.175)" fill="#26d192"/>
      </g>
    </g>
  </g>
  <g id="Group_119" data-name="Group 119" transform="translate(-935.015 -522.902)">
    <g id="Group_6-10" data-name="Group 6">
      <g id="Group_1-10" data-name="Group 1">
        <path id="Path_1-10" data-name="Path 1" d="M1364.935,827.7a.134.134,0,0,1-.069.119l-.291.169-5.626-3.248-5.619,3.248-.291-.169a.134.134,0,0,1-.069-.119l-.01-6.755a.134.134,0,0,1,.069-.119l5.854-3.367a.143.143,0,0,1,.139,0l.209.119,0,6.552,5.708,3.295Z" fill="#6d81d5"/>
      </g>
      <g id="Group_2-10" data-name="Group 2">
        <path id="Path_2-10" data-name="Path 2" d="M1364.916,827.771a.14.14,0,0,1-.05.05l-5.854,3.367a.143.143,0,0,1-.139,0l-5.834-3.367a.12.12,0,0,1-.05-.05l5.96-3.446Z" fill="#2944ae"/>
      </g>
      <g id="Group_3-10" data-name="Group 3">
        <path id="Path_3-10" data-name="Path 3" d="M1364.916,827.771a.14.14,0,0,1-.05.05l-5.854,3.367a.143.143,0,0,1-.139,0l-5.834-3.367a.12.12,0,0,1-.05-.05l5.96-3.446Z" fill="#2944ae"/>
      </g>
      <path id="Path_4-10" data-name="Path 4" d="M1362.227,826.215v.007L1359.158,828a.41.41,0,0,1-.417,0l-3.07-1.778v0l3.282-1.9Z" fill="#213993"/>
      <g id="Group_4-10" data-name="Group 4">
        <path id="Path_5-10" data-name="Path 5" d="M1364.916,827.771a.15.15,0,0,1-.05.05l-5.854,3.367a.143.143,0,0,1-.139,0l-.612-.354,5.1-2.933a.141.141,0,0,0,.051-.192.137.137,0,0,0-.051-.05l-5.095-2.944h0l.682-.394Z" fill="#213993"/>
      </g>
      <g id="Group_5-10" data-name="Group 5">
        <path id="Path_6-10" data-name="Path 6" d="M1364.935,827.7a.123.123,0,0,1-.019.069l-5.97-3.443,0-6.884a.133.133,0,0,1,.07.02l5.834,3.367a.134.134,0,0,1,.069.119Z" fill="#5169cd"/>
      </g>
      <path id="Path_7-10" data-name="Path 7" d="M1364.935,827.7a.123.123,0,0,1-.019.069l-.838-.483v-5.917l-5.129-2.97v-.957a.133.133,0,0,1,.07.02l5.834,3.367a.134.134,0,0,1,.069.119Z" fill="#3351c5"/>
    </g>
    <g id="Group_11-10" data-name="Group 11">
      <g id="Group_7-10" data-name="Group 7">
        <path id="Path_8-10" data-name="Path 8" d="M1357.956,828.162a.362.362,0,0,0,.1-.016.34.34,0,0,1,.231,0,.316.316,0,0,0,.1.016.289.289,0,0,0,.173-.053.357.357,0,0,1,.208-.066h.076V828l.186,0a.055.055,0,0,0,.059.053h.04l0-.268h-.039a.056.056,0,0,0-.06.052h0l-.185,0v-.056h-.076a.355.355,0,0,1-.209-.07.3.3,0,0,0-.172-.056.36.36,0,0,0-.1.017.337.337,0,0,1-.228,0,.318.318,0,0,0-.1-.016.359.359,0,0,0-.1.016.348.348,0,0,1-.238,0,.361.361,0,0,0-.1-.02.3.3,0,0,0-.172.053h0a.153.153,0,0,0-.07.126v.149a.16.16,0,0,0,.066.126h0a.3.3,0,0,0,.173.056.356.356,0,0,0,.1-.016.345.345,0,0,1,.239,0A.2.2,0,0,0,1357.956,828.162Z" fill="#26d192"/>
      </g>
      <path id="Path_9-10" data-name="Path 9" d="M1360.492,823.242a3.413,3.413,0,0,1-1.582-1.871,3,3,0,0,1-1.5,1.871c-1.371.891-1.99,1.51-1.921,2.675a1.741,1.741,0,0,0,1.166,1.51h4.589a1.74,1.74,0,0,0,1.165-1.51C1362.482,824.752,1361.866,824.133,1360.492,823.242Z" fill="#213993"/>
      <g id="Group_8-10" data-name="Group 8">
        <path id="Path_10-10" data-name="Path 10" d="M1360,826.027a6.187,6.187,0,0,1-.431-1.153l-.05-.169-.01,0c-.016-.063-.029-.122-.039-.169a.4.4,0,0,0,.2-.344h-.235a.342.342,0,0,0,.017-.1.449.449,0,0,0-.037-.169l.593-.441-.212-.258-.487.533a.723.723,0,0,0-.089-.086.445.445,0,0,1-.169-.348.449.449,0,0,1,.153-.344.343.343,0,0,0,0-.536.45.45,0,0,1-.153-.345v-.112a.448.448,0,0,1,.153-.344.344.344,0,0,0,0-.537.449.449,0,0,1-.153-.344v-.427h.123v-.083a.125.125,0,0,1,.122-.123.368.368,0,0,0,.368-.367h-.543a.453.453,0,0,0,.222-.328l.046-.324h-1l.056.337a.456.456,0,0,0,.219.315h-.553a.368.368,0,0,0,.367.367h0a.125.125,0,0,1,.123.123v.083h.129v.427a.452.452,0,0,1-.152.344.343.343,0,0,0-.055.482.351.351,0,0,0,.055.054.454.454,0,0,1,.152.345v.112a.453.453,0,0,1-.152.345.342.342,0,0,0-.054.482.348.348,0,0,0,.054.054.453.453,0,0,1,.152.345.441.441,0,0,1-.169.347l-.026.023-.133.163a.464.464,0,0,0-.073.235.373.373,0,0,0,.017.1h-.235a.394.394,0,0,0,.152.311l-.01.05h0l-.046.2h.01c-.024.122-.057.268-.1.42a3.289,3.289,0,0,1-.321.851c-.321.52-.559.487-.559.808h0a.705.705,0,0,0,.712.669h1.814a.765.765,0,0,0,.772-.669h0C1360.535,826.513,1360.313,826.467,1360,826.027Z" fill="#1ec186"/>
      </g>
      <g id="Group_9-10" data-name="Group 9">
        <path id="Path_11-10" data-name="Path 11" d="M1356.9,828.02a1.155,1.155,0,0,1-1.043-.888c-.053-.337.07-.99,1.5-1.549a3.452,3.452,0,0,1,.347-.116c-.109-.113-.208-.225-.3-.341a1.847,1.847,0,0,1-.553-1.646.827.827,0,0,1,.5-.526.975.975,0,0,1,.3-.063,3.072,3.072,0,0,1-.47-1.06,1.051,1.051,0,0,1,.176-.907,1.011,1.011,0,0,1,1.046-.288,2.867,2.867,0,0,1,1.98,1.672c.212.709-.537,1.232-.57,1.252l-.112-.163c.006,0,.662-.463.49-1.033a2.694,2.694,0,0,0-1.831-1.533.851.851,0,0,0-.854.222.866.866,0,0,0-.136.742,3.05,3.05,0,0,0,.52,1.1,7.458,7.458,0,0,1,2.523,1l.043.024c.778.423,1.281,1.062,1.1,1.4-.089.165-.394.354-1.44-.2a7.113,7.113,0,0,1-2.334-2.03,1.033,1.033,0,0,0-.365.057.651.651,0,0,0-.384.41c-.129.361.053.877.52,1.457a4.594,4.594,0,0,0,.371.407,3.63,3.63,0,0,1,3.073.709c.235.222.331.44.274.619-.036.113-.148.255-.48.3a4.339,4.339,0,0,1-2.927-1.41,3.586,3.586,0,0,0-.437.139c-.966.377-1.456.851-1.38,1.334a.971.971,0,0,0,.861.718Zm1.209-2.437a4.049,4.049,0,0,0,2.662,1.261c.179-.023.3-.082.318-.162.033-.1-.05-.255-.222-.417A3.452,3.452,0,0,0,1358.1,825.583Zm-.05-2.473a7.07,7.07,0,0,0,2.159,1.827c.815.434,1.122.374,1.172.285.08-.149-.2-.685-1.023-1.129l-.043-.023A8.347,8.347,0,0,0,1358.055,823.11Z" fill="#9ff7d3"/>
      </g>
      <g id="Group_10-10" data-name="Group 10">
        <rect id="Rectangle_1-10" data-name="Rectangle 1" width="0.593" height="0.295" transform="translate(1356.8 827.761)" fill="#26d192"/>
      </g>
    </g>
  </g>
  <g id="Group_120" data-name="Group 120" transform="translate(-935.015 -522.902)">
    <g id="Group_6-11" data-name="Group 6">
      <g id="Group_1-11" data-name="Group 1">
        <path id="Path_1-11" data-name="Path 1" d="M1071.8,872.035a.226.226,0,0,1-.118.2l-.5.288-9.577-5.53-9.566,5.53-.5-.288a.228.228,0,0,1-.118-.2l-.017-11.5a.231.231,0,0,1,.118-.2l9.966-5.732a.249.249,0,0,1,.237,0l.355.2-.005,11.155,9.717,5.608Z" fill="#6d81d5"/>
      </g>
      <g id="Group_2-11" data-name="Group 2">
        <path id="Path_2-11" data-name="Path 2" d="M1071.764,872.159a.253.253,0,0,1-.085.084l-9.966,5.733a.255.255,0,0,1-.237,0l-9.932-5.733a.2.2,0,0,1-.084-.085l10.146-5.867Z" fill="#2944ae"/>
      </g>
      <g id="Group_3-11" data-name="Group 3">
        <path id="Path_3-11" data-name="Path 3" d="M1071.764,872.159a.253.253,0,0,1-.085.084l-9.966,5.733a.255.255,0,0,1-.237,0l-9.932-5.733a.2.2,0,0,1-.084-.085l10.146-5.867Z" fill="#2944ae"/>
      </g>
      <path id="Path_4-11" data-name="Path 4" d="M1067.186,869.509v.012l-5.225,3.026a.7.7,0,0,1-.71,0l-5.225-3.026v-.006l5.586-3.23Z" fill="#213993"/>
      <g id="Group_4-11" data-name="Group 4">
        <path id="Path_5-11" data-name="Path 5" d="M1071.764,872.159a.253.253,0,0,1-.085.084l-9.966,5.733a.255.255,0,0,1-.237,0l-1.042-.6,8.68-4.995a.237.237,0,0,0,.086-.325.228.228,0,0,0-.086-.086l-8.675-5.012h0l1.161-.67Z" fill="#213993"/>
      </g>
      <g id="Group_5-11" data-name="Group 5">
        <path id="Path_6-11" data-name="Path 6" d="M1071.8,872.034a.217.217,0,0,1-.033.119l-10.164-5.862.006-11.719a.213.213,0,0,1,.118.033l9.932,5.733a.23.23,0,0,1,.119.2Z" fill="#5169cd"/>
      </g>
      <path id="Path_7-11" data-name="Path 7" d="M1071.8,872.034a.217.217,0,0,1-.033.119l-1.427-.823V861.257l-8.731-5.056v-1.629a.231.231,0,0,1,.118.033l9.932,5.733a.23.23,0,0,1,.119.2Z" fill="#3351c5"/>
    </g>
    <g id="Group_11-11" data-name="Group 11">
      <g id="Group_7-11" data-name="Group 7">
        <path id="Path_8-11" data-name="Path 8" d="M1059.915,872.824a.581.581,0,0,0,.175-.029.592.592,0,0,1,.394.006.51.51,0,0,0,.164.028.5.5,0,0,0,.293-.09.611.611,0,0,1,.355-.113h.13v-.084l.315.005a.1.1,0,0,0,.1.091h.069l.005-.457h-.067a.1.1,0,0,0-.1.089h0l-.316-.005v-.1h-.129a.612.612,0,0,1-.355-.119.507.507,0,0,0-.293-.1.572.572,0,0,0-.175.028.578.578,0,0,1-.389-.006.536.536,0,0,0-.164-.028.6.6,0,0,0-.174.028.591.591,0,0,1-.406-.006.615.615,0,0,0-.175-.033.5.5,0,0,0-.293.09h0a.263.263,0,0,0-.119.214v.254a.275.275,0,0,0,.113.214h0a.516.516,0,0,0,.293.1.6.6,0,0,0,.175-.029.59.59,0,0,1,.406.006A.342.342,0,0,0,1059.915,872.824Z" fill="#26d192"/>
      </g>
      <path id="Path_9-11" data-name="Path 9" d="M1064.233,864.447a5.809,5.809,0,0,1-2.7-3.184s-.214,1.662-2.553,3.184-3.388,2.571-3.269,4.555a2.963,2.963,0,0,0,1.984,2.57h7.812A2.964,2.964,0,0,0,1067.5,869C1067.621,867.018,1066.572,865.964,1064.233,864.447Z" fill="#213993"/>
      <g id="Group_8-11" data-name="Group 8">
        <path id="Path_10-11" data-name="Path 10" d="M1063.387,869.188a10.6,10.6,0,0,1-.733-1.962c-.05-.174-.084-.287-.084-.287s-.011-.006-.017-.006c-.028-.107-.051-.208-.068-.287a.682.682,0,0,0,.339-.586h-.4a.612.612,0,0,0,.029-.17.809.809,0,0,0-.062-.287l1.008-.75-.36-.439-.829.907a1.165,1.165,0,0,0-.152-.146.755.755,0,0,1-.288-.592.77.77,0,0,1,.26-.587.583.583,0,0,0,.092-.82.624.624,0,0,0-.092-.093.767.767,0,0,1-.26-.586v-.191a.77.77,0,0,1,.26-.587.583.583,0,0,0,.092-.82.541.541,0,0,0-.092-.093.767.767,0,0,1-.26-.586v-.727h.209v-.141a.212.212,0,0,1,.209-.209.627.627,0,0,0,.625-.626h-.924a.764.764,0,0,0,.377-.558l.079-.552h-1.7l.1.575a.769.769,0,0,0,.372.535h-.941a.627.627,0,0,0,.625.626h0a.212.212,0,0,1,.209.209v.141h.22v.727a.771.771,0,0,1-.26.586.585.585,0,0,0-.092.821.568.568,0,0,0,.092.092.77.77,0,0,1,.26.587v.191a.768.768,0,0,1-.26.586.585.585,0,0,0-.092.821.619.619,0,0,0,.092.093.768.768,0,0,1,.26.586.753.753,0,0,1-.288.592.328.328,0,0,0-.045.039l-.225.276a.782.782,0,0,0-.124.4.576.576,0,0,0,.028.169h-.4a.675.675,0,0,0,.259.53l-.017.084h-.006l-.079.344h.017c-.039.208-.1.457-.163.716a5.7,5.7,0,0,1-.547,1.448c-.547.885-.953.829-.953,1.376h0a1.2,1.2,0,0,0,1.212,1.138h3.089a1.3,1.3,0,0,0,1.314-1.138h0C1064.306,870.017,1063.928,869.938,1063.387,869.188Z" fill="#1ec186"/>
      </g>
      <g id="Group_9-11" data-name="Group 9">
        <path id="Path_11-11" data-name="Path 11" d="M1058.111,872.581a1.964,1.964,0,0,1-1.775-1.51c-.091-.575.118-1.686,2.559-2.638a6.051,6.051,0,0,1,.592-.2,7.558,7.558,0,0,1-.513-.58c-.869-1.083-1.2-2.075-.942-2.8a1.4,1.4,0,0,1,.851-.9,1.709,1.709,0,0,1,.513-.107,5.208,5.208,0,0,1-.8-1.8,1.793,1.793,0,0,1,.3-1.545,1.721,1.721,0,0,1,1.781-.49,4.885,4.885,0,0,1,3.371,2.846c.36,1.207-.914,2.1-.97,2.131l-.192-.276c.012-.006,1.128-.789.835-1.759a4.583,4.583,0,0,0-3.117-2.61,1.453,1.453,0,0,0-1.455.378,1.48,1.48,0,0,0-.231,1.263,5.234,5.234,0,0,0,.885,1.871,12.676,12.676,0,0,1,4.3,1.708l.074.04c1.324.721,2.181,1.809,1.877,2.378-.152.282-.671.6-2.452-.343a12.113,12.113,0,0,1-3.974-3.456,1.788,1.788,0,0,0-.62.1,1.107,1.107,0,0,0-.654.7c-.22.614.09,1.494.885,2.48a7.805,7.805,0,0,0,.631.694,6.174,6.174,0,0,1,5.231,1.206c.4.378.564.75.468,1.054-.062.192-.254.434-.817.507-1.421.186-3.512-.986-4.983-2.4a6.354,6.354,0,0,0-.744.237c-1.646.642-2.481,1.449-2.351,2.272a1.656,1.656,0,0,0,1.466,1.223Zm2.058-4.148c1.386,1.268,3.275,2.316,4.532,2.147.3-.039.5-.141.541-.276.056-.169-.085-.434-.378-.71A5.872,5.872,0,0,0,1060.169,868.433Zm-.085-4.211a12.039,12.039,0,0,0,3.675,3.111c1.387.739,1.911.637,2,.485.135-.253-.35-1.167-1.742-1.922l-.073-.039A14.243,14.243,0,0,0,1060.084,864.222Z" fill="#9ff7d3"/>
      </g>
      <g id="Group_10-11" data-name="Group 10">
        <rect id="Rectangle_1-11" data-name="Rectangle 1" width="1.009" height="0.502" transform="translate(1057.948 872.142)" fill="#26d192"/>
      </g>
    </g>
  </g>
  <g id="Group_121" data-name="Group 121" transform="translate(-935.015 -522.902)">
    <g id="Group_6-12" data-name="Group 6">
      <g id="Group_1-12" data-name="Group 1">
        <path id="Path_1-12" data-name="Path 1" d="M1043.866,902.173a.223.223,0,0,1-.115.2l-.485.281-9.356-5.4-9.345,5.4-.485-.281a.226.226,0,0,1-.116-.2l-.016-11.235a.225.225,0,0,1,.115-.2l9.737-5.6a.248.248,0,0,1,.231,0l.347.2-.006,10.9,9.494,5.479Z" fill="#6d81d5"/>
      </g>
      <g id="Group_2-12" data-name="Group 2">
        <path id="Path_2-12" data-name="Path 2" d="M1043.833,902.294a.23.23,0,0,1-.082.082l-9.736,5.6a.25.25,0,0,1-.232,0l-9.7-5.6a.2.2,0,0,1-.083-.082l9.913-5.733Z" fill="#2944ae"/>
      </g>
      <g id="Group_3-12" data-name="Group 3">
        <path id="Path_3-12" data-name="Path 3" d="M1043.833,902.294a.23.23,0,0,1-.082.082l-9.736,5.6a.25.25,0,0,1-.232,0l-9.7-5.6a.2.2,0,0,1-.083-.082l9.913-5.733Z" fill="#2944ae"/>
      </g>
      <path id="Path_4-12" data-name="Path 4" d="M1039.362,899.705v.011l-5.105,2.958a.684.684,0,0,1-.694,0l-5.1-2.958v-.005l5.457-3.156Z" fill="#213993"/>
      <g id="Group_4-12" data-name="Group 4">
        <path id="Path_5-12" data-name="Path 5" d="M1043.833,902.294a.23.23,0,0,1-.082.082l-9.736,5.6a.25.25,0,0,1-.232,0l-1.019-.589,8.481-4.88a.232.232,0,0,0,.084-.318.241.241,0,0,0-.084-.084l-8.475-4.9h0l1.134-.656Z" fill="#213993"/>
      </g>
      <g id="Group_5-12" data-name="Group 5">
        <path id="Path_6-12" data-name="Path 6" d="M1043.866,902.172a.2.2,0,0,1-.033.116l-9.929-5.727.006-11.449a.217.217,0,0,1,.116.033l9.7,5.6a.223.223,0,0,1,.115.2Z" fill="#5169cd"/>
      </g>
      <path id="Path_7-12" data-name="Path 7" d="M1043.866,902.172a.2.2,0,0,1-.033.116l-1.393-.8v-9.841l-8.53-4.939v-1.592a.236.236,0,0,1,.116.033l9.7,5.6a.223.223,0,0,1,.115.2Z" fill="#3351c5"/>
    </g>
    <g id="Group_11-12" data-name="Group 11">
      <g id="Group_7-12" data-name="Group 7">
        <path id="Path_8-12" data-name="Path 8" d="M1032.258,902.944a.586.586,0,0,0,.171-.028.584.584,0,0,1,.385.005.512.512,0,0,0,.16.028.5.5,0,0,0,.286-.088.591.591,0,0,1,.347-.11h.127v-.083l.308.006a.094.094,0,0,0,.1.088h.067l.006-.446h-.066a.092.092,0,0,0-.1.087h0l-.309-.006V902.3h-.126a.6.6,0,0,1-.347-.116.5.5,0,0,0-.287-.094.578.578,0,0,0-.17.028.563.563,0,0,1-.38-.006.546.546,0,0,0-.16-.027.615.615,0,0,0-.171.027.58.58,0,0,1-.4-.005.558.558,0,0,0-.171-.033.486.486,0,0,0-.286.088h0a.256.256,0,0,0-.116.209v.248a.266.266,0,0,0,.11.209h0a.5.5,0,0,0,.286.094.583.583,0,0,0,.171-.028.577.577,0,0,1,.4.006A.334.334,0,0,0,1032.258,902.944Z" fill="#26d192"/>
      </g>
      <path id="Path_9-12" data-name="Path 9" d="M1036.476,894.76a5.671,5.671,0,0,1-2.632-3.111s-.209,1.624-2.495,3.111-3.309,2.511-3.194,4.45a2.9,2.9,0,0,0,1.939,2.511h7.632a2.9,2.9,0,0,0,1.939-2.511C1039.786,897.271,1038.762,896.242,1036.476,894.76Z" fill="#213993"/>
      <g id="Group_8-12" data-name="Group 8">
        <path id="Path_10-12" data-name="Path 10" d="M1035.65,899.392a10.334,10.334,0,0,1-.716-1.917c-.05-.171-.083-.281-.083-.281s-.011,0-.016,0c-.028-.105-.05-.2-.066-.281a.664.664,0,0,0,.33-.573h-.391a.545.545,0,0,0,.028-.165.754.754,0,0,0-.061-.281l.986-.732-.352-.43-.81.887a1.116,1.116,0,0,0-.149-.143.738.738,0,0,1-.28-.579.75.75,0,0,1,.253-.572.571.571,0,0,0,.09-.8.548.548,0,0,0-.09-.09.751.751,0,0,1-.253-.573v-.187a.751.751,0,0,1,.253-.573.571.571,0,0,0,.09-.8.637.637,0,0,0-.09-.09.751.751,0,0,1-.253-.573v-.71h.2v-.138a.208.208,0,0,1,.2-.2.613.613,0,0,0,.611-.611h-.9a.747.747,0,0,0,.369-.545l.077-.54h-1.663l.094.562a.755.755,0,0,0,.363.523h-.919a.613.613,0,0,0,.611.611h0a.208.208,0,0,1,.2.2v.138h.214v.71a.752.752,0,0,1-.253.573.569.569,0,0,0-.09.8.554.554,0,0,0,.09.091.75.75,0,0,1,.253.573v.187a.75.75,0,0,1-.253.573.57.57,0,0,0-.09.8.589.589,0,0,0,.09.09.75.75,0,0,1,.253.573.737.737,0,0,1-.28.578.327.327,0,0,0-.045.038l-.22.27a.766.766,0,0,0-.121.391.545.545,0,0,0,.028.165h-.391a.654.654,0,0,0,.253.518l-.017.083h0l-.077.336h.016c-.038.2-.093.446-.16.7a5.505,5.505,0,0,1-.534,1.415c-.534.865-.93.81-.93,1.344h0a1.172,1.172,0,0,0,1.184,1.112h3.017a1.272,1.272,0,0,0,1.284-1.112h0C1036.548,900.2,1036.179,900.124,1035.65,899.392Z" fill="#1ec186"/>
      </g>
      <g id="Group_9-12" data-name="Group 9">
        <path id="Path_11-12" data-name="Path 11" d="M1030.5,902.707a1.921,1.921,0,0,1-1.735-1.476c-.088-.562.116-1.647,2.5-2.577a5.59,5.59,0,0,1,.578-.193c-.182-.187-.347-.375-.5-.567-.848-1.058-1.173-2.027-.92-2.737a1.376,1.376,0,0,1,.832-.876,1.657,1.657,0,0,1,.5-.1,5.084,5.084,0,0,1-.782-1.762,1.753,1.753,0,0,1,.292-1.509,1.682,1.682,0,0,1,1.74-.479,4.77,4.77,0,0,1,3.293,2.781c.353,1.178-.892,2.049-.947,2.082l-.187-.27c.011-.006,1.1-.771.815-1.718a4.476,4.476,0,0,0-3.045-2.55,1.416,1.416,0,0,0-1.421.369,1.44,1.44,0,0,0-.226,1.233,5.1,5.1,0,0,0,.865,1.829,12.372,12.372,0,0,1,4.2,1.668l.071.039c1.295.705,2.132,1.768,1.834,2.324-.148.275-.655.589-2.4-.336a11.839,11.839,0,0,1-3.883-3.376,1.736,1.736,0,0,0-.606.094,1.079,1.079,0,0,0-.638.683c-.215.6.088,1.459.864,2.423a7.608,7.608,0,0,0,.617.677,6.034,6.034,0,0,1,5.111,1.179c.391.369.55.732.457,1.03-.061.187-.248.424-.8.495-1.388.182-3.431-.963-4.868-2.346a6.136,6.136,0,0,0-.727.232c-1.608.627-2.423,1.415-2.3,2.219a1.617,1.617,0,0,0,1.432,1.2Zm2.01-4.053c1.354,1.239,3.2,2.263,4.427,2.1.3-.039.49-.138.529-.27.055-.165-.083-.424-.369-.694A5.741,5.741,0,0,0,1032.506,898.654Zm-.083-4.114a11.761,11.761,0,0,0,3.59,3.04c1.355.721,1.867.622,1.95.473.132-.247-.341-1.14-1.7-1.878l-.071-.038A13.892,13.892,0,0,0,1032.423,894.54Z" fill="#9ff7d3"/>
      </g>
      <g id="Group_10-12" data-name="Group 10">
        <rect id="Rectangle_1-12" data-name="Rectangle 1" width="0.986" height="0.49" transform="translate(1030.336 902.277)" fill="#26d192"/>
      </g>
    </g>
  </g>
  <g id="Group_122" data-name="Group 122" transform="translate(-935.015 -522.902)">
    <g id="Group_6-13" data-name="Group 6">
      <g id="Group_1-13" data-name="Group 1">
        <path id="Path_1-13" data-name="Path 1" d="M1004.059,872.362a.236.236,0,0,1-.122.21l-.513.3-9.908-5.721-9.9,5.721-.514-.3a.236.236,0,0,1-.122-.21l-.017-11.9a.236.236,0,0,1,.122-.21l10.31-5.931a.259.259,0,0,1,.245,0l.367.21-.006,11.54,10.053,5.8Z" fill="#6d81d5"/>
      </g>
      <g id="Group_2-13" data-name="Group 2">
        <path id="Path_2-13" data-name="Path 2" d="M1004.024,872.491a.242.242,0,0,1-.087.087l-10.31,5.931a.265.265,0,0,1-.245,0l-10.274-5.931a.211.211,0,0,1-.088-.087l10.5-6.071Z" fill="#2944ae"/>
      </g>
      <g id="Group_3-13" data-name="Group 3">
        <path id="Path_3-13" data-name="Path 3" d="M1004.024,872.491a.242.242,0,0,1-.087.087l-10.31,5.931a.265.265,0,0,1-.245,0l-10.274-5.931a.211.211,0,0,1-.088-.087l10.5-6.071Z" fill="#2944ae"/>
      </g>
      <path id="Path_4-13" data-name="Path 4" d="M999.289,869.75v.012l-5.405,3.131a.722.722,0,0,1-.735,0l-5.406-3.131v-.006l5.779-3.341Z" fill="#213993"/>
      <g id="Group_4-13" data-name="Group 4">
        <path id="Path_5-13" data-name="Path 5" d="M1004.024,872.491a.242.242,0,0,1-.087.087l-10.31,5.931a.265.265,0,0,1-.245,0l-1.079-.624,8.981-5.167a.247.247,0,0,0,.089-.337.261.261,0,0,0-.089-.089l-8.975-5.184h0l1.2-.693Z" fill="#213993"/>
      </g>
      <g id="Group_5-13" data-name="Group 5">
        <path id="Path_6-13" data-name="Path 6" d="M1004.059,872.362a.213.213,0,0,1-.035.123l-10.513-6.065.005-12.123a.232.232,0,0,1,.123.035l10.275,5.931a.236.236,0,0,1,.122.209Z" fill="#5169cd"/>
      </g>
      <path id="Path_7-13" data-name="Path 7" d="M1004.059,872.362a.213.213,0,0,1-.035.123l-1.475-.851V861.213l-9.033-5.231V854.3a.251.251,0,0,1,.123.035l10.275,5.931a.236.236,0,0,1,.122.209Z" fill="#3351c5"/>
    </g>
    <g id="Group_11-13" data-name="Group 11">
      <g id="Group_7-13" data-name="Group 7">
        <path id="Path_8-13" data-name="Path 8" d="M991.767,873.179a.659.659,0,0,0,.181-.029.608.608,0,0,1,.408.006.576.576,0,0,0,.169.029.518.518,0,0,0,.3-.094.631.631,0,0,1,.368-.116h.134v-.088l.326.006a.1.1,0,0,0,.1.093h.071l.006-.472h-.07a.1.1,0,0,0-.105.092h0l-.326-.005v-.1H993.2a.632.632,0,0,1-.368-.122.515.515,0,0,0-.3-.1.591.591,0,0,0-.181.029.591.591,0,0,1-.4-.006.543.543,0,0,0-.169-.029.609.609,0,0,0-.181.029.607.607,0,0,1-.42-.006.653.653,0,0,0-.181-.035.522.522,0,0,0-.3.094h0a.271.271,0,0,0-.122.221v.263a.28.28,0,0,0,.116.221h0a.52.52,0,0,0,.3.1.582.582,0,0,0,.181-.029.607.607,0,0,1,.42.006A.355.355,0,0,0,991.767,873.179Z" fill="#26d192"/>
      </g>
      <path id="Path_9-13" data-name="Path 9" d="M996.234,864.514a6.014,6.014,0,0,1-2.788-3.295s-.221,1.72-2.641,3.295-3.505,2.659-3.382,4.711a3.064,3.064,0,0,0,2.052,2.659h8.082a3.065,3.065,0,0,0,2.053-2.659C999.738,867.173,998.654,866.082,996.234,864.514Z" fill="#213993"/>
      <g id="Group_8-13" data-name="Group 8">
        <path id="Path_10-13" data-name="Path 10" d="M995.359,869.418a10.906,10.906,0,0,1-.758-2.03c-.053-.18-.088-.3-.088-.3s-.011-.006-.017-.006c-.029-.111-.053-.216-.07-.3a.706.706,0,0,0,.35-.607h-.414a.6.6,0,0,0,.029-.175.8.8,0,0,0-.064-.3l1.044-.776-.373-.454-.858.938a1.4,1.4,0,0,0-.157-.151.783.783,0,0,1-.3-.612.8.8,0,0,1,.269-.607.6.6,0,0,0,.1-.849.663.663,0,0,0-.1-.1.792.792,0,0,1-.269-.606v-.2a.8.8,0,0,1,.269-.607.6.6,0,0,0,.1-.849.611.611,0,0,0-.1-.095.8.8,0,0,1-.269-.607v-.752h.216v-.146a.22.22,0,0,1,.216-.216.649.649,0,0,0,.647-.647h-.956a.8.8,0,0,0,.391-.577l.081-.572h-1.761l.1.6a.8.8,0,0,0,.385.554h-.974a.65.65,0,0,0,.648.647h0a.219.219,0,0,1,.215.216v.146h.228v.752a.8.8,0,0,1-.268.606.6.6,0,0,0-.1.849.544.544,0,0,0,.1.1.8.8,0,0,1,.268.607v.2a.8.8,0,0,1-.268.607.6.6,0,0,0-.1.849.577.577,0,0,0,.1.095.8.8,0,0,1,.268.607.779.779,0,0,1-.3.612.355.355,0,0,0-.046.041l-.233.285a.814.814,0,0,0-.129.414.6.6,0,0,0,.029.175h-.414a.7.7,0,0,0,.269.549l-.018.087h-.006l-.081.356h.017c-.041.216-.1.472-.169.74a5.862,5.862,0,0,1-.566,1.5c-.565.916-.985.857-.985,1.423h0a1.241,1.241,0,0,0,1.254,1.178h3.2a1.347,1.347,0,0,0,1.359-1.178h0C996.31,870.275,995.919,870.193,995.359,869.418Z" fill="#1ec186"/>
      </g>
      <g id="Group_9-13" data-name="Group 9">
        <path id="Path_11-13" data-name="Path 11" d="M989.9,872.928a2.033,2.033,0,0,1-1.837-1.563c-.093-.594.123-1.743,2.648-2.729q.3-.117.612-.2c-.193-.2-.368-.4-.531-.6-.9-1.12-1.242-2.146-.974-2.9a1.458,1.458,0,0,1,.881-.927,1.785,1.785,0,0,1,.53-.111,5.387,5.387,0,0,1-.828-1.866,1.859,1.859,0,0,1,.309-1.6,1.784,1.784,0,0,1,1.843-.507,5.052,5.052,0,0,1,3.487,2.945c.373,1.248-.944,2.169-1,2.2l-.2-.286c.012-.006,1.166-.816.863-1.819a4.741,4.741,0,0,0-3.225-2.7,1.5,1.5,0,0,0-1.5.391,1.523,1.523,0,0,0-.239,1.306,5.388,5.388,0,0,0,.915,1.936,13.1,13.1,0,0,1,4.444,1.767l.076.041c1.37.746,2.256,1.872,1.941,2.461-.157.291-.693.623-2.536-.356a12.529,12.529,0,0,1-4.111-3.575,1.866,1.866,0,0,0-.642.1,1.147,1.147,0,0,0-.676.723c-.228.636.093,1.546.915,2.566a8.381,8.381,0,0,0,.653.718,6.388,6.388,0,0,1,5.412,1.248c.414.39.583.775.484,1.09-.064.2-.263.449-.846.525-1.469.192-3.633-1.02-5.155-2.484a6.3,6.3,0,0,0-.769.245c-1.7.664-2.566,1.5-2.432,2.35a1.713,1.713,0,0,0,1.516,1.265Zm2.128-4.292c1.435,1.312,3.388,2.4,4.689,2.222.315-.041.519-.146.56-.286.058-.175-.088-.449-.391-.734A6.079,6.079,0,0,0,992.029,868.636Zm-.087-4.356a12.451,12.451,0,0,0,3.8,3.219c1.434.764,1.976.659,2.064.5.14-.263-.361-1.207-1.8-1.989l-.075-.041A14.762,14.762,0,0,0,991.942,864.28Z" fill="#9ff7d3"/>
      </g>
      <g id="Group_10-13" data-name="Group 10">
        <rect id="Rectangle_1-13" data-name="Rectangle 1" width="1.044" height="0.519" transform="translate(989.732 872.473)" fill="#26d192"/>
      </g>
    </g>
  </g>
  <g id="Group_123" data-name="Group 123" transform="translate(-935.015 -522.902)">
    <g id="Group_6-14" data-name="Group 6">
      <g id="Group_1-14" data-name="Group 1">
        <path id="Path_1-14" data-name="Path 1" d="M1042.043,848a.2.2,0,0,1-.1.179l-.437.253-8.428-4.866-8.418,4.866-.437-.253a.206.206,0,0,1-.1-.179l-.015-10.119a.2.2,0,0,1,.1-.179l8.77-5.045a.219.219,0,0,1,.208,0l.313.179-.005,9.817,8.552,4.935Z" fill="#6d81d5"/>
      </g>
      <g id="Group_2-14" data-name="Group 2">
        <path id="Path_2-14" data-name="Path 2" d="M1042.013,848.106a.209.209,0,0,1-.074.074l-8.771,5.045a.219.219,0,0,1-.208,0l-8.741-5.045a.184.184,0,0,1-.074-.075l8.929-5.164Z" fill="#2944ae"/>
      </g>
      <g id="Group_3-14" data-name="Group 3">
        <path id="Path_3-14" data-name="Path 3" d="M1042.013,848.106a.209.209,0,0,1-.074.074l-8.771,5.045a.219.219,0,0,1-.208,0l-8.741-5.045a.184.184,0,0,1-.074-.075l8.929-5.164Z" fill="#2944ae"/>
      </g>
      <path id="Path_4-14" data-name="Path 4" d="M1037.985,845.774v.01l-4.6,2.664a.614.614,0,0,1-.625,0l-4.6-2.664v-.005l4.916-2.843Z" fill="#213993"/>
      <g id="Group_4-14" data-name="Group 4">
        <path id="Path_5-14" data-name="Path 5" d="M1042.013,848.106a.218.218,0,0,1-.074.074l-8.771,5.045a.219.219,0,0,1-.208,0l-.918-.531,7.64-4.395a.208.208,0,0,0,.075-.286.2.2,0,0,0-.075-.076l-7.635-4.41h0l1.022-.591Z" fill="#213993"/>
      </g>
      <g id="Group_5-14" data-name="Group 5">
        <path id="Path_6-14" data-name="Path 6" d="M1042.043,848a.186.186,0,0,1-.03.105l-8.944-5.16.005-10.313a.191.191,0,0,1,.1.03l8.741,5.045a.2.2,0,0,1,.1.179Z" fill="#5169cd"/>
      </g>
      <path id="Path_7-14" data-name="Path 7" d="M1042.043,848a.186.186,0,0,1-.03.105l-1.255-.725v-8.864l-7.684-4.45v-1.434a.21.21,0,0,1,.1.03l8.741,5.045a.2.2,0,0,1,.1.179Z" fill="#3351c5"/>
    </g>
    <g id="Group_11-14" data-name="Group 11">
      <g id="Group_7-14" data-name="Group 7">
        <path id="Path_8-14" data-name="Path 8" d="M1031.586,848.691a.539.539,0,0,0,.154-.025.523.523,0,0,1,.347.005.468.468,0,0,0,.144.025.442.442,0,0,0,.258-.08.535.535,0,0,1,.312-.1h.115v-.074l.277.005a.084.084,0,0,0,.089.079h.06l.005-.4h-.059a.085.085,0,0,0-.09.079h0l-.277-.005v-.085h-.115a.533.533,0,0,1-.312-.1.442.442,0,0,0-.258-.084.5.5,0,0,0-.154.025.509.509,0,0,1-.342-.005.441.441,0,0,0-.144-.025.506.506,0,0,0-.154.025.522.522,0,0,1-.357-.005.5.5,0,0,0-.154-.03.449.449,0,0,0-.258.079h0a.235.235,0,0,0-.1.189v.223a.243.243,0,0,0,.1.189h0a.452.452,0,0,0,.258.084.54.54,0,0,0,.154-.025.522.522,0,0,1,.357.005A.308.308,0,0,0,1031.586,848.691Z" fill="#26d192"/>
      </g>
      <path id="Path_9-14" data-name="Path 9" d="M1035.386,841.319a5.107,5.107,0,0,1-2.371-2.8,4.5,4.5,0,0,1-2.247,2.8c-2.054,1.335-2.982,2.262-2.878,4.009a2.61,2.61,0,0,0,1.747,2.262h6.875a2.608,2.608,0,0,0,1.746-2.262C1038.367,843.581,1037.445,842.654,1035.386,841.319Z" fill="#213993"/>
      <g id="Group_8-14" data-name="Group 8">
        <path id="Path_10-14" data-name="Path 10" d="M1034.642,845.491a9.266,9.266,0,0,1-.645-1.726c-.045-.154-.075-.253-.075-.253s-.01-.005-.015-.005c-.024-.094-.044-.184-.059-.253a.6.6,0,0,0,.3-.516h-.353a.5.5,0,0,0,.025-.149.688.688,0,0,0-.054-.253l.888-.659-.318-.387-.729.8a1.159,1.159,0,0,0-.134-.129.66.66,0,0,1-.253-.521.674.674,0,0,1,.228-.515.514.514,0,0,0,.081-.723.477.477,0,0,0-.081-.081.678.678,0,0,1-.228-.516v-.169a.674.674,0,0,1,.228-.515.514.514,0,0,0,.081-.723.479.479,0,0,0-.081-.081.677.677,0,0,1-.228-.516v-.64h.184v-.124a.186.186,0,0,1,.183-.184.552.552,0,0,0,.551-.55h-.814a.675.675,0,0,0,.333-.491l.069-.487h-1.5l.084.506a.678.678,0,0,0,.328.472h-.829a.553.553,0,0,0,.551.55h0a.186.186,0,0,1,.183.184v.124h.194v.64a.682.682,0,0,1-.228.516.514.514,0,0,0-.082.722.526.526,0,0,0,.082.081.678.678,0,0,1,.228.516v.169a.679.679,0,0,1-.228.516.514.514,0,0,0-.082.722.532.532,0,0,0,.082.082.677.677,0,0,1,.228.516.659.659,0,0,1-.253.52.337.337,0,0,0-.04.035l-.2.243a.691.691,0,0,0-.109.352.532.532,0,0,0,.024.149h-.352a.6.6,0,0,0,.228.467l-.015.074h0l-.07.3h.015c-.035.183-.084.4-.144.63a4.99,4.99,0,0,1-.481,1.274c-.481.779-.838.73-.838,1.211h0a1.056,1.056,0,0,0,1.066,1h2.719a1.146,1.146,0,0,0,1.155-1h0C1035.45,846.221,1035.118,846.151,1034.642,845.491Z" fill="#1ec186"/>
      </g>
      <g id="Group_9-14" data-name="Group 9">
        <path id="Path_11-14" data-name="Path 11" d="M1030,848.478a1.731,1.731,0,0,1-1.563-1.33c-.079-.506.1-1.483,2.252-2.322.171-.066.344-.124.521-.173a6.8,6.8,0,0,1-.451-.511,2.766,2.766,0,0,1-.829-2.465,1.237,1.237,0,0,1,.749-.789,1.489,1.489,0,0,1,.452-.095,4.549,4.549,0,0,1-.7-1.587,1.577,1.577,0,0,1,.263-1.359,1.515,1.515,0,0,1,1.568-.432,4.3,4.3,0,0,1,2.966,2.505c.318,1.062-.8,1.846-.853,1.875l-.169-.243c.01-.005.992-.694.734-1.548a4.03,4.03,0,0,0-2.743-2.3,1.274,1.274,0,0,0-1.28.332,1.3,1.3,0,0,0-.2,1.111,4.582,4.582,0,0,0,.779,1.647,11.184,11.184,0,0,1,3.78,1.5l.064.035c1.166.635,1.92,1.592,1.652,2.093-.134.249-.59.531-2.158-.3a10.651,10.651,0,0,1-3.5-3.041,1.582,1.582,0,0,0-.546.084.977.977,0,0,0-.575.615c-.194.541.079,1.315.779,2.183a6.986,6.986,0,0,0,.555.61,5.437,5.437,0,0,1,4.6,1.062c.352.332.5.66.411.928-.054.168-.223.382-.719.446-1.25.164-3.09-.868-4.385-2.113a5.587,5.587,0,0,0-.655.208c-1.448.566-2.183,1.275-2.068,2a1.458,1.458,0,0,0,1.29,1.077Zm1.81-3.652c1.221,1.117,2.882,2.039,3.989,1.89.267-.034.441-.124.476-.243.049-.148-.075-.382-.333-.625A5.175,5.175,0,0,0,1031.809,844.826Zm-.074-3.705a10.585,10.585,0,0,0,3.234,2.738c1.22.65,1.682.561,1.756.427.119-.223-.307-1.027-1.533-1.692l-.064-.035A12.517,12.517,0,0,0,1031.735,841.121Z" fill="#9ff7d3"/>
      </g>
      <g id="Group_10-14" data-name="Group 10">
        <rect id="Rectangle_1-14" data-name="Rectangle 1" width="0.888" height="0.442" transform="translate(1029.855 848.091)" fill="#26d192"/>
      </g>
    </g>
  </g>
</svg>
