<svg xmlns="http://www.w3.org/2000/svg" width="18.229" height="15.589" viewBox="0 0 18.229 15.589">
  <g id="Connect_to_Wallet_After" data-name="Connect to Wallet After" transform="translate(0.6 0.6)">
    <path id="Path_2500" data-name="Path 2500" d="M266.107,461.942,274.052,459l1.089,2.942" transform="translate(-262.112 -459)" fill="none" stroke="#1ec186" stroke-linecap="round" stroke-linejoin="round" stroke-width="1.2"/>
    <path id="Path_2501" data-name="Path 2501" d="M269.66,471.324v-2.205a1.344,1.344,0,0,0-1.344-1.344H255.536a1.344,1.344,0,0,0-1.344,1.344v8.758a1.344,1.344,0,0,0,1.344,1.344h12.779a1.344,1.344,0,0,0,1.344-1.344v-2.206" transform="translate(-254.192 -464.832)" fill="none" stroke="#1ec186" stroke-linecap="round" stroke-linejoin="round" stroke-width="1.2"/>
    <path id="Rectangle_43" data-name="Rectangle 43" d="M2.174,0H7.4A.663.663,0,0,1,8.06.663V3.684a.663.663,0,0,1-.663.663H2.174A2.174,2.174,0,0,1,0,2.174v0A2.174,2.174,0,0,1,2.174,0Z" transform="translate(8.968 6.491)" fill="none" stroke="#1ec186" stroke-linecap="round" stroke-linejoin="round" stroke-width="1.2"/>
    <circle id="Ellipse_16" data-name="Ellipse 16" cx="0.689" cy="0.689" r="0.689" transform="translate(10.867 7.976)" stroke-width="1.2" stroke="#1ec186" stroke-linecap="round" stroke-linejoin="round" fill="none"/>
  </g>
</svg>
