<svg id="Dashboard_Art" data-name="Dashboard Art" xmlns="http://www.w3.org/2000/svg" xmlns:xlink="http://www.w3.org/1999/xlink" width="473.673" height="400" viewBox="0 0 473.673 400">
  <defs>
    <linearGradient id="linear-gradient" x1="0.474" y1="0.181" x2="0.541" y2="0.99" gradientUnits="objectBoundingBox">
      <stop offset="0" stop-color="#965cf2"/>
      <stop offset="1" stop-color="#ff8adc"/>
    </linearGradient>
    <linearGradient id="linear-gradient-2" x1="0.501" y1="0.117" x2="0.499" y2="0.79" gradientUnits="objectBoundingBox">
      <stop offset="0" stop-color="#6d6afe"/>
      <stop offset="1" stop-color="#3fb0f7"/>
    </linearGradient>
    <linearGradient id="linear-gradient-3" x1="0.714" y1="0.667" x2="0.149" y2="0.226" xlink:href="#linear-gradient"/>
    <linearGradient id="linear-gradient-4" x1="0.44" y1="0.199" x2="0.716" y2="0.924" xlink:href="#linear-gradient-2"/>
    <linearGradient id="linear-gradient-6" x1="0.246" y1="0.741" x2="0.756" y2="0.258" gradientUnits="objectBoundingBox">
      <stop offset="0" stop-color="#fa5db1"/>
      <stop offset="1" stop-color="#febfbf"/>
    </linearGradient>
    <linearGradient id="linear-gradient-7" x1="0.755" y1="0.406" x2="0.36" y2="0.552" gradientUnits="objectBoundingBox">
      <stop offset="0" stop-color="#d1e8ff"/>
      <stop offset="1" stop-color="#eaefff"/>
    </linearGradient>
    <linearGradient id="linear-gradient-8" x1="1.332" y1="0.349" x2="-0.708" y2="0.754" xlink:href="#linear-gradient-7"/>
    <linearGradient id="linear-gradient-9" x1="0.434" y1="0.57" x2="0.764" y2="0.256" xlink:href="#linear-gradient-2"/>
    <linearGradient id="linear-gradient-10" x1="-1.979" y1="0.698" x2="1.473" y2="0.422" xlink:href="#linear-gradient-2"/>
    <linearGradient id="linear-gradient-11" x1="0.708" y1="0.206" x2="0.359" y2="0.711" gradientUnits="objectBoundingBox">
      <stop offset="0" stop-color="#1c8ef4"/>
      <stop offset="1" stop-color="#00cfdd"/>
    </linearGradient>
    <linearGradient id="linear-gradient-12" x1="0.459" y1="0.443" x2="0.193" y2="0.101" xlink:href="#linear-gradient"/>
    <linearGradient id="linear-gradient-13" x1="0.49" y1="0.906" x2="0.513" y2="-0.021" xlink:href="#linear-gradient-2"/>
    <linearGradient id="linear-gradient-14" x1="0.847" y1="0.29" x2="0.547" y2="0.687" gradientUnits="objectBoundingBox">
      <stop offset="0" stop-color="#e46aa8"/>
      <stop offset="0.56" stop-color="#d985b8"/>
      <stop offset="1" stop-color="#f9b29d"/>
    </linearGradient>
    <linearGradient id="linear-gradient-15" x1="0.73" y1="0.469" x2="0.189" y2="0.542" xlink:href="#linear-gradient-14"/>
    <linearGradient id="linear-gradient-16" x1="0.871" y1="1.353" x2="0.313" y2="-0.045" xlink:href="#linear-gradient-2"/>
    <linearGradient id="linear-gradient-17" x1="0.777" y1="0.756" x2="-0.012" y2="0.14" xlink:href="#linear-gradient"/>
    <linearGradient id="linear-gradient-18" x1="0.624" y1="0.61" x2="0.174" y2="0.213" xlink:href="#linear-gradient-6"/>
    <linearGradient id="linear-gradient-19" x1="0.911" y1="0.787" x2="0.041" y2="0.266" xlink:href="#linear-gradient-6"/>
    <linearGradient id="linear-gradient-20" x1="0.548" y1="0.975" x2="0.429" y2="0.134" xlink:href="#linear-gradient"/>
    <linearGradient id="linear-gradient-21" x1="0.482" y1="0.55" x2="0.6" y2="0.39" xlink:href="#linear-gradient-2"/>
    <linearGradient id="linear-gradient-22" x1="0.431" y1="0.555" x2="0.675" y2="0.361" xlink:href="#linear-gradient-2"/>
    <linearGradient id="linear-gradient-23" x1="192.08" y1="0.204" x2="191.677" y2="0.815" gradientUnits="objectBoundingBox">
      <stop offset="0" stop-color="#94e69a"/>
      <stop offset="1" stop-color="#17adc9"/>
    </linearGradient>
    <linearGradient id="linear-gradient-24" x1="255.503" y1="0.261" x2="255.972" y2="0.775" gradientUnits="objectBoundingBox">
      <stop offset="0" stop-color="#3773c2"/>
      <stop offset="1" stop-color="#214075"/>
    </linearGradient>
    <linearGradient id="linear-gradient-25" x1="642.138" y1="0.321" x2="642.565" y2="0.982" xlink:href="#linear-gradient-24"/>
    <linearGradient id="linear-gradient-26" x1="150.531" y1="0.257" x2="151.414" y2="0.737" xlink:href="#linear-gradient-24"/>
    <linearGradient id="linear-gradient-27" x1="536.083" y1="0.35" x2="536.618" y2="0.693" xlink:href="#linear-gradient-24"/>
    <linearGradient id="linear-gradient-28" x1="158.965" y1="0.31" x2="159.183" y2="0.824" xlink:href="#linear-gradient-23"/>
    <linearGradient id="linear-gradient-29" x1="266.252" y1="0.284" x2="266.565" y2="0.643" gradientUnits="objectBoundingBox">
      <stop offset="0" stop-color="#ff8a78"/>
      <stop offset="0.37" stop-color="#ff9584"/>
      <stop offset="1" stop-color="#ffa799"/>
    </linearGradient>
    <linearGradient id="linear-gradient-30" x1="266.358" y1="0.316" x2="266.532" y2="0.791" gradientUnits="objectBoundingBox">
      <stop offset="0" stop-color="#ffb89e"/>
      <stop offset="1" stop-color="#ffa799"/>
    </linearGradient>
    <linearGradient id="linear-gradient-31" x1="262.533" y1="0.262" x2="262.755" y2="0.921" gradientUnits="objectBoundingBox">
      <stop offset="0" stop-color="#5a2d68"/>
      <stop offset="1" stop-color="#22043d"/>
    </linearGradient>
    <linearGradient id="linear-gradient-32" x1="463.878" y1="0.187" x2="464.467" y2="0.755" gradientUnits="objectBoundingBox">
      <stop offset="0" stop-color="#8a4791"/>
      <stop offset="1" stop-color="#562e65"/>
    </linearGradient>
    <linearGradient id="linear-gradient-33" x1="180.55" y1="0.295" x2="180.44" y2="0.88" gradientUnits="objectBoundingBox">
      <stop offset="0" stop-color="#c4e0f5"/>
      <stop offset="1" stop-color="#e1e8f6"/>
    </linearGradient>
    <linearGradient id="linear-gradient-34" x1="181.524" y1="0.561" x2="181.83" y2="0.27" xlink:href="#linear-gradient-2"/>
    <linearGradient id="linear-gradient-35" x1="654.61" y1="0.383" x2="654.432" y2="0.608" xlink:href="#linear-gradient-33"/>
    <linearGradient id="linear-gradient-36" x1="338.912" y1="0.085" x2="339.215" y2="0.846" xlink:href="#linear-gradient-23"/>
    <linearGradient id="linear-gradient-37" x1="-55.949" y1="0.445" x2="-55.821" y2="0.767" gradientUnits="objectBoundingBox">
      <stop offset="0" stop-color="#9f73f7"/>
      <stop offset="1" stop-color="#565dd6"/>
    </linearGradient>
    <linearGradient id="linear-gradient-38" x1="-377.104" y1="0.534" x2="-377.412" y2="-0.059" gradientUnits="objectBoundingBox">
      <stop offset="0" stop-color="#ff8a78"/>
      <stop offset="1" stop-color="#ffa799"/>
    </linearGradient>
    <linearGradient id="linear-gradient-39" x1="-137.601" y1="0.229" x2="-138.319" y2="0.771" gradientUnits="objectBoundingBox">
      <stop offset="0" stop-color="#3a407f"/>
      <stop offset="1" stop-color="#1b2153"/>
    </linearGradient>
    <linearGradient id="linear-gradient-40" x1="-93.91" y1="0.21" x2="-94.818" y2="0.778" xlink:href="#linear-gradient-39"/>
    <linearGradient id="linear-gradient-41" x1="-71.425" y1="0.19" x2="-71.209" y2="0.907" xlink:href="#linear-gradient-37"/>
    <linearGradient id="linear-gradient-42" x1="-148.197" y1="0.44" x2="-148.242" y2="0.659" xlink:href="#linear-gradient-30"/>
    <linearGradient id="linear-gradient-43" x1="-109.432" y1="0.023" x2="-109.06" y2="1.052" xlink:href="#linear-gradient-37"/>
    <linearGradient id="linear-gradient-44" x1="-286.309" y1="0.429" x2="-286.563" y2="0.659" xlink:href="#linear-gradient-38"/>
    <linearGradient id="linear-gradient-45" x1="-258.337" y1="0.241" x2="-258.622" y2="0.78" xlink:href="#linear-gradient-30"/>
    <linearGradient id="linear-gradient-46" x1="-252.15" y1="0.688" x2="-252.356" y2="0.386" xlink:href="#linear-gradient-32"/>
  </defs>
  <g id="Group_102" data-name="Group 102" transform="translate(-762.982 -793.85)">
    <g id="Group_100" data-name="Group 100">
      <path id="Path_2500" data-name="Path 2500" d="M968.268,928.878c-6.538-3.78-12.241-12.7-12.741-19.92s4.392-10.014,10.93-6.234,12.241,12.7,12.741,19.919S974.8,932.656,968.268,928.878Z" fill-rule="evenodd" fill="url(#linear-gradient)"/>
      <path id="Path_2501" data-name="Path 2501" d="M971.471,910.652l1.734.867-7.7,11.718-6.8-10.078,2.238.875,3.589,3.407Z" fill="#fff" fill-rule="evenodd"/>
    </g>
    <g id="Group_101" data-name="Group 101">
      <circle id="Ellipse_16" data-name="Ellipse 16" cx="14.706" cy="14.706" r="14.706" transform="translate(762.982 1114.991) rotate(-1.898)" opacity="0.5" fill="url(#linear-gradient-2)"/>
      <path id="Path_2502" data-name="Path 2502" d="M959.271,1114.99a31.513,31.513,0,1,1-31.514,31.514,31.513,31.513,0,0,1,31.514-31.514Zm0,8.391a23.123,23.123,0,1,0,23.123,23.123A23.122,23.122,0,0,0,959.271,1123.381Z" fill-rule="evenodd" opacity="0.5" fill="url(#linear-gradient-3)"/>
      <path id="Path_2503" data-name="Path 2503" d="M817.582,832.657l-5.762-3.175a5.038,5.038,0,0,1-2.132-2.733l-2.212-7A4.947,4.947,0,0,0,805.323,817c-.855-.472-1.671-.4-1.907.5l-1.324,5.045c-.214.8-.974,1.016-1.916.494l-5.751-3.189c-2.064-1.142-2.717,1.3-.939,3.568l4.926,6.269a3.962,3.962,0,0,1,.975,3.073l-1.346,5.011c-.367,1.386.932,3.486,2.267,4.224a1.645,1.645,0,0,0,1.216.226l4.37-1.149a1.681,1.681,0,0,1,1.226.239,4.389,4.389,0,0,1,1.293,1.153l4.918,6.284a4.322,4.322,0,0,0,1.284,1.156c1.331.737,2.411-.046,1.8-1.962l-2.222-6.995c-.367-1.141-.131-2.032.577-2.216l4.38-1.123C820.732,837.2,819.657,833.8,817.582,832.657Z" fill-rule="evenodd" opacity="0.5" fill="url(#linear-gradient-4)"/>
      <path id="Path_2504" data-name="Path 2504" d="M1157.907,1035.756c-8.941-5.163-16.165-17.675-16.136-27.948s7.3-14.416,16.24-9.256,16.164,17.674,16.135,27.947-7.3,14.42-16.239,9.257Zm-.013,4.353c11.033,6.371,20.005,1.254,20.04-11.422s-8.878-28.117-19.911-34.488-20.005-1.257-20.041,11.422S1146.861,1033.738,1157.894,1040.109Z" fill="#fff" fill-rule="evenodd" opacity="0.5"/>
      <path id="Path_2505" data-name="Path 2505" d="M1190.682,826.583a10.937,10.937,0,1,1-10.938,10.937A10.937,10.937,0,0,1,1190.682,826.583Z" fill-rule="evenodd" opacity="0.5" fill="url(#linear-gradient-2)"/>
      <path id="Path_2506" data-name="Path 2506" d="M887.729,869.465a18.9,18.9,0,1,1-18.9,18.9,18.9,18.9,0,0,1,18.9-18.9Zm0,5.032a13.866,13.866,0,1,0,13.866,13.866A13.866,13.866,0,0,0,887.729,874.5Z" fill="#fff" fill-rule="evenodd" opacity="0.5"/>
      <path id="Path_2507" data-name="Path 2507" d="M1103.973,793.85a18.5,18.5,0,1,1-18.5,18.5,18.5,18.5,0,0,1,18.5-18.5Zm0,4.925a13.571,13.571,0,1,0,13.571,13.571A13.571,13.571,0,0,0,1103.973,798.775Z" fill-rule="evenodd" opacity="0.5" fill="url(#linear-gradient-6)"/>
    </g>
  </g>
  <g id="Group_162" data-name="Group 162" transform="translate(-762.982 -793.85)">
    <g id="Group_139" data-name="Group 139">
      <g id="Group_106" data-name="Group 106">
        <path id="Path_2508" data-name="Path 2508" d="M1217.071,1185.039,962.544,1038.582c-2.106-1.008-5.12-1.839-7.266-.769-1.955.975-5.176,2.988-6.6,3.769-1.082.594-4.837,2.763-2.5,4.085,6.879,3.89,248.9,143.28,255.882,147.232a9.9,9.9,0,0,0,5.283.924,13.757,13.757,0,0,0,5.722-1.58l3.426-1.92c1.515-.85,2.319-1.877,2.4-2.839C1218.969,1186.543,1218.364,1185.657,1217.071,1185.039Z" fill="#4aabbe" fill-rule="evenodd" opacity="0.5"/>
        <g id="Group_105" data-name="Group 105">
          <g id="Group_103" data-name="Group 103">
            <path id="Path_2509" data-name="Path 2509" d="M1217.135,935.046c10.958,6.312,19.553,21.589,19.519,33.8l-10.07,12.876-9.038-1.772c-4.942-8.636-23.955-16.172-19.517-33.807l-183.9-100.467L958.6,807.913h0c.237-1.423-1.5-8.439.048-9.377,1.727-1.048,3.433-2.1,5.128-3.09,4.339-2.566,9.869-.979,13.93,1.363h0Z" fill="#ddebff" fill-rule="evenodd"/>
            <path id="Path_2510" data-name="Path 2510" d="M1236.187,1176.8c-.018,6.169-2.2,10.511-5.717,12.555l-5.006,3.011c-20.747-9.749-12.5-101.831-13.8-132.41l5.878-80,19.108-11.1Z" fill="#d0e7ff" fill-rule="evenodd"/>
          </g>
          <path id="Path_2511" data-name="Path 2511" d="M952.965,811.073c.034-12.418,8.829-17.442,19.644-11.2l239.432,138.235c10.8,6.239,19.552,21.39,19.517,33.807l-.465,207.951c-.035,12.415-8.841,17.434-19.647,11.195L972.016,1052.83c-10.818-6.246-19.553-21.391-19.518-33.807Z" fill-rule="evenodd" fill="url(#linear-gradient-7)"/>
          <path id="Path_2512" data-name="Path 2512" d="M952.965,811.072c.034-12.417,8.829-17.441,19.644-11.2l20.051,11.576-.568,252.968-20.076-11.591c-10.818-6.246-19.553-21.391-19.519-33.807Z" fill-rule="evenodd" fill="url(#linear-gradient-8)"/>
          <path id="Path_2513" data-name="Path 2513" d="M953.375,806.771c1.854-9.2,9.77-12.359,19.234-6.894l239.432,138.234c9.453,5.46,17.332,17.741,19.131,29.044Z" fill="#f2f4ff" fill-rule="evenodd"/>
          <g id="Group_104" data-name="Group 104">
            <path id="Path_2514" data-name="Path 2514" d="M984.248,814.621c-1.613-.931-2.923-.183-2.929,1.67a6.417,6.417,0,0,0,2.91,5.042c1.612.93,2.924.183,2.929-1.671A6.416,6.416,0,0,0,984.248,814.621Z" fill="#7980ff" fill-rule="evenodd"/>
            <path id="Path_2515" data-name="Path 2515" d="M974.6,808.326c-1.613-.932-2.923-.183-2.929,1.669a6.415,6.415,0,0,0,2.911,5.042c1.612.931,2.923.183,2.928-1.671A6.409,6.409,0,0,0,974.6,808.326Z" fill="#7980ff" fill-rule="evenodd"/>
            <path id="Path_2516" data-name="Path 2516" d="M965.767,803.045c-1.613-.931-2.923-.182-2.929,1.67a6.415,6.415,0,0,0,2.91,5.042c1.612.93,2.924.183,2.93-1.671A6.419,6.419,0,0,0,965.767,803.045Z" fill="#7980ff" fill-rule="evenodd"/>
          </g>
          <path id="Path_2517" data-name="Path 2517" d="M973.532,864.151c-8.547-4.941-16-16.595-16.655-26.039s5.74-13.091,14.288-8.15,16,16.6,16.654,26.039-5.744,13.089-14.287,8.15Zm-.186-2.687c7.2,4.161,12.593,1.09,12.041-6.869s-6.837-17.783-14.036-21.945-12.593-1.086-12.042,6.869S966.143,857.3,973.346,861.464Z" fill="#e0ebff" fill-rule="evenodd"/>
        </g>
      </g>
      <g id="Group_138" data-name="Group 138">
        <g id="Group_110" data-name="Group 110">
          <path id="Path_2518" data-name="Path 2518" d="M1110.342,859.848c.006-2.218,1.577-3.116,3.508-2,20.467,11.738,40.891,23.89,61.359,35.63a7.687,7.687,0,0,1,3.485,6.037l.1,81.02c-.006,2.217-1.579,3.113-3.509,2-20.467-11.74-40.9-23.893-61.358-35.63a7.686,7.686,0,0,1-3.486-6.037Z" fill="#c2dcf6" fill-rule="evenodd"/>
          <g id="Group_109" data-name="Group 109">
            <path id="Path_2519" data-name="Path 2519" d="M1110.777,858.2l1.606-.849a2.55,2.55,0,0,1,2.047.362c19.216,11.022,38.392,22.431,57.61,33.453a7.222,7.222,0,0,1,3.272,5.669l.094,76.068a2.4,2.4,0,0,1-.813,2.009c-.6.448-1.852,1.417-2.84.846-19.216-11.022-38.037-23.41-57.25-34.431a7.213,7.213,0,0,1-3.273-5.668Z" fill="#f2f4ff" fill-rule="evenodd"/>
            <g id="Group_108" data-name="Group 108">
              <path id="Path_2520" data-name="Path 2520" d="M1109.8,860.316c.006-2.082,1.481-2.925,3.294-1.878,19.216,11.022,38.392,22.431,57.61,33.453a7.225,7.225,0,0,1,3.272,5.668l.094,76.069c-.006,2.082-1.483,2.923-3.295,1.877-19.216-11.022-38.4-22.433-57.609-33.453a7.214,7.214,0,0,1-3.272-5.668Z" fill="#fff" fill-rule="evenodd"/>
              <path id="Path_2521" data-name="Path 2521" d="M1109.8,860.316c.006-2.082,1.48-2.925,3.294-1.878,19.216,11.022,38.392,22.431,57.61,33.453a7.222,7.222,0,0,1,3.272,5.668l.068,59.775-64.176-36.809Z" fill-rule="evenodd" fill="url(#linear-gradient-9)"/>
              <path id="Path_2522" data-name="Path 2522" d="M1118.524,861.563q6.489,3.746,12.974,7.53v63.838l-12.974-7.441Z" fill-rule="evenodd" fill="url(#linear-gradient-10)"/>
              <g id="Group_107" data-name="Group 107">
                <path id="Path_2523" data-name="Path 2523" d="M1114.567,928.562c0-.9.639-1.252,1.422-.786l17.7,10a3.18,3.18,0,0,1,1.413,2.472v1.778c0,.9-.641,1.252-1.423.787l-17.7-10a3.178,3.178,0,0,1-1.414-2.472Z" fill="#40aef6" fill-rule="evenodd" opacity="0.25"/>
                <path id="Path_2524" data-name="Path 2524" d="M1114.567,936.364c0-.792.563-1.1,1.253-.693,10.034,5.669,26.478,14.925,36.512,20.594a2.8,2.8,0,0,1,1.245,2.178v1.568c0,.792-.564,1.1-1.253.693-10.034-5.67-26.478-14.926-36.512-20.595a2.8,2.8,0,0,1-1.246-2.178Z" fill="#40aef6" fill-rule="evenodd" opacity="0.25"/>
              </g>
              <path id="Path_2525" data-name="Path 2525" d="M1141.181,914.13c1.578,2.5,2.935,7.221,3.469,8.842a77.058,77.058,0,0,0,2.751,7.535c.866,1.924,2.123,4.234,4.009,5.321a5.029,5.029,0,0,0,4.45.506,9.009,9.009,0,0,0,3.63-3.245c.448-.583.732-.792.969-.766.452.049,1.362,1.644,1.592,2.041a19.656,19.656,0,0,1,1.167,2.324c.608,1.476,1.813,5.258,2.319,6.773l.158.477,3.6,2a2.948,2.948,0,0,0,1.126.323l-.572-1.836c-.753-2.5-2.219-7.008-3.237-9.409-.792-1.868-2.178-4.938-3.9-6.426a3.454,3.454,0,0,0-2.921-.9c-1.526.283-2.521,1.6-3.409,2.756-.179.232-.358.464-.542.692a4.513,4.513,0,0,1-1.579,1.4,1.429,1.429,0,0,1-1.17-.235c-1.885-1.085-4.08-8.282-4.765-10.363a77.351,77.351,0,0,0-2.763-7.561c-.871-1.933-2.134-4.253-4.028-5.346a3.675,3.675,0,0,0-2.89-.453,5.1,5.1,0,0,0-2.923,2.9,30.846,30.846,0,0,0-1.508,3.944,30.756,30.756,0,0,1-1.273,3.406,4.433,4.433,0,0,1-.869,1.313,1.068,1.068,0,0,1-.158-.075c-1.252-.717-2.717-3.888-3.272-5.166a94.958,94.958,0,0,1-3.583-10.2c-.772-2.543-1.5-5.1-2.222-7.655-.424-1.493-.845-2.987-1.286-4.475-.262-.886-.529-1.776-.821-2.655l4.722,1.194-8.255-14.506-4.7,11.23,3.807.963.493,1.392c.384,1.082.717,2.192,1.043,3.292.434,1.467.849,2.94,1.267,4.411.76,2.683,1.522,5.364,2.337,8.031a94.283,94.283,0,0,0,3.845,10.754c1.019,2.285,2.69,5.625,4.936,6.909a3.9,3.9,0,0,0,3.106.462,5.385,5.385,0,0,0,3.01-3.009,31.255,31.255,0,0,0,1.558-4.06,32.418,32.418,0,0,1,1.179-3.195C1139.774,912.212,1140.238,912.634,1141.181,914.13Z" fill="#fff" fill-rule="evenodd" opacity="0.5"/>
            </g>
          </g>
        </g>
        <g id="Group_114" data-name="Group 114">
          <path id="Path_2526" data-name="Path 2526" d="M1029.169,866.392c.007-2.321,1.65-3.26,3.672-2.092,21.417,12.284,42.791,25,64.211,37.286a8.05,8.05,0,0,1,3.648,6.318l.105,84.787c-.007,2.32-1.653,3.258-3.672,2.091-21.419-12.285-42.8-25-64.212-37.286a8.041,8.041,0,0,1-3.647-6.318Z" fill="#c2dcf6" fill-rule="evenodd"/>
          <g id="Group_113" data-name="Group 113">
            <path id="Path_2527" data-name="Path 2527" d="M1029.847,866.068l1.667-.881a2.648,2.648,0,0,1,2.126.376c19.954,11.444,39.866,23.291,59.822,34.737a7.5,7.5,0,0,1,3.4,5.886l.1,78.989a2.5,2.5,0,0,1-.845,2.086c-.628.465-1.922,1.472-2.949.879-19.954-11.446-39.5-24.309-59.448-35.753a7.487,7.487,0,0,1-3.4-5.886Z" fill="#f2f4ff" fill-rule="evenodd"/>
            <path id="Path_2528" data-name="Path 2528" d="M1028.832,868.266c.007-2.162,1.538-3.037,3.421-1.95,19.954,11.445,39.866,23.292,59.821,34.738a7.5,7.5,0,0,1,3.4,5.886l.1,78.989c-.006,2.162-1.54,3.035-3.421,1.949-19.954-11.445-39.87-23.294-59.821-34.737a7.494,7.494,0,0,1-3.4-5.886Z" fill="#fff" fill-rule="evenodd"/>
            <path id="Path_2529" data-name="Path 2529" d="M1028.833,868.266c.006-2.162,1.537-3.037,3.42-1.95,19.954,11.445,39.866,23.292,59.821,34.738a7.5,7.5,0,0,1,3.4,5.886l.071,62.069-66.64-38.222Z" fill-rule="evenodd" fill="url(#linear-gradient-11)"/>
            <g id="Group_111" data-name="Group 111">
              <path id="Path_2530" data-name="Path 2530" d="M1033.782,939.133c0-.933.664-1.3,1.477-.817l18.378,10.384a3.307,3.307,0,0,1,1.468,2.567v1.847c0,.934-.665,1.3-1.478.817l-18.378-10.384a3.3,3.3,0,0,1-1.467-2.567Z" fill="#03c8de" fill-rule="evenodd" opacity="0.25"/>
              <path id="Path_2531" data-name="Path 2531" d="M1033.782,947.234c0-.822.585-1.145,1.3-.72,10.42,5.888,27.495,15.5,37.915,21.386a2.913,2.913,0,0,1,1.293,2.261v1.628c0,.822-.585,1.145-1.3.719-10.42-5.887-27.495-15.5-37.914-21.385a2.91,2.91,0,0,1-1.294-2.261Z" fill="#03c8de" fill-rule="evenodd" opacity="0.25"/>
            </g>
            <path id="Path_2532" data-name="Path 2532" d="M1081.127,919.1l-.071,39.252,11.016,6.42.071-39.251-11.016-6.421Zm-33.08-31.222-.11,52.54,11.017,6.42.109-52.539-11.016-6.421Zm16.5,18.624-.083,43.548,11.016,6.42.083-43.548-11.016-6.42Zm-33.062-14.965-.071,39.252,11.017,6.42.07-39.251Z" fill="#03c8de" fill-rule="evenodd"/>
            <g id="Group_112" data-name="Group 112">
              <path id="Path_2533" data-name="Path 2533" d="M1031.356,906.918a.641.641,0,0,1,.055-1.005.939.939,0,0,1,1.179.048l10.437,9.774,5.055,2.153,10.838-2.211,6.58-7.208a.938.938,0,0,1,1.173-.125.8.8,0,0,1,.183.168l15.467,16.6,9.428,2.326a.789.789,0,0,1,.862.684.768.768,0,0,1-.8.734l-9.831-2.312a.9.9,0,0,1-.713-.275l-15.106-16.2-6.1,6.678h0a.852.852,0,0,1-.465.254l-11.422,2.33a.959.959,0,0,1-.565-.055l-5.415-2.307a.833.833,0,0,1-.3-.179Z" fill="#1895f0" fill-rule="evenodd" opacity="0.5" style="mix-blend-mode: multiply;isolation: isolate"/>
              <path id="Path_2534" data-name="Path 2534" d="M1031.356,907.125A.835.835,0,0,1,1032.59,906l10.437,11.473,5.055,2.527,10.838-2.595,6.58-8.46a.836.836,0,0,1,1.173-.147.846.846,0,0,1,.183.2l14.663,18.921,10.352-.387a.834.834,0,0,1,.059,1.666l-10.755.4a.834.834,0,0,1-.713-.322l-14.3-18.454-6.1,7.839,0,0a.837.837,0,0,1-.465.3l-11.422,2.735a.828.828,0,0,1-.565-.065l-5.415-2.708a.836.836,0,0,1-.3-.21Z" fill="#fff" fill-rule="evenodd"/>
            </g>
          </g>
        </g>
        <g id="Group_125" data-name="Group 125">
          <path id="Path_2535" data-name="Path 2535" d="M1040.5,1084.866l-.962-.56c.064.71.107,1.11.125,1.134l-77.526-45.71c-.568-.337-.714-1.322-.689-1.914h0L956.154,976.9l.014.008-.992-11.42a3.852,3.852,0,0,1,1.039-2.123,54.586,54.586,0,0,0,7.014,4.956l-.083-66.977c.008-2.716,1.932-3.816,4.3-2.449,25.075,14.381,50.1,29.269,75.175,43.653a9.421,9.421,0,0,1,4.27,7.4l.062,49.521,5.708,3.211L1047,1040.912l.01,8.293c0,1.58-.659,2.612-1.671,2.93Z" fill="#c2dcf6" fill-rule="evenodd" opacity="0.5"/>
          <g id="Group_124" data-name="Group 124">
            <g id="Group_115" data-name="Group 115">
              <path id="Path_2536" data-name="Path 2536" d="M1034.2,1075.59l-72.563-42.174,9.349-75.288c.085-.959.7-2.282,1.919-1.8l72.874,40.993Z" fill-rule="evenodd" fill="url(#linear-gradient-12)"/>
              <path id="Path_2537" data-name="Path 2537" d="M970.988,958.128c32,33.71,68.548,54.671,67.593,83.681l-4.379,33.781-72.585-41.947Z" fill="#783fd3" fill-rule="evenodd"/>
              <path id="Path_2538" data-name="Path 2538" d="M1029.642,1014.235l5.005,56.166,9.585-71.378c.276-2.39,2.186-2.193,1.961-.5l-9.873,73.148a10.74,10.74,0,0,1-.73,3.01,3.222,3.222,0,0,1-.959,1.311l0,.012-.055.031c-.054.038-.109.075-.165.108l0-.026a1.011,1.011,0,0,1-1.071-.023,2.693,2.693,0,0,1-.585-1.772l-5.041-58.017C1027.591,1014.734,1028.7,1013.367,1029.642,1014.235Z" fill="#864de2" fill-rule="evenodd"/>
            </g>
            <g id="Group_122" data-name="Group 122">
              <g id="Group_116" data-name="Group 116">
                <path id="Path_2539" data-name="Path 2539" d="M961.754,898.193l1.995-1.055a3.176,3.176,0,0,1,2.545.451c23.878,13.7,47.707,27.872,71.587,41.569a8.97,8.97,0,0,1,4.066,7.044l.118,94.526a2.984,2.984,0,0,1-1.011,2.5c-.751.556-2.3,1.761-3.528,1.051-23.88-13.7-47.267-29.09-71.142-42.784a8.968,8.968,0,0,1-4.067-7.044Z" fill="#f2f4ff" fill-rule="evenodd"/>
                <path id="Path_2540" data-name="Path 2540" d="M960.54,900.824c.007-2.588,1.84-3.635,4.093-2.333,23.878,13.695,47.707,27.872,71.588,41.569a8.976,8.976,0,0,1,4.066,7.044l.117,94.526c-.007,2.587-1.842,3.632-4.093,2.332-23.88-13.7-47.712-27.875-71.588-41.57a8.963,8.963,0,0,1-4.066-7.043Z" fill="#fff" fill-rule="evenodd"/>
              </g>
              <g id="Group_121" data-name="Group 121">
                <g id="Group_117" data-name="Group 117">
                  <path id="Path_2541" data-name="Path 2541" d="M971.144,913.663c3.255.861,6.167,4.713,6.5,8.6s-2.029,6.347-5.283,5.486-6.167-4.712-6.505-8.6S967.889,912.8,971.144,913.663Z" fill="#6d6afd" fill-rule="evenodd" opacity="0.2"/>
                  <path id="Path_2542" data-name="Path 2542" d="M971.425,916.91a5.443,5.443,0,0,1,3.507,4.639c.182,2.1-1.094,3.422-2.849,2.958a5.442,5.442,0,0,1-3.506-4.639C968.4,917.77,969.67,916.446,971.425,916.91Z" fill-rule="evenodd" fill="url(#linear-gradient-13)"/>
                  <path id="Path_2543" data-name="Path 2543" d="M979.433,921.493c0-.824.586-1.147,1.3-.721l21.749,12.337a2.914,2.914,0,0,1,1.295,2.264V937c0,.824-.587,1.147-1.3.721l-21.749-12.336a2.91,2.91,0,0,1-1.3-2.265Z" fill="#6d6afd" fill-rule="evenodd" opacity="0.2"/>
                  <path id="Path_2544" data-name="Path 2544" d="M979.433,927.488c0-.486.346-.677.77-.425l12.843,7.284a1.721,1.721,0,0,1,.764,1.338v.962c0,.487-.346.678-.769.426L980.2,929.788a1.718,1.718,0,0,1-.764-1.337Z" fill="#6d6afd" fill-rule="evenodd" opacity="0.2"/>
                </g>
                <g id="Group_120" data-name="Group 120">
                  <g id="Group_119" data-name="Group 119">
                    <g id="Group_118" data-name="Group 118">
                      <path id="Path_2545" data-name="Path 2545" d="M973.159,982.544,987,959.684l6.989,25.384,7.1-8.644,8.848,27.216Z" fill-rule="evenodd" fill="url(#linear-gradient-14)"/>
                      <path id="Path_2546" data-name="Path 2546" d="M998.332,961.328a5.769,5.769,0,0,1,3.8,4.961c.2,2.27-1.184,3.727-3.085,3.256a5.769,5.769,0,0,1-3.8-4.961C995.05,962.315,996.431,960.857,998.332,961.328Z" fill="#ffdb59" fill-rule="evenodd"/>
                    </g>
                    <path id="Path_2547" data-name="Path 2547" d="M965.522,943.418c.009-3.44,2.445-4.832,5.442-3.1l44.469,25.217a11.927,11.927,0,0,1,5.407,9.366l-.129,36.713c-.009,3.44-2.449,4.83-5.443,3.1L970.8,989.5a11.917,11.917,0,0,1-5.408-9.366Z" fill-rule="evenodd" opacity="0.2" fill="url(#linear-gradient-15)"/>
                  </g>
                  <path id="Path_2548" data-name="Path 2548" d="M1027.99,978.662c.009-3.441,2.446-4.833,5.442-3.1l7.064,4.006-.073,49.232-7.155-4.057a11.923,11.923,0,0,1-5.408-9.366Z" fill-rule="evenodd" opacity="0.2" fill="url(#linear-gradient-16)"/>
                </g>
              </g>
            </g>
            <g id="Group_123" data-name="Group 123">
              <path id="Path_2549" data-name="Path 2549" d="M1028.883,1015.03c.408,5.083,4.3,60.817,4.522,61.107l-73.827-43.529c-.54-.321-.68-1.259-.656-1.822h0l-5.04-58.012.013.008-.945-10.876a3.655,3.655,0,0,1,.99-2.02c2.364,2.52,22.348,14.3,24.858,15.857,4.02,3.544,3.272,8.182,8.966,15.564a8.743,8.743,0,0,0,3,2.717Z" fill-rule="evenodd" fill="url(#linear-gradient-17)"/>
              <path id="Path_2550" data-name="Path 2550" d="M1029.642,1014.235l5.005,56.166,1.673,1.267a10.74,10.74,0,0,1-.73,3.01,3.222,3.222,0,0,1-.959,1.311l0,.012-.055.031c-.054.038-.109.075-.165.108l0-.026a1.011,1.011,0,0,1-1.071-.023,2.693,2.693,0,0,1-.585-1.772l-5.041-58.017C1027.591,1014.734,1028.7,1013.367,1029.642,1014.235Z" fill="#864de2" fill-rule="evenodd"/>
              <path id="Path_2551" data-name="Path 2551" d="M992.985,992.054l36.718,22.115c-.824-.409-2.041,1.16-1.994,2.133L990.487,994.17a15.408,15.408,0,0,1-2.573-1.79c-4.245-3.78-5.542-9.164-7.957-13.457a9.855,9.855,0,0,0-2.253-2.75c-.78-.44-1.192-.674-1.052-.6l-23.7-13.68a2.3,2.3,0,0,1,2.191-2.287l23.731,13.7c-.14-.07.272.164,1.052.605a9.856,9.856,0,0,1,2.253,2.75c2.555,4.542,3.666,9.617,8.428,13.843A16.819,16.819,0,0,0,992.985,992.054Z" fill="#d477e4" fill-rule="evenodd"/>
            </g>
          </g>
        </g>
        <g id="Group_132" data-name="Group 132">
          <path id="Path_2552" data-name="Path 2552" d="M1186.949,1171.892l-72.835-42.324a2.9,2.9,0,0,1-1.073-1.943l-17.376-61.107.015.009-3.258-11.456a2.97,2.97,0,0,1,.628-2.072c3.027,2.756,19.189,12.647,22.168,14.4,4.167,3.265,4.975,7.171,9.527,13.037l7.557-35.868,0-.022v-.01l0-.013,0-.019v0l.005-.025,0-.006,0-.019,0-.017,0-.008.006-.027v0l.007-.025,0-.014,0-.014.007-.026v0l.008-.029,0-.01.006-.02.006-.022,0-.007.01-.031v-.005l.008-.026.006-.018,0-.013.01-.032h0l.01-.032.005-.013.007-.019.009-.028,0-.005.012-.033,0-.008.01-.025.008-.022.005-.012.014-.033v0l.013-.03.007-.018.008-.016.013-.031v0l.015-.034.006-.011.01-.023.012-.026,0-.008.017-.034,0-.006.014-.029.011-.019.007-.015.018-.034h0l.019-.034.007-.013.011-.02.017-.028,0-.006.02-.033.005-.009.015-.025.014-.021.007-.011.022-.033v0l.02-.03.011-.015.011-.016.021-.029,0,0,.023-.031.007-.01.017-.02.024-.031.024-.03,0-.005.021-.024.014-.017.011-.011.026-.029.026-.028.012-.011.016-.015.023-.022,0-.005.028-.025.007-.007.022-.018.019-.016.01-.008.029-.023,0,0,.028-.019.015-.012.016-.011.028-.019h0l.032-.02.01-.007.022-.012a1.2,1.2,0,0,1,1.086-.051l72.882,42.357h0c.319.184.461.651.33,1.257l-17.018,80.853a12.131,12.131,0,0,1-1.033,3.164,3.633,3.633,0,0,1-1.37,1.545A1.189,1.189,0,0,1,1186.949,1171.892Z" fill="#c2dcf6" fill-rule="evenodd"/>
          <g id="Group_131" data-name="Group 131">
            <g id="Group_128" data-name="Group 128">
              <g id="Group_126" data-name="Group 126">
                <path id="Path_2553" data-name="Path 2553" d="M1183.424,1158.766l-69.272-40.257,16.083-76.33,0-.02v-.01l0-.012,0-.019v0l.005-.024v-.006l0-.018,0-.016v-.008l.006-.025v0l.007-.024,0-.013,0-.013.006-.025,0,0,.007-.027,0-.01.005-.019.006-.021,0-.007.008-.029v-.005l.008-.024.006-.018,0-.012.009-.03h0l.01-.031,0-.012.007-.018.008-.026,0-.005.011-.032,0-.008.009-.024.008-.02.005-.011.012-.032v0l.013-.03.006-.016.007-.016.013-.029v0l.014-.033.005-.01.011-.022.011-.025,0-.008.017-.032,0-.006.013-.027.01-.018.007-.014.017-.033h0l.017-.032.007-.013.011-.019.015-.026,0-.005.018-.033.005-.007.015-.024.013-.021.007-.01.02-.032v0l.019-.028.01-.015.011-.015.02-.028,0,0,.022-.03.007-.01.015-.019.023-.029.023-.028,0-.005.02-.023.014-.016.01-.011.025-.027.025-.027.01-.01.015-.015.022-.021,0,0,.026-.024.007-.006.021-.018.018-.015.009-.007.028-.023,0,0,.027-.019.014-.011.014-.01.028-.018,0,0,.029-.018.01-.007.021-.011a1.139,1.139,0,0,1,1.033-.049l69.265,40.256C1199.3,1079.378,1190.085,1136.258,1183.424,1158.766Z" fill-rule="evenodd" fill="url(#linear-gradient-18)"/>
                <path id="Path_2554" data-name="Path 2554" d="M1130.235,1042.179c29.093,33.341,63.8,53.931,60.4,82.866l-7.213,33.721-69.272-40.257Z" fill="#e23b93" fill-rule="evenodd"/>
              </g>
              <g id="Group_127" data-name="Group 127">
                <path id="Path_2555" data-name="Path 2555" d="M1182.462,1073.6l-1.565,77.415-72.653-41.94.217-76.745Z" fill="#fff" fill-rule="evenodd"/>
                <path id="Path_2556" data-name="Path 2556" d="M1181.114,1074.273l1.517-.883-.216,76.747-1.518.877Z" fill="#f2f4ff" fill-rule="evenodd"/>
                <path id="Path_2557" data-name="Path 2557" d="M1108.461,1032.328l1.524-.883,72.646,41.945-1.517.883Z" fill="#f2f4ff" fill-rule="evenodd"/>
                <path id="Path_2558" data-name="Path 2558" d="M1178.345,1134.407l-.015,4.841-67.245-38.825.015-4.838,67.245,38.822Zm.151-55.643-.007,4.839-67.245-38.824.015-4.838,67.237,38.823Zm-.022,7.945-67.237-38.822-.014,4.839,67.236,38.821.015-4.838Zm-.021,7.951-67.245-38.821-.007,4.839,67.237,38.82.015-4.838Zm-.022,7.952-67.244-38.822-.015,4.838,67.244,38.823.015-4.839Zm-.021,7.947-67.245-38.823-.015,4.839L1178.4,1115.4l.015-4.838Zm-.022,7.951-67.245-38.823-.014,4.839,67.244,38.822.015-4.838Zm-.021,7.951-67.245-38.821-.015,4.837,67.245,38.823Z" fill="#daecfd" fill-rule="evenodd"/>
              </g>
              <path id="Path_2559" data-name="Path 2559" d="M1164.682,1103.291l16.514,58.071,0,0a6.987,6.987,0,0,0,1.016,1.848l-69.266-40.251a2.754,2.754,0,0,1-1.02-1.847l-16.514-58.075.014.009-3.1-10.887a2.821,2.821,0,0,1,.6-1.97c2.876,2.62,18.236,12.02,21.068,13.687,4.744,3.717,4.906,8.307,12.091,15.926a12.424,12.424,0,0,0,3.555,2.847Z" fill-rule="evenodd" fill="url(#linear-gradient-19)"/>
              <path id="Path_2560" data-name="Path 2560" d="M1165.537,1101.054a2.092,2.092,0,0,1,.339-.25c.541-.309,1.027-.177,1.189.358l16.359,57.6,16.079-76.331a2.722,2.722,0,0,1,1.174-1.72,1.525,1.525,0,0,1,.334-.142c.664-.177,1.052.388.865,1.243l-16.172,76.842a11.531,11.531,0,0,1-.982,3.007,3.461,3.461,0,0,1-1.3,1.468,1.125,1.125,0,0,1-1.283.031,3.454,3.454,0,0,1-.937-1.794l-16.517-58.079A2.543,2.543,0,0,1,1165.537,1101.054Z" fill="#e23b93" fill-rule="evenodd"/>
              <path id="Path_2561" data-name="Path 2561" d="M1131.807,1080.417l34.939,20.3c-.909-.445-2.3,1.6-2.064,2.57l-35.288-20.506a21.624,21.624,0,0,1-2.942-1.9c-5.016-3.961-7.384-9.389-10.66-13.78a14.063,14.063,0,0,0-2.81-2.844c-.871-.475-1.332-.727-1.178-.652l-19.474-11.463a2.83,2.83,0,0,1,.6-1.952c.369-.392.946-.875,1.47-.6l19.508,11.483c-.155-.075.306.177,1.177.651a14.017,14.017,0,0,1,2.81,2.845c3.468,4.646,5.948,9.869,11.574,14.3A18.444,18.444,0,0,0,1131.807,1080.417Z" fill="#fb84b6" fill-rule="evenodd"/>
            </g>
            <g id="Group_130" data-name="Group 130">
              <path id="Path_2562" data-name="Path 2562" d="M1129.093,1097.136c6.056,1.561,12.028,8.545,13.339,15.6s-2.536,11.509-8.592,9.948-12.029-8.545-13.339-15.6S1123.036,1095.576,1129.093,1097.136Z" fill="#fff" fill-rule="evenodd" opacity="0.5"/>
              <g id="Group_129" data-name="Group 129">
                <path id="Path_2563" data-name="Path 2563" d="M1127.411,1107.231l-.2-2.268c-.138-1.365.029-2.249.5-2.708.56-.55,1.368-.494,2.433.094l2.308,1.229a4.442,4.442,0,0,1,2.244,2.143,9.9,9.9,0,0,1,.724,3.285l.161,1.64a9.006,9.006,0,0,1,1.006,2.714c.586,3.154-1.134,5.145-3.841,4.447s-5.379-3.82-5.965-6.974a4.387,4.387,0,0,1,.631-3.6Zm6.593,1.284a7.527,7.527,0,0,0-.536-2.315,2.992,2.992,0,0,0-1.537-1.42c-.786-.375-1.573-.87-2.359-1.254-.471-.26-.76-.352-.856-.259-.187.185-.236.738-.14,1.7l.12,1.407a3.577,3.577,0,0,1,1.926.016A7.466,7.466,0,0,1,1134,1108.515Z" fill-rule="evenodd" fill="url(#linear-gradient-20)"/>
                <path id="Path_2564" data-name="Path 2564" d="M1132.4,1112.438l.159,1.6a.606.606,0,0,1-.614.682.77.77,0,0,1-.75-.682l-.211-2.127a2.267,2.267,0,0,1-.531-1.05c-.136-.732.263-1.194.892-1.032a2.168,2.168,0,0,1,1.384,1.619A.87.87,0,0,1,1132.4,1112.438Z" fill="#21389b" fill-rule="evenodd"/>
              </g>
            </g>
          </g>
        </g>
        <g id="Group_137" data-name="Group 137">
          <path id="Path_2565" data-name="Path 2565" d="M1149.284,953.24c.014-5.171,3.677-7.263,8.18-4.662l57.769,33.481c4.5,2.6,8.142,8.908,8.127,14.078l-.007,30.616c-.015,5.17-3.682,7.26-8.182,4.662L1157.4,997.934c-4.505-2.6-8.143-8.908-8.128-14.078Z" fill="#c2dcf6" fill-rule="evenodd"/>
          <g id="Group_136" data-name="Group 136">
            <path id="Path_2566" data-name="Path 2566" d="M1150.012,952.506c.005-1.754-.616-2.841.136-3.8a8.337,8.337,0,0,1,2.847-1.593,6.066,6.066,0,0,1,4.973.858l54.372,31.657c4.376,2.527,7.918,8.663,7.9,13.692l-.188,25.243c0,1.559-.331,3.555-1.526,4.65a6.8,6.8,0,0,1-3.456,1.651c-1.139.093-1.58-.961-2.975-1.766l-54.371-31.657c-4.382-2.53-7.92-8.664-7.906-13.693Z" fill="#f2f4ff" fill-rule="evenodd"/>
            <g id="Group_135" data-name="Group 135">
              <path id="Path_2567" data-name="Path 2567" d="M1148.745,953.251c.014-5.029,3.576-7.065,7.956-4.534l54.372,31.656c4.376,2.527,7.919,8.663,7.905,13.693l-.189,25.242c-.014,5.029-3.581,7.061-7.957,4.535l-54.371-31.657c-4.382-2.53-7.92-8.664-7.905-13.693Z" fill="#fff" fill-rule="evenodd"/>
              <path id="Path_2568" data-name="Path 2568" d="M1148.573,953.267c.014-5.044,3.585-7.156,7.978-4.619l54.511,31.717c4.578,2.535,7.929,8.772,7.915,13.815l-.017,4.776-70.4-40.852Z" fill-rule="evenodd" fill="url(#linear-gradient-21)"/>
              <g id="Group_133" data-name="Group 133">
                <path id="Path_2569" data-name="Path 2569" d="M1155.327,953.688a2.954,2.954,0,0,1,1.905,2.52c.1,1.14-.594,1.86-1.547,1.607a2.956,2.956,0,0,1-1.906-2.52C1153.681,954.155,1154.374,953.436,1155.327,953.688Z" fill="#fff" fill-rule="evenodd"/>
                <path id="Path_2570" data-name="Path 2570" d="M1160.669,956.931a2.957,2.957,0,0,1,1.905,2.52c.1,1.14-.594,1.859-1.548,1.607a2.957,2.957,0,0,1-1.905-2.52C1159.022,957.4,1159.715,956.678,1160.669,956.931Z" fill="#fff" fill-rule="evenodd"/>
                <path id="Path_2571" data-name="Path 2571" d="M1166.01,960.173a2.96,2.96,0,0,1,1.905,2.521c.1,1.14-.594,1.859-1.548,1.607a2.957,2.957,0,0,1-1.9-2.52C1164.363,960.641,1165.056,959.921,1166.01,960.173Z" fill="#fff" fill-rule="evenodd"/>
              </g>
              <g id="Group_134" data-name="Group 134">
                <path id="Path_2572" data-name="Path 2572" d="M1159.826,968.708c5.3,1.4,10.046,7.677,10.595,14.016s-3.3,10.34-8.607,8.938-10.046-7.678-10.595-14.016S1154.523,967.3,1159.826,968.708Z" fill="#6d6afd" fill-rule="evenodd" opacity="0.2"/>
                <path id="Path_2573" data-name="Path 2573" d="M1160.284,974c2.859.756,5.416,4.139,5.712,7.557s-1.781,5.575-4.64,4.819-5.416-4.14-5.712-7.557S1157.425,973.241,1160.284,974Z" fill-rule="evenodd" fill="url(#linear-gradient-22)"/>
                <path id="Path_2574" data-name="Path 2574" d="M1173.329,981.464c0-1.342.954-1.869,2.123-1.175l35.43,20.1a4.747,4.747,0,0,1,2.11,3.69v2.655c0,1.342-.956,1.868-2.124,1.174l-35.43-20.1a4.747,4.747,0,0,1-2.11-3.689Z" fill="#6d6afd" fill-rule="evenodd" opacity="0.2"/>
                <path id="Path_2575" data-name="Path 2575" d="M1173.329,991.23c0-.792.563-1.1,1.254-.694l20.922,11.867a2.807,2.807,0,0,1,1.245,2.179v1.568c0,.792-.564,1.1-1.254.693l-20.922-11.866a2.806,2.806,0,0,1-1.246-2.179Z" fill="#6d6afd" fill-rule="evenodd" opacity="0.2"/>
              </g>
              <path id="Path_2576" data-name="Path 2576" d="M1203.756,983.1c0-.5.355-.7.79-.451l7.557,4.063a1.735,1.735,0,0,1,.785,1.36v1.858c0,.5-.356.7-.791.451l-7.557-4.063a1.731,1.731,0,0,1-.785-1.36Z" fill="#fff" fill-rule="evenodd" opacity="0.5"/>
            </g>
          </g>
        </g>
      </g>
    </g>
    <g id="Group_149" data-name="Group 149">
      <path id="Path_2577" data-name="Path 2577" d="M851.664,1145.332l38.9-22.154c4.241-1.938,10.31-3.48,14.631-1.231,3.936,2.049,10.421,6.241,13.289,7.876,2.178,1.243,9.738,5.772,5.029,8.333-13.853,7.533-27.562,16-41.628,23.656-2.66,1.447-6.552,1.97-10.637,1.631a28.153,28.153,0,0,1-11.521-3.432q-3.507-2.039-6.9-4.014c-3.052-1.777-4.669-3.878-4.83-5.82C847.841,1148.279,849.061,1146.521,851.664,1145.332Z" fill="#4aabbe" fill-rule="evenodd" opacity="0.5"/>
      <g id="Group_140" data-name="Group 140">
        <path id="Path_2578" data-name="Path 2578" d="M866.094,1143.005c.882-.019,3.854-2.813,6.669-1.4,3.38,1.694,9.8.194,13.038.972.578.138,1.706-.286,1.929.11.7,1.241,1.373,3.1-.343,4.312a29.41,29.41,0,0,1-5.742,2.7,48.336,48.336,0,0,1-7.262,2.056c-2.391.374-3.482.528-4.377,1.219a6.367,6.367,0,0,1-3.34.8,5.628,5.628,0,0,1-4.257-2.973,12.7,12.7,0,0,1,.033-4.713,23.771,23.771,0,0,1,1.506-4.115Z" fill="#fff" fill-rule="evenodd"/>
        <path id="Path_2579" data-name="Path 2579" d="M873.008,1137c-1.069,2.568-.74,6.541-3.275,7.92a3.769,3.769,0,0,1-5.5-1.7c-.644-1.468.212-3.976.022-7.2Z" fill="#ffa495" fill-rule="evenodd"/>
        <path id="Path_2580" data-name="Path 2580" d="M873.714,1140.974c1.942.565,7.3.188,10.693.462,1.457.118,2.764.107,3.445,1.43.627,1.217.3,2.259-1.121,3.263a23.96,23.96,0,0,1-5.179,2.541,48.464,48.464,0,0,1-7.262,2.056c-2.392.374-3.483.528-4.378,1.219a6.369,6.369,0,0,1-3.339.8,5.881,5.881,0,0,1-4.258-3.159,11.69,11.69,0,0,1,.034-4.527,8.114,8.114,0,0,1,.249-.958c.266-2.552,1.109-3.583,1.9-3.147a4.913,4.913,0,0,1,1.911,2.558,2.5,2.5,0,0,0,1.477,1.409,2.917,2.917,0,0,0,3.255-1.431,9.167,9.167,0,0,0,.892-2.584c0-.087.005-.174,0-.26.254-2.23,1.339-2.035,1.174-1.566A1.92,1.92,0,0,0,873.714,1140.974Z" fill="#193161" fill-rule="evenodd"/>
        <path id="Path_2581" data-name="Path 2581" d="M887.175,1142.49c-.026.862,1.295.944.913,2.458.635-.622-.252-2.409-.644-2.681C887.284,1142.156,887.147,1142.11,887.175,1142.49Z" fill="#fff" fill-rule="evenodd"/>
      </g>
      <g id="Group_141" data-name="Group 141">
        <path id="Path_2582" data-name="Path 2582" d="M888.187,1134.165c.821-.321,2.652-3.967,5.779-3.611a15.915,15.915,0,0,0,5.35-.771c3.284-.934,7.86-3.869,8.64-3.389,1.7,1.046,1.838,2.955.644,4.687a24.079,24.079,0,0,1-3.989,4.168,42.339,42.339,0,0,1-5.63,4.282c-1.807,1-2.406.913-3.692,2.65a6.033,6.033,0,0,1-2.858,1.81,6.8,6.8,0,0,1-5.586-2.1c-.624-2.02-1.706-3.932-1.012-6.963Z" fill="#fff" fill-rule="evenodd"/>
        <path id="Path_2583" data-name="Path 2583" d="M892.525,1125.563c-.05,2.781,1.716,6.354-.133,8.569a3.77,3.77,0,0,1-5.745.44c-1.139-1.128-1.265-3.776-2.627-6.7Z" fill="#ffa495" fill-rule="evenodd"/>
        <path id="Path_2584" data-name="Path 2584" d="M898.474,1128.953q.281-.073.562-.154c3.284-.933,7.672-3.195,8.452-2.715,1.7,1.046,2.025,2.282.831,4.013a24.044,24.044,0,0,1-3.989,4.168,42.163,42.163,0,0,1-5.63,4.282c-1.806,1-2.406.913-3.691,2.651a6.04,6.04,0,0,1-2.859,1.809,6.975,6.975,0,0,1-5.667-2.108,16.726,16.726,0,0,1-1.152-4.825c-.274-2.473-.1-3.731.973-3.7,2,.058,2.827,1.113,3.653,1.629,1.781,1.11,2.973-.325,3.265-2.1a10.374,10.374,0,0,0-.163-2.346c-.028-.083-.059-.164-.092-.243-.583-2.168.5-2.385.517-1.888a1.86,1.86,0,0,0,1.651,1.894A14.6,14.6,0,0,0,898.474,1128.953Z" fill="#193161" fill-rule="evenodd"/>
        <path id="Path_2585" data-name="Path 2585" d="M907.287,1126.36c.348.79,1.575.294,1.883,1.826.3-.836-1.265-2.066-1.736-2.143C907.241,1126.012,907.1,1126.03,907.287,1126.36Z" fill="#fff" fill-rule="evenodd"/>
      </g>
      <path id="Path_2586" data-name="Path 2586" d="M855.225,1028.412c6.532,7.579,6.63,8.168,19.387,15.663l2.428-4.777c-4.281-8.768-5.562-9.936-11.121-16.761a64.765,64.765,0,0,0,13.076-12.3c8.319-11.106,3.7-18.823-3.489-17.259-6.269,1.363-16.051,17.593-21.371,26.744C851.919,1023.536,851.382,1023.954,855.225,1028.412Z" fill-rule="evenodd" fill="url(#linear-gradient-23)"/>
      <path id="Path_2587" data-name="Path 2587" d="M868.069,1020.958a64.32,64.32,0,0,0,10.926-10.719c8.319-11.106,3.459-18.6-3.73-17.037C871.515,994.348,864.823,1002.283,868.069,1020.958Z" fill="#17acc8" fill-rule="evenodd" opacity="0.35" style="mix-blend-mode: multiply;isolation: isolate"/>
      <g id="Group_142" data-name="Group 142">
        <path id="Path_2588" data-name="Path 2588" d="M890.634,1050.45c.719,8.059,4.758,33.8,3.634,40.862-1.689,10.624-1.207,23.46-1.188,34.737-.286,4.739-6.8,7.214-8.7,4.2-1.523-10.076-3.689-18.905-4.569-24.5-.987-6.271-.661-13.889.93-18.01-.653-4.5-3.722-16.115-6.287-24.163-.925-2.9-6.167-12.287-.741-21.614Z" fill-rule="evenodd" fill="url(#linear-gradient-24)"/>
        <path id="Path_2589" data-name="Path 2589" d="M893.186,1123.024c.005.837-.026,2.11-.025,2.932-.285,4.738-6.881,7.307-8.777,4.3-.113-.743-.275-1.479-.394-2.207C886.541,1130.794,891.538,1127.224,893.186,1123.024Z" fill-rule="evenodd" fill="url(#linear-gradient-25)"/>
        <path id="Path_2590" data-name="Path 2590" d="M894.442,1086.517c-2.125,10.655-8.132,24.888-11.413,35.6-1.707-9.179-5.98-24.812-2.284-34.379-.372-2.564-1.528-7.435-2.928-12.639,2.843-5.391.126-9.693,1.469-17.283,7.527-1.312-3.834-10.5,12.094-.823C892.806,1068.428,894.143,1075.618,894.442,1086.517Z" fill="#1e2353" fill-rule="evenodd" opacity="0.3" style="mix-blend-mode: multiply;isolation: isolate"/>
      </g>
      <g id="Group_143" data-name="Group 143">
        <path id="Path_2591" data-name="Path 2591" d="M890.113,1096.623c-4.342,9.83-12.353,29.113-16.614,41.178-2.205,3.2-10.065,2.87-10.05-.119,1.735-10.086,3.775-25.643,7.4-34.489a79.191,79.191,0,0,1,6.671-11.156c1.145-4.451,2.581-16.475,3.689-22.982-.994-5.384-5.336-14.385,3.007-22.209,3.367,2.394,13.775,3.892,18.494,1.226C903.468,1069.338,898.248,1078.207,890.113,1096.623Z" fill-rule="evenodd" fill="url(#linear-gradient-26)"/>
        <path id="Path_2592" data-name="Path 2592" d="M874.382,1135.7c-.191.527-.568,1.592-.746,2.1-2.27,3.3-10.361,2.956-10.346-.122q.129-.747.26-1.532C865.479,1138.106,871.313,1138.132,874.382,1135.7Z" fill-rule="evenodd" fill="url(#linear-gradient-27)"/>
      </g>
      <path id="Path_2593" data-name="Path 2593" d="M871.709,1021.545c.7,6.317-1.2,12.53.736,18.3.086.6.141,2.934.243,3.57,1.274,7.471,17.077,15.031,30.256,7.862.073-.925-.011-1.894.061-3.61-.244-1.6.448-3.32.444-4.3-.019-4.066-1.284-6.145-.677-10.669,1.234-9.2,6.333-18.05,3.513-25.291a7.7,7.7,0,0,0-2.868-3.273c-3.115-2.5-19.224-10.706-24.108-11.285C865.131,991.012,870.949,1014.692,871.709,1021.545Z" fill-rule="evenodd" fill="url(#linear-gradient-28)"/>
      <g id="Group_144" data-name="Group 144">
        <path id="Path_2594" data-name="Path 2594" d="M899.223,992.784c-.9.444-5.447-.2-5.313.206.065,2.036.671,3.272.868,6.061-5-.7-11.568-1.422-11.829-5.259.021-.308.038-.615.051-.916.006-.036.01-.07.017-.106l-.013,0a6.8,6.8,0,0,0-.4-3.287c-1.06-1.713-3.237-3.622-4.009-6.219-1.232-4.15-.784-8.762,3.087-11.835,7.067-5.613,16.1-1.619,18.4,6.59.447,1.6-.817,2.471-.773,3.841.009.268.364.548.652,1.143C900.352,983.824,900.321,992.24,899.223,992.784Z" fill="#e7a376" fill-rule="evenodd"/>
        <path id="Path_2595" data-name="Path 2595" d="M899.177,992.738c-.9.444-5.4-.155-5.267.252.065,2.036.671,3.272.868,6.061-2.907.714-10.743-.331-11.915-4.74-.021-.929.02-4.375-.261-4.83-1.06-1.713-3.237-3.622-4.009-6.219-1.232-4.15-.784-8.762,3.087-11.835,7.067-5.613,16.1-1.619,18.4,6.59.447,1.6-.817,2.471-.773,3.841.009.268.364.548.652,1.143C900.352,983.824,900.275,992.193,899.177,992.738Z" fill-rule="evenodd" fill="url(#linear-gradient-29)"/>
        <path id="Path_2596" data-name="Path 2596" d="M899.037,992.784a7.271,7.271,0,0,1-3.9-.474,6.787,6.787,0,0,1-1.733-1.2c-.607-.244-1.953-2.155.133-5.2,2.033-2.966-10.281,4.626-10.932,3.573-1.06-1.713-3.237-3.622-4.009-6.219-1.232-4.15-.784-8.762,3.087-11.835,7.067-5.613,16.1-1.619,18.4,6.59.447,1.6-.817,2.471-.773,3.841.009.268.364.548.652,1.143C900.352,983.824,900.117,992.2,899.037,992.784Z" fill-rule="evenodd" fill="url(#linear-gradient-30)"/>
        <path id="Path_2597" data-name="Path 2597" d="M893.973,986c-2.533-2.361-4.977,5.148-.9,5.069C891.481,989.384,892.689,986.718,893.973,986Z" fill="#ffa698" fill-rule="evenodd"/>
        <path id="Path_2598" data-name="Path 2598" d="M893.96,987.094c.38-1.049.06-1.432-.4-1.318a2.985,2.985,0,0,0-1.6,1.941c-.605,1.755.261,3.972,1.957,3.106-1.458.085-1.322-1.673-.885-2.757C893.324,987.331,893.784,986.809,893.96,987.094Z" fill="#ffb49c" fill-rule="evenodd"/>
        <path id="Path_2599" data-name="Path 2599" d="M893.29,987.57c.408.758.549,1.209.418,1.47-.091.182-.373.388-.832-.057A2.611,2.611,0,0,1,893.29,987.57Z" fill="#ffa698" fill-rule="evenodd"/>
        <path id="Path_2600" data-name="Path 2600" d="M896.48,976.1l.1-.052a4.332,4.332,0,0,0,1.429-6.842c-2.775-2.463-10.307-2.206-15.082.253-4.861,2.5-6.052,8.733-4.6,13.627.968,3.257,3.321,4.958,4.5,7.426a2.956,2.956,0,0,0,2.994,1.092c3.371-.7,4.149-4.253,6.174-5.817,1.112-.859,2.254-1.088,2.671,1.255.081,1.03.1,2.075.171,3.022.118,1.49-.254,1.768,1.009,2.279a11.328,11.328,0,0,0,3.97.812c.314-.123.3-1.983.236-3.372-.127-.01-.133.477-.2.468-.124-.018-.274-.05-.453-.067a5.463,5.463,0,0,1,.2-1.687,2.676,2.676,0,0,1,.555-1.265,2.14,2.14,0,0,0,.067-1.092,3.436,3.436,0,0,0-1.44,2.034,10.32,10.32,0,0,0-.375,1.848,3.51,3.51,0,0,1-1.726-.566c-.71-.821-.836-1.851-1.092-3.458-.059-2.825.064-3.244,1.533-5.34.407-.58.427-1.765-.579-4.408C896.517,976.2,896.5,976.147,896.48,976.1Z" fill-rule="evenodd" fill="url(#linear-gradient-31)"/>
        <path id="Path_2601" data-name="Path 2601" d="M898.364,974.459c-1.048,1.314-5.552-1.724-11.857-.564,1.35-4.165,2.13-5.048,4.024-6.267,2.468-1.588,6.625-.94,7.928,1.249A5.239,5.239,0,0,1,898.364,974.459Z" fill-rule="evenodd" fill="url(#linear-gradient-32)"/>
      </g>
      <path id="Path_2602" data-name="Path 2602" d="M882.784,993.1c-1.366.421-2.742,1.774-2.492,2.675,1.36,5.558,11.689,6.611,18.024,5.273.075-.015-2.465-3.346-3.678-3.74C890.651,997.7,884.014,996.383,882.784,993.1Z" fill="#6ad2a9" fill-rule="evenodd"/>
      <path id="Path_2603" data-name="Path 2603" d="M898.824,1044.233c.578-2.512,4.07-18.906,4.812-21.854,1.486-5.907,2.7-12.05,1.216-15.855-1.767-5.192-9.961-.457-11.137,6.536C892.307,1021.432,882.337,1044.951,898.824,1044.233Z" fill="#17acc8" fill-rule="evenodd" opacity="0.35" style="mix-blend-mode: multiply;isolation: isolate"/>
      <g id="Group_148" data-name="Group 148">
        <path id="Path_2604" data-name="Path 2604" d="M899.892,1074.813c-.76,1.161-1.783.939-1.985,2.216a18.816,18.816,0,0,0,1.762.893c.31.061,1-.522,1.038-.823.009-.071-.151-1.019-.151-1.019Z" fill="#e7a376" fill-rule="evenodd"/>
        <g id="Group_146" data-name="Group 146">
          <g id="Group_145" data-name="Group 145">
            <path id="Path_2605" data-name="Path 2605" d="M916.069,1044.063c0-.51.4-.925.222-1.253-.191-.355-.98-.573-1.319-.682a2.189,2.189,0,0,0-1.741.318l-26.735,15.43a6.219,6.219,0,0,0-2.82,4.884l.067,19.145a1.992,1.992,0,0,0,.806,1.8,3.265,3.265,0,0,0,1.574.447c.294-.051.13-.441.459-.63l26.735-15.43a6.213,6.213,0,0,0,2.819-4.885Z" fill-rule="evenodd" fill="url(#linear-gradient-33)"/>
            <path id="Path_2606" data-name="Path 2606" d="M916.77,1044.316c-.005-1.794-1.276-2.52-2.839-1.617L887.2,1058.128a6.224,6.224,0,0,0-2.819,4.885l.067,19.145c.005,1.794,1.277,2.519,2.839,1.618l26.734-15.43a6.217,6.217,0,0,0,2.82-4.885Z" fill-rule="evenodd" fill="url(#linear-gradient-34)"/>
          </g>
          <path id="Path_2607" data-name="Path 2607" d="M915.141,1046.21c0-.735-.523-1.032-1.163-.663l-6.606,3.79a2.546,2.546,0,0,0-1.155,2l-.033,7.271c0,.735.523,1.032,1.162.663l6.607-3.79a2.544,2.544,0,0,0,1.155-2Z" fill-rule="evenodd" fill="url(#linear-gradient-35)"/>
          <path id="Path_2608" data-name="Path 2608" d="M915.14,1058.118c0-.369-.261-.513-.582-.322l-26.536,15.034a1.3,1.3,0,0,0-.579,1.013v.729c0,.368.262.513.583.322l26.536-15.035a1.3,1.3,0,0,0,.579-1.012Z" fill="#fff" fill-rule="evenodd" opacity="0.5"/>
          <path id="Path_2609" data-name="Path 2609" d="M915.14,1062.363c0-.368-.261-.513-.582-.322l-26.536,15.034a1.3,1.3,0,0,0-.579,1.013v.729c0,.368.262.513.583.323l26.536-15.035a1.3,1.3,0,0,0,.579-1.013Z" fill="#fff" fill-rule="evenodd" opacity="0.5"/>
        </g>
        <g id="Group_147" data-name="Group 147">
          <path id="Path_2610" data-name="Path 2610" d="M906.879,1064.546a11.127,11.127,0,0,0,1.809,3.141c.568.976.946,1.509.867,2.327-.221,2.293-.6,4.037-1.308,4.7-1.28,1.2-6.356,2.767-8.574,3.256a6.557,6.557,0,0,0,.134-3.536,30.533,30.533,0,0,1-1.326-2.885c-.267-1.211.484-2.617.528-4.681Z" fill="#e7a376" fill-rule="evenodd"/>
          <path id="Path_2611" data-name="Path 2611" d="M901.666,1077.454c-.767.221-1.462.4-1.993.517a6.557,6.557,0,0,0,.134-3.536,30.533,30.533,0,0,1-1.326-2.885c-.267-1.211.484-2.617.528-4.681l1.7-.5-.043.312c.005,2.046-.149,2.721.124,3.548.647,1.951,1.246,2.179,1.376,3.364A9.745,9.745,0,0,1,901.666,1077.454Z" fill="#f0b186" fill-rule="evenodd"/>
        </g>
        <path id="Path_2612" data-name="Path 2612" d="M909.071,1014.939c-1.618,7.476-4.622,18.406-5.6,25.783l3.393,22.892c-.483,3.919-6.892,4.981-8.428,3.358l-6.473-24.825c.3-5.8,2.129-22.13,2.761-27.662.427-3.745,2.456-8.049,5.256-9.644C905.794,1001.531,910.473,1008.463,909.071,1014.939Z" fill-rule="evenodd" fill="url(#linear-gradient-36)"/>
      </g>
    </g>
    <g id="Group_161" data-name="Group 161">
      <path id="Path_2613" data-name="Path 2613" d="M1101.907,1145.132l-36.421-20.743c-3.971-1.814-9.653-3.258-13.7-1.153-3.685,1.918-9.757,5.844-12.442,7.375-2.039,1.163-9.118,5.4-4.709,7.8,12.97,7.053,25.806,14.984,38.976,22.149,2.491,1.355,6.135,1.844,9.96,1.527a26.378,26.378,0,0,0,10.787-3.213l6.459-3.759c2.857-1.664,4.371-3.631,4.521-5.449C1105.486,1147.891,1104.344,1146.245,1101.907,1145.132Z" fill="#4aabbe" fill-rule="evenodd" opacity="0.5"/>
      <g id="Group_160" data-name="Group 160">
        <g id="Group_151" data-name="Group 151">
          <path id="Path_2614" data-name="Path 2614" d="M1043.594,1018.368c-5.3-2.922-12.4-4.978-15.7-5.876-.483-.131-3.953-1.008-4.421-1.17-.258-.128-1.421-.608-1.626-.719a8.489,8.489,0,0,1-2.281,5.742c.24.1,1.507.762,1.768.874.385.213.93,1.3,1.218,1.635,2.868,3.288,12.058,8.327,19.3,11.092l.027.009a4.939,4.939,0,0,0,5.711-1.174c.821-.566,1.618-1.183,2.149-1.53,4.107-2.682,11.771-12.357,17.781-27.69-1.021-1.17-4.379-2.684-4.99-2.918a6.655,6.655,0,0,0-6.222.85c-1.766,1.484-3.81,4.394-5.6,9.3-1.206,3.306-4.53,7.429-6.971,11.351C1043.687,1018.216,1043.64,1018.292,1043.594,1018.368Z" fill-rule="evenodd" fill="url(#linear-gradient-37)"/>
          <path id="Path_2615" data-name="Path 2615" d="M1047.584,1028.781c.821-.566,1.618-1.183,2.149-1.53,4.107-2.682,11.771-12.357,17.781-27.69-6.077-6.959-14.466,1.374-16.715,7.541-2.913,7.99-5.586,14.777-7.124,23.284A4.056,4.056,0,0,0,1047.584,1028.781Z" fill="#6266d7" fill-rule="evenodd" opacity="0.35" style="mix-blend-mode: multiply;isolation: isolate"/>
          <g id="Group_150" data-name="Group 150">
            <path id="Path_2616" data-name="Path 2616" d="M1017.288,1007.447l-1.072-1.779a.891.891,0,0,0-1.056-.32c-1.458.77-1.1,3.522.811,4.968-2.287.08-3.069.625-3.178,1.654-.171,1.612.138,7.622,1.173,8.054.855.356,5.044.753,5.839.078.581-.493-.043-.9.737-1.721.259-.273,1.364-.279,2.2-.94,1.078-.857,1.317-3.817.577-5.518a4.18,4.18,0,0,0-.486-2.236C1021.481,1007.624,1018.63,1009.674,1017.288,1007.447Z" fill="#ffa698" fill-rule="evenodd"/>
            <path id="Path_2617" data-name="Path 2617" d="M1017.809,1011.789c-.555.129-.406.327-1.165.392a4.146,4.146,0,0,0,1.6.752c.859-.278,1.186-.321,1.51.2.946,1.516.609,4.707.535,5.609.349-.814,2.476-.649,2.985-1.959.365-1.121.683-3.877.067-4.434a2.137,2.137,0,0,1-2.117.842C1019.921,1012.914,1018.169,1011.705,1017.809,1011.789Z" fill-rule="evenodd" fill="url(#linear-gradient-38)"/>
          </g>
        </g>
        <g id="Group_152" data-name="Group 152">
          <path id="Path_2618" data-name="Path 2618" d="M1085.706,1134.523a16.106,16.106,0,0,0,.442,2.26,26.365,26.365,0,0,1,1.161,3.632c.6,2.529-.223,5.918.58,9.5a3.914,3.914,0,0,1-.568,3.841c-.932,1.238-2.686,3.225-4.972,3.15a3.43,3.43,0,0,1-2.412-1.171,5.765,5.765,0,0,1-1.442-4.242,34.981,34.981,0,0,0,.378-4.882c-.059-1.752-.38-2.717-.339-4.639.042-2.031.2-4.828.23-6.139Z" fill="#16193b" fill-rule="evenodd"/>
          <path id="Path_2619" data-name="Path 2619" d="M1065.508,1124.114a11.79,11.79,0,0,1,1.13,5.081c-.407,1.327-1.341,1.866-2.382,2.782l-.734.16c-1.82.985-2.485,4.438-4.174,6.01-1.191,1.109-3.562,1.713-5.916,2.167-2.515.486-4.9-.233-4.25-2.211,1.627-4.914,8.658-10.464,8.819-15.956Z" fill="#16193b" fill-rule="evenodd"/>
          <path id="Path_2620" data-name="Path 2620" d="M1054.955,1089.086c.181,9.415,2.232,27.034,1.919,36.312,2.405,2.411,7.221,1.665,8.787-.8.976-8.536,2.115-20.664,2.227-25.348a36.32,36.32,0,0,0-1.251-10.986c1.4-10.3,7.347-24.357,5.93-34.05-.622-4.257-3.412-8.839-4.224-12.351-7.017,8.645-12.363,4.5-15.267,3.751.016,2.987-.21,2.588-.113,5.728.327,10.615.821,21.951,1.4,32.966A15.065,15.065,0,0,0,1054.955,1089.086Z" fill-rule="evenodd" fill="url(#linear-gradient-39)"/>
          <path id="Path_2621" data-name="Path 2621" d="M1067.278,1108.177c.328-3.707.562-6.935.611-8.93a36.323,36.323,0,0,0-1.253-10.986c1.4-10.3,7.348-24.357,5.931-34.05-.622-4.257-3.412-8.839-4.223-12.351-7.018,8.645-12.364,4.5-15.268,3.751,0,.333,0,.624,0,.882l9.2,6.795-2.266-.512c.086,12.234,1.6,23.386,1.828,35.45a183.064,183.064,0,0,1,5.408,19.735Z" fill="#1e2353" fill-rule="evenodd" opacity="0.3" style="mix-blend-mode: multiply;isolation: isolate"/>
          <path id="Path_2622" data-name="Path 2622" d="M1070.584,1095.935c1.69,9.414,6.624,32.261,7.8,41.538,3.038,1.688,7.5,1.1,8.576-1.369.035-8.537,0-23.891-.638-28.575a58.826,58.826,0,0,0-3.469-13.415c.622-22,2.495-28.151-.477-37.843-1.305-4.257-4.72-8.364-6.1-11.876-1.883,2.892-4.789,7-11.014,6.489-.609-.049-5.8-3.757-7.513-4.183,2.172,13.086,8.431,30.18,11.476,44.452A16.509,16.509,0,0,0,1070.584,1095.935Z" fill-rule="evenodd" fill="url(#linear-gradient-40)"/>
        </g>
        <path id="Path_2623" data-name="Path 2623" d="M1060.879,995.613a5.2,5.2,0,0,0-1.942.654c-4.631,2.571-6.246,10.138-6.99,16.769-.645,5.751-.156,10.524.027,15.786.146,4.2-.4,8.081-.207,12.054.055,1.177.5,2.454.623,3.706a6.072,6.072,0,0,1,.3,2.479c2.318,8.841,24.232,9.573,27.422,3.587a17.681,17.681,0,0,1-.563-2.677c2.064-1.879.872-6.459,1.2-9.657a25.915,25.915,0,0,1,1.3-6.6c2.98-7.341,7.141-12.993,7.968-18.628.569-3.881-4.391-8.714-10.932-12.629C1072.792,996.686,1064.25,994.631,1060.879,995.613Z" fill-rule="evenodd" fill="url(#linear-gradient-41)"/>
        <g id="Group_156" data-name="Group 156">
          <g id="Group_155" data-name="Group 155">
            <g id="Group_153" data-name="Group 153">
              <path id="Path_2624" data-name="Path 2624" d="M1051.925,1013.238c2.328,2.359,16.667,16.062,32.543,12.54l-.164-1.08c-16.733,3.712-31.842-12.546-31.886-12.592l-.409.391q-.031.27-.062.539C1051.94,1013.1,1051.932,1013.17,1051.925,1013.238Z" fill="#9789e9" fill-rule="evenodd"/>
              <path id="Path_2625" data-name="Path 2625" d="M1051.668,1021.742c3.925,3.7,16.132,13.877,29.789,11.9.094-.4.2-.791.315-1.157-14.545,2.366-27.583-9.808-30.141-12.369Q1051.641,1020.934,1051.668,1021.742Z" fill="#9789e9" fill-rule="evenodd"/>
            </g>
            <path id="Path_2626" data-name="Path 2626" d="M1082.133,1031.508l-2.822-5.871-3.781,6.379-3.258-7.766-4.477,5.989-2.317-8.343-4.73,5.1-2.152-9.493-3.528,5.324-2.959-11.14q-.087.677-.162,1.345c-.018.158-.034.316-.051.473l2.9,10.9,3.489-5.265,2.087,9.207,4.772-5.151,2.361,8.5,4.586-6.136,3.321,7.916,3.82-6.446,2.576,5.358q.116-.355.247-.681C1082.077,1031.642,1082.1,1031.575,1082.133,1031.508Z" fill="#9789e9" fill-rule="evenodd"/>
            <g id="Group_154" data-name="Group 154">
              <path id="Path_2627" data-name="Path 2627" d="M1079.051,1030.481a.622.622,0,0,0-.558.62.523.523,0,0,0,.558.54.622.622,0,0,0,.557-.62A.523.523,0,0,0,1079.051,1030.481Z" fill="#9789e9" fill-rule="evenodd"/>
              <path id="Path_2628" data-name="Path 2628" d="M1075.688,1027.067a.622.622,0,0,0-.557.62.522.522,0,0,0,.557.54.621.621,0,0,0,.558-.62A.523.523,0,0,0,1075.688,1027.067Z" fill="#9789e9" fill-rule="evenodd"/>
              <path id="Path_2629" data-name="Path 2629" d="M1071.76,1029.6a.622.622,0,0,0-.558.62.523.523,0,0,0,.558.54.621.621,0,0,0,.557-.62A.523.523,0,0,0,1071.76,1029.6Z" fill="#9789e9" fill-rule="evenodd"/>
              <path id="Path_2630" data-name="Path 2630" d="M1068.434,1025.193a.621.621,0,0,0-.557.62.522.522,0,0,0,.557.54.621.621,0,0,0,.557-.62A.522.522,0,0,0,1068.434,1025.193Z" fill="#9789e9" fill-rule="evenodd"/>
              <path id="Path_2631" data-name="Path 2631" d="M1064.268,1026.844a.621.621,0,0,0-.558.62.523.523,0,0,0,.558.54.622.622,0,0,0,.557-.62A.523.523,0,0,0,1064.268,1026.844Z" fill="#9789e9" fill-rule="evenodd"/>
              <path id="Path_2632" data-name="Path 2632" d="M1061.782,1021.978a.622.622,0,0,0-.557.62.522.522,0,0,0,.557.54.621.621,0,0,0,.558-.62A.523.523,0,0,0,1061.782,1021.978Z" fill="#9789e9" fill-rule="evenodd"/>
              <path id="Path_2633" data-name="Path 2633" d="M1057.58,1023.01a.622.622,0,0,0-.558.62.523.523,0,0,0,.558.54.621.621,0,0,0,.557-.62A.523.523,0,0,0,1057.58,1023.01Z" fill="#9789e9" fill-rule="evenodd"/>
              <path id="Path_2634" data-name="Path 2634" d="M1055.35,1017.725a.621.621,0,0,0-.557.62.523.523,0,0,0,.557.54.622.622,0,0,0,.558-.62A.523.523,0,0,0,1055.35,1017.725Z" fill="#9789e9" fill-rule="evenodd"/>
              <path id="Path_2635" data-name="Path 2635" d="M1051.769,1018.283a.544.544,0,0,0-.14.028c-.005.377-.006.75,0,1.122a.527.527,0,0,0,.144.01.622.622,0,0,0,.557-.62A.522.522,0,0,0,1051.769,1018.283Z" fill="#9789e9" fill-rule="evenodd"/>
              <path id="Path_2636" data-name="Path 2636" d="M1082.778,1027.181a.621.621,0,0,0-.557.62.523.523,0,0,0,.557.54.622.622,0,0,0,.558-.62A.523.523,0,0,0,1082.778,1027.181Z" fill="#9789e9" fill-rule="evenodd"/>
            </g>
          </g>
          <path id="Path_2637" data-name="Path 2637" d="M1079.354,1016.122c-.836,4.528.221,12.2,2.452,16.251a51.534,51.534,0,0,1,3.5-7.442C1085.183,1024.582,1080.387,1010.522,1079.354,1016.122Z" fill="#6266d7" fill-rule="evenodd" opacity="0.35" style="mix-blend-mode: multiply;isolation: isolate"/>
        </g>
        <path id="Path_2638" data-name="Path 2638" d="M1052.4,1044.794a4.362,4.362,0,0,1,.3,2.267c2.318,8.841,24.232,9.573,27.422,3.587a17.681,17.681,0,0,1-.563-2.677c2.064-1.879.872-6.459,1.2-9.657a25.915,25.915,0,0,1,1.3-6.6c2.4-5.916,5.57-10.734,7.142-15.332l-3.124-2.873-6.286-1.9a39.9,39.9,0,0,0-2.43,9.84c-.555,4.1-.776,8.231-1.517,12.38C1074.951,1044.924,1073.25,1052.41,1052.4,1044.794Z" fill="#6266d7" fill-rule="evenodd" opacity="0.35" style="mix-blend-mode: multiply;isolation: isolate"/>
        <g id="Group_157" data-name="Group 157">
          <path id="Path_2639" data-name="Path 2639" d="M1065.911,1058.137a3.8,3.8,0,0,1-1.183.711,1,1,0,0,1-.558-.058l-16.23-10.871-2.67-2.387-18.986-15.664c-.507-.446-1.581-1.1-1.661-1.376a7.947,7.947,0,0,1,1.134-.687c.135-.142.663,0,1.775.669l16.417,9.587a6.907,6.907,0,0,1,1.729,1.18l20.11,18.1C1066.062,1057.575,1066.166,1057.947,1065.911,1058.137Z" fill="#d8fff7" fill-rule="evenodd"/>
          <path id="Path_2640" data-name="Path 2640" d="M1064.826,1058.123c.064.2.453,1.094-.962.59l-17.02-10.136-2.671-2.387-18.574-16.349c-1.22-1.074-1.646-2.2.837-.71l16.417,9.588a6.918,6.918,0,0,1,1.729,1.18Z" fill="#9fd2fb" fill-rule="evenodd"/>
        </g>
        <path id="Path_2641" data-name="Path 2641" d="M1069.615,1045.391a9.772,9.772,0,0,1-1.456.708c-.005-.044-.011-.087-.018-.13a2.4,2.4,0,0,1-.462.318c-.292.112-.582.221-.862.331a17.011,17.011,0,0,1-2.148.34c-.851.134-2.866.428-3.725.64-1.122.278-2.012,1.29-3.569,2.172l1.7,1.533a2.077,2.077,0,0,1-1.1.229c-1.55-.155-5.525-2.139-5.364-1.345a14.3,14.3,0,0,0,1.664,3.176,12.525,12.525,0,0,0,3.5,2.983,21.962,21.962,0,0,0,4.167,2.238c1.123.343,4.857-2.313,5.555-3.147,2.228-2.663,1.337-4.023,3.571-5.091Z" fill-rule="evenodd" fill="url(#linear-gradient-42)"/>
        <path id="Path_2642" data-name="Path 2642" d="M1090.556,1011.551c1.54,6.744.536,17.691,1.241,25.587a4.723,4.723,0,0,1-.09,1.527c0,.11-.013.217-.026.323-.138,1.736-1.468,2.792-3.087,3.842-4.157,2.7-7.592,6.123-15.045,8.482a7.356,7.356,0,0,1-2.385-.116c-.465.14-1.072.487-1.565.631.082-1.565-1.737-4.7-3.131-5.247.485-.261,1.062-.7,1.583-1.011a4.744,4.744,0,0,1,.969-1.372,77.343,77.343,0,0,1,12.542-9.009c-.565-1.962-.941-3.981-1.323-5.51a93.94,93.94,0,0,1-1.831-9.5c-.175-1.231-.3-1.852-.442-3.106C1076.889,1007.766,1088.689,1003.373,1090.556,1011.551Z" fill-rule="evenodd" fill="url(#linear-gradient-43)"/>
        <g id="Group_159" data-name="Group 159">
          <g id="Group_158" data-name="Group 158">
            <path id="Path_2643" data-name="Path 2643" d="M1064.047,999.9c-.066-.354-.151-.707-.227-1.087-.216-1.082.066-3.183-.224-5.661l9.385-3.965c.156,5.27,1.019,6.356,1.989,10.649-.1,4.222-10.591,6.112-10.811,1.152A7.791,7.791,0,0,0,1064.047,999.9Z" fill="#ffa698" fill-rule="evenodd"/>
            <path id="Path_2644" data-name="Path 2644" d="M1064.047,999.9c-.066-.354-.151-.707-.227-1.087-.216-1.082.066-3.183-.224-5.661l9.385-3.965c.035,1.2.107,2.182.208,3.039.335,3.49-3.011,9.569-9.03,8.762A7.791,7.791,0,0,0,1064.047,999.9Z" fill-rule="evenodd" fill="url(#linear-gradient-44)"/>
            <path id="Path_2645" data-name="Path 2645" d="M1063.509,999.669c1.151-.76,4.3-2.671,5.329-3.428,2.256-1.655,1.983-3.767,2.636-7.075,2.11-1.508,2.818-2.7,3.007-4.057a9.8,9.8,0,0,0-3.834-8.561,8.516,8.516,0,0,0-7.379-1.507c-5.385,1.179-7.6,5.253-7.887,9.91a3.135,3.135,0,0,0,.151,1.157,14.674,14.674,0,0,1,.5,1.73c.284,1.381-.65,1.882-.277,3.6.506,2.335,2.443,6.891,3.237,7.652C1059.6,999.674,1062.319,999.863,1063.509,999.669Z" fill="#ffa698" fill-rule="evenodd"/>
            <path id="Path_2646" data-name="Path 2646" d="M1055.64,982.921a14.959,14.959,0,0,0-.259,2.03,3.135,3.135,0,0,0,.151,1.157,14.674,14.674,0,0,1,.5,1.73c.284,1.381-.65,1.882-.277,3.6a27.751,27.751,0,0,0,1.458,4.291c3.466,2.636,6.5-.584,6.961-1.181,2.172-2.8,2.339-6.993.7-10.907A13.307,13.307,0,0,1,1055.64,982.921Z" fill-rule="evenodd" fill="url(#linear-gradient-45)"/>
            <path id="Path_2647" data-name="Path 2647" d="M1075.988,983.591a26.841,26.841,0,0,1-2.592,8.05c-1.094,1.757-.617-.4-1.193-1.6-.442-.925-1.876-1.033-2.309-1.986a2.994,2.994,0,0,1-1.018,1.885c-.333.181-1.005.43-1.032-.526-.092-3.3-1.655-3.534-1.162-5.514.37-1.484.281-2.122-.082-2.657-1.078.15-1.772,1.255-3.036,1.8a11.05,11.05,0,0,1-7.509-.713c-2.662-1.455-2.911-4.7-.675-6.782,1.245-1.159,2.641-1.453,4.595-2.761a8.47,8.47,0,0,1,10.9,1.154C1075.774,974.934,1076.309,979.611,1075.988,983.591Z" fill="#562e65" fill-rule="evenodd"/>
            <path id="Path_2648" data-name="Path 2648" d="M1070.779,986.375c2.031-.921,2.282,1.5,2.1,3.007-.125,1.033-.967,1.039-1.191,1.867a1.915,1.915,0,0,1-1.595,1.545c-1.282.09-.676-1.887-.6-2.656C1069.225,988.916,1069.49,986.96,1070.779,986.375Z" fill="#ffa698" fill-rule="evenodd"/>
          </g>
          <path id="Path_2649" data-name="Path 2649" d="M1065.209,979.644c.2,1.38-1.578,3-4.075,3.139-2.314.127-5.452-.42-6.612-3.232a3.207,3.207,0,0,1,1.216-3.471,2.907,2.907,0,0,1,2.776.013c1.711.752,3.138,2.664,4.362,3.134A17.007,17.007,0,0,0,1065.209,979.644Z" fill-rule="evenodd" fill="url(#linear-gradient-46)"/>
        </g>
      </g>
    </g>
  </g>
</svg>
