<svg id="Google" xmlns="http://www.w3.org/2000/svg" width="35.683" height="22.302" viewBox="0 0 35.683 22.302">
  <path id="Icon_awesome-google-plus-g" data-name="Icon awesome-google-plus-g" d="M22.578,14.054a9.459,9.459,0,0,1,.183,1.856c0,6.374-4.275,10.892-10.71,10.892a11.151,11.151,0,0,1,0-22.3A10.651,10.651,0,0,1,19.52,7.421l-3.027,2.906a6.261,6.261,0,0,0-4.442-1.719,7.045,7.045,0,0,0,0,14.087,6.04,6.04,0,0,0,6.328-4.807H12.051V14.053H22.578Zm10.768.374V11.191H30.094v3.237H26.857V17.68h3.237v3.237h3.252V17.68h3.237V14.427H33.346Z" transform="translate(-0.9 -4.5)" fill="#bebebe"/>
</svg>
