<svg xmlns="http://www.w3.org/2000/svg" width="38.055" height="27.308" viewBox="0 0 38.055 27.308">
  <g id="High_Level_of_TVL" data-name="High Level of TVL" transform="translate(0.75 0.75)">
    <g id="Group_101" data-name="Group 101" transform="translate(19.956)">
      <path id="Path_2460" data-name="Path 2460" d="M-528.07,400.066v3.371c0,2.478-3.716,4.486-8.3,4.486s-8.3-2.008-8.3-4.486v-3.371" transform="translate(544.669 -382.115)" fill="none" stroke="#4ba0ea" stroke-linecap="round" stroke-linejoin="round" stroke-width="1.5"/>
      <path id="Path_2461" data-name="Path 2461" d="M-544.669,397.674v3.371c0,2.478,3.716,4.486,8.3,4.486s8.3-2.008,8.3-4.486v-3.371" transform="translate(544.669 -383.094)" fill="none" stroke="#4ba0ea" stroke-linecap="round" stroke-linejoin="round" stroke-width="1.5"/>
      <path id="Path_2462" data-name="Path 2462" d="M-544.669,395.282v3.371c0,1.345,1.094,2.549,2.826,3.371a12.977,12.977,0,0,0,5.474,1.115,12.977,12.977,0,0,0,5.474-1.115c1.732-.822,2.826-2.027,2.826-3.371v-3.371" transform="translate(544.669 -384.066)" fill="none" stroke="#4ba0ea" stroke-linecap="round" stroke-linejoin="round" stroke-width="1.5"/>
      <path id="Path_2463" data-name="Path 2463" d="M-544.669,392.89v3.371c0,1.344,1.094,2.549,2.826,3.371a13,13,0,0,0,5.474,1.115,13,13,0,0,0,5.474-1.115c1.732-.822,2.826-2.027,2.826-3.371V392.89" transform="translate(544.669 -385.042)" fill="none" stroke="#4ba0ea" stroke-linecap="round" stroke-linejoin="round" stroke-width="1.5"/>
      <path id="Path_2464" data-name="Path 2464" d="M-544.669,390.5v3.371c0,1.343,1.094,2.549,2.824,3.371a12.979,12.979,0,0,0,5.475,1.115,12.979,12.979,0,0,0,5.475-1.115c1.731-.822,2.824-2.028,2.824-3.371V390.5" transform="translate(544.669 -386.017)" fill="none" stroke="#4ba0ea" stroke-linecap="round" stroke-linejoin="round" stroke-width="1.5"/>
      <ellipse id="Ellipse_1" data-name="Ellipse 1" cx="8.299" cy="4.486" rx="8.299" ry="4.486" transform="translate(0)" fill="none" stroke="#4ba0ea" stroke-linecap="round" stroke-linejoin="round" stroke-width="1.5"/>
    </g>
    <path id="Path_2465" data-name="Path 2465" d="M-542.249,400.066v3.371c0,2.478-3.716,4.486-8.3,4.486s-8.3-2.008-8.3-4.486v-3.371" transform="translate(558.848 -382.115)" fill="none" stroke="#071354" stroke-linecap="round" stroke-linejoin="round" stroke-width="1.5"/>
    <path id="Path_2466" data-name="Path 2466" d="M-558.848,397.674v3.371c0,2.478,3.716,4.486,8.3,4.486s8.3-2.008,8.3-4.486v-3.371" transform="translate(558.848 -383.094)" fill="none" stroke="#071354" stroke-linecap="round" stroke-linejoin="round" stroke-width="1.5"/>
    <ellipse id="Ellipse_2" data-name="Ellipse 2" cx="8.299" cy="4.486" rx="8.299" ry="4.486" transform="translate(0 10.102)" fill="none" stroke="#071354" stroke-linecap="round" stroke-linejoin="round" stroke-width="1.5"/>
  </g>
</svg>
