<svg id="Instagram" xmlns="http://www.w3.org/2000/svg" width="24.78" height="24.78" viewBox="0 0 24.78 24.78">
  <path id="Path_2502" data-name="Path 2502" d="M9.195,3h12.39A6.2,6.2,0,0,1,27.78,9.195v12.39a6.2,6.2,0,0,1-6.195,6.195H9.195A6.2,6.2,0,0,1,3,21.585V9.195A6.2,6.2,0,0,1,9.195,3Z" transform="translate(-3 -3)" fill="#bebebe"/>
  <path id="Path_2503" data-name="Path 2503" d="M21.923,16.164a4.956,4.956,0,1,1-4.175-4.175,4.956,4.956,0,0,1,4.175,4.175Z" transform="translate(-4.577 -4.555)" fill="none" stroke="#fff" stroke-linecap="round" stroke-linejoin="round" stroke-width="3"/>
  <path id="Path_2504" data-name="Path 2504" d="M26.25,9.75h0" transform="translate(-7.046 -4.175)" fill="none" stroke="#fff" stroke-linecap="round" stroke-linejoin="round" stroke-width="3"/>
</svg>
