<svg xmlns="http://www.w3.org/2000/svg" width="52.441" height="44.567" viewBox="0 0 52.441 44.567">
  <g id="Lending_Before" data-name="Lending Before" transform="translate(0.826 0.826)">
    <path id="Path_2498" data-name="Path 2498" d="M266.107,467.774,289.8,459l3.249,8.774" transform="translate(-254.192 -459)" fill="none" stroke="#213993" stroke-linecap="round" stroke-linejoin="round" stroke-width="1.652"/>
    <path id="Path_2499" data-name="Path 2499" d="M300.325,478.361v-6.578a4.009,4.009,0,0,0-4.009-4.009H258.2a4.009,4.009,0,0,0-4.009,4.009V497.9a4.009,4.009,0,0,0,4.009,4.01h38.115a4.009,4.009,0,0,0,4.009-4.01v-6.578" transform="translate(-254.192 -459)" fill="none" stroke="#213993" stroke-linecap="round" stroke-linejoin="round" stroke-width="1.652"/>
    <path id="Rectangle_41" data-name="Rectangle 41" d="M4.4,0H22.7A1.341,1.341,0,0,1,24.04,1.341V11.625A1.341,1.341,0,0,1,22.7,12.967H4.4A4.4,4.4,0,0,1,0,8.571V4.4A4.4,4.4,0,0,1,4.4,0Z" transform="translate(26.749 19.361)" fill="none" stroke="#213993" stroke-linecap="round" stroke-linejoin="round" stroke-width="1.652"/>
    <circle id="Ellipse_15" data-name="Ellipse 15" cx="2.055" cy="2.055" r="2.055" transform="translate(32.411 23.789)" stroke-width="1.652" stroke="#213993" stroke-linecap="round" stroke-linejoin="round" fill="none"/>
  </g>
</svg>
