<svg id="Logo_Center" data-name="Logo Center" xmlns="http://www.w3.org/2000/svg" width="325.476" height="374.114" viewBox="0 0 325.476 374.114">
  <g id="Group_6" data-name="Group 6">
    <g id="Group_1" data-name="Group 1">
      <path id="Path_1" data-name="Path 1" d="M544.876,520.272a3.671,3.671,0,0,1-1.89,3.239l-7.919,4.589L382.183,439.825,229.478,528.1l-7.919-4.589a3.671,3.671,0,0,1-1.89-3.239L219.4,336.7a3.672,3.672,0,0,1,1.89-3.239l159.094-91.515a4.016,4.016,0,0,1,3.779,0l5.669,3.239-.09,178.081L544.876,512.8Z" transform="translate(-219.4 -241.475)" fill="#6d81d5"/>
    </g>
    <g id="Group_2" data-name="Group 2" transform="translate(0.81 187.102)">
      <path id="Path_2" data-name="Path 2" d="M544.427,543.075a3.875,3.875,0,0,1-1.35,1.35L383.983,635.939a4.015,4.015,0,0,1-3.779,0L221.65,544.424a3.245,3.245,0,0,1-1.35-1.35L382.273,449.4Z" transform="translate(-220.3 -449.4)" fill="#2944ae"/>
    </g>
    <g id="Group_3" data-name="Group 3" transform="translate(0.81 187.102)">
      <path id="Path_3" data-name="Path 3" d="M544.427,543.075a3.875,3.875,0,0,1-1.35,1.35L383.983,635.939a4.015,4.015,0,0,1-3.779,0L221.65,544.424a3.245,3.245,0,0,1-1.35-1.35L382.273,449.4Z" transform="translate(-220.3 -449.4)" fill="#2944ae"/>
    </g>
    <path id="Path_4" data-name="Path 4" d="M479.471,500.772v.18l-83.416,48.322a11.128,11.128,0,0,1-11.338,0L301.3,500.952v-.09L390.475,449.3Z" transform="translate(-227.602 -262.288)" fill="#213993"/>
    <g id="Group_4" data-name="Group 4" transform="translate(144.066 187.012)">
      <path id="Path_5" data-name="Path 5" d="M560.37,543.065a3.875,3.875,0,0,1-1.35,1.35L399.927,635.929a4.015,4.015,0,0,1-3.779,0L379.5,626.3l138.577-79.727a3.8,3.8,0,0,0,0-6.569l-138.487-80h0L398.127,449.3Z" transform="translate(-379.5 -449.3)" fill="#213993"/>
    </g>
    <g id="Group_5" data-name="Group 5" transform="translate(162.693 0.022)">
      <path id="Path_6" data-name="Path 6" d="M562.983,520.274a3.326,3.326,0,0,1-.54,1.89L400.2,428.579l.09-187.079a3.541,3.541,0,0,1,1.89.54l158.554,91.515a3.672,3.672,0,0,1,1.89,3.239Z" transform="translate(-400.2 -241.5)" fill="#5169cd"/>
    </g>
    <path id="Path_7" data-name="Path 7" d="M562.993,520.274a3.327,3.327,0,0,1-.54,1.89l-22.766-13.138v-160.8L400.3,267.506V241.5a3.78,3.78,0,0,1,1.89.54l158.554,91.515a3.672,3.672,0,0,1,1.89,3.239Z" transform="translate(-237.517 -241.478)" fill="#3351c5"/>
  </g>
  <g id="Group_11" data-name="Group 11" transform="translate(68.606 45.285)">
    <g id="Group_7" data-name="Group 7" transform="translate(48.735 231.982)">
      <path id="Path_8" data-name="Path 8" d="M368.247,563.728a9.528,9.528,0,0,0,2.79-.45,9.465,9.465,0,0,1,6.3.09,8.36,8.36,0,0,0,2.61.45,8.022,8.022,0,0,0,4.679-1.44,9.659,9.659,0,0,1,5.669-1.8h2.07v-1.35l5.039.09a1.525,1.525,0,0,0,1.62,1.44h1.08l.09-7.289h-1.08a1.525,1.525,0,0,0-1.62,1.44l-5.039-.09v-1.53h-2.07a9.741,9.741,0,0,1-5.669-1.89,8.079,8.079,0,0,0-4.679-1.53,9.527,9.527,0,0,0-2.79.45,9.2,9.2,0,0,1-6.209-.09,8.36,8.36,0,0,0-2.61-.45,9.527,9.527,0,0,0-2.79.45,9.437,9.437,0,0,1-6.479-.09,9.588,9.588,0,0,0-2.79-.54,8.022,8.022,0,0,0-4.679,1.44h0a4.2,4.2,0,0,0-1.89,3.419v4.049a4.35,4.35,0,0,0,1.8,3.419h0a8.079,8.079,0,0,0,4.679,1.53,9.527,9.527,0,0,0,2.79-.45,9.437,9.437,0,0,1,6.479.09A5.435,5.435,0,0,0,368.247,563.728Z" transform="translate(-349.8 -549.6)" fill="#26d192"/>
    </g>
    <path id="Path_9" data-name="Path 9" d="M431.752,411.042C394.5,386.836,388.739,360.2,388.739,360.2s-3.419,26.546-40.763,50.842c-37.254,24.206-54.081,41.033-52.191,72.708s31.675,41.033,31.675,41.033H452.178s29.785-9.359,31.675-41.033C485.833,452.075,469.1,435.248,431.752,411.042Z" transform="translate(-295.641 -298.65)" fill="#213993"/>
    <g id="Group_8" data-name="Group 8" transform="translate(47.475)">
      <path id="Path_10" data-name="Path 10" d="M423.538,479.869c-3.6-5.039-9.178-22.856-11.7-31.315-.81-2.79-1.35-4.589-1.35-4.589-.09,0-.18-.09-.27-.09-.45-1.71-.81-3.329-1.08-4.589a10.851,10.851,0,0,0,5.4-9.358H408.15a9.425,9.425,0,0,0,.45-2.7,12.409,12.409,0,0,0-.99-4.589l16.107-11.968-5.759-7.019-13.228,14.488a20.022,20.022,0,0,0-2.43-2.34,12.028,12.028,0,0,1-4.589-9.448,12.277,12.277,0,0,1,4.139-9.358,9.324,9.324,0,0,0,0-14.578,12.277,12.277,0,0,1-4.139-9.358V370a12.277,12.277,0,0,1,4.139-9.358,9.324,9.324,0,0,0,0-14.578,12.277,12.277,0,0,1-4.139-9.358V325.095h3.329v-2.25a3.381,3.381,0,0,1,3.329-3.329,10.024,10.024,0,0,0,9.988-9.988H399.6a12.233,12.233,0,0,0,6.029-8.909l1.26-8.819H379.715l1.53,9.179a12.326,12.326,0,0,0,5.939,8.549H372.156a10.024,10.024,0,0,0,9.988,9.988h0a3.381,3.381,0,0,1,3.329,3.329v2.25h3.509V336.7a12.277,12.277,0,0,1-4.139,9.358,9.324,9.324,0,0,0,0,14.578A12.277,12.277,0,0,1,388.983,370v3.06a12.277,12.277,0,0,1-4.139,9.358,9.324,9.324,0,0,0,0,14.578,12.277,12.277,0,0,1,4.139,9.358,12.028,12.028,0,0,1-4.589,9.448,5.145,5.145,0,0,0-.72.63l-3.6,4.409a12.6,12.6,0,0,0-1.98,6.389,9.425,9.425,0,0,0,.45,2.7h-6.389a10.748,10.748,0,0,0,4.139,8.459l-.27,1.35h-.09l-1.26,5.489h.27c-.63,3.329-1.53,7.289-2.61,11.428-2.16,8.279-5.039,17.187-8.729,23.126-8.729,14.128-15.207,13.228-15.207,21.956h0c0,10.078,9.268,18.177,19.347,18.177h49.312c10.078,0,20.967-8.189,20.967-18.177h0C438.205,493.1,432.176,491.837,423.538,479.869Z" transform="translate(-348.4 -291.8)" fill="#1ec186"/>
    </g>
    <g id="Group_9" data-name="Group 9" transform="translate(9.78 40.657)">
      <path id="Path_11" data-name="Path 11" d="M335.116,538.565c-11.968-.63-26.186-10.438-28.345-24.116-1.44-9.178,1.89-26.906,40.853-42.113a96.9,96.9,0,0,1,9.448-3.149c-2.97-3.059-5.669-6.119-8.189-9.268-13.858-17.277-19.167-33.115-15.028-44.723,2.52-7.109,7.109-11.878,13.588-14.308a27.079,27.079,0,0,1,8.189-1.71c-6.569-9.988-11.068-19.887-12.778-28.8-1.98-10.078-.36-18.357,4.769-24.656,6.3-7.649,16.2-10.348,28.435-7.829,22.766,4.589,47.962,25.826,53.811,45.443,5.759,19.257-14.578,33.475-15.477,34.014l-3.06-4.409c.18-.09,18-12.6,13.318-28.075-5.309-17.637-28.975-37.434-49.762-41.663-7.109-1.44-16.917-1.53-23.216,6.029-4.049,4.949-5.309,11.7-3.689,20.157,1.8,9.089,6.839,19.437,14.128,29.875,21.237,1.53,48.952,16.647,68.569,27.266l1.17.63c21.147,11.518,34.824,28.885,29.965,37.974-2.43,4.5-10.708,9.628-39.144-5.489-25.016-13.318-48.412-34.194-63.44-55.161a28.582,28.582,0,0,0-9.9,1.53c-4.949,1.89-8.369,5.579-10.438,11.158-3.509,9.808,1.44,23.846,14.128,39.594A126.046,126.046,0,0,0,363.1,467.837c36.984-8.009,69.918,6.479,83.506,19.257,6.389,6.029,9,11.968,7.469,16.827-.99,3.06-4.049,6.929-13.048,8.1-22.676,2.969-56.061-15.747-79.547-38.334a100.749,100.749,0,0,0-11.878,3.779c-26.276,10.258-39.594,23.126-37.524,36.264,1.71,10.618,13.768,19.077,23.4,19.527Zm32.845-66.229c22.136,20.247,52.281,36.984,72.348,34.284,4.859-.63,8.009-2.25,8.639-4.409.9-2.7-1.35-6.929-6.029-11.338C429.871,478.635,400,466.847,367.961,472.336Zm-1.35-67.219a192.1,192.1,0,0,0,58.67,49.672c22.136,11.788,30.5,10.168,31.855,7.739,2.16-4.049-5.579-18.627-27.805-30.685l-1.17-.63C411.424,422.034,386.228,408.356,366.611,405.117Z" transform="translate(-306.51 -336.982)" fill="#9ff7d3"/>
    </g>
    <g id="Group_10" data-name="Group 10" transform="translate(35.777 235.221)">
      <rect id="Rectangle_1" data-name="Rectangle 1" width="16.107" height="8.009" fill="#26d192"/>
    </g>
  </g>
</svg>
