<svg id="Logo_Header" data-name="Logo Header" xmlns="http://www.w3.org/2000/svg" width="136.439" height="55.231" viewBox="0 0 136.439 55.231">
  <text id="Sheesha" transform="translate(52.439 22)" fill="#213993" font-size="22" font-family="Barlow-Bold, Barlow" font-weight="700"><tspan x="0" y="0">Sheesha</tspan></text>
  <text id="FINANCE" transform="translate(57.645 42.567)" fill="#1ec186" font-size="18" font-family="Barlow-Regular, Barlow"><tspan x="0" y="0">FINANCE</tspan></text>
  <g id="Group_46" data-name="Group 46" transform="translate(0 2.036)">
    <g id="Group_40" data-name="Group 40">
      <g id="Group_35" data-name="Group 35" transform="translate(0 0)">
        <path id="Path_18" data-name="Path 18" d="M395.577,492.643a.537.537,0,0,1-.27.466l-1.128.649-21.736-12.55-21.7,12.551-1.126-.651a.534.534,0,0,1-.268-.464l-.038-26.092a.536.536,0,0,1,.269-.466l22.616-13.015a.536.536,0,0,1,.536,0l.8.465-.017,25.309,22.059,12.736Z" transform="translate(-349.309 -453)" fill="#6d81d5"/>
      </g>
      <g id="Group_36" data-name="Group 36" transform="translate(0.11 26.597)">
        <path id="Path_19" data-name="Path 19" d="M395.68,535.526a.538.538,0,0,1-.2.2l-22.616,13.015a.538.538,0,0,1-.537,0l-22.54-13.015a.526.526,0,0,1-.2-.2l23.025-13.316Z" transform="translate(-349.594 -522.21)" fill="#2944ae"/>
      </g>
      <g id="Group_37" data-name="Group 37" transform="translate(0.11 26.597)">
        <path id="Path_20" data-name="Path 20" d="M395.68,535.526a.538.538,0,0,1-.2.2l-22.616,13.015a.538.538,0,0,1-.537,0l-22.54-13.015a.526.526,0,0,1-.2-.2l23.025-13.316Z" transform="translate(-349.594 -522.21)" fill="#2944ae"/>
      </g>
      <path id="Path_21" data-name="Path 21" d="M401.876,529.525v.025l-11.863,6.872a1.612,1.612,0,0,1-1.614,0l-11.864-6.872v-.012l12.672-7.328Z" transform="translate(-366.071 -495.613)" fill="#213993"/>
      <g id="Group_38" data-name="Group 38" transform="translate(20.481 26.597)">
        <path id="Path_22" data-name="Path 22" d="M428.318,535.526a.537.537,0,0,1-.2.2l-22.616,13.015a.538.538,0,0,1-.537,0L402.6,547.37l19.7-11.339a.537.537,0,0,0,0-.931l-19.687-11.366h0l2.635-1.524Z" transform="translate(-402.603 -522.21)" fill="#213993"/>
      </g>
      <g id="Group_39" data-name="Group 39" transform="translate(23.134)">
        <path id="Path_23" data-name="Path 23" d="M432.641,492.643a.536.536,0,0,1-.072.269L409.507,479.6l.018-26.6a.531.531,0,0,1,.269.072l22.541,13.015a.535.535,0,0,1,.269.464Z" transform="translate(-409.507 -453)" fill="#5169cd"/>
      </g>
      <path id="Path_24" data-name="Path 24" d="M432.667,492.643a.536.536,0,0,1-.072.269l-3.233-1.866V468.177L409.549,456.7l0-3.7a.528.528,0,0,1,.268.072l22.541,13.015a.535.535,0,0,1,.269.464Z" transform="translate(-386.399 -453)" fill="#3351c5"/>
    </g>
    <g id="Group_45" data-name="Group 45" transform="translate(9.768 6.454)">
      <g id="Group_41" data-name="Group 41" transform="translate(6.91 32.979)">
        <path id="Path_25" data-name="Path 25" d="M395.335,557.6a1.158,1.158,0,0,0,.392-.063,1.372,1.372,0,0,1,.889.016,1.16,1.16,0,0,0,.37.063,1.141,1.141,0,0,0,.668-.2,1.39,1.39,0,0,1,.812-.25l.289,0,0-.2.714.007a.219.219,0,0,0,.225.209l.156,0,.01-1.039-.156,0a.219.219,0,0,0-.229.207l-.714-.007,0-.221-.29,0a1.392,1.392,0,0,1-.807-.266,1.139,1.139,0,0,0-.664-.216,1.172,1.172,0,0,0-.392.063,1.366,1.366,0,0,1-.889-.015,1.183,1.183,0,0,0-.371-.063,1.168,1.168,0,0,0-.395.064,1.361,1.361,0,0,1-.92-.008,1.166,1.166,0,0,0-.393-.072,1.142,1.142,0,0,0-.668.2l0,0a.6.6,0,0,0-.265.484l-.005.579a.6.6,0,0,0,.255.489l0,0a1.139,1.139,0,0,0,.664.216,1.162,1.162,0,0,0,.395-.064,1.362,1.362,0,0,1,.92.009A1.16,1.16,0,0,0,395.335,557.6Z" transform="translate(-392.706 -555.609)" fill="#26d192"/>
      </g>
      <path id="Path_26" data-name="Path 26" d="M394.068,499.767c-5.3-3.444-6.115-7.224-6.115-7.224s-.489,3.779-5.788,7.224-7.684,5.829-7.419,10.333a6.71,6.71,0,0,0,4.5,5.829h17.732a6.71,6.71,0,0,0,4.5-5.829C401.752,505.6,399.368,503.211,394.068,499.767Z" transform="translate(-374.726 -483.8)" fill="#213993"/>
      <g id="Group_42" data-name="Group 42" transform="translate(6.765)">
        <path id="Path_27" data-name="Path 27" d="M402.98,496.516a23.3,23.3,0,0,1-1.664-4.454c-.117-.4-.189-.651-.189-.651l-.035-.01c-.06-.248-.111-.468-.152-.651a1.541,1.541,0,0,0,.77-1.334H400.8a1.242,1.242,0,0,0,.062-.386,1.666,1.666,0,0,0-.147-.65l2.3-1.7-.817-1-1.882,2.061a2.561,2.561,0,0,0-.347-.332,1.708,1.708,0,0,1-.647-1.342,1.755,1.755,0,0,1,.585-1.331,1.328,1.328,0,0,0,0-2.069,1.755,1.755,0,0,1-.585-1.331V480.9a1.754,1.754,0,0,1,.585-1.331,1.328,1.328,0,0,0,0-2.07,1.754,1.754,0,0,1-.585-1.331v-1.648h.479v-.315a.473.473,0,0,1,.473-.473,1.419,1.419,0,0,0,1.419-1.419h-2.1a1.749,1.749,0,0,0,.857-1.267l.179-1.256h-3.862l.223,1.3a1.749,1.749,0,0,0,.847,1.219H395.7a1.419,1.419,0,0,0,1.419,1.419h0a.473.473,0,0,1,.473.473v.315h.493v1.648a1.754,1.754,0,0,1-.585,1.331,1.328,1.328,0,0,0,0,2.07,1.754,1.754,0,0,1,.585,1.331v.439a1.755,1.755,0,0,1-.585,1.331,1.328,1.328,0,0,0,0,2.069,1.755,1.755,0,0,1,.585,1.331,1.707,1.707,0,0,1-.648,1.342c-.037.029-.073.06-.108.091l-.512.621a1.84,1.84,0,0,0-.276.905,1.241,1.241,0,0,0,.062.386h-.911a1.539,1.539,0,0,0,.583,1.207c-.01.06-.022.126-.034.2h-.01l-.175.783.04,0c-.1.479-.218,1.042-.368,1.627a12.8,12.8,0,0,1-1.236,3.287c-1.234,2.006-2.161,1.881-2.161,3.121h0a2.726,2.726,0,0,0,2.744,2.59h7.013a2.948,2.948,0,0,0,2.976-2.59h0C405.064,498.4,404.215,498.214,402.98,496.516Z" transform="translate(-392.331 -469.793)" fill="#1ec186"/>
      </g>
      <g id="Group_43" data-name="Group 43" transform="translate(1.378 5.762)">
        <path id="Path_28" data-name="Path 28" d="M382.383,513.455a4.479,4.479,0,0,1-4.034-3.423c-.211-1.308.264-3.824,5.807-5.985q.674-.262,1.34-.45c-.418-.434-.807-.874-1.163-1.316-1.973-2.452-2.73-4.712-2.132-6.363a3.237,3.237,0,0,1,1.93-2.039,4.2,4.2,0,0,1,1.166-.248,12.035,12.035,0,0,1-1.821-4.1,4.03,4.03,0,0,1,.682-3.5,3.923,3.923,0,0,1,4.044-1.118c3.242.659,6.817,3.675,7.651,6.454.821,2.738-2.076,4.755-2.2,4.839l-.431-.631c.026-.017,2.559-1.788,1.9-3.989-.751-2.5-4.121-5.326-7.072-5.925a2.941,2.941,0,0,0-3.824,3.722,11.835,11.835,0,0,0,2.006,4.249c3.023.221,6.953,2.361,9.746,3.882l.164.089c3,1.633,4.951,4.105,4.255,5.4-.341.633-1.517,1.374-5.563-.784a27.667,27.667,0,0,1-9.023-7.84,3.851,3.851,0,0,0-1.408.216,2.473,2.473,0,0,0-1.483,1.585c-.5,1.39.21,3.388,2.009,5.624a19.281,19.281,0,0,0,1.431,1.579,13.982,13.982,0,0,1,11.867,2.739c.908.855,1.286,1.707,1.062,2.4-.139.431-.574.98-1.861,1.15-3.226.428-7.963-2.235-11.3-5.443a13.375,13.375,0,0,0-1.692.534c-3.737,1.457-5.63,3.286-5.33,5.151a3.774,3.774,0,0,0,3.32,2.781Zm4.662-9.42c3.146,2.877,7.435,5.253,10.283,4.876.695-.092,1.133-.315,1.234-.627.123-.383-.2-.985-.859-1.608C395.845,504.926,391.607,503.254,387.046,504.035Zm-.193-9.558a27.318,27.318,0,0,0,8.341,7.067c3.147,1.678,4.34,1.451,4.53,1.1.313-.581-.8-2.649-3.947-4.364l-.164-.089C393.23,496.889,389.644,494.937,386.853,494.477Z" transform="translate(-378.311 -484.785)" fill="#9ff7d3"/>
      </g>
      <g id="Group_44" data-name="Group 44" transform="translate(5.076 33.424)">
        <rect id="Rectangle_10" data-name="Rectangle 10" width="2.286" height="1.141" fill="#26d192"/>
      </g>
    </g>
  </g>
</svg>
