<svg id="Lottery_Art" data-name="Lottery Art" xmlns="http://www.w3.org/2000/svg" width="476.077" height="400" viewBox="0 0 476.077 400">
  <path id="Path_2502" data-name="Path 2502" d="M1507.03,1306.009c.084-.236,2.1-3.678,4.695-7.416,12.085-17.411,30.005-34.192,51.02-33.562l.016-.128c-9.5-1.042-18.811,1.488-26.984,6-13.482,7.268-26.619,21.118-33.806,31.764Z" transform="translate(-1206.806 -1244.369)" fill="#96b8f9"/>
  <path id="Path_2503" data-name="Path 2503" d="M1558.083,1274.666l1.421-9.791-7.26-6.723a1.359,1.359,0,0,1,.694-2.337l9.752-1.674,4.149-8.983a1.36,1.36,0,0,1,2.438-.062l4.6,8.757,9.825,1.171a1.359,1.359,0,0,1,.813,2.3l-6.905,7.086,1.922,9.706a1.36,1.36,0,0,1-1.935,1.484l-8.874-4.378-8.636,4.828A1.36,1.36,0,0,1,1558.083,1274.666Z" transform="translate(-1206.806 -1244.369)" fill="#96b8f9"/>
  <path id="Path_2504" data-name="Path 2504" d="M1366.853,1256.744l-1.293,4.8,3.878,3.26-1.831,5.274,5.2,2.2L1371,1278.33l4.54,2.616-.786,6.111-2.313-.3.587-4.569-4.79-2.76,1.737-5.821-5.288-2.236,2.02-5.82-3.787-3.184,1.2-4.446-2.924-1.571,1.1-2.054Z" transform="translate(-1206.806 -1244.369)" fill="#6d74f0"/>
  <g id="Group_102" data-name="Group 102" transform="translate(-1206.806 -1244.369)">
    <g id="Group_101" data-name="Group 101">
      <path id="Path_2505" data-name="Path 2505" d="M1257.363,1554.836a15.205,15.205,0,1,1-21.475-1.176A15.2,15.2,0,0,1,1257.363,1554.836Z" fill="#96b8f9"/>
      <path id="Path_2506" data-name="Path 2506" d="M1241.594,1572.2a8.129,8.129,0,1,0,12.108-10.85Z" fill="#dde8fe"/>
    </g>
  </g>
  <g id="Group_103" data-name="Group 103" transform="translate(-1206.806 -1244.369)">
    <path id="Path_2507" data-name="Path 2507" d="M1642.068,1640.917h-364.4a1.726,1.726,0,0,0-1.726,1.726h0a1.726,1.726,0,0,0,1.726,1.726h364.4a1.726,1.726,0,0,0,1.726-1.726h0A1.726,1.726,0,0,0,1642.068,1640.917Z" fill="#4951ec"/>
  </g>
  <g id="Group_104" data-name="Group 104" transform="translate(-1206.806 -1244.369)">
    <path id="Path_2508" data-name="Path 2508" d="M1240.813,1516.753l-3.973-2.253a22.185,22.185,0,0,1-3.732,4.5,2.781,2.781,0,0,1-3.8-.053l-.127-.123a2.773,2.773,0,0,1,.073-4.07,16.172,16.172,0,0,0,3.353-4.094c1.353-2.383,1.357-4.536-.315-5.485-1.59-.9-3.352-.132-6.153,2.37-4.043,3.621-7.865,5.488-11.922,3.188-3.68-2.087-5.1-6.316-3.436-11.289l-3.973-2.254,2.324-4.1,3.68,2.087a20.547,20.547,0,0,1,2.715-3.5,2.775,2.775,0,0,1,3.9-.043h0a2.777,2.777,0,0,1,.007,4,14.755,14.755,0,0,0-2.605,3.378c-1.541,2.719-.868,4.261.3,4.925,1.381.782,3.089-.183,6.443-2.979,4.579-3.981,8.017-4.684,11.781-2.549,3.722,2.11,5.407,6.548,3.516,11.831l4.266,2.419Z" fill="#c0d4fc"/>
  </g>
  <path id="Path_2509" data-name="Path 2509" d="M1631.56,1348.977l-2.63,6.556-11.016-3.067-5.028,9.111-8.619-.947-.479,4.363,11.527,1.267,4.764-8.634,11.459,3.19,3.958-9.865Z" transform="translate(-1206.806 -1244.369)" fill="#90a9f4"/>
  <g id="Group_105" data-name="Group 105" transform="translate(-1206.806 -1244.369)">
    <path id="Path_2510" data-name="Path 2510" d="M1612.507,1581.174l2.308-5.727a29.987,29.987,0,0,1-6.7-4.2,3.758,3.758,0,0,1-.609-5.1l.142-.192a3.75,3.75,0,0,1,5.467-.632,21.871,21.871,0,0,0,6.084,3.761c3.436,1.385,6.321,1.006,7.293-1.405.923-2.29-.423-4.514-4.277-7.819-5.575-4.769-8.761-9.556-6.4-15.4,2.137-5.3,7.55-7.958,14.51-6.624l2.308-5.727,5.907,2.381-2.138,5.3a27.7,27.7,0,0,1,5.181,3.01,3.752,3.752,0,0,1,.757,5.222h0a3.755,3.755,0,0,1-5.353.724,19.979,19.979,0,0,0-4.993-2.885c-3.918-1.579-5.864-.4-6.544,1.287-.8,1.989.8,4.1,5.144,8.1,6.153,5.422,7.711,9.9,5.524,15.328-2.161,5.365-7.8,8.416-15.223,6.828l-2.477,6.148Z" fill="#e3ebfc"/>
  </g>
  <path id="Path_2511" data-name="Path 2511" d="M1291,1383.1a2.025,2.025,0,0,1-.106,2.572,19.914,19.914,0,0,1-5.936,4.392,16.007,16.007,0,0,1-12.273.991,14.754,14.754,0,0,1-6.852-5.142l-2.246,1.094a1.537,1.537,0,0,1-2.055-.708l-.028-.058a1.537,1.537,0,0,1,.709-2.056l1.842-.9c-.366-.6-.62-.98-.788-1.326a14.9,14.9,0,0,1-.809-2.1l-1.9.926a1.537,1.537,0,0,1-2.055-.708h0a1.538,1.538,0,0,1,.708-2.056l2.3-1.122a15.8,15.8,0,0,1,.345-8.506,16.988,16.988,0,0,1,8.781-9.622,17.367,17.367,0,0,1,5.863-1.75,2.075,2.075,0,0,1,2.271,1.77l0,.035a2.079,2.079,0,0,1-1.791,2.349,14.872,14.872,0,0,0-4.553,1.425,11.069,11.069,0,0,0-5.737,6.215,9.227,9.227,0,0,0-.173,5.643l12.959-6.313a1.536,1.536,0,0,1,2.055.709h0a1.537,1.537,0,0,1-.709,2.055l-13.534,6.594c.251.661.5,1.323.7,1.726.252.518.505,1.037.9,1.7l13.563-6.608a1.568,1.568,0,0,1,2.1.724h0a1.569,1.569,0,0,1-.723,2.1l-12.987,6.327a9.769,9.769,0,0,0,4.266,3.053,10.808,10.808,0,0,0,8.631-.714,16.912,16.912,0,0,0,4.245-2.952,2.025,2.025,0,0,1,3.014.241Z" transform="translate(-1206.806 -1244.369)" fill="#4951ec"/>
  <path id="Path_2512" data-name="Path 2512" d="M1249.106,1424.048l-6.706.68-2.287-10.669-9.927-.214-3.017-7.7-3.9,1.527,4.035,10.3,9.408.2,2.379,11.1,10.091-1.024Z" transform="translate(-1206.806 -1244.369)" fill="#d0defb"/>
  <g id="Group_106" data-name="Group 106" transform="translate(-1206.806 -1244.369)">
    <path id="Path_2513" data-name="Path 2513" d="M1568.767,1346.027l4.21,1.389s6.676-2.163,7.333-3.524.843-4.661,1.793-4.752a2.877,2.877,0,0,1,3.223,2.479c.317,1.64-2.085,6.38-1.71,6.885a23.092,23.092,0,0,0,4.394,1.788,3.279,3.279,0,0,1,2.171,2.647v0a1.807,1.807,0,0,1-1.129,1.941l-1.211.467.386,1.251a1.805,1.805,0,0,1-1.142,2.24l-.936.315.3.761a1.805,1.805,0,0,1-1.166,2.388l-.818.238.034.219a1.8,1.8,0,0,1-1.314,2.018l-.813.213-11.213-3.7a7.993,7.993,0,0,1-2.842-1.65l-3.724-1.966a.924.924,0,0,1-.434-1.124l3.453-9.942A.923.923,0,0,1,1568.767,1346.027Z" fill="#fb9390"/>
  </g>
  <path id="Path_2514" data-name="Path 2514" d="M1312.134,1359.386c-.093-.264-2.34-4.107-5.24-8.28-13.492-19.438-33.5-38.172-56.96-37.468l-.017-.143c10.607-1.164,21,1.661,30.125,6.7,15.051,8.114,29.717,23.576,37.74,35.461Z" transform="translate(-1206.806 -1244.369)" fill="#96b8f9"/>
  <path id="Path_2515" data-name="Path 2515" d="M1255.139,1324.394l-1.587-10.931,8.106-7.505a1.518,1.518,0,0,0-.775-2.61L1250,1301.48l-4.633-10.028a1.518,1.518,0,0,0-2.721-.07l-5.142,9.777-10.968,1.307a1.518,1.518,0,0,0-.908,2.567l7.71,7.911-2.147,10.835a1.518,1.518,0,0,0,2.161,1.656l9.906-4.887,9.642,5.39A1.518,1.518,0,0,0,1255.139,1324.394Z" transform="translate(-1206.806 -1244.369)" fill="#96b8f9"/>
  <g id="Group_107" data-name="Group 107" transform="translate(-1206.806 -1244.369)">
    <path id="Path_2516" data-name="Path 2516" d="M1622.1,1514.034l.761-2.591a10.864,10.864,0,0,0,8.628-7.352,22.836,22.836,0,0,0,.8-3.7l-5.39-1.552.958-3.265,4.867,1.4a35.708,35.708,0,0,1,1.067-5.763c1.8-6.115,7.2-8.885,13.014-7.213a13.924,13.924,0,0,1,3.887,1.73,1.882,1.882,0,0,1,.521,2.6h0a1.935,1.935,0,0,1-2.624.573,11.738,11.738,0,0,0-2.864-1.225c-4.082-1.175-6.578,1.142-7.658,4.821a28.718,28.718,0,0,0-1,5.726l7.536,2.17-.958,3.265-7.117-2.049a18.706,18.706,0,0,1-1.913,5.744,11.33,11.33,0,0,1-5.254,4.558l-.03.1,13.753,3.96a1.9,1.9,0,0,1,1.306,2.353l-.04.136a1.92,1.92,0,0,1-2.376,1.294Z" fill="#96b8f9"/>
  </g>
  <path id="Path_2517" data-name="Path 2517" d="M1208.76,1361.571l2.56-4.323-2.111-4.56a.691.691,0,0,1,.778-.964l4.9,1.1,3.684-3.416a.691.691,0,0,1,1.157.442l.47,5,4.388,2.448a.69.69,0,0,1-.063,1.237l-4.612,1.993-.972,4.93a.691.691,0,0,1-1.2.322l-3.321-3.77-4.988.6A.69.69,0,0,1,1208.76,1361.571Z" transform="translate(-1206.806 -1244.369)" fill="#fa7167"/>
  <path id="Path_2518" data-name="Path 2518" d="M1681.471,1431.024l-6.141-.5-.838,5.68-6.071-.221-1.471,5.329-4.57.577.293,2.314,6.112-.772,1.393-5.05,6.316.23.824-5.586,5.565.449Z" transform="translate(-1206.806 -1244.369)" fill="#fa7167"/>
  <path id="Path_2519" data-name="Path 2519" d="M1352.791,1293.151l-.375-6.149-5.741-.029-.637-6.042-5.483-.7-1.216-4.443-2.249.615,1.626,5.943,5.2.667.662,6.285,5.647.028.34,5.573Z" transform="translate(-1206.806 -1244.369)" fill="#fa7167"/>
  <path id="Path_2520" data-name="Path 2520" d="M1219.7,1474.644l4.641,1.772,3.636-3.529,5.062,2.355,2.714-4.953,5.842,2.41,3.061-4.252,6,1.4-.53,2.271-4.486-1.047-3.23,4.487-5.616-2.317-2.759,5.035-5.586-2.6-3.551,3.446-4.3-1.642-1.858,2.75-1.932-1.306Z" transform="translate(-1206.806 -1244.369)" fill="#fa7167"/>
  <path id="Path_2521" data-name="Path 2521" d="M1499.689,1279.088l-.3,3.741-6.072.181-1.115,5.415-4.522.879.444,2.289,6.048-1.175,1.056-5.132,6.317-.188.453-5.629Z" transform="translate(-1206.806 -1244.369)" fill="#d0defb"/>
  <g id="Group_108" data-name="Group 108" transform="translate(-1206.806 -1244.369)">
    <circle id="Ellipse_17" data-name="Ellipse 17" cx="17.576" cy="17.576" r="17.576" transform="translate(1588.107 1282.055) rotate(-20.445)" fill="#e6eefe"/>
    <path id="Path_2522" data-name="Path 2522" d="M1622.581,1294.394l-7.479,2.3-2.347,7.464a.762.762,0,0,1-1.351.21l-4.5-6.4-7.824.075a.762.762,0,0,1-.616-1.22l4.7-6.256-2.489-7.418a.762.762,0,0,1,.97-.964l7.4,2.536,6.286-4.659a.763.763,0,0,1,1.217.625l-.125,7.823,6.374,4.538A.763.763,0,0,1,1622.581,1294.394Z" fill="#92b5f9"/>
  </g>
  <path id="Path_2523" data-name="Path 2523" d="M1672.683,1370.291l4.121-.248a.609.609,0,0,0,.4-.976l-2.626-3.435,1.132-4.374a.551.551,0,0,0-.716-.7l-3.837,1.739-3.422-2.455a.551.551,0,0,0-.839.544l.254,4.51-3.246,2.856a.608.608,0,0,0,.2,1.034l3.994,1.049,1.416,4.22a.518.518,0,0,0,.961.095Z" transform="translate(-1206.806 -1244.369)" fill="#ef8080"/>
  <g id="Group_116" data-name="Group 116" transform="translate(-1206.806 -1244.369)">
    <path id="Path_2524" data-name="Path 2524" d="M1367.664,1446.455s7.388-14.215,8.534-19.434,5.115-31.5,4.78-33.19-6.611-5.766-5.836-7.2,6.753-1.441,8.122-1.318a12.367,12.367,0,0,1,5.3,1.892c1.178.971-1.324,32.464-2.071,39.245s-9.926,27.661-9.926,27.661Z" fill="#fb9390"/>
    <path id="Path_2525" data-name="Path 2525" d="M1381,1386.616c-.163.1-.783.286-.929.418l-1.136.359a6.8,6.8,0,0,1,4.642,1.775A7.868,7.868,0,0,0,1381,1386.616Z" fill="#ef7f7f"/>
    <path id="Path_2526" data-name="Path 2526" d="M1520.663,1392.324c1.144-.873,1.727-3.062,1.974-4.477l.577-1.862c-.439-.2-9.126-1.851-11.76-2.04a4.811,4.811,0,0,0-.394,1.975c.293,2.174,2.4,16.295,2.4,16.295l7.524.5S1519.729,1394.338,1520.663,1392.324Z" fill="#fb9390"/>
    <path id="Path_2527" data-name="Path 2527" d="M1520.843,1386.4a10.45,10.45,0,0,0-3.277,2.782s-4.133-2.925-3.944-3.783c.251-1.138,4.505,1.191,4.505,1.191Z" fill="#ef8080"/>
    <rect id="Rectangle_46" data-name="Rectangle 46" width="222.044" height="89.342" transform="translate(1328.474 1298.051)" fill="#4951ec"/>
    <rect id="Rectangle_47" data-name="Rectangle 47" width="82.735" height="215.437" transform="translate(1547.214 1301.354) rotate(90)" fill="#bed1f9"/>
    <rect id="Rectangle_48" data-name="Rectangle 48" width="222.044" height="24.285" transform="translate(1328.474 1298.051)" fill="#4951ec"/>
    <path id="Path_2528" data-name="Path 2528" d="M1557.539,1592.9s10.124,7.3,11.718,9.476c2.3,3.136-17.151,9-15.028,5.329.488-.844,1.888-3.686,1.949-3.966.325-1.495-3.8-5.521-3.8-5.521Z" fill="#fb9390"/>
    <path id="Path_2529" data-name="Path 2529" d="M1548.968,1613.846l6.875-9.714s4.292-1,8.7-5.953a16.108,16.108,0,0,1,6.4,4.787,112.14,112.14,0,0,1-11.693,10.541,32.469,32.469,0,0,1-10.011,5.686C1543.421,1621.156,1548.968,1613.846,1548.968,1613.846Z" fill="#0b0754"/>
    <path id="Path_2530" data-name="Path 2530" d="M1640.2,1412.835s-2.617,4.318-2.909,4.055c-.225-.2,1.339-2.477,2.449-5.233.286-.709.566-1.409.817-2.055.661-1.694-.155-2.571-1.119-.905a18.692,18.692,0,0,0-1.175,2.34,15.475,15.475,0,0,1-1.225,2.129,20.135,20.135,0,0,1-1.276,2.187c-.045-.077-.364.08-.083-.682.338-.915,1.47-2.707,1.866-4.09.224-.784.789-2.4.789-2.4a16.41,16.41,0,0,0,.275-2.663c-.753-.391-1.52,1.306-1.69,2.41a12.653,12.653,0,0,0-1.007,2.365s-1.86,3.225-2.3,2.971c-.188-.107.725-2.22,1.306-4.428.54-2.05.76-4.2.384-4.367-.64-.275-1.475,1.942-1.475,1.942s-.5,1.582-.71,2.1c-.242.6-1.1,2.35-1.1,2.35s-3.35,5.914-3.749,5.637a2.927,2.927,0,0,1-.967-1.814c.079-.438.633-1.171.711-1.609a1.083,1.083,0,0,0-.7-1.2c-.515-.129-1.683,1.853-1.683,1.853a7.541,7.541,0,0,0-.963,2.912c-.085,4.478.645,4.3.62,4.875-.031.679-5.218,8.158-5.218,8.158l-.1.115,6.155,4.48c2.053-3.338,3.649-5.955,4.116-6.773,0,0,3.089-2.642,4.976-4.365s2.948-4.2,3.409-4.769a23.563,23.563,0,0,0,2.632-4.964C1642.236,1410.9,1640.2,1412.835,1640.2,1412.835Z" fill="#fb9491"/>
    <path id="Path_2531" data-name="Path 2531" d="M1573.023,1517.892l-1.6,7.919-40.255,36.615,28.815,29.16-7.781,7.952s-42.557-31.25-44.09-35.345c-2.362-6.305,30.505-48.068,30.505-48.068Z" fill="#e8605d"/>
    <path id="Path_2532" data-name="Path 2532" d="M1602.664,1614.8s10.124,7.3,11.718,9.476c2.3,3.136-17.151,9-15.029,5.329.488-.844,1.888-3.686,1.949-3.965.326-1.5-3.8-5.523-3.8-5.523Z" fill="#fb9390"/>
    <path id="Path_2533" data-name="Path 2533" d="M1594.085,1635.78l6.874-9.713s4.567-.821,8.973-5.777a14.785,14.785,0,0,1,6.119,4.61,112.08,112.08,0,0,1-11.692,10.541,32.485,32.485,0,0,1-10.012,5.686C1588.537,1643.09,1594.085,1635.78,1594.085,1635.78Z" fill="#0b0754"/>
    <path id="Path_2534" data-name="Path 2534" d="M1571.645,1521.561l.628,52.041,31.974,40.112-7.525,8.364s-39.6-32.921-43.933-42.368c-2.691-5.859-12.492-61.279-12.492-61.279Z" fill="#fa7167"/>
    <path id="Path_2535" data-name="Path 2535" d="M1539.175,1517.462c3.274-7.39,2.895-60.363,15.637-72.77,4.483.757,7.681,1.181,8.429,1.378.665,5.457,1.4,25.481,1.845,43.833.3,12.226-.009,25.049,1.5,31.807C1567.516,1525.9,1536.184,1524.21,1539.175,1517.462Z" fill="#c0d4fc"/>
    <path id="Path_2536" data-name="Path 2536" d="M1551.858,1447.792s-5.172,14.719-9.429,12.6-28.171-26.5-28.408-27.678-1.891-31.1-1.891-31.1l9.459-1.885,5.439,24.505s17.5,16.73,21.047,18.379A6.574,6.574,0,0,1,1551.858,1447.792Z" fill="#4951ec"/>
    <path id="Path_2537" data-name="Path 2537" d="M1537.9,1521a16.032,16.032,0,0,1-5.827-.969,572.83,572.83,0,0,1,8.151-61.211c2.3-11.884,2.886-16.975,7.853-16.1,1.437.25,5.327,1.733,6.74,1.972-12.482,35.315-12.525,62.5-14.292,70.38C1539.633,1519.025,1538.861,1521.027,1537.9,1521Z" fill="#4951ec"/>
    <path id="Path_2538" data-name="Path 2538" d="M1556.129,1439.356l-1.308,5.336s-.3,4.644,1.858,5.062c2.6.5,6.464-3.388,6.464-3.388l2.238-15.047Z" fill="#fb9390"/>
    <path id="Path_2539" data-name="Path 2539" d="M1556.129,1439.356l-1.308,5.336s-.3,4.644,1.858,5.062c2.6.5,6.464-3.388,6.464-3.388l2.238-15.047Z" fill="#fb9390"/>
    <path id="Path_2540" data-name="Path 2540" d="M1565.359,1431.389l-9.23,7.967-.977,3.986C1558.68,1442.493,1563.71,1438.61,1565.359,1431.389Z" fill="#ef8080"/>
    <path id="Path_2541" data-name="Path 2541" d="M1556.1,1417.544a5.452,5.452,0,0,0-5.027,3.77,47.441,47.441,0,0,0-2.013,7.725c-.977,5.786,2.318,11.083,5.185,11.506s9.7-1.477,11.208-9.673c.647-3.514,1.5-8.122-1.391-10.544A12.993,12.993,0,0,0,1556.1,1417.544Z" fill="#fb9390"/>
    <path id="Path_2542" data-name="Path 2542" d="M1564.519,1437.118s10.107-9.007,10.549-16.044-6.058-10.807-11.615-11a37.753,37.753,0,0,0-6.8.351c-5.568.7-9.176,3.17-7.906,7.732,1.705,6.124,13.26.957,15.623,2.858,1.95,1.568-1.211,5.341.683,6.781,1.78,1.353.873.894.284,3.467A45.288,45.288,0,0,0,1564.519,1437.118Z" fill="#0b0754"/>
    <path id="Path_2543" data-name="Path 2543" d="M1568.416,1428.958c-.25,1.686-1.281,2.931-2.3,2.78s-1.646-1.64-1.4-3.326,1.282-2.93,2.3-2.78S1568.667,1427.272,1568.416,1428.958Z" fill="#fb9390"/>
    <path id="Path_2544" data-name="Path 2544" d="M1522.393,1383.555c-.908-1.587-2.26.044-1.384,2.106a.453.453,0,0,1,.005.243,14.523,14.523,0,0,1-2.328,2.218s1.684,4.711,2.631,3.472,1.666-5.253,1.666-5.253Z" fill="#fb9390"/>
    <path id="Path_2545" data-name="Path 2545" d="M1628.932,1431.75l-6.883-6.812s-13.078,18.767-19.711,22.023c-6.448,3.166-27.917,2.014-28.673,1.842-2.573-.587-10.487-2.751-10.487-2.751s-6.636,56.951,2.008,76.752c2.82,6.459,20.359,2.177,20.359,2.177s-5.413-23.713-5.7-26.817c-.275-2.969-1.78-26.487-1.539-26.728.632-.633,24.573-5.851,31.136-10.837C1616.371,1455.334,1628.932,1431.75,1628.932,1431.75Z" fill="#4951ec"/>
    <path id="Path_2546" data-name="Path 2546" d="M1379.712,1389.752l-.485-1.92a11.117,11.117,0,0,1-3.473-.551l-2.023-1.49a.828.828,0,0,0-1.019.743,3.081,3.081,0,0,0,.86,1.568s3.618,2.98,4.89,3.885c.63.448,2.612,1.657,2.612,1.657l1.155-2.16Z" fill="#fb9390"/>
    <g id="Group_109" data-name="Group 109">
      <path id="Path_2547" data-name="Path 2547" d="M1356.463,1337.913l3.935-3.093,2.2,4.494,4.888-1.08.035,5.005,4.872,1.148-2.14,4.525,3.891,3.148-3.891,3.148,2.14,4.525-4.872,1.148-.035,5.005-4.888-1.08-2.2,4.494-3.935-3.093-3.935,3.093-2.2-4.494-4.887,1.08-.035-5.005-4.872-1.148,2.14-4.525-3.891-3.148,3.891-3.148-2.14-4.525,4.872-1.148.035-5.005,4.887,1.08,2.2-4.494Z" fill="#e8605d"/>
      <path id="Path_2548" data-name="Path 2548" d="M1356.463,1342.265l2.725-2.142,1.525,3.112,3.384-.747.024,3.465,3.373.795-1.482,3.133,2.695,2.18-2.695,2.18,1.482,3.133-3.373.795-.024,3.466-3.384-.748-1.525,3.112-2.725-2.142-2.725,2.142-1.526-3.112-3.384.748-.024-3.466-3.373-.795,1.482-3.133-2.695-2.18,2.695-2.18-1.482-3.133,3.373-.795.024-3.465,3.384.747,1.526-3.112Z" fill="#ef8080"/>
    </g>
    <rect id="Rectangle_49" data-name="Rectangle 49" width="168.044" height="12.185" transform="translate(1352.791 1304.691)" fill="#e3ebfc"/>
    <g id="Group_115" data-name="Group 115">
      <g id="Group_110" data-name="Group 110">
        <path id="Path_2549" data-name="Path 2549" d="M1394.852,1366.521V1362.8a10.891,10.891,0,0,1-5.489-1.67l-.2-.145,1.11-3.1.352.235a9.168,9.168,0,0,0,4.96,1.516c2.03,0,4.2-.857,4.2-3.264,0-2.33-2.063-3.245-4.452-4.3-2.706-1.2-5.774-2.558-5.774-6.437,0-3.133,2.17-5.541,5.555-6.2v-3.768h2.941v3.582a10.047,10.047,0,0,1,4.618,1.318l.241.141-1.155,3.05-.336-.191a8.533,8.533,0,0,0-4.471-1.207c-2.634,0-3.569,1.526-3.569,2.833,0,1.983,1.9,2.817,4.1,3.784,2.887,1.267,6.159,2.7,6.159,7.14a6.7,6.7,0,0,1-5.812,6.529v3.88Z" fill="#e8605d"/>
      </g>
      <g id="Group_111" data-name="Group 111">
        <path id="Path_2550" data-name="Path 2550" d="M1422.749,1366.521V1362.8a10.888,10.888,0,0,1-5.489-1.67l-.2-.145,1.11-3.1.352.235a9.168,9.168,0,0,0,4.96,1.516c2.03,0,4.2-.857,4.2-3.264,0-2.33-2.063-3.245-4.452-4.3-2.706-1.2-5.774-2.558-5.774-6.437,0-3.133,2.17-5.541,5.554-6.2v-3.768h2.942v3.582a10.048,10.048,0,0,1,4.618,1.318l.241.141-1.156,3.05-.335-.191a8.534,8.534,0,0,0-4.471-1.207c-2.634,0-3.569,1.526-3.569,2.833,0,1.983,1.9,2.817,4.1,3.784,2.887,1.267,6.159,2.7,6.159,7.14a6.7,6.7,0,0,1-5.812,6.529v3.88Z" fill="#e8605d"/>
      </g>
      <g id="Group_112" data-name="Group 112">
        <path id="Path_2551" data-name="Path 2551" d="M1450.646,1366.521V1362.8a10.9,10.9,0,0,1-5.49-1.67l-.2-.145,1.11-3.1.351.235a9.173,9.173,0,0,0,4.961,1.516c2.03,0,4.2-.857,4.2-3.264,0-2.33-2.063-3.245-4.452-4.3-2.706-1.2-5.774-2.558-5.774-6.437,0-3.133,2.17-5.541,5.554-6.2v-3.768h2.942v3.582a10.048,10.048,0,0,1,4.618,1.318l.241.141-1.156,3.05-.335-.191a8.537,8.537,0,0,0-4.471-1.207c-2.634,0-3.569,1.526-3.569,2.833,0,1.983,1.9,2.817,4.1,3.784,2.887,1.267,6.159,2.7,6.159,7.14a6.7,6.7,0,0,1-5.812,6.529v3.88Z" fill="#e8605d"/>
      </g>
      <g id="Group_113" data-name="Group 113">
        <path id="Path_2552" data-name="Path 2552" d="M1478.543,1366.521V1362.8a10.9,10.9,0,0,1-5.49-1.67l-.2-.145,1.11-3.1.351.235a9.173,9.173,0,0,0,4.961,1.516c2.03,0,4.2-.857,4.2-3.264,0-2.33-2.063-3.245-4.452-4.3-2.706-1.2-5.774-2.558-5.774-6.437,0-3.133,2.17-5.541,5.554-6.2v-3.768h2.941v3.582a10.048,10.048,0,0,1,4.619,1.318l.241.141-1.156,3.05-.336-.191a8.529,8.529,0,0,0-4.47-1.207c-2.634,0-3.569,1.526-3.569,2.833,0,1.983,1.9,2.817,4.1,3.784,2.886,1.267,6.159,2.7,6.159,7.14a6.7,6.7,0,0,1-5.812,6.529v3.88Z" fill="#e8605d"/>
      </g>
      <g id="Group_114" data-name="Group 114">
        <path id="Path_2553" data-name="Path 2553" d="M1506.44,1366.521V1362.8a10.9,10.9,0,0,1-5.49-1.67l-.2-.145,1.11-3.1.351.235a9.173,9.173,0,0,0,4.961,1.516c2.03,0,4.2-.857,4.2-3.264,0-2.33-2.063-3.245-4.452-4.3-2.707-1.2-5.774-2.558-5.774-6.437,0-3.133,2.17-5.541,5.554-6.2v-3.768h2.941v3.582a10.048,10.048,0,0,1,4.619,1.318l.241.141-1.156,3.05-.336-.191a8.528,8.528,0,0,0-4.47-1.207c-2.634,0-3.569,1.526-3.569,2.833,0,1.983,1.9,2.817,4.1,3.784,2.886,1.267,6.158,2.7,6.158,7.14a6.7,6.7,0,0,1-5.811,6.529v3.88Z" fill="#e8605d"/>
      </g>
    </g>
  </g>
  <g id="Group_117" data-name="Group 117" transform="translate(-1206.806 -1244.369)">
    <path id="Path_2554" data-name="Path 2554" d="M1303.622,1483.431c11.805,12.3,22.172,1.4,21.659,1.585a41.62,41.62,0,0,1,4.682-.226c7.031-.276,13.434-5.313,16.229-11.993,10.523-1.378,17.4-11.1,14.323-19.518,4.65-5.79,3.217-15.034-1.183-20.955-1.024-9.7-13.7-11.344-22.424-7.945a18.719,18.719,0,0,0-10.127,9.963c-8.41-.2-15.59,5.983-17.463,14.595C1296.238,1452.586,1291.576,1470.877,1303.622,1483.431Z" fill="#0b0754"/>
    <path id="Path_2555" data-name="Path 2555" d="M1379.46,1602.64a83.733,83.733,0,0,1-3.611,13.176c-.138.331-1.456,1.539-1.607,1.878.708,8.1,5.87,12.912,10.717,16.343-1.052-4.086-3.392-8.772-3.09-9.681a115.886,115.886,0,0,1,6.344-16.35C1384.18,1607.552,1382.744,1605.1,1379.46,1602.64Z" fill="#fb9390"/>
    <path id="Path_2556" data-name="Path 2556" d="M1364.7,1506.252l-28.007,19.124s13.64,8.857,18.317,13.315,29.7,24.673,30.109,25.694c.3.757-2.322,10.344-8.34,41.038,2.661,2.721,8.521,5.387,11.992,6.266,7.278-16.375,15.5-50.446,14.573-54.194C1401.914,1551.679,1364.7,1506.252,1364.7,1506.252Z" fill="#0b0754"/>
    <path id="Path_2557" data-name="Path 2557" d="M1293.784,1544.739c.823.8,6.29,11.449,8.369,17.149,3.044-1.917,4.886-4.2,8.287-5.491-2.683-3.883-7.917-13.227-8.347-15.451-1.021-5.277-2.218-6.054-2.218-6.054s-17.689,5.984-18.867,7.661S1290.477,1541.515,1293.784,1544.739Z" fill="#fb9390"/>
    <path id="Path_2558" data-name="Path 2558" d="M1302.3,1542.116c1.373,0-.118-6.2-.433-7.627a2.671,2.671,0,0,0-1.517-2.146c-.627-.155-20.285,6.5-23.606,8.885a3.936,3.936,0,0,0-.69.788c-1.82,3.393,14.387,4.039,16.719,2.556C1294.846,1543.252,1296.126,1542.1,1302.3,1542.116Z" fill="#0b0754"/>
    <path id="Path_2559" data-name="Path 2559" d="M1369.79,1512.234s-23.727-9.343-24.036-8.35c-2.457,7.913-10.1,5.361-14.639,19.3-1.9,5.837-3.4,21.245-4.678,32.671-.88,7.853-2.111,14.146-2.111,14.146a213.515,213.515,0,0,0-15.833-19.773c-.8-.9-9.149,7.035-9.149,7.035,16.467,32.652,28.48,37.27,31.1,36.382,11.9-4.022,27.673-58.756,27.647-58.751C1360.029,1531.123,1369.79,1512.234,1369.79,1512.234Z" fill="#0b0754"/>
    <path id="Path_2560" data-name="Path 2560" d="M1333.171,1456.91s-28.326-.036-34.39-.386c-5.489-.317-27.259.238-28.11.139s-6.478-9.628-7.413-8.6,3.131,4.725,1.873,5.686-14.768-1.191-14.589-.192c.336,1.869,8.218,1.631,8.21,2.533s-8.25-.506-8.808.992,7.928.61,8.266,1.279-7.871,1.892-7.031,3.285c.456.757,7.274-1.263,7.241-.232s-5.008,3.377-4.4,4.2,3.9-2.521,6.791-2.563,4.953-1.547,9.561-.283c2.275.624,19.642,2.747,34.318,4,15.045,1.285,27.377,1.694,27.377,1.694Z" fill="#fb9390"/>
    <path id="Path_2561" data-name="Path 2561" d="M1375.172,1482.09c.375-4.549-.52-13.2-.724-14.715,1.375-4.724,4.3-14.8,5.354-16.782,0,0-4.932-9.478-9.98-9.413,0,0-5.156,11.622-9.142,13.7a9.887,9.887,0,0,1-2.005.6c-3.849-.027-17.3-.435-19.808-.48l1.412,19.081c5.3,14.054,4.334,26.493,3.4,30.825-.52,2.41,22.836,9.645,26.424,7.336C1370.245,1512.149,1374.412,1491.283,1375.172,1482.09Z" fill="#d0defb"/>
    <path id="Path_2562" data-name="Path 2562" d="M1345.7,1455.721c-2.481-1.186-20.433-.592-20.433-.592s-2.509,12.5-.482,15.506c0,0,16.052,2.388,15.595,3.7Z" fill="#d0defb"/>
    <path id="Path_2563" data-name="Path 2563" d="M1348.83,1446.976a93.223,93.223,0,0,1,2.2,9.4c.338,2.837,4.662,11.677,10.548,10.413s-.255-9.518-1.408-12.118-4.269-13.1-4.269-13.1Z" fill="#fb9390"/>
    <path id="Path_2564" data-name="Path 2564" d="M1357.213,1445.877c-.74-2.395-1.308-4.308-1.308-4.308l-7.075,5.407s.343,1.207.761,2.81A7,7,0,0,0,1357.213,1445.877Z" fill="#ef7f7f"/>
    <path id="Path_2565" data-name="Path 2565" d="M1343.7,1427.311a10,10,0,0,0-4.167,5.528c-1.083,3.756.353,13.387,8.421,15.6s11.437-5.481,9.695-11.43S1352.2,1423.544,1343.7,1427.311Z" fill="#fb9390"/>
    <path id="Path_2566" data-name="Path 2566" d="M1358.619,1434.676c-.134,1.607-1,2.847-1.938,2.768s-1.586-1.443-1.452-3.05,1-2.846,1.938-2.768S1358.753,1433.07,1358.619,1434.676Z" fill="#fb9390"/>
    <path id="Path_2567" data-name="Path 2567" d="M1375.787,1616.015c-.507-1.275-5.632,2.788-6.841,3.612a2.674,2.674,0,0,0-1.427,2.207c.088.624,13.127,16.683,16.94,18.9a2.192,2.192,0,0,0,1.341.129c2.118-.816-1.33-13.956-4.11-16.551C1379.893,1622.637,1378.07,1621.75,1375.787,1616.015Z" fill="#0b0754"/>
    <path id="Path_2568" data-name="Path 2568" d="M1344.634,1426.81s-1.3,10.786-4.752,12.78-1.925,6.747-1.925,6.747-3.318-11.042-.618-14.644A15.322,15.322,0,0,1,1344.634,1426.81Z" fill="#0b0754"/>
    <path id="Path_2569" data-name="Path 2569" d="M1341.967,1441.1c.964,1.389.984,3.043.046,3.7s-2.482.054-3.446-1.335-.985-3.043-.046-3.695S1341,1439.716,1341.967,1441.1Z" fill="#fb9390"/>
  </g>
</svg>
