<svg xmlns="http://www.w3.org/2000/svg" width="43.816" height="52.857" viewBox="0 0 43.816 52.857">
  <g id="Lottery_After" data-name="Lottery After" transform="translate(0.74 0.826)">
    <path id="Path_2495" data-name="Path 2495" d="M282.677,352.665c1.14-2.142,2.811-5.424,2.811-6.246.363-3.069-1.357-2.354-3.877-1.909-1.408.249-2.75-2.588-4.552-2.588-3,0-3.224,3.426-5.4,3.062-4.186-.7-5.09.222-3.776,2.211,1.572,2.381,3.293,4.125,4.095,5.557a1.968,1.968,0,0,1-.827,2.715c-8.006,4.086-10.557,7.457-10.557,17.432,0,3.889-6,11.641-4.106,16.149,2.025,4.828,13.34,4,20.968,4,7.278,0,17.008,1.018,20.089-2.832,3.14-3.926-2.239-8.119-2.239-12.4,0-10.06-3.637-18.447-11.749-22.444A1.974,1.974,0,0,1,282.677,352.665Z" transform="translate(-256.121 -341.921)" fill="#fff" stroke="#fff" stroke-linecap="round" stroke-linejoin="round" stroke-width="1.652"/>
    <path id="Path_2496" data-name="Path 2496" d="M272.582,357s5.189-2.855,14.3,0" transform="translate(-258.402 -343.282)" fill="#fff" stroke="#fff" stroke-linecap="round" stroke-linejoin="round" stroke-width="1.652"/>
    <path id="Path_2497" data-name="Path 2497" d="M273.973,354a15,15,0,0,1,11.382.22" transform="translate(-258.392 -343.012)" fill="none" stroke="#213993" stroke-linecap="round" stroke-linejoin="round" stroke-width="1.652"/>
    <g id="Group_99" data-name="Group 99" transform="translate(-256.121 -341.921)">
      <path id="Path_2493" data-name="Path 2493" d="M279.732,377.816c-3,0-5.435-1.633-5.435-3.647s2.433-3.648,5.435-3.648,5.435,1.633,5.435,3.648" transform="translate(-2.279 -3.162)" fill="none" stroke="#213993" stroke-linecap="round" stroke-linejoin="round" stroke-width="1.652"/>
      <path id="Path_2494" data-name="Path 2494" d="M279.732,377.816c3,0,5.435,1.634,5.435,3.648s-2.434,3.648-5.435,3.648-5.435-1.633-5.435-3.648" transform="translate(-2.279 -3.968)" fill="none" stroke="#213993" stroke-linecap="round" stroke-linejoin="round" stroke-width="1.652"/>
      <line id="Line_14" data-name="Line 14" y2="21.629" transform="translate(277.457 363.163)" fill="none" stroke="#213993" stroke-linecap="round" stroke-linejoin="round" stroke-width="1.652"/>
    </g>
  </g>
</svg>
