<svg xmlns="http://www.w3.org/2000/svg" width="46.389" height="28.1" viewBox="0 0 46.389 28.1">
  <g id="LP_Token_Staking_APY" data-name="LP Token Staking APY" transform="translate(0.75 0.75)">
    <path id="Path_2483" data-name="Path 2483" d="M-177.292,567v5.038c-1.379,3.9-8.267,6.985-16.986,7.6V574.6" transform="translate(222.181 -553.038)" fill="none" stroke="#4ba0ea" stroke-linecap="round" stroke-linejoin="round" stroke-width="1.5"/>
    <path id="Path_2484" data-name="Path 2484" d="M-198.5,571.238s.1,5.118.093,5.118q-1.618.12-3.314.121c-11.3,0-20.46-4.139-20.46-9.245v-4.047l.129.043" transform="translate(222.181 -553.038)" fill="none" stroke="#071354" stroke-linecap="round" stroke-linejoin="round" stroke-width="1.5"/>
    <path id="Path_2485" data-name="Path 2485" d="M-201.72,571.351q1.644,0,3.221-.114l-3.221-9.043,20.206,1.442a4.307,4.307,0,0,0,.254-1.442c0-5.057-9.161-9.156-20.46-9.156s-20.46,4.1-20.46,9.156S-213.02,571.351-201.72,571.351Z" transform="translate(222.181 -553.038)" fill="none" stroke="#071354" stroke-linecap="round" stroke-linejoin="round" stroke-width="1.5"/>
    <path id="Path_2486" data-name="Path 2486" d="M-194.278,574.6c8.72-.617,15.607-3.7,16.986-7.6l-20.207-1.442Z" transform="translate(222.181 -553.038)" fill="none" stroke="#4ba0ea" stroke-linecap="round" stroke-linejoin="round" stroke-width="1.5"/>
  </g>
</svg>
