<svg xmlns="http://www.w3.org/2000/svg" width="55.05" height="54.862" viewBox="0 0 55.05 54.862">
  <g id="NFT_Before" data-name="NFT Before" transform="translate(1.06 1.06)">
    <g id="Group_26" data-name="Group 26">
      <path id="Path_12" data-name="Path 12" d="M1547.3,1431.146l8,8.583v6.741l2.588,7.559,6.469,2.587s2.928-3.541-2.52-6.264l-1.294-3.949,2.315-4.631,10.276,1.429,4.209,4.835v7.825s-.4,2.52,4.205,2.52v-12.257l-6.433-8.648-10.147-3.746-2.785-2.59" transform="translate(-1547.299 -1431.142)" fill="none" stroke="#213993" stroke-linecap="round" stroke-linejoin="round" stroke-width="1.5"/>
    </g>
    <path id="Path_14" data-name="Path 14" d="M1609.581,1503.768l-8.733-.051-16.038,6.179-8.579-1.838-6.9-7s2.3-2.094,4.392-.765a23.313,23.313,0,0,1,4.129,3.626l6.444-.1,7.1-4.954a76.991,76.991,0,0,1-7.814,2.452,4.439,4.439,0,0,1-3.481-2.918l11.245-4.607,12.389-.042" transform="translate(-1556.346 -1456.845)" fill="none" stroke="#213993" stroke-linecap="round" stroke-linejoin="round" stroke-width="1.5"/>
    <g id="Group_28" data-name="Group 28" transform="translate(13.841 27.686)">
      <ellipse id="Ellipse_3" data-name="Ellipse 3" cx="5.781" cy="5.781" rx="5.781" ry="5.781" fill="none" stroke="#213993" stroke-miterlimit="10" stroke-width="1.5"/>
      <g id="Group_27" data-name="Group 27" transform="translate(4.368 3.191)">
        <line id="Line_3" data-name="Line 3" y2="5.181" transform="translate(1.413)" fill="none" stroke="#213993" stroke-linecap="round" stroke-linejoin="round" stroke-width="1.5"/>
        <path id="Path_16" data-name="Path 16" d="M1580.78,1485.12h-1.766a.824.824,0,0,0,0,1.649h1.178a.824.824,0,0,1,0,1.648h-2" transform="translate(-1578.19 -1484.178)" fill="none" stroke="#213993" stroke-linecap="round" stroke-linejoin="round" stroke-width="1.5"/>
      </g>
    </g>
  </g>
</svg>
