<svg id="NFT_Art" data-name="NFT Art" xmlns="http://www.w3.org/2000/svg" xmlns:xlink="http://www.w3.org/1999/xlink" width="455.061" height="400" viewBox="0 0 455.061 400">
  <defs>
    <linearGradient id="linear-gradient" y1="0.5" x2="1" y2="0.5" gradientUnits="objectBoundingBox">
      <stop offset="0" stop-color="#ffe858"/>
      <stop offset="1" stop-color="#ffb806"/>
    </linearGradient>
    <linearGradient id="linear-gradient-2" x1="-0.061" y1="0.5" x2="1.182" y2="0.5" gradientUnits="objectBoundingBox">
      <stop offset="0" stop-color="#ffb806"/>
      <stop offset="1" stop-color="#f3a63a"/>
    </linearGradient>
    <linearGradient id="linear-gradient-5" x1="-1.106" y1="0.5" x2="-0.106" y2="0.5" gradientUnits="objectBoundingBox">
      <stop offset="0" stop-color="#4fe0d6"/>
      <stop offset="1" stop-color="#4fabe2"/>
    </linearGradient>
  </defs>
  <g id="Group_194" data-name="Group 194" transform="translate(-377.035 -1299.658)">
    <g id="Group_163" data-name="Group 163">
      <g id="Group_162" data-name="Group 162">
        <g id="Group_161" data-name="Group 161">
          <path id="Path_2502" data-name="Path 2502" d="M569.826,1503.594l-31.251,14.779v4.31l79.781,46.016-.135-2.685v-1.857Z" fill="#168ca9"/>
          <path id="Path_2503" data-name="Path 2503" d="M651.884,1544.721l-79.037-43.659,45.373,63.1.135,4.542,33.529-19.668Z" fill="#168ca9"/>
          <path id="Path_2504" data-name="Path 2504" d="M538.574,1518.373l79.646,45.784,33.664-19.436-79.037-46.112Z" fill="#3dbfc9"/>
          <path id="Path_2505" data-name="Path 2505" d="M649.2,1520.239,570.16,1476.58l45.675,24.567-.167,43.07,33.529-19.668Z" fill="#22a4ba"/>
          <path id="Path_2506" data-name="Path 2506" d="M615.835,1544.217l-42.109-24.312-.375-18.759h42.484Z" fill="#178ca9"/>
          <path id="Path_2507" data-name="Path 2507" d="M377.035,1553.692l226.33,129.669L707,1623.526,484,1493.386Z" fill="#64aacc" opacity="0.2"/>
          <path id="Path_2508" data-name="Path 2508" d="M470.016,1508.753l-76.562,40.755v6.009L588.907,1668.25l-.331-6.577L530.745,1553.8Z" fill="#168ca9"/>
          <path id="Path_2509" data-name="Path 2509" d="M547.955,1483.6l144.565,87.841,4.807-3.741V1410.218l-2.017-1.156Z" fill="#178ca9"/>
          <path id="Path_2510" data-name="Path 2510" d="M504.4,1299.658l-5.515,3.2,4.807,152.006,44.259,28.733,144.565-69.773,4.807-3.605Z" fill="#47c7d2"/>
          <path id="Path_2511" data-name="Path 2511" d="M671.049,1614.056,477.418,1507.1l111.159,154.575.331,6.577,82.142-48.184Z" fill="#168ca9"/>
          <path id="Path_2512" data-name="Path 2512" d="M393.454,1549.508l195.122,112.164,82.473-47.616L477.418,1501.088Z" fill="#3dbfc9"/>
          <path id="Path_2513" data-name="Path 2513" d="M498.889,1458.469l193.632,112.969V1413.823L498.889,1302.858Z" fill="#35b3c5"/>
          <path id="Path_2514" data-name="Path 2514" d="M504.9,1451.413V1315.276l181.614,103.755v138.338Z" fill="#c1f8f5"/>
          <g id="Group_160" data-name="Group 160">
            <g id="Group_101" data-name="Group 101">
              <path id="Path_2515" data-name="Path 2515" d="M586.92,1655.433l-.1-.057L404.417,1548.631l71.212-41.347.1.057L659.22,1613.69l-.293.169Zm-181.727-106.8,181.728,106.348,71.518-41.291-182.81-105.954Z" fill="#29a3b8"/>
            </g>
            <g id="Group_102" data-name="Group 102">
              <path id="Path_2516" data-name="Path 2516" d="M561.494,1581.828l-13.735-8.035,12.128-7,13.736,8.035Zm-5.19-3.489,5.192,3.037,11.349-6.553-12.959-7.58-11.35,6.553Z" fill="#29a3b8"/>
            </g>
            <path id="Path_2517" data-name="Path 2517" d="M586.921,1654.981,405.193,1548.633l70.435-40.9L658.439,1613.69Z" fill="#69dce1"/>
            <g id="Group_103" data-name="Group 103">
              <path id="Path_2518" data-name="Path 2518" d="M511.292,1552.463l-12.344-7.22,12.128-7,12.344,7.221Zm-6.24-4.1,6.241,3.65,11.349-6.552-11.567-6.767-11.349,6.553Z" fill="#29a3b8"/>
            </g>
            <g id="Group_104" data-name="Group 104">
              <path id="Path_2519" data-name="Path 2519" d="M548.147,1574.021l-13.025-7.619,12.128-7,13.025,7.618Zm-4.61-3.149,4.611,2.7,11.35-6.553-12.249-7.164L535.9,1566.4l7.637,4.468Z" fill="#29a3b8"/>
            </g>
            <g id="Group_105" data-name="Group 105">
              <path id="Path_2520" data-name="Path 2520" d="M523.534,1559.624l-12.63-7.388,12.128-7,12.631,7.388Zm-11.853-7.386,11.855,6.934,11.349-6.552-11.855-6.934Z" fill="#29a3b8"/>
            </g>
            <g id="Group_106" data-name="Group 106">
              <path id="Path_2521" data-name="Path 2521" d="M464.45,1553.5l-13.015-7.612,13.039-7.528,13.014,7.612Zm-12.238-7.61,12.239,7.159,12.26-7.079-12.238-7.159Z" fill="#29a3b8"/>
            </g>
            <g id="Group_107" data-name="Group 107">
              <path id="Path_2522" data-name="Path 2522" d="M468.226,1541.01l-13.1-7.662,12.209-7.048,13.1,7.661Zm-12.321-7.66,12.322,7.208,11.43-6.6-12.322-7.208Z" fill="#29a3b8"/>
            </g>
            <g id="Group_108" data-name="Group 108">
              <path id="Path_2523" data-name="Path 2523" d="M499.336,1545.47,485.02,1537.1l12.129-7,14.315,8.374Zm-6.92-4.5,6.921,4.049,11.35-6.553-13.539-7.919L485.8,1537.1Z" fill="#29a3b8"/>
            </g>
            <g id="Group_109" data-name="Group 109">
              <path id="Path_2524" data-name="Path 2524" d="M485.409,1537.323l-13.623-7.968,12.129-7,13.622,7.968Zm-5.265-3.531,5.266,3.08,11.349-6.553-12.845-7.514-11.35,6.553Z" fill="#29a3b8"/>
            </g>
            <g id="Group_110" data-name="Group 110">
              <path id="Path_2525" data-name="Path 2525" d="M477.259,1561l-13.2-7.72,13.039-7.528,13.2,7.72Zm-12.42-7.717,12.421,7.265,12.26-7.079L477.1,1546.2Z" fill="#29a3b8"/>
            </g>
            <path id="Path_2526" data-name="Path 2526" d="M606.99,1622.177l-13.762-8.05,12.209-7.048,13.763,8.05Zm-12.985-8.048,12.987,7.6,11.43-6.6-12.987-7.6Z" fill="#29a3b8"/>
            <path id="Path_2527" data-name="Path 2527" d="M591.1,1627.586l-14.349-8.393,13.039-7.528,14.349,8.393Zm-13.571-8.39,13.572,7.939,12.26-7.079-13.572-7.939Z" fill="#29a3b8"/>
            <g id="Group_111" data-name="Group 111">
              <path id="Path_2528" data-name="Path 2528" d="M558.678,1623.748l-12.8-7.488,13.4-7.739,12.8,7.488Zm-12.024-7.486,12.026,7.034,12.626-7.289-5.689-3.328h0l-6.337-3.707Z" fill="#29a3b8"/>
            </g>
            <path id="Path_2529" data-name="Path 2529" d="M574.937,1589.691l-13.831-8.09,12.129-7,13.831,8.09Zm-13.053-8.088,13.055,7.636,11.349-6.553-13.055-7.636Z" fill="#29a3b8"/>
            <g id="Group_112" data-name="Group 112">
              <path id="Path_2530" data-name="Path 2530" d="M599.187,1603.876l-5.46-3.194h0l-7.115-4.161,12.129-7,12.573,7.354Zm-11.8-7.353,11.8,6.9,11.35-6.553-11.8-6.9Z" fill="#29a3b8"/>
            </g>
            <g id="Group_113" data-name="Group 113">
              <path id="Path_2531" data-name="Path 2531" d="M624.868,1618.9l-14.026-8.2,12.129-7L637,1611.9Zm-13.248-8.2,13.249,7.75,11.35-6.553-13.25-7.749Z" fill="#29a3b8"/>
            </g>
            <path id="Path_2532" data-name="Path 2532" d="M587,1596.748l-12.453-7.284,12.129-7,12.452,7.284Zm-11.675-7.282L587,1596.3l11.349-6.552-11.676-6.83Z" fill="#29a3b8"/>
            <g id="Group_114" data-name="Group 114">
              <path id="Path_2533" data-name="Path 2533" d="M611.23,1610.92l-12.431-7.272,12.128-7,12.432,7.272Zm-5.7-3.784,5.7,3.332,11.349-6.552-11.655-6.818-11.349,6.553Z" fill="#29a3b8"/>
            </g>
            <g id="Group_115" data-name="Group 115">
              <path id="Path_2534" data-name="Path 2534" d="M527.289,1590.26l-11.775-6.888,13.039-7.528,11.775,6.888Zm-11-6.885,11,6.433,12.26-7.078-8.03-4.7h0l-2.97-1.737Z" fill="#29a3b8"/>
            </g>
            <path id="Path_2535" data-name="Path 2535" d="M557.762,1593.382,544,1585.33l12.209-7.048,13.765,8.052Zm-12.987-8.049,12.989,7.6,11.429-6.6-12.989-7.6Z" fill="#29a3b8"/>
            <g id="Group_116" data-name="Group 116">
              <path id="Path_2536" data-name="Path 2536" d="M544.385,1585.558l-13.154-7.695,12.208-7.048,13.155,7.694Zm-12.377-7.693,12.379,7.241,11.429-6.6-12.378-7.24Z" fill="#29a3b8"/>
            </g>
            <g id="Group_117" data-name="Group 117">
              <path id="Path_2537" data-name="Path 2537" d="M489.321,1568.051l-12.451-7.282,13.039-7.528,12.451,7.282Zm-11.673-7.28,11.674,6.828,12.26-7.078-11.674-6.829Z" fill="#29a3b8"/>
            </g>
            <g id="Group_118" data-name="Group 118">
              <path id="Path_2538" data-name="Path 2538" d="M531.619,1578.09l-13.472-7.879,12.209-7.049,13.471,7.88Zm-2.968-2.189,2.969,1.737,11.43-6.6-12.7-7.425-11.43,6.6Z" fill="#29a3b8"/>
            </g>
            <g id="Group_119" data-name="Group 119">
              <path id="Path_2539" data-name="Path 2539" d="M480.5,1548.188l-12.659-7.405,12.208-7.049,12.66,7.405Zm-3.3-2.382,3.3,1.93,11.43-6.6-11.883-6.951-11.43,6.6Z" fill="#29a3b8"/>
            </g>
            <path id="Path_2540" data-name="Path 2540" d="M582.006,1607.563l-13.2-7.724,12.209-7.048,13.205,7.723Zm-12.427-7.721,12.428,7.269,11.43-6.6-12.428-7.27Z" fill="#29a3b8"/>
            <g id="Group_120" data-name="Group 120">
              <path id="Path_2541" data-name="Path 2541" d="M493.134,1555.579l-13.025-7.618,12.208-7.049,13.025,7.618Zm-12.247-7.616,12.248,7.164,11.43-6.6-12.249-7.164Z" fill="#29a3b8"/>
            </g>
            <g id="Group_121" data-name="Group 121">
              <path id="Path_2542" data-name="Path 2542" d="M505.44,1562.777l-12.7-7.425,12.209-7.049,12.694,7.425Zm-11.917-7.422,11.918,6.97,11.43-6.6-11.918-6.971Z" fill="#29a3b8"/>
            </g>
            <g id="Group_122" data-name="Group 122">
              <path id="Path_2543" data-name="Path 2543" d="M518.536,1570.438l-13.485-7.888,12.209-7.049,13.485,7.888Zm-12.707-7.885,12.708,7.433,11.43-6.6-12.708-7.434Z" fill="#29a3b8"/>
            </g>
            <path id="Path_2544" data-name="Path 2544" d="M569.189,1600.066l-11.815-6.911,12.209-7.048,11.815,6.911Zm-11.037-6.909,11.039,6.458,11.43-6.6-11.04-6.456Z" fill="#29a3b8"/>
            <g id="Group_123" data-name="Group 123">
              <path id="Path_2545" data-name="Path 2545" d="M546.265,1616.487l-13.354-7.811,13.4-7.74,13.355,7.812Zm-12.577-7.809,12.578,7.357,12.626-7.29-12.578-7.357Z" fill="#29a3b8"/>
            </g>
            <g id="Group_124" data-name="Group 124">
              <path id="Path_2546" data-name="Path 2546" d="M540.335,1597.891l-13.434-7.858,13.039-7.528,13.434,7.858Zm-12.656-7.856,12.657,7.4,12.26-7.079-12.657-7.4Z" fill="#29a3b8"/>
            </g>
            <g id="Group_125" data-name="Group 125">
              <path id="Path_2547" data-name="Path 2547" d="M515.9,1583.6l-14.1-8.249,13.039-7.528,3.8,2.221h0l10.306,6.028Zm-13.325-8.246,13.326,7.794,12.26-7.078-13.326-7.795Z" fill="#29a3b8"/>
            </g>
            <g id="Group_126" data-name="Group 126">
              <path id="Path_2548" data-name="Path 2548" d="M502.188,1575.577l-13.256-7.753,13.039-7.528,13.256,7.753Zm-12.478-7.751,12.479,7.3,12.26-7.079-12.479-7.3Z" fill="#29a3b8"/>
            </g>
            <path id="Path_2549" data-name="Path 2549" d="M593.616,1614.354l-12-7.018,12.209-7.049,12,7.019Zm-11.221-7.016,11.222,6.564,11.43-6.6-11.222-6.564Z" fill="#29a3b8"/>
            <g id="Group_127" data-name="Group 127">
              <path id="Path_2550" data-name="Path 2550" d="M552.687,1605.116l-12.74-7.452,13.039-7.528,12.74,7.452Zm-11.963-7.45,11.964,7,12.26-7.079-11.964-7Z" fill="#29a3b8"/>
            </g>
            <g id="Group_128" data-name="Group 128">
              <path id="Path_2551" data-name="Path 2551" d="M577.142,1619.42l-11.815-6.911,13.039-7.528,11.815,6.911Zm-11.038-6.909,11.04,6.458,12.26-7.079-11.04-6.457Z" fill="#29a3b8"/>
            </g>
            <g id="Group_129" data-name="Group 129">
              <path id="Path_2552" data-name="Path 2552" d="M565.715,1612.736l-13.417-7.847,13.04-7.528,13.416,7.847Zm-12.639-7.845,12.64,7.393,12.26-7.078-12.64-7.394Z" fill="#29a3b8"/>
            </g>
            <g id="Group_130" data-name="Group 130">
              <path id="Path_2553" data-name="Path 2553" d="M535.51,1566.629l-12.364-7.232,12.129-7,12.363,7.232Zm-11.586-7.23,11.587,6.778,11.35-6.552-11.588-6.778Z" fill="#29a3b8"/>
            </g>
            <path id="Path_2554" data-name="Path 2554" d="M625.633,1633.082l-.1-.057L606.6,1621.95l12.21-7.048,19.03,11.131Zm-18.253-11.129,18.254,10.677,11.43-6.6-18.254-10.678Z" fill="#29a3b8"/>
            <path id="Path_2555" data-name="Path 2555" d="M637.452,1626.258l-12.972-7.588,12.128-7,12.973,7.588Zm-12.2-7.586,12.2,7.134,11.349-6.553-12.2-7.134Z" fill="#29a3b8"/>
            <path id="Path_2556" data-name="Path 2556" d="M612.983,1640.385l-.1-.057-22.171-12.969,13.04-7.528.1.058,22.17,12.968Zm-21.491-13.023,21.493,12.571,12.26-7.078-21.493-12.572Z" fill="#29a3b8"/>
            <path id="Path_2557" data-name="Path 2557" d="M649.191,1619.48l-12.972-7.588,9.968-5.755.1.057,12.935,7.5ZM637,1611.9l12.2,7.134,9.246-5.339-12.252-7.1Z" fill="#29a3b8"/>
            <g id="Group_131" data-name="Group 131">
              <path id="Path_2558" data-name="Path 2558" d="M636.607,1612.119l-14.026-8.2,9.906-5.719.1.056,13.992,8.11Zm-13.248-8.2,13.249,7.75,9.189-5.306-13.31-7.714Z" fill="#29a3b8"/>
            </g>
            <g id="Group_132" data-name="Group 132">
              <path id="Path_2559" data-name="Path 2559" d="M610.926,1597.1l-12.574-7.354,9.794-5.655.1.057,12.534,7.264Zm-11.8-7.352,11.8,6.9L620,1591.41l-11.852-6.87Z" fill="#29a3b8"/>
            </g>
            <path id="Path_2560" data-name="Path 2560" d="M599.968,1647.9l-.1-.057-28.253-16.526,13.4-7.739,6.18,3.615,22.171,12.968Zm-21.149-12.823,21.151,12.372,12.625-7.29-27.574-16.129-12.626,7.289Z" fill="#29a3b8"/>
            <g id="Group_133" data-name="Group 133">
              <path id="Path_2561" data-name="Path 2561" d="M454.452,1577.912l-13.022-7.62,13.4-7.738,13.025,7.618Zm-12.244-7.618,12.245,7.166,12.627-7.29-12.248-7.165Z" fill="#29a3b8"/>
            </g>
            <g id="Group_134" data-name="Group 134">
              <path id="Path_2562" data-name="Path 2562" d="M533.3,1608.9l-12.645-7.4,13.406-7.739,12.644,7.4Zm-11.867-7.394,11.868,6.942,12.626-7.29-5.689-3.328h0l-6.179-3.614Z" fill="#29a3b8"/>
            </g>
            <g id="Group_135" data-name="Group 135">
              <path id="Path_2563" data-name="Path 2563" d="M416.843,1555.9l-12.426-7.272,13.357-7.755,12.466,7.292Zm-11.65-7.27,11.651,6.818,12.618-7.285-11.689-6.838Z" fill="#29a3b8"/>
            </g>
            <g id="Group_136" data-name="Group 136">
              <path id="Path_2564" data-name="Path 2564" d="M586.676,1582.914l-13.831-8.091,9.676-5.586.1.057,13.8,8Zm-13.053-8.088,13.055,7.636,8.958-5.172-13.115-7.6Z" fill="#29a3b8"/>
            </g>
            <g id="Group_137" data-name="Group 137">
              <path id="Path_2565" data-name="Path 2565" d="M441.819,1570.519l-12.657-7.407,13.4-7.736,12.66,7.405Zm-11.879-7.4,11.88,6.952,12.624-7.289-11.883-6.95Z" fill="#29a3b8"/>
            </g>
            <g id="Group_138" data-name="Group 138">
              <path id="Path_2566" data-name="Path 2566" d="M550.477,1634.107l-.1-.057L535.6,1625.4l13.426-7.751,14.883,8.706Zm-14.1-8.705,14.1,8.253,12.65-7.3-14.107-8.251Z" fill="#29a3b8"/>
            </g>
            <g id="Group_139" data-name="Group 139">
              <path id="Path_2567" data-name="Path 2567" d="M565.676,1643l-.1-.057-15.489-9.064,13.429-7.753,15.591,9.119Zm-14.809-9.119,14.81,8.667,12.654-7.3-14.814-8.666Z" fill="#29a3b8"/>
            </g>
            <g id="Group_140" data-name="Group 140">
              <path id="Path_2568" data-name="Path 2568" d="M535.986,1625.626l-.1-.057-66.65-39,13.41-7.742,66.764,39.052Zm-65.97-39.058,65.972,38.606,12.646-7.3-65.987-38.6Z" fill="#29a3b8"/>
            </g>
            <g id="Group_141" data-name="Group 141">
              <path id="Path_2569" data-name="Path 2569" d="M469.627,1586.792l-.1-.057-15.465-9.05,13.406-7.74,15.566,9.105Zm-14.786-9.1,14.787,8.654,12.631-7.293-14.79-8.651Z" fill="#29a3b8"/>
            </g>
            <g id="Group_142" data-name="Group 142">
              <path id="Path_2570" data-name="Path 2570" d="M429.55,1563.339l-13.1-7.663,13.4-7.735,13.1,7.662Zm-12.318-7.661,12.32,7.21,12.621-7.287-12.322-7.208Z" fill="#29a3b8"/>
            </g>
            <g id="Group_143" data-name="Group 143">
              <path id="Path_2571" data-name="Path 2571" d="M445.042,1557.279,417.385,1541.1l13.368-7.762,27.694,16.2ZM418.161,1541.1l26.882,15.724,12.627-7.289-26.918-15.746Z" fill="#29a3b8"/>
            </g>
            <g id="Group_144" data-name="Group 144">
              <path id="Path_2572" data-name="Path 2572" d="M458.335,1565.054l-13.681-8,13.4-7.739,13.681,8Zm-12.9-8,12.9,7.548,12.626-7.289-12.9-7.548Z" fill="#29a3b8"/>
            </g>
            <g id="Group_145" data-name="Group 145">
              <path id="Path_2573" data-name="Path 2573" d="M469.938,1571.841l-11.991-7.014,13.4-7.739,11.991,7.014Zm-11.214-7.012,11.215,6.56,12.626-7.289-11.214-6.56Z" fill="#29a3b8"/>
            </g>
            <g id="Group_146" data-name="Group 146">
              <path id="Path_2574" data-name="Path 2574" d="M451.823,1546.118l-.1-.058-21.361-12.494,13-7.55,21.495,12.574Zm-20.683-12.551,20.684,12.1,12.26-7.079-20.718-12.118Z" fill="#29a3b8"/>
            </g>
            <g id="Group_147" data-name="Group 147">
              <path id="Path_2575" data-name="Path 2575" d="M521.043,1601.734l-12.945-7.572,13.4-7.739,12.945,7.572Zm-12.167-7.569,12.168,7.117,12.626-7.29-12.168-7.117Z" fill="#29a3b8"/>
            </g>
            <g id="Group_148" data-name="Group 148">
              <path id="Path_2576" data-name="Path 2576" d="M508.486,1594.39l-13.218-7.733,13.4-7.739,13.218,7.732Zm-12.441-7.73,12.443,7.278,12.626-7.29-5.31-3.106h0l-7.133-4.172Z" fill="#29a3b8"/>
            </g>
            <g id="Group_149" data-name="Group 149">
              <path id="Path_2577" data-name="Path 2577" d="M455.515,1533.575l-12.537-7.333,12.174-7.069,12.572,7.354Zm-11.761-7.332,11.763,6.88,11.429-6.6-11.794-6.9Z" fill="#29a3b8"/>
            </g>
            <g id="Group_150" data-name="Group 150">
              <path id="Path_2578" data-name="Path 2578" d="M482.647,1579.275l-13.1-7.661,13.4-7.739,13.1,7.661Zm-12.32-7.658,12.321,7.206,12.626-7.289-12.321-7.207Z" fill="#29a3b8"/>
            </g>
            <g id="Group_151" data-name="Group 151">
              <path id="Path_2579" data-name="Path 2579" d="M495.656,1586.884l-13.4-7.836,13.4-7.739,13.4,7.836Zm-12.62-7.834,12.621,7.383,12.626-7.29-12.62-7.382Z" fill="#29a3b8"/>
            </g>
            <g id="Group_152" data-name="Group 152">
              <path id="Path_2580" data-name="Path 2580" d="M472.175,1529.582,454.764,1519.4l12.094-7.022,17.445,10.2ZM455.54,1519.4l16.636,9.731,11.349-6.553-16.667-9.75Z" fill="#29a3b8"/>
            </g>
            <g id="Group_153" data-name="Group 153">
              <path id="Path_2581" data-name="Path 2581" d="M547.249,1559.852l-12.364-7.232,9.5-5.485,12.421,7.2Zm-11.586-7.23,11.587,6.778,8.776-5.067-11.64-6.747Z" fill="#29a3b8"/>
            </g>
            <g id="Group_154" data-name="Group 154">
              <path id="Path_2582" data-name="Path 2582" d="M535.273,1552.847l-12.631-7.388,9.444-5.453,12.69,7.355Zm-11.853-7.386,11.855,6.934,8.72-5.035-11.909-6.9Z" fill="#29a3b8"/>
            </g>
            <g id="Group_155" data-name="Group 155">
              <path id="Path_2583" data-name="Path 2583" d="M523.03,1545.686l-12.343-7.221,9.388-5.42,12.4,7.187Zm-11.566-7.218,11.568,6.766,8.664-5-11.621-6.735Z" fill="#29a3b8"/>
            </g>
            <g id="Group_156" data-name="Group 156">
              <path id="Path_2584" data-name="Path 2584" d="M559.886,1567.243l-13.025-7.618,9.556-5.517,13.085,7.584Zm-12.248-7.616,12.249,7.164,8.834-5.1-12.3-7.132Z" fill="#29a3b8"/>
            </g>
            <g id="Group_157" data-name="Group 157">
              <path id="Path_2585" data-name="Path 2585" d="M497.148,1530.546l-13.623-7.968,9.264-5.348,13.685,7.931ZM484.3,1522.58l12.846,7.514,8.544-4.934-12.9-7.479Z" fill="#29a3b8"/>
            </g>
            <g id="Group_158" data-name="Group 158">
              <path id="Path_2586" data-name="Path 2586" d="M511.075,1538.692l-14.316-8.373,9.325-5.384,14.382,8.336Zm-13.538-8.371,13.539,7.919,8.609-4.97-13.6-7.883Z" fill="#29a3b8"/>
            </g>
            <g id="Group_159" data-name="Group 159">
              <path id="Path_2587" data-name="Path 2587" d="M573.233,1575.05l-13.735-8.034,9.614-5.55,13.8,8Zm-12.958-8.032,12.96,7.581,8.9-5.137-13.019-7.545Z" fill="#29a3b8"/>
            </g>
          </g>
        </g>
      </g>
    </g>
    <g id="Group_193" data-name="Group 193">
      <ellipse id="Ellipse_17" data-name="Ellipse 17" cx="37.927" cy="16.402" rx="37.927" ry="16.402" transform="translate(378.844 1478.686)" fill="#64aacc" opacity="0.39"/>
      <path id="Path_2588" data-name="Path 2588" d="M804.583,1660.51c-2.06-7.088-15.863-12.568-32.6-12.568-18.155,0-32.872,6.449-32.872,14.4,0,3.517,2.881,6.739,7.66,9.24-.73-.021-1.464-.035-2.207-.035-18.1,0-32.767,6.292-32.767,14.053s14.671,14.054,32.767,14.054c17.79,0,32.258-6.081,32.745-13.66a60.381,60.381,0,0,0,21.911,3.75c18.155,0,32.872-6.59,32.872-14.718C832.1,1667.719,820.188,1661.656,804.583,1660.51Z" fill="#64aacc" opacity="0.3"/>
      <path id="Path_2589" data-name="Path 2589" d="M695.665,1668.568h0c1.052-2.041.978-4.571-1.2-7.967-.861-1.339-4.128-3.467-7.821-5.478h0c-.489-.267-.986-.531-1.486-.791h0a61.68,61.68,0,0,0-9.838-4.278c-15.1-4.136-47.034-.173-59.49,33.551-2.872,7.775,8.366,18.159,25.841,14.354a32.133,32.133,0,0,0,4.7-1.881l.1-.045c.323-.148.67-.31,1.017-.472l.381-.178c.332-.156.681-.322,1.032-.489l.5-.238c.346-.165.7-.338,1.064-.513l.575-.279,1.115-.546.6-.294,1.2-.6.578-.289c.425-.212.852-.425,1.288-.644l.567-.285c.448-.226.9-.451,1.353-.683l.519-.263c.49-.249.98-.5,1.479-.752l.037-.019c1.864-.95,3.779-1.936,5.706-2.935l.2-.1,1.458-.758.693-.36,1.283-.67.808-.423,1.275-.668.771-.405,1.234-.65.853-.45,1.135-.6.836-.443,1.158-.614.735-.392c.375-.2.752-.4,1.118-.6l.907-.484.919-.491.549-.295q1.1-.591,2.128-1.143l.611-.33.806-.436.749-.405.662-.36.757-.412.563-.308.715-.392.479-.264.623-.344.438-.244.491-.274.373-.209.4-.229.275-.158c.127-.073.227-.133.325-.191l.156-.092c.125-.076.221-.137.274-.175.338-.241.658-.491.969-.746l.134-.11q.474-.4.892-.82l.012-.013a8.051,8.051,0,0,0,1.427-1.93Z" fill="#64aacc" opacity="0.3"/>
      <g id="Group_164" data-name="Group 164">
        <path id="Path_2590" data-name="Path 2590" d="M617.725,1678.062c9.9-28.8,35.268-32.185,47.264-28.654,3.566,1.05,13.752,6.566,15.213,9.01,2.92,4.884,1.109,7.68-1.773,9.9-1.415,1.088-36.069,21.046-40.174,22.007C624.372,1693.57,615.444,1684.7,617.725,1678.062Z" fill="#d9fffa"/>
        <path id="Path_2591" data-name="Path 2591" d="M652.434,1670.972a34.4,34.4,0,0,0-12.189,18.571c8.5-3.862,36.906-20.246,38.184-21.229a8.93,8.93,0,0,0,2.729-3.092C675.028,1663.976,662.95,1662.987,652.434,1670.972Z" fill="#9fedeb"/>
        <path id="Path_2592" data-name="Path 2592" d="M663.043,1656.326h0a1.37,1.37,0,0,0,1.5.206c1.7-.813,6.136-2.381,12.69-.744-1.282-.888-2.835-1.835-4.425-2.725-5.074-.516-7.945.239-9.481.991A1.376,1.376,0,0,0,663.043,1656.326Z" fill="#69dce1"/>
      </g>
      <g id="Group_190" data-name="Group 190">
        <g id="Group_165" data-name="Group 165">
          <path id="Path_2593" data-name="Path 2593" d="M800.309,1652.232c0,7.179-10.306,13-23.018,13s-23.018-5.819-23.018-13c0-1.311.118-5.752.118-5.752,2.862-5.339,12.51-7.245,22.9-7.245,10.765,0,20.068,3.146,23.018,8.571A32.242,32.242,0,0,1,800.309,1652.232Z" fill="#ffa403"/>
          <path id="Path_2594" data-name="Path 2594" d="M800.309,1647.314c0,7.179-10.306,13-23.018,13s-22.868-5.561-22.868-12.739,10.155-13.256,22.868-13.256S800.309,1640.136,800.309,1647.314Z" fill="#fedf27"/>
        </g>
        <g id="Group_166" data-name="Group 166">
          <path id="Path_2595" data-name="Path 2595" d="M800.309,1644.855c0,7.179-10.306,13-23.018,13s-23.018-5.819-23.018-13c0-1.311.118-5.752.118-5.752,2.862-5.339,12.51-7.245,22.9-7.245,10.765,0,20.068,3.146,23.018,8.571A32.241,32.241,0,0,1,800.309,1644.855Z" fill="#ffa403"/>
          <path id="Path_2596" data-name="Path 2596" d="M800.309,1639.937c0,7.179-10.306,13-23.018,13s-22.868-5.561-22.868-12.739,10.155-13.256,22.868-13.256S800.309,1632.759,800.309,1639.937Z" fill="#fedf27"/>
        </g>
        <g id="Group_167" data-name="Group 167">
          <path id="Path_2597" data-name="Path 2597" d="M800.309,1637.478c0,7.179-10.306,13-23.018,13s-23.018-5.819-23.018-13c0-1.311.118-5.752.118-5.752,2.862-5.339,12.51-7.245,22.9-7.245,10.765,0,20.068,3.146,23.018,8.571A32.242,32.242,0,0,1,800.309,1637.478Z" fill="url(#linear-gradient)"/>
          <path id="Path_2598" data-name="Path 2598" d="M800.309,1632.56c0,7.179-10.306,13-23.018,13s-22.868-5.561-22.868-12.739,10.155-13.256,22.868-13.256S800.309,1625.382,800.309,1632.56Z" fill="#ffe67d"/>
        </g>
        <g id="Group_168" data-name="Group 168">
          <path id="Path_2599" data-name="Path 2599" d="M800.309,1637.478c0,7.179-10.306,13-23.018,13s-23.018-5.819-23.018-13c0-1.311.118-5.752.118-5.752,2.862-5.339,12.51-7.245,22.9-7.245,10.765,0,20.068,3.146,23.018,8.571A32.242,32.242,0,0,1,800.309,1637.478Z" fill="#ffa403"/>
          <path id="Path_2600" data-name="Path 2600" d="M800.309,1632.56c0,7.179-10.306,13-23.018,13s-22.868-5.561-22.868-12.739,10.155-13.256,22.868-13.256S800.309,1625.382,800.309,1632.56Z" fill="#fedf27"/>
        </g>
        <g id="Group_169" data-name="Group 169">
          <path id="Path_2601" data-name="Path 2601" d="M800.309,1630.1c0,7.179-10.306,13-23.018,13s-23.018-5.819-23.018-13c0-1.311.118-5.752.118-5.752,2.862-5.339,12.51-7.245,22.9-7.245,10.765,0,20.068,3.146,23.018,8.571A32.24,32.24,0,0,1,800.309,1630.1Z" fill="#ffa403"/>
          <path id="Path_2602" data-name="Path 2602" d="M800.309,1625.183c0,7.179-10.306,13-23.018,13s-22.868-5.561-22.868-12.74,10.155-13.255,22.868-13.255S800.309,1618.005,800.309,1625.183Z" fill="#fedf27"/>
        </g>
        <g id="Group_170" data-name="Group 170">
          <path id="Path_2603" data-name="Path 2603" d="M800.309,1622.724c0,7.179-10.306,13-23.018,13s-23.018-5.819-23.018-13c0-1.311.118-5.752.118-5.752,2.862-5.339,12.51-7.245,22.9-7.245,10.765,0,20.068,3.146,23.018,8.571A32.241,32.241,0,0,1,800.309,1622.724Z" fill="#ffa403"/>
          <path id="Path_2604" data-name="Path 2604" d="M800.309,1617.806c0,7.178-10.306,13-23.018,13s-22.868-5.561-22.868-12.74,10.155-13.255,22.868-13.255S800.309,1610.628,800.309,1617.806Z" fill="#fedf27"/>
        </g>
        <g id="Group_171" data-name="Group 171">
          <path id="Path_2605" data-name="Path 2605" d="M800.309,1615.839c0,7.178-10.306,13-23.018,13s-23.018-5.819-23.018-13c0-1.311.118-5.752.118-5.752,2.862-5.34,12.51-7.245,22.9-7.245,10.765,0,20.068,3.146,23.018,8.571A32.241,32.241,0,0,1,800.309,1615.839Z" fill="#ffa403"/>
          <path id="Path_2606" data-name="Path 2606" d="M800.309,1610.921c0,7.178-10.306,13-23.018,13s-22.868-5.561-22.868-12.739,10.155-13.255,22.868-13.255S800.309,1603.743,800.309,1610.921Z" fill="#fedf27"/>
        </g>
        <g id="Group_172" data-name="Group 172">
          <path id="Path_2607" data-name="Path 2607" d="M800.309,1608.954c0,7.178-10.306,13-23.018,13s-23.018-5.819-23.018-13c0-1.312.118-5.752.118-5.752,2.862-5.34,12.51-7.246,22.9-7.246,10.765,0,20.068,3.147,23.018,8.571A32.255,32.255,0,0,1,800.309,1608.954Z" fill="#ffa403"/>
          <path id="Path_2608" data-name="Path 2608" d="M800.309,1604.036c0,7.178-10.306,13-23.018,13s-22.868-5.561-22.868-12.739,10.155-13.256,22.868-13.256S800.309,1596.857,800.309,1604.036Z" fill="#fedf27"/>
        </g>
        <g id="Group_173" data-name="Group 173">
          <path id="Path_2609" data-name="Path 2609" d="M800.309,1602.068c0,7.179-10.306,13-23.018,13s-23.018-5.819-23.018-13c0-1.311.118-5.752.118-5.752,2.862-5.339,12.51-7.245,22.9-7.245,10.765,0,20.068,3.147,23.018,8.571A32.241,32.241,0,0,1,800.309,1602.068Z" fill="#ffa403"/>
          <path id="Path_2610" data-name="Path 2610" d="M800.309,1597.15c0,7.179-10.306,13-23.018,13s-22.868-5.561-22.868-12.739,10.155-13.256,22.868-13.256S800.309,1589.972,800.309,1597.15Z" fill="#fedf27"/>
        </g>
        <g id="Group_174" data-name="Group 174">
          <path id="Path_2611" data-name="Path 2611" d="M800.356,1595.183c0,7.179-10.3,13-23.018,13s-23.018-5.819-23.018-13c0-1.311.118-5.752.118-5.752,2.862-5.339,12.51-7.245,22.9-7.245,10.765,0,20.068,3.146,23.018,8.571A32.241,32.241,0,0,1,800.356,1595.183Z" fill="#ffa403"/>
          <path id="Path_2612" data-name="Path 2612" d="M800.356,1590.265c0,7.178-10.3,13-23.018,13s-22.868-5.561-22.868-12.739,10.156-13.256,22.868-13.256S800.356,1583.087,800.356,1590.265Z" fill="#fedf27"/>
        </g>
        <path id="Path_2613" data-name="Path 2613" d="M777.983,1600.8c-12.251,0-20.48-5.449-20.48-10.539s8.229-10.538,20.48-10.538,20.48,5.449,20.48,10.538S790.233,1600.8,777.983,1600.8Z" fill="#eaa428"/>
        <path id="Path_2614" data-name="Path 2614" d="M778.06,1600.8c-12.055.029-20.165-5.06-20.176-9.833s8.073-9.9,20.127-9.931,20.165,5.06,20.177,9.832S790.114,1600.774,778.06,1600.8Z" fill="url(#linear-gradient-2)"/>
        <path id="Path_2615" data-name="Path 2615" d="M800.274,1588.512c0,7.178-10.27,13-22.938,13s-22.939-5.819-22.939-13c0-1.311.118-5.752.118-5.752,2.852-5.34,12.466-7.245,22.821-7.245,10.728,0,20,3.146,22.938,8.571A32.23,32.23,0,0,1,800.274,1588.512Z" fill="#ffa403"/>
        <ellipse id="Ellipse_18" data-name="Ellipse 18" cx="22.939" cy="12.997" rx="22.939" ry="12.997" transform="translate(754.397 1570.597)" fill="#fedf27"/>
        <path id="Path_2616" data-name="Path 2616" d="M777.336,1594.133c-12.251,0-20.48-5.45-20.48-10.539s8.229-10.538,20.48-10.538,20.48,5.449,20.48,10.538S789.586,1594.133,777.336,1594.133Z" fill="#d87501"/>
        <path id="Path_2617" data-name="Path 2617" d="M777.413,1594.132c-12.055.03-20.165-5.059-20.177-9.832s8.073-9.9,20.128-9.931,20.165,5.06,20.177,9.832S789.467,1594.1,777.413,1594.132Z" fill="#ffbe04"/>
        <g id="Group_175" data-name="Group 175">
          <path id="Path_2618" data-name="Path 2618" d="M823.4,1665.439c0,7.178-10.3,13-23.018,13s-23.018-5.819-23.018-13c0-1.312.119-5.752.119-5.752,2.862-5.34,12.509-7.246,22.9-7.246,10.765,0,20.068,3.147,23.018,8.571A32.091,32.091,0,0,1,823.4,1665.439Z" fill="#ffa403"/>
          <path id="Path_2619" data-name="Path 2619" d="M823.4,1660.521c0,7.178-10.3,13-23.018,13s-22.868-5.561-22.868-12.739,10.156-13.256,22.868-13.256S823.4,1653.342,823.4,1660.521Z" fill="#fedf27"/>
        </g>
        <g id="Group_176" data-name="Group 176">
          <path id="Path_2620" data-name="Path 2620" d="M823.4,1658.553c0,7.179-10.3,13-23.018,13s-23.018-5.819-23.018-13c0-1.311.119-5.752.119-5.752,2.862-5.339,12.509-7.245,22.9-7.245,10.765,0,20.068,3.146,23.018,8.571A32.077,32.077,0,0,1,823.4,1658.553Z" fill="#ffa403"/>
          <path id="Path_2621" data-name="Path 2621" d="M823.4,1653.635c0,7.179-10.3,13-23.018,13s-22.868-5.561-22.868-12.739,10.156-13.256,22.868-13.256S823.4,1646.457,823.4,1653.635Z" fill="#fedf27"/>
        </g>
        <g id="Group_177" data-name="Group 177">
          <path id="Path_2622" data-name="Path 2622" d="M823.4,1651.668c0,7.178-10.3,13-23.018,13s-23.018-5.82-23.018-13c0-1.311.119-5.752.119-5.752,2.862-5.339,12.509-7.245,22.9-7.245,10.765,0,20.068,3.146,23.018,8.571A32.077,32.077,0,0,1,823.4,1651.668Z" fill="#ffa403"/>
          <path id="Path_2623" data-name="Path 2623" d="M823.4,1646.75c0,7.178-10.3,13-23.018,13s-22.868-5.561-22.868-12.74,10.156-13.255,22.868-13.255S823.4,1639.572,823.4,1646.75Z" fill="#fedf27"/>
        </g>
        <g id="Group_178" data-name="Group 178">
          <path id="Path_2624" data-name="Path 2624" d="M823.4,1644.783c0,7.178-10.3,13-23.018,13s-23.018-5.819-23.018-13c0-1.311.119-5.752.119-5.752,2.862-5.34,12.509-7.246,22.9-7.246,10.765,0,20.068,3.147,23.018,8.572A32.075,32.075,0,0,1,823.4,1644.783Z" fill="#ffa403"/>
          <path id="Path_2625" data-name="Path 2625" d="M823.4,1639.865c0,7.178-10.3,13-23.018,13s-22.868-5.561-22.868-12.739,10.156-13.256,22.868-13.256S823.4,1632.687,823.4,1639.865Z" fill="#fedf27"/>
        </g>
        <g id="Group_179" data-name="Group 179">
          <path id="Path_2626" data-name="Path 2626" d="M823.443,1637.9c0,7.178-10.306,13-23.018,13s-23.018-5.819-23.018-13c0-1.312.118-5.752.118-5.752,2.862-5.34,12.51-7.246,22.9-7.246,10.765,0,20.068,3.147,23.018,8.571A32.245,32.245,0,0,1,823.443,1637.9Z" fill="#ffa403"/>
          <path id="Path_2627" data-name="Path 2627" d="M823.443,1632.98c0,7.178-10.306,13-23.018,13s-22.868-5.561-22.868-12.739,10.155-13.256,22.868-13.256S823.443,1625.8,823.443,1632.98Z" fill="#fedf27"/>
        </g>
        <path id="Path_2628" data-name="Path 2628" d="M801.069,1643.518c-12.25,0-20.479-5.449-20.479-10.539s8.229-10.538,20.479-10.538,20.48,5.45,20.48,10.538S813.32,1643.518,801.069,1643.518Z" fill="#eaa428"/>
        <path id="Path_2629" data-name="Path 2629" d="M801.147,1643.518c-12.055.03-20.165-5.06-20.177-9.832s8.073-9.9,20.128-9.932,20.165,5.06,20.177,9.832S813.2,1643.488,801.147,1643.518Z" fill="url(#linear-gradient-2)"/>
        <path id="Path_2630" data-name="Path 2630" d="M823.361,1631.226c0,7.179-10.27,13-22.939,13s-22.938-5.819-22.938-13c0-1.311.118-5.752.118-5.752,2.852-5.339,12.466-7.245,22.82-7.245,10.728,0,20,3.146,22.939,8.571A32.24,32.24,0,0,1,823.361,1631.226Z" fill="#ffa403"/>
        <ellipse id="Ellipse_19" data-name="Ellipse 19" cx="22.939" cy="12.997" rx="22.939" ry="12.997" transform="translate(777.484 1613.311)" fill="#fff59c"/>
        <path id="Path_2631" data-name="Path 2631" d="M800.422,1636.847c-12.25,0-20.479-5.449-20.479-10.539s8.229-10.538,20.479-10.538,20.48,5.449,20.48,10.538S812.673,1636.847,800.422,1636.847Z" fill="#d87501"/>
        <path id="Path_2632" data-name="Path 2632" d="M800.5,1636.847c-12.054.03-20.562-5.076-20.176-9.833.436-5.366,8.342-10.258,20.128-9.931,12.05.335,20.165,5.06,20.176,9.832S812.554,1636.817,800.5,1636.847Z" fill="#ffbe04"/>
        <g id="Group_187" data-name="Group 187">
          <g id="Group_180" data-name="Group 180">
            <path id="Path_2633" data-name="Path 2633" d="M760.616,1681.668c0,7.178-10.305,13-23.018,13s-23.018-5.819-23.018-13c0-1.311.118-5.752.118-5.752,2.862-5.34,12.51-7.245,22.9-7.245,10.765,0,20.068,3.146,23.018,8.571A32.241,32.241,0,0,1,760.616,1681.668Z" fill="#ffa403"/>
            <path id="Path_2634" data-name="Path 2634" d="M760.616,1676.75c0,7.178-10.305,13-23.018,13s-22.868-5.561-22.868-12.74,10.156-13.255,22.868-13.255S760.616,1669.572,760.616,1676.75Z" fill="#fedf27"/>
          </g>
          <g id="Group_181" data-name="Group 181">
            <path id="Path_2635" data-name="Path 2635" d="M760.616,1674.291c0,7.178-10.305,13-23.018,13s-23.018-5.82-23.018-13c0-1.311.118-5.752.118-5.752,2.862-5.34,12.51-7.245,22.9-7.245,10.765,0,20.068,3.146,23.018,8.571A32.241,32.241,0,0,1,760.616,1674.291Z" fill="#ffa403"/>
            <path id="Path_2636" data-name="Path 2636" d="M760.616,1669.373c0,7.178-10.305,13-23.018,13s-22.868-5.56-22.868-12.739,10.156-13.255,22.868-13.255S760.616,1662.195,760.616,1669.373Z" fill="#fedf27"/>
          </g>
          <g id="Group_182" data-name="Group 182">
            <path id="Path_2637" data-name="Path 2637" d="M760.616,1667.406c0,7.178-10.305,13-23.018,13s-23.018-5.819-23.018-13c0-1.312.118-5.752.118-5.752,2.862-5.34,12.51-7.246,22.9-7.246,10.765,0,20.068,3.147,23.018,8.572A32.241,32.241,0,0,1,760.616,1667.406Z" fill="#ffa403"/>
            <path id="Path_2638" data-name="Path 2638" d="M760.616,1662.488c0,7.178-10.305,13-23.018,13s-22.868-5.561-22.868-12.739,10.156-13.256,22.868-13.256S760.616,1655.31,760.616,1662.488Z" fill="#fedf27"/>
          </g>
          <g id="Group_183" data-name="Group 183">
            <path id="Path_2639" data-name="Path 2639" d="M760.616,1660.521c0,7.178-10.305,13-23.018,13s-23.018-5.819-23.018-13c0-1.312.118-5.753.118-5.753,2.862-5.339,12.51-7.245,22.9-7.245,10.765,0,20.068,3.147,23.018,8.571A32.256,32.256,0,0,1,760.616,1660.521Z" fill="#ffa403"/>
            <path id="Path_2640" data-name="Path 2640" d="M760.616,1655.6c0,7.178-10.305,13-23.018,13s-22.868-5.561-22.868-12.739S724.886,1642.6,737.6,1642.6,760.616,1648.424,760.616,1655.6Z" fill="#fedf27"/>
          </g>
          <g id="Group_184" data-name="Group 184">
            <path id="Path_2641" data-name="Path 2641" d="M760.616,1653.635c0,7.179-10.305,13-23.018,13s-23.018-5.819-23.018-13c0-1.311.118-5.752.118-5.752,2.862-5.339,12.51-7.245,22.9-7.245,10.765,0,20.068,3.146,23.018,8.571A32.241,32.241,0,0,1,760.616,1653.635Z" fill="#ffa403"/>
            <path id="Path_2642" data-name="Path 2642" d="M760.616,1648.717c0,7.179-10.305,13-23.018,13s-22.868-5.561-22.868-12.739,10.156-13.256,22.868-13.256S760.616,1641.539,760.616,1648.717Z" fill="#fedf27"/>
          </g>
          <g id="Group_185" data-name="Group 185">
            <path id="Path_2643" data-name="Path 2643" d="M760.663,1646.75c0,7.178-10.305,13-23.018,13s-23.018-5.82-23.018-13c0-1.311.119-5.752.119-5.752,2.862-5.34,12.509-7.245,22.9-7.245,10.765,0,20.068,3.146,23.018,8.571A32.077,32.077,0,0,1,760.663,1646.75Z" fill="#ffa403"/>
            <path id="Path_2644" data-name="Path 2644" d="M760.663,1641.832c0,7.178-10.305,13-23.018,13s-22.868-5.56-22.868-12.739,10.156-13.255,22.868-13.255S760.663,1634.654,760.663,1641.832Z" fill="#fedf27"/>
          </g>
          <path id="Path_2645" data-name="Path 2645" d="M738.29,1652.371c-12.25,0-20.479-5.45-20.479-10.539s8.229-10.538,20.479-10.538,20.48,5.449,20.48,10.538S750.541,1652.371,738.29,1652.371Z" fill="#eaa428"/>
          <path id="Path_2646" data-name="Path 2646" d="M738.367,1652.371c-12.054.029-20.164-5.06-20.176-9.833s8.073-9.9,20.127-9.931,20.165,5.06,20.177,9.832S750.422,1652.341,738.367,1652.371Z" fill="url(#linear-gradient-2)"/>
          <path id="Path_2647" data-name="Path 2647" d="M760.582,1640.079c0,7.178-10.27,13-22.939,13s-22.939-5.819-22.939-13c0-1.311.118-5.752.118-5.752,2.852-5.34,12.467-7.246,22.821-7.246,10.728,0,20,3.147,22.939,8.572A32.388,32.388,0,0,1,760.582,1640.079Z" fill="#ffa403"/>
          <ellipse id="Ellipse_20" data-name="Ellipse 20" cx="22.939" cy="12.997" rx="22.939" ry="12.997" transform="translate(714.704 1622.163)" fill="#fff59c"/>
          <path id="Path_2648" data-name="Path 2648" d="M737.643,1645.7c-12.25,0-20.479-5.449-20.479-10.538s8.229-10.538,20.479-10.538,20.48,5.449,20.48,10.538S749.893,1645.7,737.643,1645.7Z" fill="#d87501"/>
          <path id="Path_2649" data-name="Path 2649" d="M737.72,1645.7c-12.054.03-20.164-5.06-20.176-9.832s8.073-9.9,20.127-9.931,20.165,5.059,20.177,9.831S749.775,1645.67,737.72,1645.7Z" fill="#ffbe04"/>
          <g id="Group_186" data-name="Group 186">
            <path id="Path_2650" data-name="Path 2650" d="M742.113,1633.267q1.647-1.708.183-3.309a3.877,3.877,0,0,0-1.03-.792,5.338,5.338,0,0,0-1.343-.5,6.545,6.545,0,0,0-1.495-.167,6.8,6.8,0,0,0-1.791.242c-.183.05-.855.3-1.7.622l-1.3-1.242-2.971.767v.492l1.108,1.211-1.01.4-1.087-1.189-3.088.818v.491l1.062,1.161-1.691.211v.492l1.92,2.152,1.725-.717,5.894,6.445-1.721.223v.492l1.954,2.138,1.721-.715.948,1.037,3.088-1.309v-.492l-.931-.527,1-.413.926,1.012,3.087-1.309v-.491l-.912-.507q.864-.38,1.507-.735a6.574,6.574,0,0,0,1.365-.964,2.535,2.535,0,0,0,.829-1.805,2.723,2.723,0,0,0-.808-1.888Q745.78,1632.668,742.113,1633.267Zm-9.613-.432a47.654,47.654,0,0,1,5.164-2.041,2.131,2.131,0,0,1,1.816.726,1.234,1.234,0,0,1,.361.794,1.105,1.105,0,0,1-.445.988,6.813,6.813,0,0,1-1.674.906l-2.875,1.194Zm9.984,5.831-3.372,1.4-2.848-3.115,3.267-1.357a7.185,7.185,0,0,1,2.795-.659,2.516,2.516,0,0,1,1.9.829Q745.667,1637.343,742.484,1638.666Z" fill="#d87501"/>
            <path id="Path_2651" data-name="Path 2651" d="M742.113,1632.775q1.647-1.709.183-3.309a3.88,3.88,0,0,0-1.03-.792,5.385,5.385,0,0,0-1.343-.5,6.552,6.552,0,0,0-1.495-.167,6.8,6.8,0,0,0-1.791.242c-.183.05-.855.3-1.7.622l-1.3-1.242-2.971,1.259,1.108,1.211-1.01.4-1.087-1.188-3.088,1.309,1.062,1.161-1.691.7,1.92,2.152,1.725-.717,5.894,6.445-1.721.715,1.954,2.138,1.721-.715.948,1.037,3.088-1.309-.931-1.018,1-.414.926,1.012,3.087-1.308-.912-1q.864-.38,1.507-.735a6.573,6.573,0,0,0,1.365-.963,2.537,2.537,0,0,0,.829-1.806,2.725,2.725,0,0,0-.808-1.888Q745.78,1632.176,742.113,1632.775Zm-9.613-.431a47.61,47.61,0,0,1,5.164-2.042,2.131,2.131,0,0,1,1.816.726,1.235,1.235,0,0,1,.361.794,1.105,1.105,0,0,1-.445.988,6.817,6.817,0,0,1-1.674.906l-2.875,1.2Zm9.984,5.83-3.372,1.4-2.848-3.114,3.267-1.357a7.191,7.191,0,0,1,2.795-.66,2.521,2.521,0,0,1,1.9.829Q745.667,1636.851,742.484,1638.174Z" fill="#fffb61"/>
          </g>
        </g>
        <g id="Group_188" data-name="Group 188">
          <path id="Path_2652" data-name="Path 2652" d="M781.6,1581.588q1.647-1.709.183-3.309a3.874,3.874,0,0,0-1.03-.792,5.38,5.38,0,0,0-1.343-.5,6.559,6.559,0,0,0-1.495-.167,6.8,6.8,0,0,0-1.791.242c-.183.05-.855.3-1.7.622l-1.3-1.242-2.971.767v.492l1.108,1.211-1.01.4-1.087-1.188-3.088.817v.492l1.062,1.161-1.691.21v.492l1.92,2.152,1.725-.717,5.894,6.445-1.721.224v.491l1.954,2.138,1.721-.715.948,1.037,3.088-1.309v-.492l-.931-.526,1-.414.926,1.012,3.087-1.309v-.491l-.913-.507q.865-.38,1.508-.735a6.577,6.577,0,0,0,1.365-.963,2.537,2.537,0,0,0,.829-1.806,2.723,2.723,0,0,0-.808-1.888Q785.267,1580.989,781.6,1581.588Zm-9.613-.431a47.61,47.61,0,0,1,5.164-2.042,2.131,2.131,0,0,1,1.816.726,1.24,1.24,0,0,1,.361.794,1.105,1.105,0,0,1-.445.988,6.821,6.821,0,0,1-1.674.906l-2.875,1.195Zm9.984,5.83-3.372,1.4-2.848-3.115,3.266-1.356a7.2,7.2,0,0,1,2.8-.66,2.517,2.517,0,0,1,1.9.829Q785.152,1585.664,781.971,1586.987Z" fill="#d87501"/>
          <path id="Path_2653" data-name="Path 2653" d="M781.6,1581.1q1.647-1.709.183-3.31a3.856,3.856,0,0,0-1.03-.791,5.344,5.344,0,0,0-1.343-.5,6.551,6.551,0,0,0-1.495-.166,6.764,6.764,0,0,0-1.791.242c-.183.049-.855.3-1.7.622l-1.3-1.243-2.971,1.259,1.108,1.212-1.01.4-1.087-1.189-3.088,1.309,1.062,1.161-1.691.7,1.92,2.152,1.725-.717,5.894,6.446-1.721.715,1.954,2.137,1.721-.715.948,1.037,3.088-1.309-.931-1.018,1-.414.926,1.013,3.087-1.309-.913-1q.865-.379,1.508-.734a6.606,6.606,0,0,0,1.365-.964,2.535,2.535,0,0,0,.829-1.8,2.725,2.725,0,0,0-.808-1.889Q785.267,1580.5,781.6,1581.1Zm-9.613-.432a47.61,47.61,0,0,1,5.164-2.042,2.131,2.131,0,0,1,1.816.726,1.239,1.239,0,0,1,.361.794,1.1,1.1,0,0,1-.445.988,6.813,6.813,0,0,1-1.674.906l-2.875,1.2Zm9.984,5.83-3.372,1.4-2.848-3.114,3.266-1.357a7.2,7.2,0,0,1,2.8-.66,2.521,2.521,0,0,1,1.9.829Q785.152,1585.173,781.971,1586.495Z" fill="#fffb61"/>
        </g>
        <g id="Group_189" data-name="Group 189">
          <path id="Path_2654" data-name="Path 2654" d="M805.531,1624.4q1.645-1.709.182-3.309a3.88,3.88,0,0,0-1.03-.792,5.385,5.385,0,0,0-1.343-.5,6.553,6.553,0,0,0-1.5-.167,6.8,6.8,0,0,0-1.791.242c-.183.05-.855.3-1.7.622l-1.3-1.242-2.971.767v.492l1.108,1.211-1.01.4-1.087-1.188-3.088.817v.491l1.062,1.162-1.69.21v.492l1.919,2.152,1.725-.717,5.894,6.445-1.721.224v.491l1.954,2.138,1.721-.715.949,1.037,3.087-1.309v-.492l-.931-.526.995-.414.926,1.012,3.088-1.309v-.491l-.913-.507q.864-.38,1.507-.735a6.573,6.573,0,0,0,1.365-.963,2.537,2.537,0,0,0,.829-1.806,2.723,2.723,0,0,0-.808-1.888Q809.2,1623.8,805.531,1624.4Zm-9.614-.432a47.629,47.629,0,0,1,5.164-2.041,2.131,2.131,0,0,1,1.816.726,1.235,1.235,0,0,1,.361.794,1.105,1.105,0,0,1-.445.988,6.8,6.8,0,0,1-1.674.906l-2.875,1.2Zm9.984,5.831-3.372,1.4-2.847-3.115,3.266-1.357a7.205,7.205,0,0,1,2.795-.659,2.517,2.517,0,0,1,1.9.829Q809.083,1628.476,805.9,1629.8Z" fill="#d87501"/>
          <path id="Path_2655" data-name="Path 2655" d="M805.531,1623.909q1.645-1.709.182-3.31a3.877,3.877,0,0,0-1.03-.792,5.38,5.38,0,0,0-1.343-.5,6.546,6.546,0,0,0-1.5-.167,6.76,6.76,0,0,0-1.791.243c-.183.049-.855.3-1.7.621l-1.3-1.242-2.971,1.259,1.108,1.212c-.393.153-.74.29-1.01.4l-1.087-1.188-3.088,1.309,1.062,1.161-1.69.7,1.919,2.152,1.725-.717,5.894,6.446-1.721.715,1.954,2.137,1.721-.715.949,1.037,3.087-1.309-.931-1.018.995-.414.926,1.013,3.088-1.309-.913-1q.864-.379,1.507-.734a6.61,6.61,0,0,0,1.365-.964,2.535,2.535,0,0,0,.829-1.806,2.725,2.725,0,0,0-.808-1.888Q809.2,1623.309,805.531,1623.909Zm-9.614-.432a47.61,47.61,0,0,1,5.164-2.042,2.131,2.131,0,0,1,1.816.726,1.234,1.234,0,0,1,.361.794,1.105,1.105,0,0,1-.445.988,6.794,6.794,0,0,1-1.674.906l-2.875,1.195Zm9.984,5.83-3.372,1.4-2.847-3.114,3.266-1.357a7.187,7.187,0,0,1,2.795-.66,2.52,2.52,0,0,1,1.9.829Q809.083,1627.985,805.9,1629.307Z" fill="#fffb61"/>
        </g>
      </g>
      <g id="Group_192" data-name="Group 192">
        <path id="Path_2656" data-name="Path 2656" d="M412.467,1353.375l-34.255,57.591,34.255,20.767,34.255-20.767Z" fill="url(#linear-gradient-5)"/>
        <path id="Path_2657" data-name="Path 2657" d="M440.961,1488.092c0,8.917-12.757,16.146-28.494,16.146s-28.5-7.229-28.5-16.146c0-3.344,5.5-8.963,8.569-11.539,5.12-4.295,10.09-4.606,19.926-4.606,9.584,0,13.661.495,18.826,4.606C434.609,1479.192,440.961,1484.606,440.961,1488.092Z" fill="#9feeeb"/>
        <ellipse id="Ellipse_21" data-name="Ellipse 21" cx="19.934" cy="11.295" rx="19.934" ry="11.295" transform="translate(392.533 1468.976)" fill="#34b3c4"/>
        <ellipse id="Ellipse_22" data-name="Ellipse 22" cx="10.17" cy="4.432" rx="10.17" ry="4.432" transform="translate(402.297 1474.554)" fill="#168ca9"/>
        <path id="Path_2658" data-name="Path 2658" d="M412.467,1437.513,378.212,1416.1l34.255,49.669,34.255-49.669Z" fill="#3dbfc9"/>
        <path id="Path_2659" data-name="Path 2659" d="M412.467,1353.375l-34.255,57.591,34.255,20.767,34.255-20.767Z" fill="#3dbfc9"/>
        <path id="Path_2660" data-name="Path 2660" d="M412.467,1431.733l-34.255-20.767,34.255-57.591h0Z" fill="#9feeeb"/>
        <path id="Path_2661" data-name="Path 2661" d="M412.467,1465.773h0L378.212,1416.1l34.255,21.409Z" fill="#9feeeb"/>
        <g id="Group_191" data-name="Group 191">
          <path id="Path_2662" data-name="Path 2662" d="M378.212,1410.966l34.255,20.767v-35.967Z" fill="#d9faff" opacity="0.53"/>
          <path id="Path_2663" data-name="Path 2663" d="M412.467,1395.766v35.967h0l34.255-20.767Z" fill="#d9faff" opacity="0.15"/>
        </g>
      </g>
    </g>
  </g>
  <g id="Group_204" data-name="Group 204" transform="translate(-377.035 -1299.658)">
    <g id="Group_195" data-name="Group 195">
      <path id="Path_2664" data-name="Path 2664" d="M673.058,1435.062l-64.2-36.679a2.07,2.07,0,0,1-.755-2.849h0a2.07,2.07,0,0,1,2.807-.744l64.2,36.68a2.068,2.068,0,0,1,.77,2.822h0A2.068,2.068,0,0,1,673.058,1435.062Z" fill="#f15c24"/>
    </g>
    <g id="Group_196" data-name="Group 196">
      <path id="Path_2665" data-name="Path 2665" d="M547.44,1363.281l-31.252-17.853a2.069,2.069,0,0,1-.77-2.823h0a2.068,2.068,0,0,1,2.822-.77l31.252,17.854a2.068,2.068,0,0,1,.77,2.822h0A2.068,2.068,0,0,1,547.44,1363.281Z" fill="#f15c24"/>
    </g>
    <g id="Group_197" data-name="Group 197">
      <path id="Path_2666" data-name="Path 2666" d="M596.55,1391.338,562.005,1371.6a2.068,2.068,0,0,1-.77-2.822h0a2.068,2.068,0,0,1,2.822-.77l34.545,19.735a2.068,2.068,0,0,1,.77,2.822h0A2.069,2.069,0,0,1,596.55,1391.338Z" fill="#34b3c4"/>
    </g>
    <g id="Group_198" data-name="Group 198">
      <path id="Path_2667" data-name="Path 2667" d="M602.562,1407.02l-86.374-49.346a2.068,2.068,0,0,1-.77-2.822h0a2.068,2.068,0,0,1,2.822-.77l86.375,49.345a2.069,2.069,0,0,1,.77,2.823h0A2.07,2.07,0,0,1,602.562,1407.02Z" fill="#34b3c4"/>
    </g>
    <g id="Group_199" data-name="Group 199">
      <path id="Path_2668" data-name="Path 2668" d="M671.809,1446.58l-54.67-31.233a2.068,2.068,0,0,1-.753-2.852h0a2.069,2.069,0,0,1,2.8-.74l54.67,31.232a2.068,2.068,0,0,1,.953,2.4h0A2.069,2.069,0,0,1,671.809,1446.58Z" fill="#fff"/>
    </g>
    <g id="Group_200" data-name="Group 200">
      <path id="Path_2669" data-name="Path 2669" d="M669.738,1469.664l-59.559-34.026a2.068,2.068,0,0,1-.77-2.822h0a2.068,2.068,0,0,1,2.822-.77l59.56,34.026a2.068,2.068,0,0,1,1.042,1.8h0A2.069,2.069,0,0,1,669.738,1469.664Z" fill="#fff"/>
    </g>
    <g id="Group_201" data-name="Group 201">
      <path id="Path_2670" data-name="Path 2670" d="M547.44,1399.8l-31.252-17.854a2.068,2.068,0,0,1-.77-2.822h0a2.068,2.068,0,0,1,2.822-.77l31.252,17.854a2.068,2.068,0,0,1,.77,2.822h0A2.068,2.068,0,0,1,547.44,1399.8Z" fill="#fff"/>
    </g>
    <g id="Group_202" data-name="Group 202">
      <path id="Path_2671" data-name="Path 2671" d="M596.55,1427.851l-34.545-19.735a2.068,2.068,0,0,1-.77-2.822h0a2.068,2.068,0,0,1,2.822-.77l34.545,19.735a2.068,2.068,0,0,1,.77,2.822h0A2.068,2.068,0,0,1,596.55,1427.851Z" fill="#f15c24"/>
    </g>
    <g id="Group_203" data-name="Group 203">
      <path id="Path_2672" data-name="Path 2672" d="M670.964,1458.33l-154.776-88.422a2.069,2.069,0,0,1-.77-2.823h0a2.069,2.069,0,0,1,2.822-.77l154.777,88.423a2.069,2.069,0,0,1,1.042,1.8h0A2.068,2.068,0,0,1,670.964,1458.33Z" fill="#34b3c4"/>
    </g>
  </g>
  <g id="Group_216" data-name="Group 216" transform="translate(-377.035 -1299.658)">
    <g id="Group_205" data-name="Group 205">
      <path id="Path_2673" data-name="Path 2673" d="M673.058,1483.192l-64.2-36.679a2.07,2.07,0,0,1-.755-2.849h0a2.07,2.07,0,0,1,2.807-.744l64.2,36.68a2.068,2.068,0,0,1,.77,2.822h0A2.068,2.068,0,0,1,673.058,1483.192Z" fill="#34b3c4"/>
    </g>
    <g id="Group_206" data-name="Group 206">
      <path id="Path_2674" data-name="Path 2674" d="M547.44,1411.411l-31.252-17.853a2.069,2.069,0,0,1-.77-2.823h0a2.069,2.069,0,0,1,2.822-.77l31.252,17.854a2.068,2.068,0,0,1,.77,2.822h0A2.069,2.069,0,0,1,547.44,1411.411Z" fill="#34b3c4"/>
    </g>
    <g id="Group_207" data-name="Group 207">
      <path id="Path_2675" data-name="Path 2675" d="M596.55,1439.468l-34.545-19.735a2.069,2.069,0,0,1-.77-2.823h0a2.068,2.068,0,0,1,2.822-.77l34.545,19.735a2.069,2.069,0,0,1,.77,2.823h0A2.069,2.069,0,0,1,596.55,1439.468Z" fill="#fff"/>
    </g>
    <g id="Group_208" data-name="Group 208">
      <path id="Path_2676" data-name="Path 2676" d="M602.562,1455.15,516.188,1405.8a2.068,2.068,0,0,1-.77-2.822h0a2.068,2.068,0,0,1,2.822-.77l86.375,49.345a2.069,2.069,0,0,1,.77,2.823h0A2.07,2.07,0,0,1,602.562,1455.15Z" fill="#34b3c4"/>
    </g>
    <g id="Group_209" data-name="Group 209">
      <path id="Path_2677" data-name="Path 2677" d="M671.809,1494.71l-54.67-31.233a2.068,2.068,0,0,1-.753-2.852h0a2.069,2.069,0,0,1,2.8-.74l54.67,31.232a2.068,2.068,0,0,1,.953,2.4h0A2.069,2.069,0,0,1,671.809,1494.71Z" fill="#f15c24"/>
    </g>
    <g id="Group_210" data-name="Group 210">
      <path id="Path_2678" data-name="Path 2678" d="M669.738,1517.794l-59.559-34.026a2.068,2.068,0,0,1-.77-2.822h0a2.068,2.068,0,0,1,2.822-.77l59.56,34.026a2.068,2.068,0,0,1,1.042,1.8h0A2.069,2.069,0,0,1,669.738,1517.794Z" fill="#fff"/>
    </g>
    <g id="Group_211" data-name="Group 211">
      <path id="Path_2679" data-name="Path 2679" d="M547.44,1447.925l-31.252-17.854a2.068,2.068,0,0,1-.77-2.822h0a2.068,2.068,0,0,1,2.822-.77l31.252,17.854a2.068,2.068,0,0,1,.77,2.822h0A2.068,2.068,0,0,1,547.44,1447.925Z" fill="#f15c24"/>
    </g>
    <g id="Group_212" data-name="Group 212">
      <path id="Path_2680" data-name="Path 2680" d="M596.55,1475.982l-34.545-19.736a2.068,2.068,0,0,1-.77-2.822h0a2.068,2.068,0,0,1,2.822-.77l34.545,19.735a2.068,2.068,0,0,1,.77,2.822h0A2.07,2.07,0,0,1,596.55,1475.982Z" fill="#34b3c4"/>
    </g>
    <g id="Group_213" data-name="Group 213">
      <path id="Path_2681" data-name="Path 2681" d="M602.562,1491.664l-86.374-49.346a2.068,2.068,0,0,1-.77-2.822h0a2.068,2.068,0,0,1,2.822-.77l86.375,49.345a2.069,2.069,0,0,1,.77,2.823h0A2.07,2.07,0,0,1,602.562,1491.664Z" fill="#34b3c4"/>
    </g>
    <g id="Group_214" data-name="Group 214">
      <path id="Path_2682" data-name="Path 2682" d="M669.738,1530.041l-52.629-30.067a2.068,2.068,0,0,1-.77-2.822h0a2.068,2.068,0,0,1,2.822-.77l52.63,30.066a2.069,2.069,0,0,1,1.042,1.8h0A2.069,2.069,0,0,1,669.738,1530.041Z" fill="#f15c24"/>
    </g>
    <g id="Group_215" data-name="Group 215">
      <path id="Path_2683" data-name="Path 2683" d="M670.964,1506.461l-154.776-88.423a2.069,2.069,0,0,1-.77-2.823h0a2.069,2.069,0,0,1,2.822-.77l154.777,88.423a2.069,2.069,0,0,1,1.042,1.8h0A2.069,2.069,0,0,1,670.964,1506.461Z" fill="#fff"/>
    </g>
  </g>
  <g id="Group_217" data-name="Group 217" transform="translate(-377.035 -1299.658)">
    <path id="Path_2684" data-name="Path 2684" d="M616.009,1443.214q8.142-.266,8.11-10.364a24.3,24.3,0,0,0-.8-6,30.556,30.556,0,0,0-2.277-6.044,31.919,31.919,0,0,0-3.424-5.452,26.891,26.891,0,0,0-5.124-5.068c-.58-.435-2.868-1.808-5.764-3.5l-.037-11.752-10.893-5.9.037,11.361-3.491-1.994-.036-11.258-10.892-5.9.036,11.2-9.209-4.989.043,13.484,9.209,4.989.131,40.665-9.209-4.989.044,13.484,9.209,4.989.031,9.66,10.892,5.9-.031-9.66,3.49,1.89.031,9.661,10.893,5.9-.031-9.691a55.856,55.856,0,0,0,5.538,2.5,17.624,17.624,0,0,0,5.705,1.28,7.342,7.342,0,0,0,6.282-3.264q2.32-3.255,2.3-8.9Q626.739,1453.243,616.009,1443.214Zm-23.5-32.932s15.918,7.981,17.875,10.156a12.086,12.086,0,0,1,2.951,8.357,6.911,6.911,0,0,1-.913,3.814,3.26,3.26,0,0,1-3.418,1.814,19.533,19.533,0,0,1-6.357-2.482l-10.086-5.463Zm11.976,52.029-11.829-6.408-.063-19.647,11.457,6.207a26.161,26.161,0,0,1,8.648,6.976,14.6,14.6,0,0,1,2.917,8.957Q615.646,1468.357,604.484,1462.311Z" fill="#06031c" opacity="0.27"/>
    <path id="Path_2685" data-name="Path 2685" d="M609.157,1437.516q8.144-.266,8.11-10.364a24.343,24.343,0,0,0-.8-6,30.6,30.6,0,0,0-2.277-6.044,32.048,32.048,0,0,0-3.424-5.452,26.922,26.922,0,0,0-5.124-5.068c-.581-.435-2.869-1.808-5.764-3.5l-.038-11.753-10.892-5.9-5.463,1.821,5.5,9.54c-1.356-.777-2.557-1.462-3.49-1.994l-.037-11.258-10.892-5.9-5.462,1.82,5.5,9.382-9.209-4.989-5.462,1.821,5.506,11.663,9.209,4.989.131,40.665L565.571,1436l-5.463,1.821,5.506,11.663,9.209,4.989.031,9.66,5.43,7.722,5.463-1.821-.031-9.66,3.49,1.89.031,9.661,5.43,7.721,5.462-1.821-.031-9.692a55.86,55.86,0,0,0,5.538,2.505c2.15.814.464,2.854,2.118,2.894,2.64-.005,8.322-2.707,9.87-4.878s2.315-5.138,2.3-8.9Q619.888,1447.545,609.157,1437.516Zm-23.5-32.932s15.917,7.981,17.874,10.156a12.087,12.087,0,0,1,2.952,8.357,6.919,6.919,0,0,1-.913,3.814,3.263,3.263,0,0,1-3.419,1.814,19.538,19.538,0,0,1-6.356-2.482l-10.086-5.463Zm11.975,52.029L585.8,1450.2l-.064-19.647,11.458,6.207a26.16,26.16,0,0,1,8.648,6.976,14.594,14.594,0,0,1,2.916,8.957Q608.795,1462.659,597.632,1456.613Z" fill="#d87501"/>
    <path id="Path_2686" data-name="Path 2686" d="M603.7,1439.336q8.142-.264,8.11-10.363a24.338,24.338,0,0,0-.8-6,30.631,30.631,0,0,0-2.278-6.045,32,32,0,0,0-3.423-5.451,26.912,26.912,0,0,0-5.124-5.068c-.581-.435-2.869-1.808-5.764-3.5l-.038-11.753-10.893-5.9.037,11.361c-1.357-.777-2.558-1.462-3.491-1.994L580,1383.362l-10.892-5.9.036,11.2-9.209-4.988.043,13.484,9.209,4.989.131,40.664-9.209-4.988.044,13.484,9.209,4.989.031,9.66,10.892,5.9-.031-9.661,3.49,1.891.031,9.66,10.893,5.9-.031-9.692a55.687,55.687,0,0,0,5.538,2.505,17.645,17.645,0,0,0,5.705,1.28,7.342,7.342,0,0,0,6.282-3.264q2.322-3.255,2.3-8.9Q614.426,1449.366,603.7,1439.336Zm-23.5-32.931s15.918,7.981,17.875,10.156a12.086,12.086,0,0,1,2.951,8.357,6.913,6.913,0,0,1-.913,3.814,3.261,3.261,0,0,1-3.418,1.814,19.563,19.563,0,0,1-6.357-2.482l-10.086-5.464Zm11.976,52.029-11.829-6.408-.063-19.647,11.457,6.206a26.165,26.165,0,0,1,8.648,6.977,14.594,14.594,0,0,1,2.917,8.957Q603.331,1464.481,592.17,1458.434Z" fill="#ffbe04"/>
  </g>
</svg>
