<svg id="NFT_After" data-name="NFT After" xmlns="http://www.w3.org/2000/svg" width="59.16" height="58.956" viewBox="0 0 59.16 58.956">
  <g id="Group_26" data-name="Group 26">
    <path id="Path_12" data-name="Path 12" d="M1547.3,1431.147l8.894,9.538v7.491l2.876,8.4,7.189,2.875s3.254-3.935-2.8-6.961l-1.438-4.389,2.573-5.146,11.419,1.589,4.678,5.374v8.7s-.442,2.8,4.673,2.8v-13.621l-7.149-9.61-11.276-4.162-3.1-2.878" transform="translate(-1547.299 -1431.142)" fill="#fff"/>
  </g>
  <path id="Path_14" data-name="Path 14" d="M1614.06,1504.883l-9.7-.056-17.822,6.866-9.534-2.042-7.664-7.776s2.554-2.328,4.881-.85a25.909,25.909,0,0,1,4.588,4.029l7.161-.114,7.888-5.506a85.545,85.545,0,0,1-8.683,2.725,4.933,4.933,0,0,1-3.868-3.243l12.5-5.12,13.768-.047" transform="translate(-1554.9 -1452.738)" fill="#fff"/>
  <g id="Group_28" data-name="Group 28" transform="translate(15.382 30.767)">
    <circle id="Ellipse_3" data-name="Ellipse 3" cx="6.424" cy="6.424" r="6.424" fill="#fff"/>
    <g id="Group_27" data-name="Group 27" transform="translate(4.854 3.546)">
      <line id="Line_3" data-name="Line 3" y2="5.758" transform="translate(1.57)" fill="none" stroke="#1ec186" stroke-linecap="round" stroke-linejoin="round" stroke-width="1"/>
      <path id="Path_16" data-name="Path 16" d="M1581.069,1485.12h-1.963a.916.916,0,0,0,0,1.832h1.309a.916.916,0,0,1,0,1.831H1578.2" transform="translate(-1578.19 -1484.074)" fill="none" stroke="#1ec186" stroke-linecap="round" stroke-linejoin="round" stroke-width="1"/>
    </g>
  </g>
</svg>
