<svg xmlns="http://www.w3.org/2000/svg" width="30.071" height="27.819" viewBox="0 0 30.071 27.819">
  <g id="Sheesh_Staking_APY" data-name="Sheesh Staking APY" transform="translate(0.6 0.619)">
    <rect id="Rectangle_32" data-name="Rectangle 32" width="24.717" height="2.147" transform="translate(2.077 9.356)" stroke-width="1.2" stroke="#4ba0ea" stroke-linecap="round" stroke-linejoin="round" fill="none"/>
    <path id="Path_2479" data-name="Path 2479" d="M-131.785,435.965a.748.748,0,0,0,.747.747h.119v7.832h-.119a.747.747,0,0,0-.747.747V446h4.219v-.71a.746.746,0,0,0-.746-.747h-.119v-7.832h.119a.747.747,0,0,0,.746-.747v-.711h-4.219Z" transform="translate(135.32 -423.714)" fill="none" stroke="#4ba0ea" stroke-linecap="round" stroke-linejoin="round" stroke-width="1.2"/>
    <path id="Path_2480" data-name="Path 2480" d="M-125.924,435.965a.747.747,0,0,0,.747.747h.118v7.832h-.118a.746.746,0,0,0-.747.747V446h4.219v-.71a.747.747,0,0,0-.747-.747h-.119v-7.832h.119a.748.748,0,0,0,.747-.747v-.711h-4.219Z" transform="translate(135.32 -423.714)" fill="none" stroke="#4ba0ea" stroke-linecap="round" stroke-linejoin="round" stroke-width="1.2"/>
    <path id="Path_2481" data-name="Path 2481" d="M-120.064,435.965a.747.747,0,0,0,.747.747h.119v7.832h-.119a.746.746,0,0,0-.747.747V446h4.219v-.71a.746.746,0,0,0-.747-.747h-.118v-7.832h.118a.747.747,0,0,0,.747-.747v-.711h-4.219Z" transform="translate(135.32 -423.714)" fill="none" stroke="#4ba0ea" stroke-linecap="round" stroke-linejoin="round" stroke-width="1.2"/>
    <path id="Path_2482" data-name="Path 2482" d="M-110.731,436.712a.748.748,0,0,0,.747-.747v-.711h-4.22v.711a.748.748,0,0,0,.747.747h.119v7.832h-.119a.747.747,0,0,0-.747.747V446h4.22v-.71a.747.747,0,0,0-.747-.747h-.119v-7.832Z" transform="translate(135.32 -423.714)" fill="none" stroke="#4ba0ea" stroke-linecap="round" stroke-linejoin="round" stroke-width="1.2"/>
    <rect id="Rectangle_33" data-name="Rectangle 33" width="24.717" height="2.147" transform="translate(2.077 22.307)" stroke-width="1.2" stroke="#4ba0ea" stroke-linecap="round" stroke-linejoin="round" fill="none"/>
    <path id="Path_2478" data-name="Path 2478" d="M-120.488,423.828a.744.744,0,0,0-.793,0l-13.025,8.215a.557.557,0,0,0,.3,1.026h26.236a.563.563,0,0,0,.3-1.041Z" transform="translate(135.32 -423.714)" fill="none" stroke="#071354" stroke-linecap="round" stroke-linejoin="round" stroke-width="1.2"/>
    <rect id="Rectangle_34" data-name="Rectangle 34" width="28.871" height="2.147" transform="translate(0 24.453)" stroke-width="1.2" stroke="#071354" stroke-linecap="round" stroke-linejoin="round" fill="none"/>
    <circle id="Ellipse_10" data-name="Ellipse 10" cx="1.616" cy="1.616" r="1.616" transform="translate(12.82 3.822)" stroke-width="1.2" stroke="#071354" stroke-linecap="round" stroke-linejoin="round" fill="none"/>
  </g>
</svg>
