<svg id="Staking_Art" data-name="Staking Art" xmlns="http://www.w3.org/2000/svg" width="559.941" height="400" viewBox="0 0 559.941 400">
  <g id="Group_162" data-name="Group 162" transform="translate(332.682 121.676)">
    <g id="Group_103" data-name="Group 103" transform="translate(78.502 92.775)">
      <g id="Group_102" data-name="Group 102">
        <path id="Path_2500" data-name="Path 2500" d="M1203.879,1339.891c-.1.055-.2.112-.3.172a20.164,20.164,0,0,0-3.075,1.825,10.338,10.338,0,0,0-2.7,3.728,1.837,1.837,0,0,1-.69,1,.871.871,0,0,1-.934-.13c-.669-.537-.41-1.122-.447-1.927a.5.5,0,0,0-.125-.364.461.461,0,0,0-.308-.081,6.4,6.4,0,0,0-3,1.264c-.961.566-2.145,1.021-3.033.518a2.176,2.176,0,0,1-.887-2.2,5.359,5.359,0,0,1,1.109-2.423l.042-.056a12.919,12.919,0,0,1,5.036-3.806c1.367-.637,2.816-1.189,4.188-1.866a16.374,16.374,0,0,0,1.951-1.109,12.029,12.029,0,0,1,1.862-1.236,2.023,2.023,0,0,1,1.92.464,6.632,6.632,0,0,1,2.2,3.733,1.055,1.055,0,0,1,.054.5,1.144,1.144,0,0,1-.439.589A14.648,14.648,0,0,1,1203.879,1339.891Z" transform="translate(-1188.366 -1333.097)" fill="#ef9885"/>
      </g>
    </g>
    <g id="Group_107" data-name="Group 107" transform="translate(0 78.665)">
      <g id="Group_104" data-name="Group 104">
        <circle id="Ellipse_16" data-name="Ellipse 16" cx="54.535" cy="54.535" r="54.535" transform="matrix(0.448, -0.894, 0.894, 0.448, 0, 97.495)" fill="#ebcb45"/>
      </g>
      <g id="Group_105" data-name="Group 105" transform="translate(10.995 10.995)">
        <circle id="Ellipse_17" data-name="Ellipse 17" cx="46.245" cy="46.245" r="46.245" transform="translate(0 82.408) rotate(-62.998)" fill="#ffa513"/>
      </g>
      <g id="Group_106" data-name="Group 106" transform="translate(51.864 47.219)">
        <path id="Path_2501" data-name="Path 2501" d="M1188.49,1383.751c-1.451-4.129-5.506-5.337-9.412-3.965-1.62.566-3.495,2.354-2.812,4.306,2.017,5.746,23.635-3.343,28.235,9.766,3.054,8.7-3.993,14.685-10.629,17.013-.673.237-1.359.413-1.995.574l1.254,3.57-3.568,1.252-1.546-4.408a15.208,15.208,0,0,1-7.6-2.031l.892,4.51-9.763,3.427-4.933-14.056,10.379-3.642c1.644,4.685,6.6,3.824,8.983,3.114,1.951-.686,4.584-2.112,3.761-4.454-1.524-4.352-22.3,5.006-27.29-9.221-2.9-8.253,3.6-14.733,9.067-16.651a20.325,20.325,0,0,1,2.572-.713l-1.448-4.129,3.566-1.252,1.742,4.965a10.628,10.628,0,0,1,7.227,2.727l-1.086-4.88,9.592-3.367,4.91,14Z" transform="translate(-1161.727 -1366.206)" fill="#ededff"/>
      </g>
    </g>
    <g id="Group_109" data-name="Group 109" transform="translate(120.125)">
      <g id="Group_108" data-name="Group 108">
        <path id="Path_2502" data-name="Path 2502" d="M1230.174,1266.416l-.015-.125c-.2-1.674-.38-3.473.423-4.956,1.133-2.091,4.082-3.354,3.914-5.726-.07-.991-.724-1.878-.743-2.87a3.686,3.686,0,0,1,1.806-2.853,22.11,22.11,0,0,0,2.894-1.983c1.545-1.514,2.113-4.064,4.1-4.911,2.465-1.049,4.869,1,7.278,1.205,2.6.218,4.02-2.538,6.372-3.445a3.819,3.819,0,0,1,3.391-.049c.706.456,1.083,1.273,1.676,1.868a5.373,5.373,0,0,0,4.069,1.24c1.458-.059,2.906-.385,4.364-.31a8.2,8.2,0,0,1,7.47,6.962,13.59,13.59,0,0,0,.283,2.164c.7,2.405,3.493,3.408,5.919,4.03s5.225,1.533,6.043,3.9a3.854,3.854,0,0,1-1.109,4.081c-1.867,1.6-5.3,1.465-6.066,3.8-.61,1.847,1.075,3.629,1.384,5.549a4.126,4.126,0,0,1-2.352,4.308c-1.851.807-4.171.174-5.866,1.269-1.192.768-1.75,2.183-2.413,3.436s-1.7,2.537-3.116,2.594c-1.61.066-2.83-1.467-4.386-1.882-2.007-.536-3.991.878-5.439,2.367s-2.886,3.24-4.923,3.645c-3.378.671-6.313-2.668-9.748-2.919-2.154-.157-4.521.886-6.367-.235a5.128,5.128,0,0,1-2.024-3.6,18.66,18.66,0,0,0-.868-4.153c-.923-2.125-2.852-3.787-4.029-5.784A16.488,16.488,0,0,1,1230.174,1266.416Z" transform="translate(-1229.988 -1240.322)" fill="#6a243c"/>
      </g>
    </g>
    <g id="Group_110" data-name="Group 110" transform="translate(201.501 260.191)">
      <path id="Path_2503" data-name="Path 2503" d="M1311.365,1510.727c0-.113.009-.227.02-.339a25.9,25.9,0,0,1,1.174-3.962,19.5,19.5,0,0,0,.316-5.39.435.435,0,0,1,.585-.517l3.947.322a.635.635,0,0,1,.743.71c.225,2.8.822,5.988.354,8.777-.477,2.835-5.452,4.714-6.922,1.563A2.638,2.638,0,0,1,1311.365,1510.727Z" transform="translate(-1311.364 -1500.512)" fill="#ef9885"/>
    </g>
    <g id="Group_111" data-name="Group 111" transform="translate(193.558 266.251)">
      <path id="Path_2504" data-name="Path 2504" d="M1303.941,1510.686a3.755,3.755,0,0,1,.753-.549c1.6-.91,3.351-1.485,5.025-2.234.825-.37,2.184-1.376,3.113-1.172a3.113,3.113,0,0,1,.754.35,3.752,3.752,0,0,0,3.65-.122,1.945,1.945,0,0,1,.824-.384c1.309-.1,1.293,3.1,1.395,3.856a3.077,3.077,0,0,1-.148,1.894c-1.031,1.88-5.823,1.031-7.609,1.031h-5.4c-.839,0-2.687-.488-2.864-1.459A1.356,1.356,0,0,1,1303.941,1510.686Z" transform="translate(-1303.422 -1506.573)" fill="#0f124a"/>
    </g>
    <g id="Group_112" data-name="Group 112" transform="translate(163.694 260.191)">
      <path id="Path_2505" data-name="Path 2505" d="M1273.558,1510.727c0-.113.009-.227.02-.339a25.9,25.9,0,0,1,1.174-3.962,19.5,19.5,0,0,0,.317-5.39.573.573,0,0,1,.1-.408.582.582,0,0,1,.487-.109l3.947.322a.636.636,0,0,1,.744.71c.225,2.8.821,5.988.353,8.777-.476,2.835-5.451,4.714-6.922,1.563A2.64,2.64,0,0,1,1273.558,1510.727Z" transform="translate(-1273.557 -1500.512)" fill="#ef9885"/>
    </g>
    <g id="Group_113" data-name="Group 113" transform="translate(155.751 266.251)">
      <path id="Path_2506" data-name="Path 2506" d="M1266.134,1510.686a3.759,3.759,0,0,1,.753-.549c1.6-.91,3.352-1.485,5.025-2.234.825-.37,2.185-1.376,3.114-1.172a3.1,3.1,0,0,1,.753.35,3.752,3.752,0,0,0,3.65-.122,1.943,1.943,0,0,1,.825-.384c1.308-.1,1.293,3.1,1.394,3.856a3.076,3.076,0,0,1-.147,1.894c-1.032,1.88-5.824,1.031-7.609,1.031h-5.4c-.839,0-2.686-.488-2.864-1.459A1.356,1.356,0,0,1,1266.134,1510.686Z" transform="translate(-1265.615 -1506.573)" fill="#0f124a"/>
    </g>
    <g id="Group_115" data-name="Group 115" transform="translate(89.373 44.424)">
      <g id="Group_114" data-name="Group 114">
        <path id="Path_2507" data-name="Path 2507" d="M1255.1,1286.214a18.177,18.177,0,0,0-2.8,2.475c-5.039,5.46-16.282,17.356-21.326,21.683-1.534,1.33-4.078,3.4-7.031,5.79-3.9,3.163-6.6,7.351-10.877,10.007-4.524,2.807-9.805,4.362-13.825,7.971a53.557,53.557,0,0,0,11.554,9.469,1.994,1.994,0,0,0,1.216.405c.614-.073,1.008-.665,1.343-1.185,5.406-8.406,15.927-11.608,24.072-17.4,7.339-5.218,12.029-12.784,18.912-18.335.117-.095.267-.2.384-.29l2.152-1.808c4.637-4.211,6.226-8.221,5.323-14.44-.3-2.058-1.017-4.316-2.867-5.267C1259.15,1284.171,1256.961,1284.926,1255.1,1286.214Z" transform="translate(-1199.237 -1284.745)" fill="#6e9bda"/>
      </g>
    </g>
    <g id="Group_117" data-name="Group 117" transform="translate(129.132 12.036)">
      <g id="Group_116" data-name="Group 116">
        <path id="Path_2508" data-name="Path 2508" d="M1250.108,1301.376a7.212,7.212,0,0,0,2.961,1.684,15.319,15.319,0,0,0,3.928.067,22.378,22.378,0,0,0,4.49-.672,47.537,47.537,0,0,0,9.668-2.936c3.23-1.415,7.529-3.5,9.133-6.759,1.3-2.652,2.236-5.7,1.445-8.543a1.758,1.758,0,0,0-.341-.72c-.777-.863-2.083-.447-3.081-.62a34.352,34.352,0,0,0-5.454-.678,20.828,20.828,0,0,1-5.619-.436,21.442,21.442,0,0,1-4.342-1.858,8.07,8.07,0,0,1-2.749-2.216c-1.488-2.032-3.006-4.522-2.4-7.089,1.969-8.274-2.952-22.04-13.92-17.258a8.053,8.053,0,0,0-4.118,4.322c-1.4,3.36-.6,7.808,1.087,10.941a13.471,13.471,0,0,0,5.243,5.3c1.851,1.026,3.81,1.03,4.864,3.055a45.907,45.907,0,0,1,2.465,4.925c.908,2.387-.244,4.625-1.323,6.726-.508.989-1.2,1.867-1.762,2.821a9.916,9.916,0,0,0-1.078,3.247,24.581,24.581,0,0,0-.512,3.342,4.234,4.234,0,0,0,.153,1.644,4.048,4.048,0,0,0,1.055,1.519C1249.973,1301.249,1250.039,1301.313,1250.108,1301.376Z" transform="translate(-1238.996 -1252.358)" fill="#ef9885"/>
      </g>
    </g>
    <g id="Group_119" data-name="Group 119" transform="translate(128.9 11.21)">
      <g id="Group_118" data-name="Group 118">
        <path id="Path_2509" data-name="Path 2509" d="M1246.483,1259a50.222,50.222,0,0,1,12,6.076c1.3.914,3.54,3.706,5.095,2.835,1.82-1.019.924-4.067.751-5.511a12.479,12.479,0,0,0-8.052-9.839,19.4,19.4,0,0,0-9.936-.7c-1.875.325-8.213,1.687-7.526,3.928.424,1.38,3.023,1.818,4.439,2.2C1244.353,1258.287,1245.426,1258.624,1246.483,1259Z" transform="translate(-1238.763 -1251.532)" fill="#6a243c"/>
      </g>
    </g>
    <g id="Group_121" data-name="Group 121" transform="translate(134.713 27.759)">
      <g id="Group_120" data-name="Group 120">
        <path id="Path_2510" data-name="Path 2510" d="M1244.577,1271.288a3.756,3.756,0,1,0,6.793-3.207Z" transform="translate(-1244.577 -1268.081)" fill="#ededff"/>
      </g>
    </g>
    <g id="Group_123" data-name="Group 123" transform="translate(154.614 111.93)">
      <g id="Group_122" data-name="Group 122">
        <path id="Path_2511" data-name="Path 2511" d="M1326.778,1382.521a108.95,108.95,0,0,0-.954-12.755c-.7-5.094-3.632-12.419-4.332-17.513-.007-.053-2.3,2.127-2.309,2.073h-51.849q-.836,6.1-1.672,12.195c-2.91,21.234.4,42.624.855,63.884.114,5.38-.7,10.737-.86,16.117-.236,8.118,1.034,16.2,1.415,24.31.313,6.655.03,13.363,1.064,19.944a20.922,20.922,0,0,0,2.275,7.268,9.739,9.739,0,0,0,5.77,4.725,14.766,14.766,0,0,0,5.92-.086,5.708,5.708,0,0,0,2.763-.944,4.807,4.807,0,0,0,1.458-2.782c.981-4.379-.179-8.919-.324-13.4a76.406,76.406,0,0,1,.486-8.745c.92-11.124.408-22.32,1.514-33.433,1.192-11.983,3.488-23.949,5.245-35.87l1.74-11.8c.182-1.24.819-3.057.636-4.314l1.735,11.882c.617,4.229.9,8.68,1.873,12.837.956,4.095.454,7.913.661,12.115.164,3.324,1.075,6.568,1.387,9.88.359,3.818-.082,7.67.173,11.5a87.321,87.321,0,0,0,1.752,10.577,115.289,115.289,0,0,1,2.046,23.618c-.077,4.563-.4,9.27,1.178,13.55a8.414,8.414,0,0,0,3.205,4.375c1.976,1.222,4.466,1.116,6.785.969,3.629-.23,9.012,1.128,11.075-2.784a12.413,12.413,0,0,0,1.062-5.142,57.543,57.543,0,0,0-.642-14.778c-.572-2.792-1.492-5.5-2.132-8.277-1.231-5.336-1.417-10.849-1.6-16.321-.244-7.4-.488-14.811-.036-22.2.514-8.387,1.589-16.618,1.343-25.009-.121-4.155.732-8.5.981-12.663C1326.727,1391.188,1326.861,1386.854,1326.778,1382.521Z" transform="translate(-1264.478 -1352.252)" fill="#387e60"/>
      </g>
    </g>
    <g id="Group_124" data-name="Group 124" transform="translate(136.234 39.303)">
      <path id="Path_2512" data-name="Path 2512" d="M1246.377,1297.339a12.734,12.734,0,0,1,2.174-4.5c.556-.868,5.713-7.479,5.042-8,1.683,1.232,4.142.86,5.849-.339a13.943,13.943,0,0,0,3.835-4.875c4.763,3.417,10.768,1.893,16.206,2.974.494.1.987.332,1.484.461,2.882.75,5.295,2.366,7.777,3.959,11.8,7.614,19.716,22.3,25.343,34.789,2.023,4.488,2.918,9.422,4.969,13.883,1.9,4.144,3.831,7.86,4.847,12.424a97.147,97.147,0,0,1,1.762,12.493,52.4,52.4,0,0,0,.527,6.289c.378,1.743,1.2,3.521,1.74,5.247a23.558,23.558,0,0,1,.733,2.689c.258,1.362.136,3.04-1.052,3.754-1.086.653-2.459.159-3.694-.126-2.9-.669-6.171-.238-9.163-.632a87.931,87.931,0,0,0-9.573-1.019c-6.025-.131-12.056,1.4-18.039.672-5.067-.617-10.079-2.841-15.1-1.9-2.482.466-7.421,2.081-9.092-.765a6.365,6.365,0,0,1-.622-3.467c.13-3.743-.78-7.441-1.32-11.14-.622-4.267-1.185-8.542-1.78-12.813a99.242,99.242,0,0,0-3.424-15.846c-2.018-6.419-3.993-12.757-6.345-19.048-.565-1.51-1.418-2.9-1.944-4.449a26.942,26.942,0,0,1-1.264-5.367A16.577,16.577,0,0,1,1246.377,1297.339Z" transform="translate(-1246.098 -1279.625)" fill="#6e9bda"/>
    </g>
    <g id="Group_126" data-name="Group 126" transform="translate(100.932 111.147)">
      <g id="Group_125" data-name="Group 125">
        <path id="Path_2513" data-name="Path 2513" d="M1223.087,1353.05c-.1.061-.194.12-.293.177a20.173,20.173,0,0,1-3.081,1.817,10.345,10.345,0,0,1-4.564.569,1.827,1.827,0,0,0-1.208.124.87.87,0,0,0-.335.881c.148.844.786.9,1.474,1.319a.5.5,0,0,1,.259.284.467.467,0,0,1-.077.309,6.4,6.4,0,0,1-2.551,2.023c-.959.569-1.929,1.388-1.915,2.409a2.177,2.177,0,0,0,1.5,1.835,5.35,5.35,0,0,0,2.657.194l.07-.01a12.923,12.923,0,0,0,5.76-2.583c1.217-.892,2.4-1.9,3.651-2.774a16.591,16.591,0,0,1,1.911-1.176,12.029,12.029,0,0,0,1.979-1.036,2.027,2.027,0,0,0,.518-1.908,6.637,6.637,0,0,0-2.217-3.72,1.044,1.044,0,0,0-.413-.288,1.149,1.149,0,0,0-.728.1A14.752,14.752,0,0,0,1223.087,1353.05Z" transform="translate(-1210.796 -1351.469)" fill="#ef9885"/>
      </g>
    </g>
    <g id="Group_128" data-name="Group 128" transform="translate(110.905 51.766)">
      <g id="Group_127" data-name="Group 127">
        <path id="Path_2514" data-name="Path 2514" d="M1269.851,1301c-.272.485-.54.972-.81,1.454a116.037,116.037,0,0,1-45.383,44.872c-1.163.634-2.448,1.382-2.8,2.659-.441,1.609.809,3.145,1.966,4.348l6.464,6.721a1.693,1.693,0,0,0,.986.628c.528.047.957-.393,1.309-.79a41,41,0,0,1,12.806-9.678c3.166-1.527,6.517-2.641,9.69-4.153,10.736-5.118,15.912-14.582,23.769-22.791,5.8-6.053,11.5-13.013,12.34-21.35a11.718,11.718,0,0,0-1-6.648c-2.474-4.688-9.976-5.381-13.924-2.353C1272.891,1295.741,1271.325,1298.363,1269.851,1301Z" transform="translate(-1220.768 -1292.088)" fill="#6e9bda"/>
      </g>
    </g>
    <g id="Group_161" data-name="Group 161" transform="translate(92.292 6.212)">
      <g id="Group_129" data-name="Group 129" transform="translate(55.099 44.044)">
        <path id="Path_2515" data-name="Path 2515" d="M1262.434,1343.967a.491.491,0,0,1-.262-.906,62.4,62.4,0,0,0,14.2-12.32,112.157,112.157,0,0,0,9.972-14.389c2.675-4.385,5.085-8.709,5.212-13.4s-3.661-9.784-8.27-11.128a8.526,8.526,0,0,0-6.972,1.381,18.662,18.662,0,0,0-5.012,5.6,85.818,85.818,0,0,0-4.324,8.125c-2.4,4.922-4.877,10.013-8.9,13.871a.491.491,0,0,1-.681-.708c3.894-3.737,6.336-8.748,8.7-13.593a86.6,86.6,0,0,1,4.375-8.218,19.569,19.569,0,0,1,5.293-5.889,9.488,9.488,0,0,1,7.8-1.509c5,1.459,9.113,7,8.975,12.1-.131,4.933-2.608,9.384-5.353,13.887a113.479,113.479,0,0,1-10.062,14.514,63.431,63.431,0,0,1-14.428,12.513A.486.486,0,0,1,1262.434,1343.967Z" transform="translate(-1257.254 -1290.578)" fill="#4e7cbb"/>
      </g>
      <g id="Group_130" data-name="Group 130" transform="translate(45.377 49.582)">
        <path id="Path_2516" data-name="Path 2516" d="M1248.554,1311.1a.49.49,0,0,1-.485-.416,46.517,46.517,0,0,1,.01-14.154.469.469,0,0,1,.559-.41.489.489,0,0,1,.41.559,45.617,45.617,0,0,0-.01,13.855.491.491,0,0,1-.41.56A.469.469,0,0,1,1248.554,1311.1Z" transform="translate(-1247.532 -1296.115)" fill="#4e7cbb"/>
      </g>
      <g id="Group_131" data-name="Group 131" transform="translate(63.108 120.522)">
        <path id="Path_2517" data-name="Path 2517" d="M1306.11,1371.023q-1.159,0-2.323-.046c-2.872-.114-5.779-.446-8.591-.767-4.89-.561-9.944-1.138-14.879-.56-.839.1-1.7.226-2.559.354-4.346.642-8.838,1.312-12.3-1.31a.491.491,0,0,1,.594-.783c3.13,2.376,7.417,1.735,11.564,1.123.872-.13,1.739-.259,2.587-.358,5.043-.592,10.16-.008,15.106.558,2.794.32,5.682.65,8.517.763a56.6,56.6,0,0,0,20.369-2.915.491.491,0,1,1,.313.931A57.594,57.594,0,0,1,1306.11,1371.023Z" transform="translate(-1265.263 -1367.056)" fill="#4e7cbb"/>
      </g>
      <g id="Group_132" data-name="Group 132" transform="translate(121.007 124.687)">
        <path id="Path_2518" data-name="Path 2518" d="M1324.239,1377.594a.49.49,0,0,1-.488-.438l-.586-5.388a.487.487,0,0,1,.434-.54.481.481,0,0,1,.54.434l.588,5.388a.49.49,0,0,1-.436.54A.3.3,0,0,1,1324.239,1377.594Z" transform="translate(-1323.162 -1371.22)" fill="#4e7cbb"/>
      </g>
      <g id="Group_133" data-name="Group 133" transform="translate(116.348 124.195)">
        <path id="Path_2519" data-name="Path 2519" d="M1319.252,1377.359a.491.491,0,0,1-.486-.423,27.719,27.719,0,0,1-.195-5.751.517.517,0,0,1,.524-.456.493.493,0,0,1,.456.524,26.727,26.727,0,0,0,.187,5.547.489.489,0,0,1-.418.553A.317.317,0,0,1,1319.252,1377.359Z" transform="translate(-1318.503 -1370.729)" fill="#4e7cbb"/>
      </g>
      <g id="Group_134" data-name="Group 134" transform="translate(109.75 125.417)">
        <path id="Path_2520" data-name="Path 2520" d="M1312.418,1376.617a.491.491,0,0,1-.49-.465,15.984,15.984,0,0,1,.253-3.8.475.475,0,0,1,.574-.39.49.49,0,0,1,.39.573,15.107,15.107,0,0,0-.237,3.563.489.489,0,0,1-.464.516Z" transform="translate(-1311.905 -1371.951)" fill="#4e7cbb"/>
      </g>
      <g id="Group_135" data-name="Group 135" transform="translate(102.244 124.68)">
        <path id="Path_2521" data-name="Path 2521" d="M1304.891,1375.9a.561.561,0,0,1-.081-.007.492.492,0,0,1-.4-.565l.619-3.7a.491.491,0,0,1,.969.163l-.619,3.7A.493.493,0,0,1,1304.891,1375.9Z" transform="translate(-1304.399 -1371.214)" fill="#4e7cbb"/>
      </g>
      <g id="Group_136" data-name="Group 136" transform="translate(92.569 124.457)">
        <path id="Path_2522" data-name="Path 2522" d="M1295.229,1376.127a.49.49,0,0,1-.49-.468,12.107,12.107,0,0,1,.578-4.329.491.491,0,0,1,.934.3,11.152,11.152,0,0,0-.532,3.981.49.49,0,0,1-.467.513Z" transform="translate(-1294.725 -1370.99)" fill="#4e7cbb"/>
      </g>
      <g id="Group_137" data-name="Group 137" transform="translate(87.401 123.944)">
        <path id="Path_2523" data-name="Path 2523" d="M1290.095,1376.126a.493.493,0,0,1-.49-.457,20.132,20.132,0,0,1,.238-4.78.475.475,0,0,1,.567-.4.488.488,0,0,1,.4.566,19.109,19.109,0,0,0-.225,4.546.492.492,0,0,1-.456.524Z" transform="translate(-1289.557 -1370.477)" fill="#4e7cbb"/>
      </g>
      <g id="Group_138" data-name="Group 138" transform="translate(80.078 124.438)">
        <path id="Path_2524" data-name="Path 2524" d="M1282.724,1375.881a.492.492,0,0,1-.491-.491v-3.927a.491.491,0,0,1,.982,0v3.927A.492.492,0,0,1,1282.724,1375.881Z" transform="translate(-1282.233 -1370.972)" fill="#4e7cbb"/>
      </g>
      <g id="Group_139" data-name="Group 139" transform="translate(74.678 124.437)">
        <path id="Path_2525" data-name="Path 2525" d="M1277.325,1375.881h-.031a.491.491,0,0,1-.459-.522l.246-3.925a.491.491,0,0,1,.98.06l-.246,3.928A.491.491,0,0,1,1277.325,1375.881Z" transform="translate(-1276.834 -1370.971)" fill="#4e7cbb"/>
      </g>
      <g id="Group_140" data-name="Group 140" transform="translate(67.066 124.93)">
        <path id="Path_2526" data-name="Path 2526" d="M1269.715,1376.127a.491.491,0,0,1-.492-.482,12.7,12.7,0,0,1,.521-3.829.491.491,0,0,1,.942.28,11.562,11.562,0,0,0-.48,3.53.493.493,0,0,1-.482.5Z" transform="translate(-1269.221 -1371.464)" fill="#4e7cbb"/>
      </g>
      <g id="Group_141" data-name="Group 141" transform="translate(62.878 123.949)">
        <path id="Path_2527" data-name="Path 2527" d="M1265.547,1373.673a.492.492,0,0,1-.488-.445,6.057,6.057,0,0,1,.266-2.406.491.491,0,1,1,.934.3,5.063,5.063,0,0,0-.223,2.012.491.491,0,0,1-.443.535Z" transform="translate(-1265.034 -1370.483)" fill="#4e7cbb"/>
      </g>
      <g id="Group_142" data-name="Group 142" transform="translate(21.357 101.168)">
        <path id="Path_2528" data-name="Path 2528" d="M1232.675,1357.208a.5.5,0,0,1-.238-.061,23.182,23.182,0,0,1-8.859-8.71.492.492,0,0,1,.852-.491,22.159,22.159,0,0,0,8.483,8.341.491.491,0,0,1-.238.921Z" transform="translate(-1223.513 -1347.702)" fill="#4e7cbb"/>
      </g>
      <g id="Group_143" data-name="Group 143" transform="translate(2.331 85.871)">
        <path id="Path_2529" data-name="Path 2529" d="M1213.377,1340.114a.488.488,0,0,1-.236-.061,32.012,32.012,0,0,1-8.531-6.831.491.491,0,1,1,.735-.651,30.993,30.993,0,0,0,8.269,6.622.491.491,0,0,1-.237.921Z" transform="translate(-1204.486 -1332.405)" fill="#4e7cbb"/>
      </g>
      <g id="Group_144" data-name="Group 144" transform="translate(26.353 110.127)">
        <path id="Path_2530" data-name="Path 2530" d="M1229,1359.454a.492.492,0,0,1-.369-.816,8.017,8.017,0,0,1,2.557-1.931.491.491,0,1,1,.422.887,6.99,6.99,0,0,0-2.241,1.692A.493.493,0,0,1,1229,1359.454Z" transform="translate(-1228.508 -1356.661)" fill="#4e7cbb"/>
      </g>
      <g id="Group_145" data-name="Group 145" transform="translate(23.397 107.76)">
        <path id="Path_2531" data-name="Path 2531" d="M1226.044,1356.994a.491.491,0,0,1-.3-.879l2.206-1.716a.49.49,0,0,1,.6.773l-2.209,1.719A.488.488,0,0,1,1226.044,1356.994Z" transform="translate(-1225.553 -1354.294)" fill="#4e7cbb"/>
      </g>
      <g id="Group_146" data-name="Group 146" transform="translate(19.749 104.826)">
        <path id="Path_2532" data-name="Path 2532" d="M1222.4,1353.852a.491.491,0,0,1-.279-.894l2.183-1.511a.491.491,0,1,1,.558.808l-2.183,1.508A.479.479,0,0,1,1222.4,1353.852Z" transform="translate(-1221.905 -1351.36)" fill="#4e7cbb"/>
      </g>
      <g id="Group_147" data-name="Group 147" transform="translate(6.707 92.473)">
        <path id="Path_2533" data-name="Path 2533" d="M1209.353,1341.774a.484.484,0,0,1-.325-.123.492.492,0,0,1-.049-.686c.287-.338.563-.625.84-.911l.819-.889a.491.491,0,0,1,.735.651c-.287.337-.564.625-.84.911l-.819.888A.491.491,0,0,1,1209.353,1341.774Z" transform="translate(-1208.862 -1339.007)" fill="#4e7cbb"/>
      </g>
      <g id="Group_148" data-name="Group 148" transform="translate(0 87.169)">
        <path id="Path_2534" data-name="Path 2534" d="M1202.646,1336.838a.48.48,0,0,1-.144-.022.492.492,0,0,1-.325-.614,4.607,4.607,0,0,1,1.762-2.41.491.491,0,0,1,.561.806,3.605,3.605,0,0,0-1.384,1.893A.493.493,0,0,1,1202.646,1336.838Z" transform="translate(-1202.155 -1333.703)" fill="#4e7cbb"/>
      </g>
      <g id="Group_149" data-name="Group 149" transform="translate(3.489 89.859)">
        <path id="Path_2535" data-name="Path 2535" d="M1206.136,1339.3a.492.492,0,0,1-.353-.833,6.094,6.094,0,0,0,1.2-1.778.491.491,0,0,1,.9.4,7.071,7.071,0,0,1-1.394,2.063A.49.49,0,0,1,1206.136,1339.3Z" transform="translate(-1205.645 -1336.393)" fill="#4e7cbb"/>
      </g>
      <g id="Group_150" data-name="Group 150" transform="translate(50.332 36.038)">
        <path id="Path_2536" data-name="Path 2536" d="M1257.4,1291.087a10.808,10.808,0,0,1-4.628-1.032.491.491,0,0,1,.422-.887,9.783,9.783,0,0,0,13.637-6.238.5.5,0,0,1,.6-.342.491.491,0,0,1,.343.6,10.891,10.891,0,0,1-5.9,6.931A10.777,10.777,0,0,1,1257.4,1291.087Z" transform="translate(-1252.487 -1282.572)" fill="#4e7cbb"/>
      </g>
      <g id="Group_151" data-name="Group 151" transform="translate(61.645 34.421)">
        <path id="Path_2537" data-name="Path 2537" d="M1267.237,1283.9a.493.493,0,0,1-.272-.083l-2.946-1.961a.491.491,0,0,1,.544-.817l2.946,1.961a.491.491,0,0,1-.272.9Z" transform="translate(-1263.8 -1280.954)" fill="#4e7cbb"/>
      </g>
      <g id="Group_152" data-name="Group 152" transform="translate(59.448 37.588)">
        <path id="Path_2538" data-name="Path 2538" d="M1264.78,1287.329a.5.5,0,0,1-.314-.113l-2.685-2.225a.491.491,0,0,1,.626-.757l2.686,2.225a.492.492,0,0,1-.313.87Z" transform="translate(-1261.603 -1284.122)" fill="#4e7cbb"/>
      </g>
      <g id="Group_153" data-name="Group 153" transform="translate(51.096 39.541)">
        <path id="Path_2539" data-name="Path 2539" d="M1253.742,1289.99h-.03a.491.491,0,0,1-.46-.52,12.949,12.949,0,0,1,.562-3.052.5.5,0,0,1,.614-.322.489.489,0,0,1,.322.614,11.929,11.929,0,0,0-.518,2.82A.493.493,0,0,1,1253.742,1289.99Z" transform="translate(-1253.251 -1286.074)" fill="#4e7cbb"/>
      </g>
      <g id="Group_154" data-name="Group 154" transform="translate(57.721 38.937)">
        <path id="Path_2540" data-name="Path 2540" d="M1262.5,1289.487a.491.491,0,0,1-.4-.21l-2.131-3.035a.491.491,0,0,1,.8-.564l2.131,3.035a.493.493,0,0,1-.4.774Z" transform="translate(-1259.876 -1285.47)" fill="#4e7cbb"/>
      </g>
      <g id="Group_155" data-name="Group 155" transform="translate(54.79 39.898)">
        <path id="Path_2541" data-name="Path 2541" d="M1257.689,1290.865a.437.437,0,0,1-.063,0,.6.6,0,0,1-.5-.551,18.8,18.8,0,0,1-.161-3.408.49.49,0,0,1,.98.043,17.9,17.9,0,0,0,.121,2.989.593.593,0,0,1,.116.619A.559.559,0,0,1,1257.689,1290.865Zm.407-.693h0Z" transform="translate(-1256.945 -1286.432)" fill="#4e7cbb"/>
      </g>
      <g id="Group_156" data-name="Group 156" transform="translate(37.955 4.657)">
        <path id="Path_2542" data-name="Path 2542" d="M1268.412,1277.209a5.974,5.974,0,0,1-3.631-1.092,3.889,3.889,0,0,1-1.447-4.276c.053-.144.117-.284.18-.423a2.511,2.511,0,0,0,.223-.622c.107-.705-.483-1.2-1.47-1.93a4.2,4.2,0,0,1-2.01-2.5,3.79,3.79,0,0,1,.079-1.258c.026-.141.052-.284.069-.426a3.731,3.731,0,0,0-2.126-3.749,8.7,8.7,0,0,0-2.533-.523c-1.439-.155-2.927-.316-3.931-1.47a5.586,5.586,0,0,1-.513-.725c-.109-.172-.217-.345-.342-.505a4.989,4.989,0,0,0-3.611-1.557c-.362-.038-.728-.064-1.093-.09a11.48,11.48,0,0,1-3.406-.591c-1.53-.59-2.952-2.106-2.713-3.858a.482.482,0,0,1,.553-.42.491.491,0,0,1,.419.553c-.167,1.233.954,2.368,2.095,2.811a10.671,10.671,0,0,0,3.121.526c.376.026.752.053,1.125.092a5.889,5.889,0,0,1,4.283,1.93,6.758,6.758,0,0,1,.4.585,4.729,4.729,0,0,0,.423.6c.751.864,1.988,1,3.3,1.139a9.423,9.423,0,0,1,2.826.6,4.688,4.688,0,0,1,2.7,4.768c-.021.16-.049.32-.078.48a2.962,2.962,0,0,0-.073.937c.11.735.845,1.279,1.623,1.856.965.714,2.058,1.526,1.857,2.865a3.353,3.353,0,0,1-.3.881c-.053.118-.108.235-.151.355a2.93,2.93,0,0,0,1.117,3.157,5.353,5.353,0,0,0,3.664.865.469.469,0,0,1,.531.446.491.491,0,0,1-.447.531C1268.881,1277.2,1268.645,1277.209,1268.412,1277.209Z" transform="translate(-1240.111 -1251.191)" fill="#94435b"/>
      </g>
      <g id="Group_157" data-name="Group 157" transform="translate(40.77 3.352)">
        <path id="Path_2543" data-name="Path 2543" d="M1277.441,1271.686a6.8,6.8,0,0,1-4.915-2.074,13.768,13.768,0,0,1-.957-1.183,5.019,5.019,0,0,0-2.108-1.956,4.842,4.842,0,0,0-.777-.179,6.186,6.186,0,0,1-.908-.214c-2.049-.7-2.791-3.089-3.333-4.834-.5-1.6-1.437-3.537-3.066-3.641a3.935,3.935,0,0,0-.531.01,3.353,3.353,0,0,1-3.488-2.073c-.2-.269-.4-.539-.616-.783a5.28,5.28,0,0,0-4.518-1.747c-.218.026-.437.064-.656.1a4.557,4.557,0,0,1-2.111.027,4.508,4.508,0,0,1-1.666-1.081,7.955,7.955,0,0,0-.669-.555,3.61,3.61,0,0,0-3.5-.335.491.491,0,1,1-.4-.9,4.606,4.606,0,0,1,4.472.429,8.87,8.87,0,0,1,.755.623,2.618,2.618,0,0,0,2.958.819c.237-.041.475-.081.712-.109a6.263,6.263,0,0,1,5.369,2.077c.228.262.445.55.661.84.6.8,1.168,1.558,1.985,1.677a3.745,3.745,0,0,0,.662,0,5.876,5.876,0,0,1,.65-.01c1.729.111,3.092,1.608,3.94,4.329.506,1.631,1.136,3.66,2.713,4.2a5.252,5.252,0,0,0,.764.175,5.873,5.873,0,0,1,.931.221,5.811,5.811,0,0,1,2.568,2.293,13.01,13.01,0,0,0,.886,1.1,5.794,5.794,0,0,0,6,1.463.49.49,0,1,1,.326.925A6.367,6.367,0,0,1,1277.441,1271.686Z" transform="translate(-1242.926 -1249.885)" fill="#94435b"/>
      </g>
      <g id="Group_158" data-name="Group 158" transform="translate(44.03)">
        <path id="Path_2544" data-name="Path 2544" d="M1274.639,1258.426a5.026,5.026,0,0,1-4.034-2.058,9.346,9.346,0,0,1-1.015-2c-.165-.407-.331-.814-.534-1.2a2.784,2.784,0,0,0-2.149-1.686h-.067a3.589,3.589,0,0,0-1.064.292,4.3,4.3,0,0,1-1.4.353c-.028,0-.056,0-.082,0a4.431,4.431,0,0,1-2.932-1.654c-.263-.255-.524-.508-.794-.73a5.172,5.172,0,0,0-4.175-1.035c-.234.047-.469.11-.7.174a3.365,3.365,0,0,1-3.59-.489c-.132-.092-.264-.185-.4-.269a4.35,4.35,0,0,0-4.734.169.49.49,0,1,1-.574-.795,5.348,5.348,0,0,1,5.825-.207c.151.092.3.195.442.3a2.453,2.453,0,0,0,2.778.347c.254-.068.509-.136.762-.187a6.088,6.088,0,0,1,4.991,1.238c.291.238.574.511.856.784a3.733,3.733,0,0,0,2.3,1.377,3.553,3.553,0,0,0,1.082-.291,4.34,4.34,0,0,1,1.37-.354,3.581,3.581,0,0,1,3.128,2.208c.218.415.4.85.576,1.284a8.465,8.465,0,0,0,.9,1.8,4.14,4.14,0,0,0,3.384,1.648l.019,0a.491.491,0,0,1,.019.982C1274.76,1258.424,1274.7,1258.426,1274.639,1258.426Z" transform="translate(-1246.186 -1246.534)" fill="#94435b"/>
      </g>
      <g id="Group_159" data-name="Group 159" transform="translate(31.557 14.024)">
        <path id="Path_2545" data-name="Path 2545" d="M1241.73,1283.663a.5.5,0,0,1-.164-.029,3.916,3.916,0,0,1-2.249-4.984c.051-.129.111-.256.171-.384a2.674,2.674,0,0,0,.249-.668c.108-.688-.42-1.212-1.305-1.994a4.2,4.2,0,0,1-1.745-2.557,3.82,3.82,0,0,1,.188-1.372,3.942,3.942,0,0,0,.166-.855c.033-.941-.66-1.669-1.463-2.511a6.739,6.739,0,0,1-1.671-2.346c-.635-1.837.407-3.739,1.385-5.189a.491.491,0,1,1,.814.55c-.85,1.261-1.764,2.892-1.271,4.318a5.968,5.968,0,0,0,1.454,1.989c.874.919,1.781,1.869,1.732,3.225a4.749,4.749,0,0,1-.2,1.074,3.037,3.037,0,0,0-.16,1.024c.068.72.724,1.3,1.419,1.914.854.757,1.823,1.613,1.623,2.884a3.463,3.463,0,0,1-.33.934c-.052.11-.1.22-.15.332a2.94,2.94,0,0,0,1.667,3.691.491.491,0,0,1-.163.954Z" transform="translate(-1233.713 -1260.558)" fill="#94435b"/>
      </g>
      <g id="Group_160" data-name="Group 160" transform="translate(41.57 29.464)">
        <path id="Path_2546" data-name="Path 2546" d="M1249.257,1286.963a.486.486,0,0,1-.188-.038c-.686-.284-1.962-.813-2.3-1.98a3.522,3.522,0,0,1-.014-1.466,2.384,2.384,0,0,0-.009-1.119c-.174-.467-.706-.758-1.271-1.065l-.252-.139c-1.082-.607-1.631-1.471-1.47-2.311a2.518,2.518,0,0,1,.251-.657c.045-.092.092-.184.128-.279a1.213,1.213,0,0,0-.164-1.126.491.491,0,0,1,.784-.591,2.182,2.182,0,0,1,.3,2.059,4.036,4.036,0,0,1-.17.375,1.75,1.75,0,0,0-.165.4c-.092.476.45.969.988,1.271l.241.132a3.29,3.29,0,0,1,1.72,1.584,3.217,3.217,0,0,1,.062,1.594,2.684,2.684,0,0,0-.014,1.062c.189.658.992,1.039,1.731,1.346a.491.491,0,0,1-.188.944Z" transform="translate(-1243.725 -1275.998)" fill="#94435b"/>
      </g>
    </g>
  </g>
  <g id="Group_186" data-name="Group 186" transform="translate(66.598 73.799)">
    <g id="Group_163" data-name="Group 163">
      <path id="Path_2547" data-name="Path 2547" d="M1020.427,1339.985q2.406-3.444,4.446-7.018a89.341,89.341,0,0,0,11.413-51.886,88.31,88.31,0,0,0-2.885-16.341,89.416,89.416,0,0,0-28.591-44.8q-3.155-2.658-6.59-5.059c-2.3-1.6-4.63-3.082-7.019-4.447A89.913,89.913,0,0,0,878.174,1230.5q-2.658,3.154-5.058,6.59t-4.447,7.018a89.358,89.358,0,0,0-11.425,51.9,87.111,87.111,0,0,0,2.914,16.337,89.36,89.36,0,0,0,28.574,44.787q3.155,2.659,6.591,5.059t7.018,4.447a89.356,89.356,0,0,0,51.886,11.413,88.387,88.387,0,0,0,16.358-2.874,89.479,89.479,0,0,0,44.783-28.6Q1018.026,1343.422,1020.427,1339.985Z" transform="translate(-856.924 -1198.69)" fill="#bf4054"/>
    </g>
    <g id="Group_182" data-name="Group 182" transform="translate(0.32 0.319)">
      <g id="Group_165" data-name="Group 165" transform="translate(19.854 19.863)">
        <g id="Group_164" data-name="Group 164">
          <circle id="Ellipse_18" data-name="Ellipse 18" cx="60.093" cy="60.093" r="60.093" transform="matrix(0.985, -0.175, 0.175, 0.985, 0, 21.006)" fill="#ededff"/>
        </g>
      </g>
      <g id="Group_167" data-name="Group 167" transform="translate(31.488 84.775)">
        <g id="Group_166" data-name="Group 166">
          <path id="Path_2548" data-name="Path 2548" d="M902.341,1366.639l51.234-73.349-13.608-9.506-51.235,73.349q3.155,2.659,6.591,5.059T902.341,1366.639Z" transform="translate(-888.732 -1283.784)" fill="#ededff"/>
        </g>
      </g>
      <g id="Group_169" data-name="Group 169" transform="translate(11.425 31.489)">
        <g id="Group_168" data-name="Group 168">
          <path id="Path_2549" data-name="Path 2549" d="M942.018,1295.341l9.506-13.609-73.35-51.234q-2.658,3.154-5.058,6.59t-4.447,7.018Z" transform="translate(-868.669 -1230.498)" fill="#ededff"/>
        </g>
      </g>
      <g id="Group_171" data-name="Group 171" transform="translate(82.723 11.425)">
        <g id="Group_170" data-name="Group 170">
          <path id="Path_2550" data-name="Path 2550" d="M953.575,1293.29l51.235-73.35q-3.155-2.658-6.59-5.059c-2.3-1.6-4.63-3.082-7.019-4.447l-51.234,73.35Z" transform="translate(-939.967 -1210.434)" fill="#ededff"/>
        </g>
      </g>
      <g id="Group_173" data-name="Group 173" transform="translate(84.774 82.723)">
        <g id="Group_172" data-name="Group 172">
          <path id="Path_2551" data-name="Path 2551" d="M1020.427,1339.985q2.406-3.444,4.446-7.018l-73.349-51.235-9.506,13.609,73.35,51.234Q1018.026,1343.422,1020.427,1339.985Z" transform="translate(-942.018 -1281.732)" fill="#ededff"/>
        </g>
      </g>
      <g id="Group_175" data-name="Group 175" transform="translate(81.351 88.093)">
        <g id="Group_174" data-name="Group 174">
          <path id="Path_2552" data-name="Path 2552" d="M970.585,1375.178l-5.248-29.482-6.9-38.889-2.034-11.545-.863-4.779-.6-3.381-8.148,1.447-.017-.012-8.176,1.451.6,3.38.851,4.8,2.052,11.557,6.9,38.86,5.232,29.47A88.387,88.387,0,0,0,970.585,1375.178Z" transform="translate(-938.595 -1287.102)" fill="#ededff"/>
        </g>
      </g>
      <g id="Group_177" data-name="Group 177" transform="translate(0 81.368)">
        <g id="Group_176" data-name="Group 176">
          <path id="Path_2553" data-name="Path 2553" d="M948.222,1296.713l-1.451-8.176-.017-.012-1.446-8.148-19.7,3.5-38.889,6.9-29.47,5.231a87.111,87.111,0,0,0,2.914,16.337l84.684-15.033Z" transform="translate(-857.244 -1280.377)" fill="#ededff"/>
        </g>
      </g>
      <g id="Group_179" data-name="Group 179" transform="translate(65.73)">
        <g id="Group_178" data-name="Group 178">
          <path id="Path_2554" data-name="Path 2554" d="M954.936,1287.1l-.6-3.409-.847-4.767-2.051-11.557-6.9-38.89-5.232-29.47a89.423,89.423,0,0,0-16.324,2.9l5.231,29.47,6.887,38.878,2.068,11.568.835,4.784.6,3.381,8.176-1.451.017.012Z" transform="translate(-922.974 -1199.009)" fill="#ededff"/>
        </g>
      </g>
      <g id="Group_181" data-name="Group 181" transform="translate(88.064 65.731)">
        <g id="Group_180" data-name="Group 180">
          <path id="Path_2555" data-name="Path 2555" d="M1036.286,1281.081a88.31,88.31,0,0,0-2.885-16.341l-88.093,15.637,1.446,8.148.017.012,1.451,8.176,3.381-.6Z" transform="translate(-945.308 -1264.74)" fill="#ededff"/>
        </g>
      </g>
    </g>
    <g id="Group_183" data-name="Group 183" transform="translate(36.927 36.935)">
      <circle id="Ellipse_19" data-name="Ellipse 19" cx="52.917" cy="52.917" r="52.917" fill="#bf4054"/>
    </g>
    <g id="Group_184" data-name="Group 184" transform="translate(26.672 26.68)">
      <circle id="Ellipse_20" data-name="Ellipse 20" cx="44.916" cy="44.916" r="44.916" transform="matrix(0.777, -0.629, 0.629, 0.777, 0, 56.529)" fill="#ededff"/>
    </g>
    <g id="Group_185" data-name="Group 185" transform="translate(59.862 66.577)">
      <path id="Path_2556" data-name="Path 2556" d="M935.939,1291.234c-2.868,3.852-1.478,8.286,2.167,11,1.509,1.127,4.29,1.739,5.647-.082,3.991-5.362-17.555-19.462-8.444-31.7,6.046-8.12,15.818-5.376,22.011-.765.625.468,1.212.982,1.745,1.461l2.481-3.331,3.332,2.479-3.064,4.113a16.712,16.712,0,0,1,2.82,8.172l3.558-3.585,9.11,6.783-9.767,13.12-9.684-7.208c3.256-4.374-.574-8.362-2.682-10.093-1.823-1.355-4.735-2.877-6.363-.691-3.023,4.061,18.245,17.224,8.361,30.5-5.736,7.7-15.622,5.766-20.723,1.966a22.279,22.279,0,0,1-2.225-1.9l-2.869,3.851-3.332-2.48,3.449-4.632a11.666,11.666,0,0,1-1.949-8.248l-3.778,3.985-8.954-6.669,9.731-13.065Z" transform="translate(-916.786 -1265.267)" fill="#bf4054"/>
    </g>
  </g>
  <g id="Group_215" data-name="Group 215" transform="translate(0 109.858)">
    <g id="Group_187" data-name="Group 187" transform="translate(47.24 266.445)">
      <path id="Path_2557" data-name="Path 2557" d="M837.686,1507.449a57.164,57.164,0,0,1,.172-9.6c.231-2,.181-2.619,2.215-2.844a12.187,12.187,0,0,1,5.65.817,1.7,1.7,0,0,1,1.313,1.628c.322,2.053.16,4.075.591,6.078.527,2.453.926,4.942,1.348,7.422a5.555,5.555,0,0,1-.215,3.659,3.6,3.6,0,0,1-2.668,1.645,8.646,8.646,0,0,1-3.213-.3,7.054,7.054,0,0,1-3.445-1.631c-1.3-1.307-1.522-3.3-1.644-5.14Q837.733,1508.318,837.686,1507.449Z" transform="translate(-837.567 -1494.948)" fill="#ef9885"/>
    </g>
    <g id="Group_189" data-name="Group 189" transform="translate(46.506 278.302)">
      <g id="Group_188" data-name="Group 188">
        <path id="Path_2558" data-name="Path 2558" d="M856.193,1510.929l-4.713-2.339a13.811,13.811,0,0,0-4.124-1.522,27.2,27.2,0,0,0-5.136-.062c-1.166.058-3.661-.573-4.646.145-1.074.782-.665,3.986-.664,5.307,0,1.856-.007,4.181,1.835,4.982,2,.869,4.83.076,6.926.076h7.38c1.509,0,3.083.167,4.6.018a3.4,3.4,0,0,0,1.674-.514,2.712,2.712,0,0,0,.313-3.624,7.888,7.888,0,0,0-3.213-2.351Z" transform="translate(-836.833 -1506.805)" fill="#0f124a"/>
      </g>
    </g>
    <g id="Group_190" data-name="Group 190" transform="translate(11.828 266.445)">
      <path id="Path_2559" data-name="Path 2559" d="M802.274,1507.449a57.261,57.261,0,0,1,.171-9.6c.232-2,.182-2.619,2.216-2.844a12.187,12.187,0,0,1,5.65.817,2.168,2.168,0,0,1,.933.583,2.146,2.146,0,0,1,.379,1.045c.323,2.053.161,4.075.592,6.078.527,2.453.926,4.942,1.347,7.422a5.549,5.549,0,0,1-.214,3.659,3.6,3.6,0,0,1-2.668,1.645,8.644,8.644,0,0,1-3.213-.3,7.051,7.051,0,0,1-3.445-1.631c-1.3-1.307-1.522-3.3-1.644-5.14C802.34,1508.607,802.3,1508.028,802.274,1507.449Z" transform="translate(-802.154 -1494.948)" fill="#ef9885"/>
    </g>
    <g id="Group_192" data-name="Group 192" transform="translate(10.908 278.412)">
      <g id="Group_191" data-name="Group 191">
        <path id="Path_2560" data-name="Path 2560" d="M820.781,1510.929l-4.713-2.339a13.812,13.812,0,0,0-4.124-1.522,27.2,27.2,0,0,0-5.136-.062c-1.52.075-3.7-.443-4.786,1.006a4.63,4.63,0,0,0-.722,2.447,21,21,0,0,0,.009,3.42c.428,5.045,5.281,3.637,8.95,3.637h7.38c1.509,0,3.083.167,4.6.018a3.4,3.4,0,0,0,1.674-.514,2.713,2.713,0,0,0,.313-3.624,7.9,7.9,0,0,0-3.213-2.351Z" transform="translate(-801.235 -1506.915)" fill="#0f124a"/>
      </g>
    </g>
    <g id="Group_194" data-name="Group 194" transform="translate(3.341 121.549)">
      <g id="Group_193" data-name="Group 193">
        <path id="Path_2561" data-name="Path 2561" d="M799.754,1355.617c6.038-7.223,16.944-5.342,25.689-5.348,4.657,0,9.318,0,13.972.162,2.167.075,5.047-.2,7.105.648a12.53,12.53,0,0,1,6.8,6.871,24.817,24.817,0,0,1,1.309,7.487c.646,9.178,1.557,17.929,1.117,27.069-.953,19.807-1.684,39.625-2.47,59.44-.606,15.275-.95,30.592-1.9,45.852a66.851,66.851,0,0,1-13.609-.235,2.091,2.091,0,0,1-2.351-2,144.283,144.283,0,0,1-2.814-30.617c.111-7.312.778-14.657-.094-21.917-1.548-12.893-4.284-25.693-6.213-38.436-.624-4.12-.953-8.278-1.246-12.435-2.705,19.064-5.415,38.19-5.671,57.443-.087,6.523.109,13.05-.129,19.57a294.722,294.722,0,0,1-3.07,29.515l-14.711,1.115c.853-11.531-2.075-22.959-3.494-34.434-.751-6.071-1.08-12.186-1.409-18.294q-1.1-20.52-2.209-41.041c-.344-6.4-.553-12.8-.682-19.208-.113-5.634.917-11.545,1.428-17.308a28.761,28.761,0,0,1,3.093-11.632A14.886,14.886,0,0,1,799.754,1355.617Z" transform="translate(-793.668 -1350.053)" fill="#0f124a"/>
      </g>
    </g>
    <g id="Group_196" data-name="Group 196" transform="translate(25.218 8.564)">
      <g id="Group_195" data-name="Group 195">
        <path id="Path_2562" data-name="Path 2562" d="M819.076,1277.357a4.174,4.174,0,0,1-1.447-3.266c-.022.26,2.9-1.73,3.178-2.329.644-1.377.307-3.021.509-4.5.377-2.766.654-3-1.189-5.3-6.157-7.659-7.829-24.473,6.022-24.894a9.37,9.37,0,0,1,6.453,2.485c3.118,2.819,4.5,7.847,4.285,11.953a15.465,15.465,0,0,1-2.869,8.13c-1.421,1.991-3.473,2.955-3.572,5.591s-.061,6.992,2.038,8.934c.647.6,1.561,1.063,1.723,1.93a2.3,2.3,0,0,1-.765,1.871,8.584,8.584,0,0,1-6.212,2.6,12.458,12.458,0,0,1-6.547-1.967A8.932,8.932,0,0,1,819.076,1277.357Z" transform="translate(-815.544 -1237.067)" fill="#ef9885"/>
      </g>
    </g>
    <g id="Group_198" data-name="Group 198" transform="translate(34.483 24.626)">
      <g id="Group_197" data-name="Group 197">
        <path id="Path_2563" data-name="Path 2563" d="M834.456,1253.129a4.827,4.827,0,1,1-9.646.372Z" transform="translate(-824.81 -1253.129)" fill="#ededff"/>
      </g>
    </g>
    <g id="Group_200" data-name="Group 200" transform="translate(0 45.041)">
      <g id="Group_199" data-name="Group 199">
        <path id="Path_2564" data-name="Path 2564" d="M821.855,1275.288a4.723,4.723,0,0,0,3.283,2.207,6.1,6.1,0,0,0,5.882-2.736c.159-.254.329-.544.619-.621a1.087,1.087,0,0,1,.526.036,60.653,60.653,0,0,1,8.54,2.6c4.234,1.673,8.466,3.354,12.7,4.965a15.771,15.771,0,0,1,2.7.894c.912.573.837.906.954,2.052a59.884,59.884,0,0,1,.208,6.424c-.02,4.233-.137,8.573,1.219,12.642-.007-.021-1.641-.877-1.863-1.015a18.879,18.879,0,0,0-2.853-1.458,1.708,1.708,0,0,0-2.153.609,2.491,2.491,0,0,0-.138,1.288q1.05,14.972,2.1,29.945c.355,5.056.375,10.27,1.07,15.288.552,3.984,1.7,7.95,2.3,11.983q1.193,8.023,2.887,15.961c.164.77.253,1.745-.406,2.174a1.968,1.968,0,0,1-1.06.216l-13.969.206c-5.6.082-11.278.157-16.735-1.127-2.775-.653-5.465-1.652-8.264-2.2-8.031-1.57-16.264.673-24.442.968-1.606.058-3.53-.137-4.29-1.553a4.479,4.479,0,0,1-.316-2.366c.742-14.416,3.749-28.66,4.172-43.089.149-5.072-.022-10.152.229-15.219a91.356,91.356,0,0,1,5.048-25.717,22.164,22.164,0,0,1,15.353-14.353c1.946-.566,4.022-1.224,5.4-.266A6.651,6.651,0,0,1,821.855,1275.288Z" transform="translate(-790.327 -1273.544)" fill="#e39363"/>
      </g>
    </g>
    <g id="Group_202" data-name="Group 202" transform="translate(17.039)">
      <g id="Group_201" data-name="Group 201">
        <path id="Path_2565" data-name="Path 2565" d="M836.284,1235.514a3.882,3.882,0,0,1,.207.789c.711,4.709-4.133,4.306-7.126,4.726a22.476,22.476,0,0,0-4.563,1.133,11.772,11.772,0,0,0-3.564,1.919c-2.214,1.85-3.142,4.779-3.363,7.568a16,16,0,0,0,.163,4.1c.279,1.514,2.1,3.536.2,4.28-1.411.553-3.237-1.291-3.842-2.331-.974-1.673-1.473-3.728-3.013-4.9a10.671,10.671,0,0,1-2.005-1.455c-1.551-1.9.564-4.9-.4-7.155a19.464,19.464,0,0,0-1.134-1.791c-1.328-2.367.257-5.559,2.7-6.75a6.265,6.265,0,0,0,2.64-1.606c.311-.445.442-.992.735-1.448.8-1.242,2.515-1.469,3.987-1.354s3.024.432,4.375-.165c1.652-.731,2.84-2.755,4.636-2.556,2.018.223,2.664,3.021,4.5,3.894a15.384,15.384,0,0,0,2.208.571A4.227,4.227,0,0,1,836.284,1235.514Z" transform="translate(-807.366 -1228.503)" fill="#0f124a"/>
      </g>
    </g>
    <g id="Group_206" data-name="Group 206" transform="translate(12.904 62.448)">
      <g id="Group_204" data-name="Group 204" transform="translate(79.284 47.605)">
        <g id="Group_203" data-name="Group 203">
          <path id="Path_2566" data-name="Path 2566" d="M886.586,1339.241c.094.029.189.057.284.082a16.109,16.109,0,0,0,2.977.82,7.9,7.9,0,0,0,3.846-.713,1.409,1.409,0,0,1,1.011-.213.849.849,0,0,1,.506.711c.1.806-.4,1.029-.841,1.595a.476.476,0,0,0-.133.327.462.462,0,0,0,.143.26,5.306,5.306,0,0,0,2.6,1.149,2.877,2.877,0,0,1,2.192,1.673,2.125,2.125,0,0,1-.724,2.071,4.177,4.177,0,0,1-2.1.891l-.058.01a10.113,10.113,0,0,1-5.351-.8c-1.223-.482-2.445-1.077-3.695-1.536a13.365,13.365,0,0,0-1.86-.553,9.518,9.518,0,0,1-1.878-.408,2.016,2.016,0,0,1-.926-1.592,6.714,6.714,0,0,1,.8-3.976.945.945,0,0,1,.258-.373.873.873,0,0,1,.616-.1A11.8,11.8,0,0,1,886.586,1339.241Z" transform="translate(-882.515 -1338.556)" fill="#ef9885"/>
        </g>
      </g>
      <g id="Group_205" data-name="Group 205">
        <path id="Path_2567" data-name="Path 2567" d="M806.68,1292.184l-1.326-1.233,1.912,1.3c2.861-1.89,6.89-1.134,9.65.933,2.88,2.156,4.333,5.2,6.139,8.18a24.351,24.351,0,0,0,2.65,3.464l33.773,23.036c6.144,2.114,12.43,3.785,18.3,5.354,1.8.481,3.742,1.021,4.917,2.472.524.647.856,1.433,1.382,2.079a5.566,5.566,0,0,0,2.726,1.663,9.2,9.2,0,0,1-1.683,4.309,2.989,2.989,0,0,1-1.056.9l.21.143-.357-.07c-.337.065-.743-.036-1.717.042-3.212.259-6.153,1.313-9.327,1.768-5.4.775-10.7-1.526-15.788-3.5-11.26-4.374-23.141-7.421-33.549-13.551s-19.458-16.254-20.269-28.306C803.042,1297.8,803.771,1293.9,806.68,1292.184Z" transform="translate(-803.23 -1290.951)" fill="#e39363"/>
      </g>
    </g>
    <g id="Group_211" data-name="Group 211" transform="translate(8.161 47.05)">
      <g id="Group_207" data-name="Group 207" transform="translate(5.507 7.358)">
        <path id="Path_2568" data-name="Path 2568" d="M850.642,1339.951c-5.4,0-10.407-2.965-15.478-6.283-6.584-4.307-13.393-8.762-19.094-14.445-6.4-6.38-10.446-13.55-11.7-20.732-.743-4.248-.376-7.912,1.093-10.887,1.21-2.455,2.916-4.019,4.933-4.522a7.1,7.1,0,0,1,5.9,1.461,23.108,23.108,0,0,1,4.336,4.478c.663.822,1.4,1.641,2.171,2.508a32.5,32.5,0,0,1,4.455,5.786,33.485,33.485,0,0,1,1.547,3.455,30.571,30.571,0,0,0,1.722,3.764,46.734,46.734,0,0,0,10.745,12.775.491.491,0,0,1-.626.757,47.746,47.746,0,0,1-10.971-13.042,31.339,31.339,0,0,1-1.78-3.886,32.5,32.5,0,0,0-1.5-3.355,31.767,31.767,0,0,0-4.323-5.6c-.784-.877-1.525-1.7-2.2-2.548a22.379,22.379,0,0,0-4.143-4.3,6.161,6.161,0,0,0-5.094-1.307,6.924,6.924,0,0,0-4.293,4c-1.373,2.785-1.711,6.245-1.006,10.284,1.221,6.982,5.173,13.969,11.43,20.207,5.629,5.611,12.394,10.037,18.937,14.317,5.327,3.486,10.562,6.583,16.161,6.069a.483.483,0,0,1,.533.445.491.491,0,0,1-.445.532C851.511,1339.932,851.074,1339.951,850.642,1339.951Z" transform="translate(-803.995 -1282.911)" fill="#b06132"/>
      </g>
      <g id="Group_208" data-name="Group 208" transform="translate(18.067)">
        <path id="Path_2569" data-name="Path 2569" d="M826.179,1282a10.816,10.816,0,0,1-3.575-.6,10.984,10.984,0,0,1-5.991-5.127.49.49,0,1,1,.865-.462,9.879,9.879,0,0,0,12.617,4.412c1.584-.682,3.331-2.1,3.487-4.022a.457.457,0,0,1,.528-.449.489.489,0,0,1,.449.528c-.189,2.36-2.23,4.049-4.075,4.844A10.91,10.91,0,0,1,826.179,1282Z" transform="translate(-816.555 -1275.553)" fill="#b06132"/>
      </g>
      <g id="Group_209" data-name="Group 209" transform="translate(0 91.366)">
        <path id="Path_2570" data-name="Path 2570" d="M844.181,1369.262a46.771,46.771,0,0,1-6.146-.541c-.877-.116-1.753-.232-2.63-.326a106,106,0,0,0-16.63-.027c-6.543.331-13.311.675-19.881-.474a.489.489,0,0,1-.4-.567.484.484,0,0,1,.568-.4c6.462,1.13,13.173.791,19.662.459a107.281,107.281,0,0,1,16.786.031c.884.095,1.767.212,2.653.33a32.719,32.719,0,0,0,8.374.39c.656-.084,1.315-.208,1.975-.332a12.561,12.561,0,0,1,5.65-.2.489.489,0,0,1,.345.6.5.5,0,0,1-.6.346,11.675,11.675,0,0,0-5.213.218c-.678.128-1.355.256-2.031.343A19.837,19.837,0,0,1,844.181,1369.262Z" transform="translate(-798.487 -1366.919)" fill="#b06132"/>
      </g>
      <g id="Group_210" data-name="Group 210" transform="translate(47.266 5.164)">
        <path id="Path_2571" data-name="Path 2571" d="M851.108,1300.916a.492.492,0,0,1-.484-.412L849,1290.62c-.5-3.068-1.072-6.544-3.14-9.1a.491.491,0,0,1,.762-.618c2.232,2.761,2.85,6.533,3.347,9.562l1.621,9.884a.49.49,0,0,1-.406.563A.528.528,0,0,1,851.108,1300.916Z" transform="translate(-845.753 -1280.717)" fill="#b06132"/>
      </g>
    </g>
    <g id="Group_214" data-name="Group 214" transform="translate(22.34 5.26)">
      <g id="Group_212" data-name="Group 212" transform="translate(6.114)">
        <path id="Path_2572" data-name="Path 2572" d="M819.416,1240.142a.487.487,0,0,1-.436-.268,1.962,1.962,0,0,1,.771-2.546,3.278,3.278,0,0,1,.688-.268,1.713,1.713,0,0,0,.587-.252,1.735,1.735,0,0,0,.386-.625c.065-.145.13-.29.206-.426a3.04,3.04,0,0,1,4.523-.743c.108.1.21.2.31.312a2.23,2.23,0,0,0,.437.394.378.378,0,0,0,.354.039.79.79,0,0,0,.053-.169,2.432,2.432,0,0,1,2.817-1.772,2.407,2.407,0,0,1,1.79,2.715.491.491,0,1,1-.966-.177,1.369,1.369,0,0,0-2.666-.611,1.726,1.726,0,0,1-.206.551,1.25,1.25,0,0,1-1.677.268,3,3,0,0,1-.652-.567c-.083-.087-.164-.176-.253-.255a2.059,2.059,0,0,0-3.006.493c-.064.114-.117.233-.17.352a2.051,2.051,0,0,1-1.583,1.413,2.5,2.5,0,0,0-.491.184,1,1,0,0,0-.379,1.244.491.491,0,0,1-.437.714Z" transform="translate(-818.781 -1233.763)" fill="#30347d"/>
      </g>
      <g id="Group_213" data-name="Group 213" transform="translate(0 3.51)">
        <path id="Path_2573" data-name="Path 2573" d="M814.668,1251.595a2.007,2.007,0,0,1-1.763-1.335,4.857,4.857,0,0,1-.232-1.937l.054-2.715a3.678,3.678,0,0,1,.559-2.229c.088-.112.188-.222.29-.331.175-.185.371-.4.346-.51a.907.907,0,0,0-.218-.278,3.286,3.286,0,0,1-.871-3.141,2.586,2.586,0,0,1,2.631-1.837.491.491,0,0,1,.437.54.485.485,0,0,1-.54.437,1.591,1.591,0,0,0-1.589,1.143,2.241,2.241,0,0,0,.575,2.11,1.694,1.694,0,0,1,.533.816,1.557,1.557,0,0,1-.586,1.39c-.081.087-.162.173-.23.261a2.8,2.8,0,0,0-.354,1.649l-.055,2.663a4.207,4.207,0,0,0,.162,1.607,1.057,1.057,0,0,0,.851.714h0a.491.491,0,0,1,0,.983Z" transform="translate(-812.667 -1237.272)" fill="#30347d"/>
      </g>
    </g>
  </g>
  <g id="Group_224" data-name="Group 224" transform="translate(80.479 367.663)">
    <g id="Group_216" data-name="Group 216">
      <rect id="Rectangle_43" data-name="Rectangle 43" width="176.914" height="32.337" fill="#e55d74"/>
    </g>
    <g id="Group_217" data-name="Group 217" transform="translate(80.623)" opacity="0.35">
      <rect id="Rectangle_44" data-name="Rectangle 44" width="15.667" height="32.337" fill="#ededff"/>
    </g>
    <g id="Group_218" data-name="Group 218" transform="translate(118.538)" opacity="0.35">
      <rect id="Rectangle_45" data-name="Rectangle 45" width="11.5" height="32.337" fill="#ededff"/>
    </g>
    <g id="Group_219" data-name="Group 219" transform="translate(144.639)" opacity="0.35">
      <rect id="Rectangle_46" data-name="Rectangle 46" width="8.366" height="32.337" fill="#ededff"/>
    </g>
    <g id="Group_220" data-name="Group 220" transform="translate(165.195)" opacity="0.35">
      <rect id="Rectangle_47" data-name="Rectangle 47" width="4.168" height="32.337" fill="#ededff"/>
    </g>
    <g id="Group_221" data-name="Group 221" transform="translate(46.876)" opacity="0.35">
      <rect id="Rectangle_48" data-name="Rectangle 48" width="11.5" height="32.337" fill="#ededff"/>
    </g>
    <g id="Group_222" data-name="Group 222" transform="translate(23.908)" opacity="0.35">
      <rect id="Rectangle_49" data-name="Rectangle 49" width="8.366" height="32.337" fill="#ededff"/>
    </g>
    <g id="Group_223" data-name="Group 223" transform="translate(7.552)" opacity="0.35">
      <rect id="Rectangle_50" data-name="Rectangle 50" width="4.167" height="32.337" fill="#ededff"/>
    </g>
  </g>
  <g id="Group_233" data-name="Group 233" transform="translate(72.396 335.326)">
    <g id="Group_225" data-name="Group 225">
      <rect id="Rectangle_51" data-name="Rectangle 51" width="176.914" height="32.337" fill="#387e60"/>
    </g>
    <g id="Group_226" data-name="Group 226" transform="translate(80.623)" opacity="0.35">
      <rect id="Rectangle_52" data-name="Rectangle 52" width="15.667" height="32.337" fill="#ededff"/>
    </g>
    <g id="Group_227" data-name="Group 227" transform="translate(118.538)" opacity="0.35">
      <rect id="Rectangle_53" data-name="Rectangle 53" width="11.5" height="32.337" fill="#ededff"/>
    </g>
    <g id="Group_228" data-name="Group 228" transform="translate(144.639)" opacity="0.35">
      <rect id="Rectangle_54" data-name="Rectangle 54" width="8.366" height="32.337" fill="#ededff"/>
    </g>
    <g id="Group_229" data-name="Group 229" transform="translate(165.195)" opacity="0.35">
      <rect id="Rectangle_55" data-name="Rectangle 55" width="4.167" height="32.337" fill="#ededff"/>
    </g>
    <g id="Group_230" data-name="Group 230" transform="translate(46.876)" opacity="0.35">
      <rect id="Rectangle_56" data-name="Rectangle 56" width="11.5" height="32.337" fill="#ededff"/>
    </g>
    <g id="Group_231" data-name="Group 231" transform="translate(23.908)" opacity="0.35">
      <rect id="Rectangle_57" data-name="Rectangle 57" width="8.366" height="32.337" fill="#ededff"/>
    </g>
    <g id="Group_232" data-name="Group 232" transform="translate(7.552)" opacity="0.35">
      <rect id="Rectangle_58" data-name="Rectangle 58" width="4.167" height="32.337" fill="#ededff"/>
    </g>
  </g>
  <g id="Group_242" data-name="Group 242" transform="translate(103.726 301.294)">
    <g id="Group_234" data-name="Group 234">
      <rect id="Rectangle_59" data-name="Rectangle 59" width="176.914" height="32.337" fill="#e55d74"/>
    </g>
    <g id="Group_235" data-name="Group 235" transform="translate(80.623)" opacity="0.35">
      <rect id="Rectangle_60" data-name="Rectangle 60" width="15.667" height="32.337" fill="#ededff"/>
    </g>
    <g id="Group_236" data-name="Group 236" transform="translate(118.538)" opacity="0.35">
      <rect id="Rectangle_61" data-name="Rectangle 61" width="11.5" height="32.337" fill="#ededff"/>
    </g>
    <g id="Group_237" data-name="Group 237" transform="translate(144.639)" opacity="0.35">
      <rect id="Rectangle_62" data-name="Rectangle 62" width="8.366" height="32.337" fill="#ededff"/>
    </g>
    <g id="Group_238" data-name="Group 238" transform="translate(165.195)" opacity="0.35">
      <rect id="Rectangle_63" data-name="Rectangle 63" width="4.167" height="32.337" fill="#ededff"/>
    </g>
    <g id="Group_239" data-name="Group 239" transform="translate(46.876)" opacity="0.35">
      <rect id="Rectangle_64" data-name="Rectangle 64" width="11.5" height="32.337" fill="#ededff"/>
    </g>
    <g id="Group_240" data-name="Group 240" transform="translate(23.908)" opacity="0.35">
      <rect id="Rectangle_65" data-name="Rectangle 65" width="8.366" height="32.337" fill="#ededff"/>
    </g>
    <g id="Group_241" data-name="Group 241" transform="translate(7.552)" opacity="0.35">
      <rect id="Rectangle_66" data-name="Rectangle 66" width="4.167" height="32.337" fill="#ededff"/>
    </g>
  </g>
  <g id="Group_251" data-name="Group 251" transform="translate(86.335 268.109)">
    <g id="Group_243" data-name="Group 243">
      <rect id="Rectangle_67" data-name="Rectangle 67" width="176.914" height="32.337" fill="#6e9bda"/>
    </g>
    <g id="Group_244" data-name="Group 244" transform="translate(80.623)" opacity="0.35">
      <rect id="Rectangle_68" data-name="Rectangle 68" width="15.667" height="32.337" fill="#ededff"/>
    </g>
    <g id="Group_245" data-name="Group 245" transform="translate(118.538)" opacity="0.35">
      <rect id="Rectangle_69" data-name="Rectangle 69" width="11.5" height="32.337" fill="#ededff"/>
    </g>
    <g id="Group_246" data-name="Group 246" transform="translate(144.639)" opacity="0.35">
      <rect id="Rectangle_70" data-name="Rectangle 70" width="8.366" height="32.337" fill="#ededff"/>
    </g>
    <g id="Group_247" data-name="Group 247" transform="translate(165.195)" opacity="0.35">
      <rect id="Rectangle_71" data-name="Rectangle 71" width="4.167" height="32.337" fill="#ededff"/>
    </g>
    <g id="Group_248" data-name="Group 248" transform="translate(46.876)" opacity="0.35">
      <rect id="Rectangle_72" data-name="Rectangle 72" width="11.5" height="32.337" fill="#ededff"/>
    </g>
    <g id="Group_249" data-name="Group 249" transform="translate(23.908)" opacity="0.35">
      <rect id="Rectangle_73" data-name="Rectangle 73" width="8.366" height="32.337" fill="#ededff"/>
    </g>
    <g id="Group_250" data-name="Group 250" transform="translate(7.552)" opacity="0.35">
      <rect id="Rectangle_74" data-name="Rectangle 74" width="4.167" height="32.337" fill="#ededff"/>
    </g>
  </g>
  <g id="Group_260" data-name="Group 260" transform="translate(315.14 326.468)">
    <g id="Group_252" data-name="Group 252">
      <rect id="Rectangle_75" data-name="Rectangle 75" width="151.972" height="71.594" transform="translate(151.972 71.611) rotate(-179.994)" fill="#a9ba0f"/>
    </g>
    <g id="Group_253" data-name="Group 253" transform="translate(9.101 9.1)">
      <rect id="Rectangle_76" data-name="Rectangle 76" width="53.396" height="133.773" transform="translate(133.778 0.015) rotate(90.006)" fill="#6d9a03"/>
    </g>
    <g id="Group_254" data-name="Group 254" transform="translate(134.099 0.335)">
      <path id="Path_2574" data-name="Path 2574" d="M1229.412,1454.228a8.78,8.78,0,1,0,8.781-8.779A8.779,8.779,0,0,0,1229.412,1454.228Z" transform="translate(-1229.412 -1445.449)" fill="#a9ba0f"/>
    </g>
    <g id="Group_255" data-name="Group 255" transform="translate(0.327 0.32)">
      <path id="Path_2575" data-name="Path 2575" d="M1095.64,1454.213a8.779,8.779,0,1,0,8.78-8.779A8.779,8.779,0,0,0,1095.64,1454.213Z" transform="translate(-1095.64 -1445.434)" fill="#a9ba0f"/>
    </g>
    <g id="Group_256" data-name="Group 256" transform="translate(134.093 53.731)">
      <path id="Path_2576" data-name="Path 2576" d="M1229.406,1507.624a8.78,8.78,0,1,0,8.781-8.779A8.781,8.781,0,0,0,1229.406,1507.624Z" transform="translate(-1229.406 -1498.845)" fill="#a9ba0f"/>
    </g>
    <g id="Group_257" data-name="Group 257" transform="translate(0.321 53.716)">
      <path id="Path_2577" data-name="Path 2577" d="M1095.634,1507.609a8.779,8.779,0,1,0,8.781-8.779A8.78,8.78,0,0,0,1095.634,1507.609Z" transform="translate(-1095.634 -1498.83)" fill="#a9ba0f"/>
    </g>
    <g id="Group_258" data-name="Group 258" transform="translate(56.187 16.002)">
      <path id="Path_2578" data-name="Path 2578" d="M1151.5,1480.917a19.8,19.8,0,1,0,19.805-19.8A19.8,19.8,0,0,0,1151.5,1480.917Z" transform="translate(-1151.5 -1461.116)" fill="#a9ba0f"/>
    </g>
    <g id="Group_259" data-name="Group 259" transform="translate(66.702 24.002)">
      <path id="Path_2579" data-name="Path 2579" d="M1174.55,1478.4a3.226,3.226,0,0,0-3.629-3.087c-.8.025-1.883.556-1.853,1.519.087,2.839,10.978,1.84,11.176,8.315.134,4.3-3.846,5.962-7.12,6.063-.333.011-.665-.006-.967-.026l.055,1.764-1.764.056-.068-2.175a7.135,7.135,0,0,1-3.093-1.975l-.236,2.131-4.821.15-.215-6.942,5.123-.159c.071,2.313,2.4,2.629,3.555,2.647.966-.03,2.338-.293,2.3-1.449-.069-2.15-10.619-.913-10.834-7.938-.128-4.075,3.669-6.04,6.372-6.123a9.158,9.158,0,0,1,1.239.043l-.063-2.039,1.764-.055.076,2.451a4.962,4.962,0,0,1,2.828,2.231l.2-2.324,4.737-.147.215,6.915Z" transform="translate(-1162.015 -1469.116)" fill="#6d9a03"/>
    </g>
  </g>
  <g id="Group_261" data-name="Group 261" transform="translate(517.161 85.345)">
    <path id="Path_2580" data-name="Path 2580" d="M1309.257,1211.224l-4.609,9.338-10.306,1.5,7.457,7.269-1.76,10.264,9.218-4.846,9.218,4.846-1.76-10.264,7.457-7.269-10.306-1.5Z" transform="translate(-1294.343 -1211.224)" fill="#ffa513"/>
  </g>
  <g id="Group_262" data-name="Group 262" transform="translate(482.645 15.854)">
    <path id="Path_2581" data-name="Path 2581" d="M1269.588,1143.89l-3.017,6.112-6.745.98,4.881,4.758-1.152,6.718,6.033-3.172,6.033,3.172-1.152-6.718,4.881-4.758-6.745-.98Z" transform="translate(-1259.826 -1143.89)" fill="#ffa513"/>
  </g>
  <g id="Group_263" data-name="Group 263" transform="translate(122.43)">
    <path id="Path_2582" data-name="Path 2582" d="M933.5,1128.036l-9.093,9.324-11.677-5.766,6.058,11.529-9.092,9.324,12.837-2.2,6.058,11.529,1.875-12.888,12.837-2.2-11.678-5.766Z" transform="translate(-909.699 -1128.036)" fill="#ffa513"/>
  </g>
  <g id="Group_264" data-name="Group 264" transform="translate(78.447 38.775)">
    <path id="Path_2583" data-name="Path 2583" d="M869.157,1170.554l4.636,6.784-5.019,6.506,7.885-2.313,4.636,6.784.237-8.214,7.885-2.313-7.738-2.763.237-8.214-5.019,6.506Z" transform="translate(-868.774 -1166.811)" fill="#ffa513"/>
  </g>
  <g id="Group_265" data-name="Group 265" transform="translate(539.299 32.196)">
    <path id="Path_2584" data-name="Path 2584" d="M1316.864,1163.975l4.636,6.784-5.019,6.506,7.885-2.313,4.636,6.784.237-8.214,7.885-2.313-7.738-2.763.237-8.214-5.019,6.506Z" transform="translate(-1316.481 -1160.232)" fill="#ffa513"/>
  </g>
</svg>
