<svg xmlns="http://www.w3.org/2000/svg" width="29.145" height="28.1" viewBox="0 0 29.145 28.1">
  <g id="Token_Price" data-name="Token Price" transform="translate(0.75 0.75)">
    <path id="Path_2473" data-name="Path 2473" d="M-223.134,276.886h-6.472V263.114h27.645v13.771h-6.392" transform="translate(229.606 -263.114)" fill="none" stroke="#071354" stroke-linecap="round" stroke-linejoin="round" stroke-width="1.5"/>
    <path id="Path_2474" data-name="Path 2474" d="M-223.134,272.05h-1.4a1.389,1.389,0,0,1-1.388-1.388v-1.324a1.389,1.389,0,0,1,1.388-1.388h17.5a1.388,1.388,0,0,1,1.388,1.388v1.324a1.388,1.388,0,0,1-1.388,1.388h-1.4" transform="translate(229.606 -263.114)" fill="none" stroke="#4ba0ea" stroke-linecap="round" stroke-linejoin="round" stroke-width="1.5"/>
    <path id="Path_2475" data-name="Path 2475" d="M-208.433,272.05v-4.1h-14.7v21.764h14.7V278.167" transform="translate(229.606 -263.114)" fill="none" stroke="#4ba0ea" stroke-linecap="round" stroke-linejoin="round" stroke-width="1.5"/>
    <path id="Path_2477" data-name="Path 2477" d="M-213.3,269.562h-6.559a1.117,1.117,0,0,1-1.224.964v13.819a1.117,1.117,0,0,1,1.224.964h6.559a1.117,1.117,0,0,1,1.224-.964V270.526A1.117,1.117,0,0,1-213.3,269.562Z" transform="translate(230.405 -261.718)" fill="none" stroke="#4ba0ea" stroke-linecap="round" stroke-linejoin="round" stroke-width="1.5"/>
    <circle id="Ellipse_9" data-name="Ellipse 9" cx="2" cy="2" r="2" transform="matrix(1, 0.017, -0.017, 1, 11.565, 14.289)" stroke-width="1.5" stroke="#4ba0ea" stroke-linecap="round" stroke-linejoin="round" fill="none"/>
  </g>
</svg>
