<svg id="Twitter" xmlns="http://www.w3.org/2000/svg" width="29.736" height="24.151" viewBox="0 0 29.736 24.151">
  <path id="Icon_awesome-twitter" data-name="Icon awesome-twitter" d="M26.679,9.4c.019.264.019.528.019.792,0,8.057-6.132,17.34-17.34,17.34A17.222,17.222,0,0,1,0,24.8a12.607,12.607,0,0,0,1.472.075,12.205,12.205,0,0,0,7.566-2.6,6.105,6.105,0,0,1-5.7-4.226,7.685,7.685,0,0,0,1.151.094,6.446,6.446,0,0,0,1.6-.208,6.1,6.1,0,0,1-4.887-5.981v-.075a6.138,6.138,0,0,0,2.755.774A6.1,6.1,0,0,1,2.075,4.494a17.323,17.323,0,0,0,12.566,6.377,6.88,6.88,0,0,1-.151-1.4,6.1,6.1,0,0,1,10.547-4.17,12,12,0,0,0,3.868-1.472,6.078,6.078,0,0,1-2.679,3.358,12.217,12.217,0,0,0,3.509-.943A13.1,13.1,0,0,1,26.679,9.4Z" transform="translate(0 -3.381)" fill="#bebebe"/>
</svg>
